/* XPM */
static const char *player_right_2_xpm[] = {
/* columns rows colors chars-per-pixel */
"64 64 5 1 ",
"  c #388700",
". c #FF8170",
"X c #64B0FF",
"o c #FFFFFF",
"O c None",
/* pixels */
"OOOOOOOOOOOO....ooooOOOOooooooooooooooooooooooooOOOOOOOOOOOOOOOO",
"OOOOOOOOOOOO....ooooOOOOooooooooooooooooooooooooOOOOOOOOOOOOOOOO",
"OOOOOOOOOOOO....ooooOOOOooooooooooooooooooooooooOOOOOOOOOOOOOOOO",
"OOOOOOOOOOOO....ooooOOOOooooooooooooooooooooooooOOOOOOOOOOOOOOOO",
"OOOOOOOOOOOOOOOOOOOOooooooooooooooooooooooooooooooooOOOOOOOOOOOO",
"OOOOOOOOOOOOOOOOOOOOooooooooooooooooooooooooooooooooOOOOOOOOOOOO",
"OOOOOOOOOOOOOOOOOOOOooooooooooooooooooooooooooooooooOOOOOOOOOOOO",
"OOOOOOOOOOOOOOOOOOOOooooooooooooooooooooooooooooooooOOOOOOOOOOOO",
"OOOOOOOOOOOOOOOOoooooooooooo........    ....    ....OOOOOOOOOOOO",
"OOOOOOOOOOOOOOOOoooooooooooo........    ....    ....OOOOOOOOOOOO",
"OOOOOOOOOOOOOOOOoooooooooooo........    ....    ....OOOOOOOOOOOO",
"OOOOOOOOOOOOOOOOoooooooooooo........    ....    ....OOOOOOOOOOOO",
"OOOOOOOOOOOOOOOOoooooooooooooooo....    ....    ....OOOOOOOOOOOO",
"OOOOOOOOOOOOOOOOoooooooooooooooo....    ....    ....OOOOOOOOOOOO",
"OOOOOOOOOOOOOOOOoooooooooooooooo....    ....    ....OOOOOOOOOOOO",
"OOOOOOOOOOOOOOOOoooooooooooooooo....    ....    ....OOOOOOOOOOOO",
"OOOOOOOOOOOOOOOOOOOOooooooooooooooooooooooooooooooooOOOOOOOOOOOO",
"OOOOOOOOOOOOOOOOOOOOooooooooooooooooooooooooooooooooOOOOOOOOOOOO",
"OOOOOOOOOOOOOOOOOOOOooooooooooooooooooooooooooooooooOOOOOOOOOOOO",
"OOOOOOOOOOOOOOOOOOOOooooooooooooooooooooooooooooooooOOOOOOOOOOOO",
"OOOOOOOOOOOOOOOOOOOOXXXXooooooooooooooooooooooooOOOOOOOOOOOOOOOO",
"OOOOOOOOOOOOOOOOOOOOXXXXooooooooooooooooooooooooOOOOOOOOOOOOOOOO",
"OOOOOOOOOOOOOOOOOOOOXXXXooooooooooooooooooooooooOOOOOOOOOOOOOOOO",
"OOOOOOOOOOOOOOOOOOOOXXXXooooooooooooooooooooooooOOOOOOOOOOOOOOOO",
"OOOOOOOOOOOOOOOOOOOOXXXXXXXXXXXXXXXXXXXXXXXXOOOOOOOOOOOOOOOOOOOO",
"OOOOOOOOOOOOOOOOOOOOXXXXXXXXXXXXXXXXXXXXXXXXOOOOOOOOOOOOOOOOOOOO",
"OOOOOOOOOOOOOOOOOOOOXXXXXXXXXXXXXXXXXXXXXXXXOOOOOOOOOOOOOOOOOOOO",
"OOOOOOOOOOOOOOOOOOOOXXXXXXXXXXXXXXXXXXXXXXXXOOOOOOOOOOOOOOOOOOOO",
"OOOOOOOOOOOOOOOOXXXXXXXXooooooooooooXXXXOOOO........OOOOOOOOOOOO",
"OOOOOOOOOOOOOOOOXXXXXXXXooooooooooooXXXXOOOO........OOOOOOOOOOOO",
"OOOOOOOOOOOOOOOOXXXXXXXXooooooooooooXXXXOOOO........OOOOOOOOOOOO",
"OOOOOOOOOOOOOOOOXXXXXXXXooooooooooooXXXXOOOO........OOOOOOOOOOOO",
"OOOOOOOO........XXXXXXXXoooooooooooooooooooo........OOOOOOOOOOOO",
"OOOOOOOO........XXXXXXXXoooooooooooooooooooo........OOOOOOOOOOOO",
"OOOOOOOO........XXXXXXXXoooooooooooooooooooo........OOOOOOOOOOOO",
"OOOOOOOO........XXXXXXXXoooooooooooooooooooo........OOOOOOOOOOOO",
"OOOOOOOO........XXXXXXXXXXXXooooooooooooooooOOOOOOOOOOOOOOOOOOOO",
"OOOOOOOO........XXXXXXXXXXXXooooooooooooooooOOOOOOOOOOOOOOOOOOOO",
"OOOOOOOO........XXXXXXXXXXXXooooooooooooooooOOOOOOOOOOOOOOOOOOOO",
"OOOOOOOO........XXXXXXXXXXXXooooooooooooooooOOOOOOOOOOOOOOOOOOOO",
"OOOOOOOOOOOOOOOOXXXXXXXXXXXXXXXXXXXXXXXXOOOOOOOO....OOOOOOOOOOOO",
"OOOOOOOOOOOOOOOOXXXXXXXXXXXXXXXXXXXXXXXXOOOOOOOO....OOOOOOOOOOOO",
"OOOOOOOOOOOOOOOOXXXXXXXXXXXXXXXXXXXXXXXXOOOOOOOO....OOOOOOOOOOOO",
"OOOOOOOOOOOOOOOOXXXXXXXXXXXXXXXXXXXXXXXXOOOOOOOO....OOOOOOOOOOOO",
"OOOOOOOOOOOOOOOOXXXXXXXXooooXXXXXXXXXXXXoooo........OOOOOOOOOOOO",
"OOOOOOOOOOOOOOOOXXXXXXXXooooXXXXXXXXXXXXoooo........OOOOOOOOOOOO",
"OOOOOOOOOOOOOOOOXXXXXXXXooooXXXXXXXXXXXXoooo........OOOOOOOOOOOO",
"OOOOOOOOOOOOOOOOXXXXXXXXooooXXXXXXXXXXXXoooo........OOOOOOOOOOOO",
"OOOOOOOOOOOOooooooooooooooooXXXXXXXXoooooooo........OOOOOOOOOOOO",
"OOOOOOOOOOOOooooooooooooooooXXXXXXXXoooooooo........OOOOOOOOOOOO",
"OOOOOOOOOOOOooooooooooooooooXXXXXXXXoooooooo........OOOOOOOOOOOO",
"OOOOOOOOOOOOooooooooooooooooXXXXXXXXoooooooo........OOOOOOOOOOOO",
"OOOOOOOO........ooooooooooooOOOOXXXXXXXXoooo........OOOOOOOOOOOO",
"OOOOOOOO........ooooooooooooOOOOXXXXXXXXoooo........OOOOOOOOOOOO",
"OOOOOOOO........ooooooooooooOOOOXXXXXXXXoooo........OOOOOOOOOOOO",
"OOOOOOOO........ooooooooooooOOOOXXXXXXXXoooo........OOOOOOOOOOOO",
"OOOOOOOOOOOO........OOOOOOOOOOOOOOOOOOOOOOOOOOOOOOOOOOOOOOOOOOOO",
"OOOOOOOOOOOO........OOOOOOOOOOOOOOOOOOOOOOOOOOOOOOOOOOOOOOOOOOOO",
"OOOOOOOOOOOO........OOOOOOOOOOOOOOOOOOOOOOOOOOOOOOOOOOOOOOOOOOOO",
"OOOOOOOOOOOO........OOOOOOOOOOOOOOOOOOOOOOOOOOOOOOOOOOOOOOOOOOOO",
"OOOOOOOOOOOOOOOO........OOOOOOOOOOOOOOOOOOOOOOOOOOOOOOOOOOOOOOOO",
"OOOOOOOOOOOOOOOO........OOOOOOOOOOOOOOOOOOOOOOOOOOOOOOOOOOOOOOOO",
"OOOOOOOOOOOOOOOO........OOOOOOOOOOOOOOOOOOOOOOOOOOOOOOOOOOOOOOOO",
"OOOOOOOOOOOOOOOO........OOOOOOOOOOOOOOOOOOOOOOOOOOOOOOOOOOOOOOOO"
};
