/* XPM */
static const char *player_left_3_xpm[] = {
/* columns rows colors chars-per-pixel */
"64 64 5 1 ",
"  c #388700",
". c #FF8170",
"X c #64B0FF",
"o c #FFFFFF",
"O c None",
/* pixels */
"OOOOOOOOOOOOooooooooooooooooooooooooOOOOoooo....OOOOOOOOOOOOOOOO",
"OOOOOOOOOOOOooooooooooooooooooooooooOOOOoooo....OOOOOOOOOOOOOOOO",
"OOOOOOOOOOOOooooooooooooooooooooooooOOOOoooo....OOOOOOOOOOOOOOOO",
"OOOOOOOOOOOOooooooooooooooooooooooooOOOOoooo....OOOOOOOOOOOOOOOO",
"OOOOOOOOooooooooooooooooooooooooooooooooOOOOOOOOOOOOOOOOOOOOOOOO",
"OOOOOOOOooooooooooooooooooooooooooooooooOOOOOOOOOOOOOOOOOOOOOOOO",
"OOOOOOOOooooooooooooooooooooooooooooooooOOOOOOOOOOOOOOOOOOOOOOOO",
"OOOOOOOOooooooooooooooooooooooooooooooooOOOOOOOOOOOOOOOOOOOOOOOO",
"OOOOOOOO....    ....    ........ooooooooooooOOOOOOOOOOOOOOOOOOOO",
"OOOOOOOO....    ....    ........ooooooooooooOOOOOOOOOOOOOOOOOOOO",
"OOOOOOOO....    ....    ........ooooooooooooOOOOOOOOOOOOOOOOOOOO",
"OOOOOOOO....    ....    ........ooooooooooooOOOOOOOOOOOOOOOOOOOO",
"OOOOOOOO....    ....    ....ooooooooooooooooOOOOOOOOOOOOOOOOOOOO",
"OOOOOOOO....    ....    ....ooooooooooooooooOOOOOOOOOOOOOOOOOOOO",
"OOOOOOOO....    ....    ....ooooooooooooooooOOOOOOOOOOOOOOOOOOOO",
"OOOOOOOO....    ....    ....ooooooooooooooooOOOOOOOOOOOOOOOOOOOO",
"OOOOOOOOooooooooooooooooooooooooooooooooOOOOOOOOOOOOOOOOOOOOOOOO",
"OOOOOOOOooooooooooooooooooooooooooooooooOOOOOOOOOOOOOOOOOOOOOOOO",
"OOOOOOOOooooooooooooooooooooooooooooooooOOOOOOOOOOOOOOOOOOOOOOOO",
"OOOOOOOOooooooooooooooooooooooooooooooooOOOOOOOOOOOOOOOOOOOOOOOO",
"OOOOOOOOOOOOooooooooooooooooooooooooXXXXOOOOOOOOOOOOOOOOOOOOOOOO",
"OOOOOOOOOOOOooooooooooooooooooooooooXXXXOOOOOOOOOOOOOOOOOOOOOOOO",
"OOOOOOOOOOOOooooooooooooooooooooooooXXXXOOOOOOOOOOOOOOOOOOOOOOOO",
"OOOOOOOOOOOOooooooooooooooooooooooooXXXXOOOOOOOOOOOOOOOOOOOOOOOO",
"OOOOOOOOOOOOOOOOXXXXXXXXXXXXXXXXXXXXXXXXOOOOOOOOOOOOOOOOOOOOOOOO",
"OOOOOOOOOOOOOOOOXXXXXXXXXXXXXXXXXXXXXXXXOOOOOOOOOOOOOOOOOOOOOOOO",
"OOOOOOOOOOOOOOOOXXXXXXXXXXXXXXXXXXXXXXXXOOOOOOOOOOOOOOOOOOOOOOOO",
"OOOOOOOOOOOOOOOOXXXXXXXXXXXXXXXXXXXXXXXXOOOOOOOOOOOOOOOOOOOOOOOO",
"OOOOOOOO........OOOOXXXXooooooooooooXXXXXXXXOOOOOOOOOOOOOOOOOOOO",
"OOOOOOOO........OOOOXXXXooooooooooooXXXXXXXXOOOOOOOOOOOOOOOOOOOO",
"OOOOOOOO........OOOOXXXXooooooooooooXXXXXXXXOOOOOOOOOOOOOOOOOOOO",
"OOOOOOOO........OOOOXXXXooooooooooooXXXXXXXXOOOOOOOOOOOOOOOOOOOO",
"OOOOOOOO........ooooooooooooooooooooXXXXXXXX........OOOOOOOOOOOO",
"OOOOOOOO........ooooooooooooooooooooXXXXXXXX........OOOOOOOOOOOO",
"OOOOOOOO........ooooooooooooooooooooXXXXXXXX........OOOOOOOOOOOO",
"OOOOOOOO........ooooooooooooooooooooXXXXXXXX........OOOOOOOOOOOO",
"OOOOOOOOOOOOOOOOooooooooooooooooXXXXXXXXXXXX........OOOOOOOOOOOO",
"OOOOOOOOOOOOOOOOooooooooooooooooXXXXXXXXXXXX........OOOOOOOOOOOO",
"OOOOOOOOOOOOOOOOooooooooooooooooXXXXXXXXXXXX........OOOOOOOOOOOO",
"OOOOOOOOOOOOOOOOooooooooooooooooXXXXXXXXXXXX........OOOOOOOOOOOO",
"OOOOOOOO....OOOOOOOOXXXXXXXXXXXXXXXXXXXXXXXXOOOOOOOOOOOOOOOOOOOO",
"OOOOOOOO....OOOOOOOOXXXXXXXXXXXXXXXXXXXXXXXXOOOOOOOOOOOOOOOOOOOO",
"OOOOOOOO....OOOOOOOOXXXXXXXXXXXXXXXXXXXXXXXXOOOOOOOOOOOOOOOOOOOO",
"OOOOOOOO....OOOOOOOOXXXXXXXXXXXXXXXXXXXXXXXXOOOOOOOOOOOOOOOOOOOO",
"OOOOOOOO........ooooXXXXXXXXXXXXooooXXXXXXXXOOOOOOOOOOOOOOOOOOOO",
"OOOOOOOO........ooooXXXXXXXXXXXXooooXXXXXXXXOOOOOOOOOOOOOOOOOOOO",
"OOOOOOOO........ooooXXXXXXXXXXXXooooXXXXXXXXOOOOOOOOOOOOOOOOOOOO",
"OOOOOOOO........ooooXXXXXXXXXXXXooooXXXXXXXXOOOOOOOOOOOOOOOOOOOO",
"OOOOOOOO........ooooooooXXXXXXXXooooooooooooooooOOOOOOOOOOOOOOOO",
"OOOOOOOO........ooooooooXXXXXXXXooooooooooooooooOOOOOOOOOOOOOOOO",
"OOOOOOOO........ooooooooXXXXXXXXooooooooooooooooOOOOOOOOOOOOOOOO",
"OOOOOOOO........ooooooooXXXXXXXXooooooooooooooooOOOOOOOOOOOOOOOO",
"OOOOOOOO........ooooXXXXXXXXOOOOoooooooooooo........OOOOOOOOOOOO",
"OOOOOOOO........ooooXXXXXXXXOOOOoooooooooooo........OOOOOOOOOOOO",
"OOOOOOOO........ooooXXXXXXXXOOOOoooooooooooo........OOOOOOOOOOOO",
"OOOOOOOO........ooooXXXXXXXXOOOOoooooooooooo........OOOOOOOOOOOO",
"OOOOOOOOOOOOOOOOOOOOOOOOOOOOOOOOOOOOOOOO........OOOOOOOOOOOOOOOO",
"OOOOOOOOOOOOOOOOOOOOOOOOOOOOOOOOOOOOOOOO........OOOOOOOOOOOOOOOO",
"OOOOOOOOOOOOOOOOOOOOOOOOOOOOOOOOOOOOOOOO........OOOOOOOOOOOOOOOO",
"OOOOOOOOOOOOOOOOOOOOOOOOOOOOOOOOOOOOOOOO........OOOOOOOOOOOOOOOO",
"OOOOOOOOOOOOOOOOOOOOOOOOOOOOOOOOOOOO........OOOOOOOOOOOOOOOOOOOO",
"OOOOOOOOOOOOOOOOOOOOOOOOOOOOOOOOOOOO........OOOOOOOOOOOOOOOOOOOO",
"OOOOOOOOOOOOOOOOOOOOOOOOOOOOOOOOOOOO........OOOOOOOOOOOOOOOOOOOO",
"OOOOOOOOOOOOOOOOOOOOOOOOOOOOOOOOOOOO........OOOOOOOOOOOOOOOOOOOO"
};
