/* XPM */
static const char *player_right_3_xpm[] = {
/* columns rows colors chars-per-pixel */
"64 64 5 1 ",
"  c #388700",
". c #FF8170",
"X c #64B0FF",
"o c #FFFFFF",
"O c None",
/* pixels */
"OOOOOOOOOOOO....OOOOOOOOOOOOOOOOOOOOOOOOOOOOOOOOOOOOOOOOOOOOOOOO",
"OOOOOOOOOOOO....OOOOOOOOOOOOOOOOOOOOOOOOOOOOOOOOOOOOOOOOOOOOOOOO",
"OOOOOOOOOOOO....OOOOOOOOOOOOOOOOOOOOOOOOOOOOOOOOOOOOOOOOOOOOOOOO",
"OOOOOOOOOOOO....OOOOOOOOOOOOOOOOOOOOOOOOOOOOOOOOOOOOOOOOOOOOOOOO",
"OOOOOOOOOOOOOOOOXXXXOOOOooooooooooooooooooooooooOOOOOOOOOOOOOOOO",
"OOOOOOOOOOOOOOOOXXXXOOOOooooooooooooooooooooooooOOOOOOOOOOOOOOOO",
"OOOOOOOOOOOOOOOOXXXXOOOOooooooooooooooooooooooooOOOOOOOOOOOOOOOO",
"OOOOOOOOOOOOOOOOXXXXOOOOooooooooooooooooooooooooOOOOOOOOOOOOOOOO",
"OOOOOOOOOOOOOOOOOOOOooooooooooooooooooooooooooooooooOOOOOOOOOOOO",
"OOOOOOOOOOOOOOOOOOOOooooooooooooooooooooooooooooooooOOOOOOOOOOOO",
"OOOOOOOOOOOOOOOOOOOOooooooooooooooooooooooooooooooooOOOOOOOOOOOO",
"OOOOOOOOOOOOOOOOOOOOooooooooooooooooooooooooooooooooOOOOOOOOOOOO",
"OOOOOOOOOOOOOOOOoooooooooooo........    ....    ....OOOOOOOOOOOO",
"OOOOOOOOOOOOOOOOoooooooooooo........    ....    ....OOOOOOOOOOOO",
"OOOOOOOOOOOOOOOOoooooooooooo........    ....    ....OOOOOOOOOOOO",
"OOOOOOOOOOOOOOOOoooooooooooo........    ....    ....OOOOOOOOOOOO",
"OOOOOOOOOOOOOOOOoooooooooooooooo....    ....    ....OOOOOOOOOOOO",
"OOOOOOOOOOOOOOOOoooooooooooooooo....    ....    ....OOOOOOOOOOOO",
"OOOOOOOOOOOOOOOOoooooooooooooooo....    ....    ....OOOOOOOOOOOO",
"OOOOOOOOOOOOOOOOoooooooooooooooo....    ....    ....OOOOOOOOOOOO",
"OOOOOOOOOOOOOOOOOOOOooooooooooooooooooooooooooooooooOOOOOOOOOOOO",
"OOOOOOOOOOOOOOOOOOOOooooooooooooooooooooooooooooooooOOOOOOOOOOOO",
"OOOOOOOOOOOOOOOOOOOOooooooooooooooooooooooooooooooooOOOOOOOOOOOO",
"OOOOOOOOOOOOOOOOOOOOooooooooooooooooooooooooooooooooOOOOOOOOOOOO",
"OOOOOOOOOOOOOOOOOOOOXXXXXXXXooooooooooooooooooooOOOOOOOOOOOOOOOO",
"OOOOOOOOOOOOOOOOOOOOXXXXXXXXooooooooooooooooooooOOOOOOOOOOOOOOOO",
"OOOOOOOOOOOOOOOOOOOOXXXXXXXXooooooooooooooooooooOOOOOOOOOOOOOOOO",
"OOOOOOOOOOOOOOOOOOOOXXXXXXXXooooooooooooooooooooOOOOOOOOOOOOOOOO",
"OOOOOOOOOOOOOOOOXXXXooooooooXXXXXXXXXXXXOOOOOOOOOOOOOOOOOOOOOOOO",
"OOOOOOOOOOOOOOOOXXXXooooooooXXXXXXXXXXXXOOOOOOOOOOOOOOOOOOOOOOOO",
"OOOOOOOOOOOOOOOOXXXXooooooooXXXXXXXXXXXXOOOOOOOOOOOOOOOOOOOOOOOO",
"OOOOOOOOOOOOOOOOXXXXooooooooXXXXXXXXXXXXOOOOOOOOOOOOOOOOOOOOOOOO",
"OOOOOOOOOOOOOOOOooooooooooooXXXXXXXXXXXXXXXXOOOOOOOOOOOOOOOOOOOO",
"OOOOOOOOOOOOOOOOooooooooooooXXXXXXXXXXXXXXXXOOOOOOOOOOOOOOOOOOOO",
"OOOOOOOOOOOOOOOOooooooooooooXXXXXXXXXXXXXXXXOOOOOOOOOOOOOOOOOOOO",
"OOOOOOOOOOOOOOOOooooooooooooXXXXXXXXXXXXXXXXOOOOOOOOOOOOOOOOOOOO",
"OOOOOOOOOOOOooooooooooooXXXXXXXXXXXXXXXXXXXX........OOOOOOOOOOOO",
"OOOOOOOOOOOOooooooooooooXXXXXXXXXXXXXXXXXXXX........OOOOOOOOOOOO",
"OOOOOOOOOOOOooooooooooooXXXXXXXXXXXXXXXXXXXX........OOOOOOOOOOOO",
"OOOOOOOOOOOOooooooooooooXXXXXXXXXXXXXXXXXXXX........OOOOOOOOOOOO",
"OOOOOOOO........ooooXXXXXXXXXXXXXXXXXXXXoooo........OOOOOOOOOOOO",
"OOOOOOOO........ooooXXXXXXXXXXXXXXXXXXXXoooo........OOOOOOOOOOOO",
"OOOOOOOO........ooooXXXXXXXXXXXXXXXXXXXXoooo........OOOOOOOOOOOO",
"OOOOOOOO........ooooXXXXXXXXXXXXXXXXXXXXoooo........OOOOOOOOOOOO",
"OOOOOOOO........XXXXXXXXXXXXXXXXXXXXXXXXooooOOOOOOOOOOOOOOOOOOOO",
"OOOOOOOO........XXXXXXXXXXXXXXXXXXXXXXXXooooOOOOOOOOOOOOOOOOOOOO",
"OOOOOOOO........XXXXXXXXXXXXXXXXXXXXXXXXooooOOOOOOOOOOOOOOOOOOOO",
"OOOOOOOO........XXXXXXXXXXXXXXXXXXXXXXXXooooOOOOOOOOOOOOOOOOOOOO",
"OOOOOOOOooooooooXXXXXXXXXXXXooooooooOOOOOOOOOOOOOOOOOOOOOOOOOOOO",
"OOOOOOOOooooooooXXXXXXXXXXXXooooooooOOOOOOOOOOOOOOOOOOOOOOOOOOOO",
"OOOOOOOOooooooooXXXXXXXXXXXXooooooooOOOOOOOOOOOOOOOOOOOOOOOOOOOO",
"OOOOOOOOooooooooXXXXXXXXXXXXooooooooOOOOOOOOOOOOOOOOOOOOOOOOOOOO",
"OOOO........ooooooooOOOOooooooooooooOOOOOOOOOOOOOOOOOOOOOOOOOOOO",
"OOOO........ooooooooOOOOooooooooooooOOOOOOOOOOOOOOOOOOOOOOOOOOOO",
"OOOO........ooooooooOOOOooooooooooooOOOOOOOOOOOOOOOOOOOOOOOOOOOO",
"OOOO........ooooooooOOOOooooooooooooOOOOOOOOOOOOOOOOOOOOOOOOOOOO",
"OOOO....OOOOOOOOOOOOOOOO........OOOOOOOOOOOOOOOOOOOOOOOOOOOOOOOO",
"OOOO....OOOOOOOOOOOOOOOO........OOOOOOOOOOOOOOOOOOOOOOOOOOOOOOOO",
"OOOO....OOOOOOOOOOOOOOOO........OOOOOOOOOOOOOOOOOOOOOOOOOOOOOOOO",
"OOOO....OOOOOOOOOOOOOOOO........OOOOOOOOOOOOOOOOOOOOOOOOOOOOOOOO",
"OOOOOOOOOOOOOOOOOOOOOOOO............OOOOOOOOOOOOOOOOOOOOOOOOOOOO",
"OOOOOOOOOOOOOOOOOOOOOOOO............OOOOOOOOOOOOOOOOOOOOOOOOOOOO",
"OOOOOOOOOOOOOOOOOOOOOOOO............OOOOOOOOOOOOOOOOOOOOOOOOOOOO",
"OOOOOOOOOOOOOOOOOOOOOOOO............OOOOOOOOOOOOOOOOOOOOOOOOOOOO"
};
