/* XPM */
static const char *player_down_2_xpm[] = {
/* columns rows colors chars-per-pixel */
"64 64 5 1 ",
"  c #388700",
". c #FF8170",
"X c #64B0FF",
"o c #FFFFFF",
"O c None",
/* pixels */
"OOOOOOOOOOOOOOOOOOOOooooooooooooooooooooooooOOOOOOOOOOOOOOOOOOOO",
"OOOOOOOOOOOOOOOOOOOOooooooooooooooooooooooooOOOOOOOOOOOOOOOOOOOO",
"OOOOOOOOOOOOOOOOOOOOooooooooooooooooooooooooOOOOOOOOOOOOOOOOOOOO",
"OOOOOOOOOOOOOOOOOOOOooooooooooooooooooooooooOOOOOOOOOOOOOOOOOOOO",
"OOOOOOOOOOOOOOOOooooooooooooooooooooooooooooooooOOOOOOOOOOOOOOOO",
"OOOOOOOOOOOOOOOOooooooooooooooooooooooooooooooooOOOOOOOOOOOOOOOO",
"OOOOOOOOOOOOOOOOooooooooooooooooooooooooooooooooOOOOOOOOOOOOOOOO",
"OOOOOOOOOOOOOOOOooooooooooooooooooooooooooooooooOOOOOOOOOOOOOOOO",
"OOOOOOOOOOOOOOOOoooo....    ........    ....ooooOOOOOOOOOOOOOOOO",
"OOOOOOOOOOOOOOOOoooo....    ........    ....ooooOOOOOOOOOOOOOOOO",
"OOOOOOOOOOOOOOOOoooo....    ........    ....ooooOOOOOOOOOOOOOOOO",
"OOOOOOOOOOOOOOOOoooo....    ........    ....ooooOOOOOOOOOOOOOOOO",
"OOOOOOOOOOOOOOOOoooo....    ........    ....ooooOOOOOOOOOOOOOOOO",
"OOOOOOOOOOOOOOOOoooo....    ........    ....ooooOOOOOOOOOOOOOOOO",
"OOOOOOOOOOOOOOOOoooo....    ........    ....ooooOOOOOOOOOOOOOOOO",
"OOOOOOOOOOOOOOOOoooo....    ........    ....ooooOOOOOOOOOOOOOOOO",
"OOOOOOOOOOOOOOOOooooooooooooooooooooooooooooooooOOOOOOOOOOOOOOOO",
"OOOOOOOOOOOOOOOOooooooooooooooooooooooooooooooooOOOOOOOOOOOOOOOO",
"OOOOOOOOOOOOOOOOooooooooooooooooooooooooooooooooOOOOOOOOOOOOOOOO",
"OOOOOOOOOOOOOOOOooooooooooooooooooooooooooooooooOOOOOOOOOOOOOOOO",
"OOOOOOOOOOOOOOOOOOOOooooooooooooooooooooooooOOOOOOOOOOOOOOOOOOOO",
"OOOOOOOOOOOOOOOOOOOOooooooooooooooooooooooooOOOOOOOOOOOOOOOOOOOO",
"OOOOOOOOOOOOOOOOOOOOooooooooooooooooooooooooOOOOOOOOOOOOOOOOOOOO",
"OOOOOOOOOOOOOOOOOOOOooooooooooooooooooooooooOOOOOOOOOOOOOOOOOOOO",
"OOOOOOOOOOOOOOOOOOOOOOOOXXXXXXXXXXXXXXXXOOOOOOOOOOOOOOOOOOOOOOOO",
"OOOOOOOOOOOOOOOOOOOOOOOOXXXXXXXXXXXXXXXXOOOOOOOOOOOOOOOOOOOOOOOO",
"OOOOOOOOOOOOOOOOOOOOOOOOXXXXXXXXXXXXXXXXOOOOOOOOOOOOOOOOOOOOOOOO",
"OOOOOOOOOOOOOOOOOOOOOOOOXXXXXXXXXXXXXXXXOOOOOOOOOOOOOOOOOOOOOOOO",
"OOOOOOOOOOOOOOOOooooXXXXXXXXXXXXXXXXXXXXoooooooo........OOOOOOOO",
"OOOOOOOOOOOOOOOOooooXXXXXXXXXXXXXXXXXXXXoooooooo........OOOOOOOO",
"OOOOOOOOOOOOOOOOooooXXXXXXXXXXXXXXXXXXXXoooooooo........OOOOOOOO",
"OOOOOOOOOOOOOOOOooooXXXXXXXXXXXXXXXXXXXXoooooooo........OOOOOOOO",
"OOOOOOOOOOOOooooooooXXXXXXXXXXXXXXXXXXXXXXXXoooo........OOOOOOOO",
"OOOOOOOOOOOOooooooooXXXXXXXXXXXXXXXXXXXXXXXXoooo........OOOOOOOO",
"OOOOOOOOOOOOooooooooXXXXXXXXXXXXXXXXXXXXXXXXoooo........OOOOOOOO",
"OOOOOOOOOOOOooooooooXXXXXXXXXXXXXXXXXXXXXXXXoooo........OOOOOOOO",
"OOOOOOOOOOOOooooooooXXXXXXXXXXXXXXXXXXXXXXXXOOOOOOOOOOOOOOOOOOOO",
"OOOOOOOOOOOOooooooooXXXXXXXXXXXXXXXXXXXXXXXXOOOOOOOOOOOOOOOOOOOO",
"OOOOOOOOOOOOooooooooXXXXXXXXXXXXXXXXXXXXXXXXOOOOOOOOOOOOOOOOOOOO",
"OOOOOOOOOOOOooooooooXXXXXXXXXXXXXXXXXXXXXXXXOOOOOOOOOOOOOOOOOOOO",
"OOOOOOOO........OOOOXXXXXXXXXXXXXXXXXXXXXXXXOOOOOOOOOOOOOOOOOOOO",
"OOOOOOOO........OOOOXXXXXXXXXXXXXXXXXXXXXXXXOOOOOOOOOOOOOOOOOOOO",
"OOOOOOOO........OOOOXXXXXXXXXXXXXXXXXXXXXXXXOOOOOOOOOOOOOOOOOOOO",
"OOOOOOOO........OOOOXXXXXXXXXXXXXXXXXXXXXXXXOOOOOOOOOOOOOOOOOOOO",
"OOOOOOOO........OOOOXXXXXXXXXXXXXXXXooooooooOOOOOOOOOOOOOOOOOOOO",
"OOOOOOOO........OOOOXXXXXXXXXXXXXXXXooooooooOOOOOOOOOOOOOOOOOOOO",
"OOOOOOOO........OOOOXXXXXXXXXXXXXXXXooooooooOOOOOOOOOOOOOOOOOOOO",
"OOOOOOOO........OOOOXXXXXXXXXXXXXXXXooooooooOOOOOOOOOOOOOOOOOOOO",
"OOOOOOOOOOOOOOOOOOOOooooooooXXXXXXXXooooooooOOOOOOOOOOOOOOOOOOOO",
"OOOOOOOOOOOOOOOOOOOOooooooooXXXXXXXXooooooooOOOOOOOOOOOOOOOOOOOO",
"OOOOOOOOOOOOOOOOOOOOooooooooXXXXXXXXooooooooOOOOOOOOOOOOOOOOOOOO",
"OOOOOOOOOOOOOOOOOOOOooooooooXXXXXXXXooooooooOOOOOOOOOOOOOOOOOOOO",
"OOOOOOOOOOOOOOOOOOOO........OOOOOOOOooooooooOOOOOOOOOOOOOOOOOOOO",
"OOOOOOOOOOOOOOOOOOOO........OOOOOOOOooooooooOOOOOOOOOOOOOOOOOOOO",
"OOOOOOOOOOOOOOOOOOOO........OOOOOOOOooooooooOOOOOOOOOOOOOOOOOOOO",
"OOOOOOOOOOOOOOOOOOOO........OOOOOOOOooooooooOOOOOOOOOOOOOOOOOOOO",
"OOOOOOOOOOOOOOOOOOOO........OOOOOOOO........OOOOOOOOOOOOOOOOOOOO",
"OOOOOOOOOOOOOOOOOOOO........OOOOOOOO........OOOOOOOOOOOOOOOOOOOO",
"OOOOOOOOOOOOOOOOOOOO........OOOOOOOO........OOOOOOOOOOOOOOOOOOOO",
"OOOOOOOOOOOOOOOOOOOO........OOOOOOOO........OOOOOOOOOOOOOOOOOOOO",
"OOOOOOOOOOOOOOOOOOOOOOOOOOOOOOOOOOOO........OOOOOOOOOOOOOOOOOOOO",
"OOOOOOOOOOOOOOOOOOOOOOOOOOOOOOOOOOOO........OOOOOOOOOOOOOOOOOOOO",
"OOOOOOOOOOOOOOOOOOOOOOOOOOOOOOOOOOOO........OOOOOOOOOOOOOOOOOOOO",
"OOOOOOOOOOOOOOOOOOOOOOOOOOOOOOOOOOOO........OOOOOOOOOOOOOOOOOOOO"
};
