/* XPM */
static const char *player_up_2_xpm[] = {
/* columns rows colors chars-per-pixel */
"64 64 4 1 ",
"  c #FF8170",
". c #64B0FF",
"X c #FFFFFF",
"o c None",
/* pixels */
"ooooooooooooooooooooXXXXXXXXXXXXXXXXXXXXXXXXoooooooooooooooooooo",
"ooooooooooooooooooooXXXXXXXXXXXXXXXXXXXXXXXXoooooooooooooooooooo",
"ooooooooooooooooooooXXXXXXXXXXXXXXXXXXXXXXXXoooooooooooooooooooo",
"ooooooooooooooooooooXXXXXXXXXXXXXXXXXXXXXXXXoooooooooooooooooooo",
"ooooooooooooooooXXXXXXXXXXXX........XXXXXXXXXXXXoooooooooooooooo",
"ooooooooooooooooXXXXXXXXXXXX........XXXXXXXXXXXXoooooooooooooooo",
"ooooooooooooooooXXXXXXXXXXXX........XXXXXXXXXXXXoooooooooooooooo",
"ooooooooooooooooXXXXXXXXXXXX........XXXXXXXXXXXXoooooooooooooooo",
"ooooooooooooooooXXXXXXXXXXXXXXXXXXXX....XXXXXXXXoooooooooooooooo",
"ooooooooooooooooXXXXXXXXXXXXXXXXXXXX....XXXXXXXXoooooooooooooooo",
"ooooooooooooooooXXXXXXXXXXXXXXXXXXXX....XXXXXXXXoooooooooooooooo",
"ooooooooooooooooXXXXXXXXXXXXXXXXXXXX....XXXXXXXXoooooooooooooooo",
"ooooooooooooooooXXXXXXXXXXXXXXXXXXXXXXXXXXXXXXXXoooooooooooooooo",
"ooooooooooooooooXXXXXXXXXXXXXXXXXXXXXXXXXXXXXXXXoooooooooooooooo",
"ooooooooooooooooXXXXXXXXXXXXXXXXXXXXXXXXXXXXXXXXoooooooooooooooo",
"ooooooooooooooooXXXXXXXXXXXXXXXXXXXXXXXXXXXXXXXXoooooooooooooooo",
"ooooooooooooooooXXXXXXXXXXXXXXXXXXXXXXXXXXXXXXXXoooooooooooooooo",
"ooooooooooooooooXXXXXXXXXXXXXXXXXXXXXXXXXXXXXXXXoooooooooooooooo",
"ooooooooooooooooXXXXXXXXXXXXXXXXXXXXXXXXXXXXXXXXoooooooooooooooo",
"ooooooooooooooooXXXXXXXXXXXXXXXXXXXXXXXXXXXXXXXXoooooooooooooooo",
"ooooooooooooooooooooXXXXXXXXXXXXXXXXXXXXXXXXoooooooooooooooooooo",
"ooooooooooooooooooooXXXXXXXXXXXXXXXXXXXXXXXXoooooooooooooooooooo",
"ooooooooooooooooooooXXXXXXXXXXXXXXXXXXXXXXXXoooooooooooooooooooo",
"ooooooooooooooooooooXXXXXXXXXXXXXXXXXXXXXXXXoooooooooooooooooooo",
"oooooooooooooooooooooooo................oooooooooooooooooooooooo",
"oooooooooooooooooooooooo................oooooooooooooooooooooooo",
"oooooooooooooooooooooooo................oooooooooooooooooooooooo",
"oooooooooooooooooooooooo................oooooooooooooooooooooooo",
"ooooooooooooooooXXXX........................XXXX        oooooooo",
"ooooooooooooooooXXXX........................XXXX        oooooooo",
"ooooooooooooooooXXXX........................XXXX        oooooooo",
"ooooooooooooooooXXXX........................XXXX        oooooooo",
"ooooooooooooXXXXXXXX........        ........XXXX        oooooooo",
"ooooooooooooXXXXXXXX........        ........XXXX        oooooooo",
"ooooooooooooXXXXXXXX........        ........XXXX        oooooooo",
"ooooooooooooXXXXXXXX........        ........XXXX        oooooooo",
"ooooooooooooXXXXXXXX........        ........oooooooooooooooooooo",
"ooooooooooooXXXXXXXX........        ........oooooooooooooooooooo",
"ooooooooooooXXXXXXXX........        ........oooooooooooooooooooo",
"ooooooooooooXXXXXXXX........        ........oooooooooooooooooooo",
"oooooooo        ooooXXXXXXXXXXXXXXXXXXXXXXXXoooooooooooooooooooo",
"oooooooo        ooooXXXXXXXXXXXXXXXXXXXXXXXXoooooooooooooooooooo",
"oooooooo        ooooXXXXXXXXXXXXXXXXXXXXXXXXoooooooooooooooooooo",
"oooooooo        ooooXXXXXXXXXXXXXXXXXXXXXXXXoooooooooooooooooooo",
"oooooooo        oooo........................oooooooooooooooooooo",
"oooooooo        oooo........................oooooooooooooooooooo",
"oooooooo        oooo........................oooooooooooooooooooo",
"oooooooo        oooo........................oooooooooooooooooooo",
"ooooooooooooooooooooXXXXXXXX........XXXXXXXXoooooooooooooooooooo",
"ooooooooooooooooooooXXXXXXXX........XXXXXXXXoooooooooooooooooooo",
"ooooooooooooooooooooXXXXXXXX........XXXXXXXXoooooooooooooooooooo",
"ooooooooooooooooooooXXXXXXXX........XXXXXXXXoooooooooooooooooooo",
"oooooooooooooooooooo        ooooooooXXXXXXXXoooooooooooooooooooo",
"oooooooooooooooooooo        ooooooooXXXXXXXXoooooooooooooooooooo",
"oooooooooooooooooooo        ooooooooXXXXXXXXoooooooooooooooooooo",
"oooooooooooooooooooo        ooooooooXXXXXXXXoooooooooooooooooooo",
"oooooooooooooooooooo        oooooooo        oooooooooooooooooooo",
"oooooooooooooooooooo        oooooooo        oooooooooooooooooooo",
"oooooooooooooooooooo        oooooooo        oooooooooooooooooooo",
"oooooooooooooooooooo        oooooooo        oooooooooooooooooooo",
"oooooooooooooooooooooooooooooooooooo        oooooooooooooooooooo",
"oooooooooooooooooooooooooooooooooooo        oooooooooooooooooooo",
"oooooooooooooooooooooooooooooooooooo        oooooooooooooooooooo",
"oooooooooooooooooooooooooooooooooooo        oooooooooooooooooooo"
};
