/* XPM */
static const char *player_down_1_xpm[] = {
/* columns rows colors chars-per-pixel */
"64 64 5 1 ",
"  c #388700",
". c #FF8170",
"X c #64B0FF",
"o c #FFFFFF",
"O c None",
/* pixels */
"OOOOOOOOOOOOOOOOOOOOooooooooooooooooooooooooOOOOOOOOOOOOOOOOOOOO",
"OOOOOOOOOOOOOOOOOOOOooooooooooooooooooooooooOOOOOOOOOOOOOOOOOOOO",
"OOOOOOOOOOOOOOOOOOOOooooooooooooooooooooooooOOOOOOOOOOOOOOOOOOOO",
"OOOOOOOOOOOOOOOOOOOOooooooooooooooooooooooooOOOOOOOOOOOOOOOOOOOO",
"OOOOOOOOOOOOOOOOooooooooooooooooooooooooooooooooOOOOOOOOOOOOOOOO",
"OOOOOOOOOOOOOOOOooooooooooooooooooooooooooooooooOOOOOOOOOOOOOOOO",
"OOOOOOOOOOOOOOOOooooooooooooooooooooooooooooooooOOOOOOOOOOOOOOOO",
"OOOOOOOOOOOOOOOOooooooooooooooooooooooooooooooooOOOOOOOOOOOOOOOO",
"OOOOOOOOOOOOOOOOoooo....    ........    ....ooooOOOOOOOOOOOOOOOO",
"OOOOOOOOOOOOOOOOoooo....    ........    ....ooooOOOOOOOOOOOOOOOO",
"OOOOOOOOOOOOOOOOoooo....    ........    ....ooooOOOOOOOOOOOOOOOO",
"OOOOOOOOOOOOOOOOoooo....    ........    ....ooooOOOOOOOOOOOOOOOO",
"OOOOOOOOOOOOOOOOoooo....    ........    ....ooooOOOOOOOOOOOOOOOO",
"OOOOOOOOOOOOOOOOoooo....    ........    ....ooooOOOOOOOOOOOOOOOO",
"OOOOOOOOOOOOOOOOoooo....    ........    ....ooooOOOOOOOOOOOOOOOO",
"OOOOOOOOOOOOOOOOoooo....    ........    ....ooooOOOOOOOOOOOOOOOO",
"OOOOOOOOOOOOOOOOooooooooooooooooooooooooooooooooOOOOOOOOOOOOOOOO",
"OOOOOOOOOOOOOOOOooooooooooooooooooooooooooooooooOOOOOOOOOOOOOOOO",
"OOOOOOOOOOOOOOOOooooooooooooooooooooooooooooooooOOOOOOOOOOOOOOOO",
"OOOOOOOOOOOOOOOOooooooooooooooooooooooooooooooooOOOOOOOOOOOOOOOO",
"OOOOOOOOOOOOOOOOOOOOooooooooooooooooooooooooOOOOOOOOOOOOOOOOOOOO",
"OOOOOOOOOOOOOOOOOOOOooooooooooooooooooooooooOOOOOOOOOOOOOOOOOOOO",
"OOOOOOOOOOOOOOOOOOOOooooooooooooooooooooooooOOOOOOOOOOOOOOOOOOOO",
"OOOOOOOOOOOOOOOOOOOOooooooooooooooooooooooooOOOOOOOOOOOOOOOOOOOO",
"OOOOOOOOOOOOOOOOOOOOOOOOXXXXXXXXXXXXXXXXOOOOOOOOOOOOOOOOOOOOOOOO",
"OOOOOOOOOOOOOOOOOOOOOOOOXXXXXXXXXXXXXXXXOOOOOOOOOOOOOOOOOOOOOOOO",
"OOOOOOOOOOOOOOOOOOOOOOOOXXXXXXXXXXXXXXXXOOOOOOOOOOOOOOOOOOOOOOOO",
"OOOOOOOOOOOOOOOOOOOOOOOOXXXXXXXXXXXXXXXXOOOOOOOOOOOOOOOOOOOOOOOO",
"OOOOOOOOOOOOOOOOooooooooXXXXXXXXXXXXXXXXooooooooOOOOOOOOOOOOOOOO",
"OOOOOOOOOOOOOOOOooooooooXXXXXXXXXXXXXXXXooooooooOOOOOOOOOOOOOOOO",
"OOOOOOOOOOOOOOOOooooooooXXXXXXXXXXXXXXXXooooooooOOOOOOOOOOOOOOOO",
"OOOOOOOOOOOOOOOOooooooooXXXXXXXXXXXXXXXXooooooooOOOOOOOOOOOOOOOO",
"OOOOOOOOOOOOooooooooXXXXXXXXXXXXXXXXXXXXXXXXooooooooOOOOOOOOOOOO",
"OOOOOOOOOOOOooooooooXXXXXXXXXXXXXXXXXXXXXXXXooooooooOOOOOOOOOOOO",
"OOOOOOOOOOOOooooooooXXXXXXXXXXXXXXXXXXXXXXXXooooooooOOOOOOOOOOOO",
"OOOOOOOOOOOOooooooooXXXXXXXXXXXXXXXXXXXXXXXXooooooooOOOOOOOOOOOO",
"OOOOOOOO........ooooXXXXXXXXXXXXXXXXXXXXXXXXoooo........OOOOOOOO",
"OOOOOOOO........ooooXXXXXXXXXXXXXXXXXXXXXXXXoooo........OOOOOOOO",
"OOOOOOOO........ooooXXXXXXXXXXXXXXXXXXXXXXXXoooo........OOOOOOOO",
"OOOOOOOO........ooooXXXXXXXXXXXXXXXXXXXXXXXXoooo........OOOOOOOO",
"OOOOOOOO........OOOOXXXXXXXXXXXXXXXXXXXXXXXXOOOO........OOOOOOOO",
"OOOOOOOO........OOOOXXXXXXXXXXXXXXXXXXXXXXXXOOOO........OOOOOOOO",
"OOOOOOOO........OOOOXXXXXXXXXXXXXXXXXXXXXXXXOOOO........OOOOOOOO",
"OOOOOOOO........OOOOXXXXXXXXXXXXXXXXXXXXXXXXOOOO........OOOOOOOO",
"OOOOOOOOOOOOOOOOOOOOXXXXXXXXXXXXXXXXXXXXXXXXOOOOOOOOOOOOOOOOOOOO",
"OOOOOOOOOOOOOOOOOOOOXXXXXXXXXXXXXXXXXXXXXXXXOOOOOOOOOOOOOOOOOOOO",
"OOOOOOOOOOOOOOOOOOOOXXXXXXXXXXXXXXXXXXXXXXXXOOOOOOOOOOOOOOOOOOOO",
"OOOOOOOOOOOOOOOOOOOOXXXXXXXXXXXXXXXXXXXXXXXXOOOOOOOOOOOOOOOOOOOO",
"OOOOOOOOOOOOOOOOOOOOooooooooXXXXXXXXooooooooOOOOOOOOOOOOOOOOOOOO",
"OOOOOOOOOOOOOOOOOOOOooooooooXXXXXXXXooooooooOOOOOOOOOOOOOOOOOOOO",
"OOOOOOOOOOOOOOOOOOOOooooooooXXXXXXXXooooooooOOOOOOOOOOOOOOOOOOOO",
"OOOOOOOOOOOOOOOOOOOOooooooooXXXXXXXXooooooooOOOOOOOOOOOOOOOOOOOO",
"OOOOOOOOOOOOOOOOOOOOooooooooOOOOOOOOooooooooOOOOOOOOOOOOOOOOOOOO",
"OOOOOOOOOOOOOOOOOOOOooooooooOOOOOOOOooooooooOOOOOOOOOOOOOOOOOOOO",
"OOOOOOOOOOOOOOOOOOOOooooooooOOOOOOOOooooooooOOOOOOOOOOOOOOOOOOOO",
"OOOOOOOOOOOOOOOOOOOOooooooooOOOOOOOOooooooooOOOOOOOOOOOOOOOOOOOO",
"OOOOOOOOOOOOOOOOOOOO........OOOOOOOO........OOOOOOOOOOOOOOOOOOOO",
"OOOOOOOOOOOOOOOOOOOO........OOOOOOOO........OOOOOOOOOOOOOOOOOOOO",
"OOOOOOOOOOOOOOOOOOOO........OOOOOOOO........OOOOOOOOOOOOOOOOOOOO",
"OOOOOOOOOOOOOOOOOOOO........OOOOOOOO........OOOOOOOOOOOOOOOOOOOO",
"OOOOOOOOOOOOOOOOOOOO........OOOOOOOO........OOOOOOOOOOOOOOOOOOOO",
"OOOOOOOOOOOOOOOOOOOO........OOOOOOOO........OOOOOOOOOOOOOOOOOOOO",
"OOOOOOOOOOOOOOOOOOOO........OOOOOOOO........OOOOOOOOOOOOOOOOOOOO",
"OOOOOOOOOOOOOOOOOOOO........OOOOOOOO........OOOOOOOOOOOOOOOOOOOO"
};
