/* XPM */
static const char *player_up_1_xpm[] = {
/* columns rows colors chars-per-pixel */
"64 64 4 1 ",
"  c #FF8170",
". c #64B0FF",
"X c #FFFFFF",
"o c None",
/* pixels */
"ooooooooooooooooooooXXXXXXXXXXXXXXXXXXXXXXXXoooooooooooooooooooo",
"ooooooooooooooooooooXXXXXXXXXXXXXXXXXXXXXXXXoooooooooooooooooooo",
"ooooooooooooooooooooXXXXXXXXXXXXXXXXXXXXXXXXoooooooooooooooooooo",
"ooooooooooooooooooooXXXXXXXXXXXXXXXXXXXXXXXXoooooooooooooooooooo",
"ooooooooooooooooXXXXXXXXXXXX........XXXXXXXXXXXXoooooooooooooooo",
"ooooooooooooooooXXXXXXXXXXXX........XXXXXXXXXXXXoooooooooooooooo",
"ooooooooooooooooXXXXXXXXXXXX........XXXXXXXXXXXXoooooooooooooooo",
"ooooooooooooooooXXXXXXXXXXXX........XXXXXXXXXXXXoooooooooooooooo",
"ooooooooooooooooXXXXXXXXXXXXXXXXXXXX....XXXXXXXXoooooooooooooooo",
"ooooooooooooooooXXXXXXXXXXXXXXXXXXXX....XXXXXXXXoooooooooooooooo",
"ooooooooooooooooXXXXXXXXXXXXXXXXXXXX....XXXXXXXXoooooooooooooooo",
"ooooooooooooooooXXXXXXXXXXXXXXXXXXXX....XXXXXXXXoooooooooooooooo",
"ooooooooooooooooXXXXXXXXXXXXXXXXXXXXXXXXXXXXXXXXoooooooooooooooo",
"ooooooooooooooooXXXXXXXXXXXXXXXXXXXXXXXXXXXXXXXXoooooooooooooooo",
"ooooooooooooooooXXXXXXXXXXXXXXXXXXXXXXXXXXXXXXXXoooooooooooooooo",
"ooooooooooooooooXXXXXXXXXXXXXXXXXXXXXXXXXXXXXXXXoooooooooooooooo",
"ooooooooooooooooXXXXXXXXXXXXXXXXXXXXXXXXXXXXXXXXoooooooooooooooo",
"ooooooooooooooooXXXXXXXXXXXXXXXXXXXXXXXXXXXXXXXXoooooooooooooooo",
"ooooooooooooooooXXXXXXXXXXXXXXXXXXXXXXXXXXXXXXXXoooooooooooooooo",
"ooooooooooooooooXXXXXXXXXXXXXXXXXXXXXXXXXXXXXXXXoooooooooooooooo",
"ooooooooooooooooooooXXXXXXXXXXXXXXXXXXXXXXXXoooooooooooooooooooo",
"ooooooooooooooooooooXXXXXXXXXXXXXXXXXXXXXXXXoooooooooooooooooooo",
"ooooooooooooooooooooXXXXXXXXXXXXXXXXXXXXXXXXoooooooooooooooooooo",
"ooooooooooooooooooooXXXXXXXXXXXXXXXXXXXXXXXXoooooooooooooooooooo",
"oooooooooooooooooooooooo................oooooooooooooooooooooooo",
"oooooooooooooooooooooooo................oooooooooooooooooooooooo",
"oooooooooooooooooooooooo................oooooooooooooooooooooooo",
"oooooooooooooooooooooooo................oooooooooooooooooooooooo",
"ooooooooooooooooXXXX........................XXXXoooooooooooooooo",
"ooooooooooooooooXXXX........................XXXXoooooooooooooooo",
"ooooooooooooooooXXXX........................XXXXoooooooooooooooo",
"ooooooooooooooooXXXX........................XXXXoooooooooooooooo",
"ooooooooooooXXXXXXXX........................XXXXXXXXoooooooooooo",
"ooooooooooooXXXXXXXX........................XXXXXXXXoooooooooooo",
"ooooooooooooXXXXXXXX........................XXXXXXXXoooooooooooo",
"ooooooooooooXXXXXXXX........................XXXXXXXXoooooooooooo",
"oooooooo        XXXX........        ........XXXX        oooooooo",
"oooooooo        XXXX........        ........XXXX        oooooooo",
"oooooooo        XXXX........        ........XXXX        oooooooo",
"oooooooo        XXXX........        ........XXXX        oooooooo",
"oooooooo        ooooXXXXXXXXXXXXXXXXXXXXXXXXoooo        oooooooo",
"oooooooo        ooooXXXXXXXXXXXXXXXXXXXXXXXXoooo        oooooooo",
"oooooooo        ooooXXXXXXXXXXXXXXXXXXXXXXXXoooo        oooooooo",
"oooooooo        ooooXXXXXXXXXXXXXXXXXXXXXXXXoooo        oooooooo",
"oooooooooooooooooooo........................oooooooooooooooooooo",
"oooooooooooooooooooo........................oooooooooooooooooooo",
"oooooooooooooooooooo........................oooooooooooooooooooo",
"oooooooooooooooooooo........................oooooooooooooooooooo",
"ooooooooooooooooooooXXXXXXXX........XXXXXXXXoooooooooooooooooooo",
"ooooooooooooooooooooXXXXXXXX........XXXXXXXXoooooooooooooooooooo",
"ooooooooooooooooooooXXXXXXXX........XXXXXXXXoooooooooooooooooooo",
"ooooooooooooooooooooXXXXXXXX........XXXXXXXXoooooooooooooooooooo",
"ooooooooooooooooooooXXXXXXXXooooooooXXXXXXXXoooooooooooooooooooo",
"ooooooooooooooooooooXXXXXXXXooooooooXXXXXXXXoooooooooooooooooooo",
"ooooooooooooooooooooXXXXXXXXooooooooXXXXXXXXoooooooooooooooooooo",
"ooooooooooooooooooooXXXXXXXXooooooooXXXXXXXXoooooooooooooooooooo",
"oooooooooooooooooooo        oooooooo        oooooooooooooooooooo",
"oooooooooooooooooooo        oooooooo        oooooooooooooooooooo",
"oooooooooooooooooooo        oooooooo        oooooooooooooooooooo",
"oooooooooooooooooooo        oooooooo        oooooooooooooooooooo",
"oooooooooooooooooooo        oooooooo        oooooooooooooooooooo",
"oooooooooooooooooooo        oooooooo        oooooooooooooooooooo",
"oooooooooooooooooooo        oooooooo        oooooooooooooooooooo",
"oooooooooooooooooooo        oooooooo        oooooooooooooooooooo"
};
