/* XPM */
static const char *player_right_1_xpm[] = {
/* columns rows colors chars-per-pixel */
"64 64 5 1 ",
"  c #388700",
". c #FF8170",
"X c #64B0FF",
"o c #FFFFFF",
"O c None",
/* pixels */
"OOOOOOOOOOOO....ooooOOOOooooooooooooooooooooooooOOOOOOOOOOOOOOOO",
"OOOOOOOOOOOO....ooooOOOOooooooooooooooooooooooooOOOOOOOOOOOOOOOO",
"OOOOOOOOOOOO....ooooOOOOooooooooooooooooooooooooOOOOOOOOOOOOOOOO",
"OOOOOOOOOOOO....ooooOOOOooooooooooooooooooooooooOOOOOOOOOOOOOOOO",
"OOOOOOOOOOOOOOOOOOOOooooooooooooooooooooooooooooooooOOOOOOOOOOOO",
"OOOOOOOOOOOOOOOOOOOOooooooooooooooooooooooooooooooooOOOOOOOOOOOO",
"OOOOOOOOOOOOOOOOOOOOooooooooooooooooooooooooooooooooOOOOOOOOOOOO",
"OOOOOOOOOOOOOOOOOOOOooooooooooooooooooooooooooooooooOOOOOOOOOOOO",
"OOOOOOOOOOOOOOOOoooooooooooo........    ....    ....OOOOOOOOOOOO",
"OOOOOOOOOOOOOOOOoooooooooooo........    ....    ....OOOOOOOOOOOO",
"OOOOOOOOOOOOOOOOoooooooooooo........    ....    ....OOOOOOOOOOOO",
"OOOOOOOOOOOOOOOOoooooooooooo........    ....    ....OOOOOOOOOOOO",
"OOOOOOOOOOOOOOOOoooooooooooooooo....    ....    ....OOOOOOOOOOOO",
"OOOOOOOOOOOOOOOOoooooooooooooooo....    ....    ....OOOOOOOOOOOO",
"OOOOOOOOOOOOOOOOoooooooooooooooo....    ....    ....OOOOOOOOOOOO",
"OOOOOOOOOOOOOOOOoooooooooooooooo....    ....    ....OOOOOOOOOOOO",
"OOOOOOOOOOOOOOOOOOOOooooooooooooooooooooooooooooooooOOOOOOOOOOOO",
"OOOOOOOOOOOOOOOOOOOOooooooooooooooooooooooooooooooooOOOOOOOOOOOO",
"OOOOOOOOOOOOOOOOOOOOooooooooooooooooooooooooooooooooOOOOOOOOOOOO",
"OOOOOOOOOOOOOOOOOOOOooooooooooooooooooooooooooooooooOOOOOOOOOOOO",
"OOOOOOOOOOOOOOOOOOOOXXXXXXXXooooooooooooooooooooOOOOOOOOOOOOOOOO",
"OOOOOOOOOOOOOOOOOOOOXXXXXXXXooooooooooooooooooooOOOOOOOOOOOOOOOO",
"OOOOOOOOOOOOOOOOOOOOXXXXXXXXooooooooooooooooooooOOOOOOOOOOOOOOOO",
"OOOOOOOOOOOOOOOOOOOOXXXXXXXXooooooooooooooooooooOOOOOOOOOOOOOOOO",
"OOOOOOOOOOOOOOOOOOOOXXXXXXXXXXXXXXXXXXXXXXXXOOOOOOOOOOOOOOOOOOOO",
"OOOOOOOOOOOOOOOOOOOOXXXXXXXXXXXXXXXXXXXXXXXXOOOOOOOOOOOOOOOOOOOO",
"OOOOOOOOOOOOOOOOOOOOXXXXXXXXXXXXXXXXXXXXXXXXOOOOOOOOOOOOOOOOOOOO",
"OOOOOOOOOOOOOOOOOOOOXXXXXXXXXXXXXXXXXXXXXXXXOOOOOOOOOOOOOOOOOOOO",
"OOOOOOOOOOOOOOOOXXXXooooooooooooXXXXXXXXXXXXooooOOOOOOOOOOOOOOOO",
"OOOOOOOOOOOOOOOOXXXXooooooooooooXXXXXXXXXXXXooooOOOOOOOOOOOOOOOO",
"OOOOOOOOOOOOOOOOXXXXooooooooooooXXXXXXXXXXXXooooOOOOOOOOOOOOOOOO",
"OOOOOOOOOOOOOOOOXXXXooooooooooooXXXXXXXXXXXXooooOOOOOOOOOOOOOOOO",
"OOOOOOOOOOOOOOOOooooooooooooXXXXXXXXXXXXXXXXooooOOOOOOOOOOOOOOOO",
"OOOOOOOOOOOOOOOOooooooooooooXXXXXXXXXXXXXXXXooooOOOOOOOOOOOOOOOO",
"OOOOOOOOOOOOOOOOooooooooooooXXXXXXXXXXXXXXXXooooOOOOOOOOOOOOOOOO",
"OOOOOOOOOOOOOOOOooooooooooooXXXXXXXXXXXXXXXXooooOOOOOOOOOOOOOOOO",
"OOOOOOOOOOOOOOOOoooooooo....XXXXXXXXXXXXXXXX........OOOOOOOOOOOO",
"OOOOOOOOOOOOOOOOoooooooo....XXXXXXXXXXXXXXXX........OOOOOOOOOOOO",
"OOOOOOOOOOOOOOOOoooooooo....XXXXXXXXXXXXXXXX........OOOOOOOOOOOO",
"OOOOOOOOOOOOOOOOoooooooo....XXXXXXXXXXXXXXXX........OOOOOOOOOOOO",
"OOOOOOOOOOOOOOOOXXXXoooo........XXXXXXXXXXXX........OOOOOOOOOOOO",
"OOOOOOOOOOOOOOOOXXXXoooo........XXXXXXXXXXXX........OOOOOOOOOOOO",
"OOOOOOOOOOOOOOOOXXXXoooo........XXXXXXXXXXXX........OOOOOOOOOOOO",
"OOOOOOOOOOOOOOOOXXXXoooo........XXXXXXXXXXXX........OOOOOOOOOOOO",
"OOOOOOOOOOOOOOOOXXXXXXXX........XXXXXXXXXXXXOOOOOOOOOOOOOOOOOOOO",
"OOOOOOOOOOOOOOOOXXXXXXXX........XXXXXXXXXXXXOOOOOOOOOOOOOOOOOOOO",
"OOOOOOOOOOOOOOOOXXXXXXXX........XXXXXXXXXXXXOOOOOOOOOOOOOOOOOOOO",
"OOOOOOOOOOOOOOOOXXXXXXXX........XXXXXXXXXXXXOOOOOOOOOOOOOOOOOOOO",
"OOOOOOOOOOOOOOOOOOOOooooooooXXXXooooooooOOOOOOOOOOOOOOOOOOOOOOOO",
"OOOOOOOOOOOOOOOOOOOOooooooooXXXXooooooooOOOOOOOOOOOOOOOOOOOOOOOO",
"OOOOOOOOOOOOOOOOOOOOooooooooXXXXooooooooOOOOOOOOOOOOOOOOOOOOOOOO",
"OOOOOOOOOOOOOOOOOOOOooooooooXXXXooooooooOOOOOOOOOOOOOOOOOOOOOOOO",
"OOOOOOOOOOOOOOOOOOOOooooooooOOOO........OOOOOOOOOOOOOOOOOOOOOOOO",
"OOOOOOOOOOOOOOOOOOOOooooooooOOOO........OOOOOOOOOOOOOOOOOOOOOOOO",
"OOOOOOOOOOOOOOOOOOOOooooooooOOOO........OOOOOOOOOOOOOOOOOOOOOOOO",
"OOOOOOOOOOOOOOOOOOOOooooooooOOOO........OOOOOOOOOOOOOOOOOOOOOOOO",
"OOOOOOOOOOOOOOOOOOOO........OOOO............OOOOOOOOOOOOOOOOOOOO",
"OOOOOOOOOOOOOOOOOOOO........OOOO............OOOOOOOOOOOOOOOOOOOO",
"OOOOOOOOOOOOOOOOOOOO........OOOO............OOOOOOOOOOOOOOOOOOOO",
"OOOOOOOOOOOOOOOOOOOO........OOOO............OOOOOOOOOOOOOOOOOOOO",
"OOOOOOOOOOOOOOOOOOOO............OOOOOOOOOOOOOOOOOOOOOOOOOOOOOOOO",
"OOOOOOOOOOOOOOOOOOOO............OOOOOOOOOOOOOOOOOOOOOOOOOOOOOOOO",
"OOOOOOOOOOOOOOOOOOOO............OOOOOOOOOOOOOOOOOOOOOOOOOOOOOOOO",
"OOOOOOOOOOOOOOOOOOOO............OOOOOOOOOOOOOOOOOOOOOOOOOOOOOOOO"
};
