/* XPM */
static const char *player_up_3_xpm[] = {
/* columns rows colors chars-per-pixel */
"64 64 4 1 ",
"  c #FF8170",
". c #64B0FF",
"X c #FFFFFF",
"o c None",
/* pixels */
"ooooooooooooooooooooXXXXXXXXXXXXXXXXXXXXXXXXoooooooooooooooooooo",
"ooooooooooooooooooooXXXXXXXXXXXXXXXXXXXXXXXXoooooooooooooooooooo",
"ooooooooooooooooooooXXXXXXXXXXXXXXXXXXXXXXXXoooooooooooooooooooo",
"ooooooooooooooooooooXXXXXXXXXXXXXXXXXXXXXXXXoooooooooooooooooooo",
"ooooooooooooooooXXXXXXXXXXXX........XXXXXXXXXXXXoooooooooooooooo",
"ooooooooooooooooXXXXXXXXXXXX........XXXXXXXXXXXXoooooooooooooooo",
"ooooooooooooooooXXXXXXXXXXXX........XXXXXXXXXXXXoooooooooooooooo",
"ooooooooooooooooXXXXXXXXXXXX........XXXXXXXXXXXXoooooooooooooooo",
"ooooooooooooooooXXXXXXXXXXXXXXXXXXXX....XXXXXXXXoooooooooooooooo",
"ooooooooooooooooXXXXXXXXXXXXXXXXXXXX....XXXXXXXXoooooooooooooooo",
"ooooooooooooooooXXXXXXXXXXXXXXXXXXXX....XXXXXXXXoooooooooooooooo",
"ooooooooooooooooXXXXXXXXXXXXXXXXXXXX....XXXXXXXXoooooooooooooooo",
"ooooooooooooooooXXXXXXXXXXXXXXXXXXXXXXXXXXXXXXXXoooooooooooooooo",
"ooooooooooooooooXXXXXXXXXXXXXXXXXXXXXXXXXXXXXXXXoooooooooooooooo",
"ooooooooooooooooXXXXXXXXXXXXXXXXXXXXXXXXXXXXXXXXoooooooooooooooo",
"ooooooooooooooooXXXXXXXXXXXXXXXXXXXXXXXXXXXXXXXXoooooooooooooooo",
"ooooooooooooooooXXXXXXXXXXXXXXXXXXXXXXXXXXXXXXXXoooooooooooooooo",
"ooooooooooooooooXXXXXXXXXXXXXXXXXXXXXXXXXXXXXXXXoooooooooooooooo",
"ooooooooooooooooXXXXXXXXXXXXXXXXXXXXXXXXXXXXXXXXoooooooooooooooo",
"ooooooooooooooooXXXXXXXXXXXXXXXXXXXXXXXXXXXXXXXXoooooooooooooooo",
"ooooooooooooooooooooXXXXXXXXXXXXXXXXXXXXXXXXoooooooooooooooooooo",
"ooooooooooooooooooooXXXXXXXXXXXXXXXXXXXXXXXXoooooooooooooooooooo",
"ooooooooooooooooooooXXXXXXXXXXXXXXXXXXXXXXXXoooooooooooooooooooo",
"ooooooooooooooooooooXXXXXXXXXXXXXXXXXXXXXXXXoooooooooooooooooooo",
"oooooooooooooooooooooooo................oooooooooooooooooooooooo",
"oooooooooooooooooooooooo................oooooooooooooooooooooooo",
"oooooooooooooooooooooooo................oooooooooooooooooooooooo",
"oooooooooooooooooooooooo................oooooooooooooooooooooooo",
"oooooooo        XXXX........................XXXXoooooooooooooooo",
"oooooooo        XXXX........................XXXXoooooooooooooooo",
"oooooooo        XXXX........................XXXXoooooooooooooooo",
"oooooooo        XXXX........................XXXXoooooooooooooooo",
"oooooooo        XXXX........................XXXXXXXXoooooooooooo",
"oooooooo        XXXX........................XXXXXXXXoooooooooooo",
"oooooooo        XXXX........................XXXXXXXXoooooooooooo",
"oooooooo        XXXX........................XXXXXXXXoooooooooooo",
"oooooooooooooooooooo........        ........XXXXXXXXoooooooooooo",
"oooooooooooooooooooo........        ........XXXXXXXXoooooooooooo",
"oooooooooooooooooooo........        ........XXXXXXXXoooooooooooo",
"oooooooooooooooooooo........        ........XXXXXXXXoooooooooooo",
"ooooooooooooooooooooXXXXXXXXXXXXXXXXXXXXXXXXoooo        oooooooo",
"ooooooooooooooooooooXXXXXXXXXXXXXXXXXXXXXXXXoooo        oooooooo",
"ooooooooooooooooooooXXXXXXXXXXXXXXXXXXXXXXXXoooo        oooooooo",
"ooooooooooooooooooooXXXXXXXXXXXXXXXXXXXXXXXXoooo        oooooooo",
"oooooooooooooooooooo........................oooo        oooooooo",
"oooooooooooooooooooo........................oooo        oooooooo",
"oooooooooooooooooooo........................oooo        oooooooo",
"oooooooooooooooooooo........................oooo        oooooooo",
"ooooooooooooooooooooXXXXXXXX........XXXXXXXXoooooooooooooooooooo",
"ooooooooooooooooooooXXXXXXXX........XXXXXXXXoooooooooooooooooooo",
"ooooooooooooooooooooXXXXXXXX........XXXXXXXXoooooooooooooooooooo",
"ooooooooooooooooooooXXXXXXXX........XXXXXXXXoooooooooooooooooooo",
"ooooooooooooooooooooXXXXXXXXoooooooo        oooooooooooooooooooo",
"ooooooooooooooooooooXXXXXXXXoooooooo        oooooooooooooooooooo",
"ooooooooooooooooooooXXXXXXXXoooooooo        oooooooooooooooooooo",
"ooooooooooooooooooooXXXXXXXXoooooooo        oooooooooooooooooooo",
"oooooooooooooooooooo        oooooooo        oooooooooooooooooooo",
"oooooooooooooooooooo        oooooooo        oooooooooooooooooooo",
"oooooooooooooooooooo        oooooooo        oooooooooooooooooooo",
"oooooooooooooooooooo        oooooooo        oooooooooooooooooooo",
"oooooooooooooooooooo        oooooooooooooooooooooooooooooooooooo",
"oooooooooooooooooooo        oooooooooooooooooooooooooooooooooooo",
"oooooooooooooooooooo        oooooooooooooooooooooooooooooooooooo",
"oooooooooooooooooooo        oooooooooooooooooooooooooooooooooooo"
};
