/* XPM */
static const char *player_left_4_xpm[] = {
/* columns rows colors chars-per-pixel */
"64 64 5 1 ",
"  c #388700",
". c #FF8170",
"X c #64B0FF",
"o c #FFFFFF",
"O c None",
/* pixels */
"OOOOOOOOOOOOooooooooooooooooooooooooOOOOoooo....OOOOOOOOOOOOOOOO",
"OOOOOOOOOOOOooooooooooooooooooooooooOOOOoooo....OOOOOOOOOOOOOOOO",
"OOOOOOOOOOOOooooooooooooooooooooooooOOOOoooo....OOOOOOOOOOOOOOOO",
"OOOOOOOOOOOOooooooooooooooooooooooooOOOOoooo....OOOOOOOOOOOOOOOO",
"OOOOOOOOooooooooooooooooooooooooooooooooOOOOOOOOOOOOOOOOOOOOOOOO",
"OOOOOOOOooooooooooooooooooooooooooooooooOOOOOOOOOOOOOOOOOOOOOOOO",
"OOOOOOOOooooooooooooooooooooooooooooooooOOOOOOOOOOOOOOOOOOOOOOOO",
"OOOOOOOOooooooooooooooooooooooooooooooooOOOOOOOOOOOOOOOOOOOOOOOO",
"OOOOOOOO....    ....    ........ooooooooooooOOOOOOOOOOOOOOOOOOOO",
"OOOOOOOO....    ....    ........ooooooooooooOOOOOOOOOOOOOOOOOOOO",
"OOOOOOOO....    ....    ........ooooooooooooOOOOOOOOOOOOOOOOOOOO",
"OOOOOOOO....    ....    ........ooooooooooooOOOOOOOOOOOOOOOOOOOO",
"OOOOOOOO....    ....    ....ooooooooooooooooOOOOOOOOOOOOOOOOOOOO",
"OOOOOOOO....    ....    ....ooooooooooooooooOOOOOOOOOOOOOOOOOOOO",
"OOOOOOOO....    ....    ....ooooooooooooooooOOOOOOOOOOOOOOOOOOOO",
"OOOOOOOO....    ....    ....ooooooooooooooooOOOOOOOOOOOOOOOOOOOO",
"OOOOOOOOooooooooooooooooooooooooooooooooOOOOOOOOOOOOOOOOOOOOOOOO",
"OOOOOOOOooooooooooooooooooooooooooooooooOOOOOOOOOOOOOOOOOOOOOOOO",
"OOOOOOOOooooooooooooooooooooooooooooooooOOOOOOOOOOOOOOOOOOOOOOOO",
"OOOOOOOOooooooooooooooooooooooooooooooooOOOOOOOOOOOOOOOOOOOOOOOO",
"OOOOOOOOOOOOooooooooooooooooooooXXXXXXXXOOOOOOOOOOOOOOOOOOOOOOOO",
"OOOOOOOOOOOOooooooooooooooooooooXXXXXXXXOOOOOOOOOOOOOOOOOOOOOOOO",
"OOOOOOOOOOOOooooooooooooooooooooXXXXXXXXOOOOOOOOOOOOOOOOOOOOOOOO",
"OOOOOOOOOOOOooooooooooooooooooooXXXXXXXXOOOOOOOOOOOOOOOOOOOOOOOO",
"OOOOOOOOOOOOOOOOXXXXXXXXXXXXXXXXXXXXXXXXOOOOOOOOOOOOOOOOOOOOOOOO",
"OOOOOOOOOOOOOOOOXXXXXXXXXXXXXXXXXXXXXXXXOOOOOOOOOOOOOOOOOOOOOOOO",
"OOOOOOOOOOOOOOOOXXXXXXXXXXXXXXXXXXXXXXXXOOOOOOOOOOOOOOOOOOOOOOOO",
"OOOOOOOOOOOOOOOOXXXXXXXXXXXXXXXXXXXXXXXXOOOOOOOOOOOOOOOOOOOOOOOO",
"OOOOOOOOOOOOooooXXXXXXXXXXXXooooooooooooXXXXOOOOOOOOOOOOOOOOOOOO",
"OOOOOOOOOOOOooooXXXXXXXXXXXXooooooooooooXXXXOOOOOOOOOOOOOOOOOOOO",
"OOOOOOOOOOOOooooXXXXXXXXXXXXooooooooooooXXXXOOOOOOOOOOOOOOOOOOOO",
"OOOOOOOOOOOOooooXXXXXXXXXXXXooooooooooooXXXXOOOOOOOOOOOOOOOOOOOO",
"OOOOOOOOOOOOooooXXXXXXXXXXXXXXXXooooooooooooOOOOOOOOOOOOOOOOOOOO",
"OOOOOOOOOOOOooooXXXXXXXXXXXXXXXXooooooooooooOOOOOOOOOOOOOOOOOOOO",
"OOOOOOOOOOOOooooXXXXXXXXXXXXXXXXooooooooooooOOOOOOOOOOOOOOOOOOOO",
"OOOOOOOOOOOOooooXXXXXXXXXXXXXXXXooooooooooooOOOOOOOOOOOOOOOOOOOO",
"OOOOOOOO........XXXXXXXXXXXXXXXX....ooooooooOOOOOOOOOOOOOOOOOOOO",
"OOOOOOOO........XXXXXXXXXXXXXXXX....ooooooooOOOOOOOOOOOOOOOOOOOO",
"OOOOOOOO........XXXXXXXXXXXXXXXX....ooooooooOOOOOOOOOOOOOOOOOOOO",
"OOOOOOOO........XXXXXXXXXXXXXXXX....ooooooooOOOOOOOOOOOOOOOOOOOO",
"OOOOOOOO........XXXXXXXXXXXX........ooooXXXXOOOOOOOOOOOOOOOOOOOO",
"OOOOOOOO........XXXXXXXXXXXX........ooooXXXXOOOOOOOOOOOOOOOOOOOO",
"OOOOOOOO........XXXXXXXXXXXX........ooooXXXXOOOOOOOOOOOOOOOOOOOO",
"OOOOOOOO........XXXXXXXXXXXX........ooooXXXXOOOOOOOOOOOOOOOOOOOO",
"OOOOOOOOOOOOOOOOXXXXXXXXXXXX........XXXXXXXXOOOOOOOOOOOOOOOOOOOO",
"OOOOOOOOOOOOOOOOXXXXXXXXXXXX........XXXXXXXXOOOOOOOOOOOOOOOOOOOO",
"OOOOOOOOOOOOOOOOXXXXXXXXXXXX........XXXXXXXXOOOOOOOOOOOOOOOOOOOO",
"OOOOOOOOOOOOOOOOXXXXXXXXXXXX........XXXXXXXXOOOOOOOOOOOOOOOOOOOO",
"OOOOOOOOOOOOOOOOOOOOooooooooXXXXooooooooOOOOOOOOOOOOOOOOOOOOOOOO",
"OOOOOOOOOOOOOOOOOOOOooooooooXXXXooooooooOOOOOOOOOOOOOOOOOOOOOOOO",
"OOOOOOOOOOOOOOOOOOOOooooooooXXXXooooooooOOOOOOOOOOOOOOOOOOOOOOOO",
"OOOOOOOOOOOOOOOOOOOOooooooooXXXXooooooooOOOOOOOOOOOOOOOOOOOOOOOO",
"OOOOOOOOOOOOOOOOOOOO........OOOOooooooooOOOOOOOOOOOOOOOOOOOOOOOO",
"OOOOOOOOOOOOOOOOOOOO........OOOOooooooooOOOOOOOOOOOOOOOOOOOOOOOO",
"OOOOOOOOOOOOOOOOOOOO........OOOOooooooooOOOOOOOOOOOOOOOOOOOOOOOO",
"OOOOOOOOOOOOOOOOOOOO........OOOOooooooooOOOOOOOOOOOOOOOOOOOOOOOO",
"OOOOOOOOOOOOOOOO............OOOO........OOOOOOOOOOOOOOOOOOOOOOOO",
"OOOOOOOOOOOOOOOO............OOOO........OOOOOOOOOOOOOOOOOOOOOOOO",
"OOOOOOOOOOOOOOOO............OOOO........OOOOOOOOOOOOOOOOOOOOOOOO",
"OOOOOOOOOOOOOOOO............OOOO........OOOOOOOOOOOOOOOOOOOOOOOO",
"OOOOOOOOOOOOOOOOOOOOOOOOOOOO............OOOOOOOOOOOOOOOOOOOOOOOO",
"OOOOOOOOOOOOOOOOOOOOOOOOOOOO............OOOOOOOOOOOOOOOOOOOOOOOO",
"OOOOOOOOOOOOOOOOOOOOOOOOOOOO............OOOOOOOOOOOOOOOOOOOOOOOO",
"OOOOOOOOOOOOOOOOOOOOOOOOOOOO............OOOOOOOOOOOOOOOOOOOOOOOO"
};
