/* XPM */
static const char * bomb_1_xpm[] = {
"64 64 4 1",
" 	c None",
".	c #FFFFFF",
"+	c #000001",
"@	c #B0B0B0",
"                                    ........    ....            ",
"                                    ........    ....            ",
"                                    ........    ....            ",
"                                    ........    ....            ",
"                        ++++++++........                        ",
"                        ++++++++........                        ",
"                        ++++++++........                        ",
"                        ++++++++........                        ",
"                ++++++++++++++++....++++++++....                ",
"                ++++++++++++++++....++++++++....                ",
"                ++++++++++++++++....++++++++....                ",
"                ++++++++++++++++....++++++++....                ",
"            ++++++++....@@@@++++....++++++++++++++++            ",
"            ++++++++....@@@@++++....++++++++++++++++            ",
"            ++++++++....@@@@++++....++++++++++++++++            ",
"            ++++++++....@@@@++++....++++++++++++++++            ",
"        ++++++++........++++++++++++++++++++++++++++++++        ",
"        ++++++++........++++++++++++++++++++++++++++++++        ",
"        ++++++++........++++++++++++++++++++++++++++++++        ",
"        ++++++++........++++++++++++++++++++++++++++++++        ",
"        ++++@@@@........++++++++++++++++++++++++++++++++        ",
"        ++++@@@@........++++++++++++++++++++++++++++++++        ",
"        ++++@@@@........++++++++++++++++++++++++++++++++        ",
"        ++++@@@@........++++++++++++++++++++++++++++++++        ",
"    ++++++++........@@@@++++++++++++++++++++++++++++++++++++    ",
"    ++++++++........@@@@++++++++++++++++++++++++++++++++++++    ",
"    ++++++++........@@@@++++++++++++++++++++++++++++++++++++    ",
"    ++++++++........@@@@++++++++++++++++++++++++++++++++++++    ",
"    ++++++++........++++++++++++++++++++++++++++++++++++++++    ",
"    ++++++++........++++++++++++++++++++++++++++++++++++++++    ",
"    ++++++++........++++++++++++++++++++++++++++++++++++++++    ",
"    ++++++++........++++++++++++++++++++++++++++++++++++++++    ",
"    ++++++++@@@@@@@@++++++++++++++++++++++++++++++++++++++++    ",
"    ++++++++@@@@@@@@++++++++++++++++++++++++++++++++++++++++    ",
"    ++++++++@@@@@@@@++++++++++++++++++++++++++++++++++++++++    ",
"    ++++++++@@@@@@@@++++++++++++++++++++++++++++++++++++++++    ",
"    ++++++++++++++++++++++++++++++++++++++++++++++++++++++++    ",
"    ++++++++++++++++++++++++++++++++++++++++++++++++++++++++    ",
"    ++++++++++++++++++++++++++++++++++++++++++++++++++++++++    ",
"    ++++++++++++++++++++++++++++++++++++++++++++++++++++++++    ",
"    ++++++++++++++++++++++++++++++++++++++++++++++++++++++++    ",
"    ++++++++++++++++++++++++++++++++++++++++++++++++++++++++    ",
"    ++++++++++++++++++++++++++++++++++++++++++++++++++++++++    ",
"    ++++++++++++++++++++++++++++++++++++++++++++++++++++++++    ",
"        ++++++++++++++++++++++++++++++++++++++++++++++++        ",
"        ++++++++++++++++++++++++++++++++++++++++++++++++        ",
"        ++++++++++++++++++++++++++++++++++++++++++++++++        ",
"        ++++++++++++++++++++++++++++++++++++++++++++++++        ",
"        ++++++++++++++++++++++++++++++++++++++++++++++++        ",
"        ++++++++++++++++++++++++++++++++++++++++++++++++        ",
"        ++++++++++++++++++++++++++++++++++++++++++++++++        ",
"        ++++++++++++++++++++++++++++++++++++++++++++++++        ",
"            ++++++++++++++++++++++++++++++++++++++++            ",
"            ++++++++++++++++++++++++++++++++++++++++            ",
"            ++++++++++++++++++++++++++++++++++++++++            ",
"            ++++++++++++++++++++++++++++++++++++++++            ",
"                ++++++++++++++++++++++++++++++++                ",
"                ++++++++++++++++++++++++++++++++                ",
"                ++++++++++++++++++++++++++++++++                ",
"                ++++++++++++++++++++++++++++++++                ",
"                        ++++++++++++++++                        ",
"                        ++++++++++++++++                        ",
"                        ++++++++++++++++                        ",
"                        ++++++++++++++++                        "};
