/* XPM */
static const char * bomb_2_xpm[] = {
"64 64 3 1",
" 	c None",
".	c #000001",
"+	c #FFFFFF",
"                            ........                ++++        ",
"                            ........                ++++        ",
"                            ........                ++++        ",
"                            ........                ++++        ",
"                    ................++++++++++++                ",
"                    ................++++++++++++                ",
"                    ................++++++++++++                ",
"                    ................++++++++++++                ",
"                ................++++++++........        ++++    ",
"                ................++++++++........        ++++    ",
"                ................++++++++........        ++++    ",
"                ................++++++++........        ++++    ",
"            ........++++........++++................            ",
"            ........++++........++++................            ",
"            ........++++........++++................            ",
"            ........++++........++++................            ",
"            ....++++++++........++++................            ",
"            ....++++++++........++++................            ",
"            ....++++++++........++++................            ",
"            ....++++++++........++++................            ",
"        ........++++++++................................        ",
"        ........++++++++................................        ",
"        ........++++++++................................        ",
"        ........++++++++................................        ",
"        ....++++++++....................................        ",
"        ....++++++++....................................        ",
"        ....++++++++....................................        ",
"        ....++++++++....................................        ",
"        ....++++++++....................................        ",
"        ....++++++++....................................        ",
"        ....++++++++....................................        ",
"        ....++++++++....................................        ",
"        ................................................        ",
"        ................................................        ",
"        ................................................        ",
"        ................................................        ",
"        ................................................        ",
"        ................................................        ",
"        ................................................        ",
"        ................................................        ",
"        ................................................        ",
"        ................................................        ",
"        ................................................        ",
"        ................................................        ",
"            ........................................            ",
"            ........................................            ",
"            ........................................            ",
"            ........................................            ",
"            ........................................            ",
"            ........................................            ",
"            ........................................            ",
"            ........................................            ",
"                ................................                ",
"                ................................                ",
"                ................................                ",
"                ................................                ",
"                    ........................                    ",
"                    ........................                    ",
"                    ........................                    ",
"                    ........................                    ",
"                            ........                            ",
"                            ........                            ",
"                            ........                            ",
"                            ........                            "};
