/* XPM */
static const char *bomb_1_xpm[] = {
/* columns rows colors chars-per-pixel */
"64 64 3 1 ",
"  c #000001",
". c #FFFFFF",
"X c None",
/* pixels */
"XXXXXXXXXXXXXXXXXXXXXXXXXXXXXXXXXXXX............XXXX....XXXX....",
"XXXXXXXXXXXXXXXXXXXXXXXXXXXXXXXXXXXX............XXXX....XXXX....",
"XXXXXXXXXXXXXXXXXXXXXXXXXXXXXXXXXXXX............XXXX....XXXX....",
"XXXXXXXXXXXXXXXXXXXXXXXXXXXXXXXXXXXX............XXXX....XXXX....",
"XXXXXXXXXXXXXXXXXXXX            ........        XXXXXXXXXXXXXXXX",
"XXXXXXXXXXXXXXXXXXXX            ........        XXXXXXXXXXXXXXXX",
"XXXXXXXXXXXXXXXXXXXX            ........        XXXXXXXXXXXXXXXX",
"XXXXXXXXXXXXXXXXXXXX            ........        XXXXXXXXXXXXXXXX",
"XXXXXXXXXXXX                    ....                XXXX....XXXX",
"XXXXXXXXXXXX                    ....                XXXX....XXXX",
"XXXXXXXXXXXX                    ....                XXXX....XXXX",
"XXXXXXXXXXXX                    ....                XXXX....XXXX",
"XXXXXXXX        ........        ....                    XXXXXXXX",
"XXXXXXXX        ........        ....                    XXXXXXXX",
"XXXXXXXX        ........        ....                    XXXXXXXX",
"XXXXXXXX        ........        ....                    XXXXXXXX",
"XXXX        ........                                        XXXX",
"XXXX        ........                                        XXXX",
"XXXX        ........                                        XXXX",
"XXXX        ........                                        XXXX",
"XXXX        ........                                        XXXX",
"XXXX        ........                                        XXXX",
"XXXX        ........                                        XXXX",
"XXXX        ........                                        XXXX",
"        ........                                                ",
"        ........                                                ",
"        ........                                                ",
"        ........                                                ",
"        ........                                                ",
"        ........                                                ",
"        ........                                                ",
"        ........                                                ",
"                                                                ",
"                                                                ",
"                                                                ",
"                                                                ",
"                                                                ",
"                                                                ",
"                                                                ",
"                                                                ",
"                                                                ",
"                                                                ",
"                                                                ",
"                                                                ",
"XXXX                                                        XXXX",
"XXXX                                                        XXXX",
"XXXX                                                        XXXX",
"XXXX                                                        XXXX",
"XXXX                                                        XXXX",
"XXXX                                                        XXXX",
"XXXX                                                        XXXX",
"XXXX                                                        XXXX",
"XXXXXXXX                                                XXXXXXXX",
"XXXXXXXX                                                XXXXXXXX",
"XXXXXXXX                                                XXXXXXXX",
"XXXXXXXX                                                XXXXXXXX",
"XXXXXXXXXXXX                                        XXXXXXXXXXXX",
"XXXXXXXXXXXX                                        XXXXXXXXXXXX",
"XXXXXXXXXXXX                                        XXXXXXXXXXXX",
"XXXXXXXXXXXX                                        XXXXXXXXXXXX",
"XXXXXXXXXXXXXXXXXXXX                        XXXXXXXXXXXXXXXXXXXX",
"XXXXXXXXXXXXXXXXXXXX                        XXXXXXXXXXXXXXXXXXXX",
"XXXXXXXXXXXXXXXXXXXX                        XXXXXXXXXXXXXXXXXXXX",
"XXXXXXXXXXXXXXXXXXXX                        XXXXXXXXXXXXXXXXXXXX"
};
