/* XPM */
static const char * bomb_xpm[] = {
"64 64 3 1",
" 	c None",
".	c #FFFFFF",
"+	c #000001",
"                                    ............    ....    ....",
"                                    ............    ....    ....",
"                                    ............    ....    ....",
"                                    ............    ....    ....",
"                    ++++++++++++........++++++++                ",
"                    ++++++++++++........++++++++                ",
"                    ++++++++++++........++++++++                ",
"                    ++++++++++++........++++++++                ",
"            ++++++++++++++++++++....++++++++++++++++    ....    ",
"            ++++++++++++++++++++....++++++++++++++++    ....    ",
"            ++++++++++++++++++++....++++++++++++++++    ....    ",
"            ++++++++++++++++++++....++++++++++++++++    ....    ",
"        ++++++++........++++++++....++++++++++++++++++++        ",
"        ++++++++........++++++++....++++++++++++++++++++        ",
"        ++++++++........++++++++....++++++++++++++++++++        ",
"        ++++++++........++++++++....++++++++++++++++++++        ",
"    ++++++++........++++++++++++++++++++++++++++++++++++++++    ",
"    ++++++++........++++++++++++++++++++++++++++++++++++++++    ",
"    ++++++++........++++++++++++++++++++++++++++++++++++++++    ",
"    ++++++++........++++++++++++++++++++++++++++++++++++++++    ",
"    ++++++++........++++++++++++++++++++++++++++++++++++++++    ",
"    ++++++++........++++++++++++++++++++++++++++++++++++++++    ",
"    ++++++++........++++++++++++++++++++++++++++++++++++++++    ",
"    ++++++++........++++++++++++++++++++++++++++++++++++++++    ",
"++++++++........++++++++++++++++++++++++++++++++++++++++++++++++",
"++++++++........++++++++++++++++++++++++++++++++++++++++++++++++",
"++++++++........++++++++++++++++++++++++++++++++++++++++++++++++",
"++++++++........++++++++++++++++++++++++++++++++++++++++++++++++",
"++++++++........++++++++++++++++++++++++++++++++++++++++++++++++",
"++++++++........++++++++++++++++++++++++++++++++++++++++++++++++",
"++++++++........++++++++++++++++++++++++++++++++++++++++++++++++",
"++++++++........++++++++++++++++++++++++++++++++++++++++++++++++",
"++++++++++++++++++++++++++++++++++++++++++++++++++++++++++++++++",
"++++++++++++++++++++++++++++++++++++++++++++++++++++++++++++++++",
"++++++++++++++++++++++++++++++++++++++++++++++++++++++++++++++++",
"++++++++++++++++++++++++++++++++++++++++++++++++++++++++++++++++",
"++++++++++++++++++++++++++++++++++++++++++++++++++++++++++++++++",
"++++++++++++++++++++++++++++++++++++++++++++++++++++++++++++++++",
"++++++++++++++++++++++++++++++++++++++++++++++++++++++++++++++++",
"++++++++++++++++++++++++++++++++++++++++++++++++++++++++++++++++",
"++++++++++++++++++++++++++++++++++++++++++++++++++++++++++++++++",
"++++++++++++++++++++++++++++++++++++++++++++++++++++++++++++++++",
"++++++++++++++++++++++++++++++++++++++++++++++++++++++++++++++++",
"++++++++++++++++++++++++++++++++++++++++++++++++++++++++++++++++",
"    ++++++++++++++++++++++++++++++++++++++++++++++++++++++++    ",
"    ++++++++++++++++++++++++++++++++++++++++++++++++++++++++    ",
"    ++++++++++++++++++++++++++++++++++++++++++++++++++++++++    ",
"    ++++++++++++++++++++++++++++++++++++++++++++++++++++++++    ",
"    ++++++++++++++++++++++++++++++++++++++++++++++++++++++++    ",
"    ++++++++++++++++++++++++++++++++++++++++++++++++++++++++    ",
"    ++++++++++++++++++++++++++++++++++++++++++++++++++++++++    ",
"    ++++++++++++++++++++++++++++++++++++++++++++++++++++++++    ",
"        ++++++++++++++++++++++++++++++++++++++++++++++++        ",
"        ++++++++++++++++++++++++++++++++++++++++++++++++        ",
"        ++++++++++++++++++++++++++++++++++++++++++++++++        ",
"        ++++++++++++++++++++++++++++++++++++++++++++++++        ",
"            ++++++++++++++++++++++++++++++++++++++++            ",
"            ++++++++++++++++++++++++++++++++++++++++            ",
"            ++++++++++++++++++++++++++++++++++++++++            ",
"            ++++++++++++++++++++++++++++++++++++++++            ",
"                    ++++++++++++++++++++++++                    ",
"                    ++++++++++++++++++++++++                    ",
"                    ++++++++++++++++++++++++                    ",
"                    ++++++++++++++++++++++++                    "};
