/* XPM */
static const char *door_o_xpm[] = {
/* columns rows colors chars-per-pixel */
"64 64 138 2 ",
"   c #000000",
".  c #0C0401",
"X  c #120601",
"o  c #160801",
"O  c #1C0A01",
"+  c #071101",
"@  c #101401",
"#  c #220C01",
"$  c #2A0E01",
"%  c #251201",
"&  c #2B1301",
"*  c #231A01",
"=  c #351200",
"-  c #3B1400",
";  c #331A01",
":  c #3A1B01",
">  c #362100",
",  c #441700",
"<  c #451A00",
"1  c #4C1A00",
"2  c #531D00",
"3  c #581F00",
"4  c #432201",
"5  c #4C2600",
"6  c #4F2801",
"7  c #532200",
"8  c #5C2200",
"9  c #522A00",
"0  c #5B2D00",
"q  c #632700",
"w  c #652900",
"e  c #6E2E00",
"r  c #6E2F00",
"t  c #6F2F00",
"y  c #6B2C00",
"u  c #663300",
"i  c #643400",
"p  c #653400",
"a  c #673400",
"s  c #663400",
"d  c #683400",
"f  c #693400",
"g  c #6A3600",
"h  c #6B3600",
"j  c #6A3500",
"k  c #703000",
"l  c #713100",
"z  c #723100",
"x  c #723200",
"c  c #733200",
"v  c #743300",
"b  c #713400",
"n  c #713500",
"m  c #753400",
"M  c #763400",
"N  c #763500",
"B  c #773500",
"V  c #753600",
"C  c #753400",
"Z  c #783600",
"A  c #793700",
"S  c #7A3700",
"D  c #783600",
"F  c #733B00",
"G  c #743B00",
"H  c #743C00",
"J  c #753C00",
"K  c #743B00",
"L  c #7C3900",
"P  c #7E3A00",
"I  c #793E00",
"U  c #7A3E00",
"Y  c #7D3B00",
"T  c #7E4000",
"R  c #7F4100",
"E  c #7F4100",
"W  c #803C00",
"Q  c #813C00",
"!  c #813D00",
"~  c #823D00",
"^  c #803F00",
"/  c #823E00",
"(  c #833E00",
")  c #833F00",
"_  c #843F00",
"`  c #823D00",
"'  c #804000",
"]  c #834100",
"[  c #824300",
"{  c #834300",
"}  c #844100",
"|  c #874100",
" . c #874200",
".. c #854100",
"X. c #884200",
"o. c #894200",
"O. c #884300",
"+. c #894300",
"@. c #8A4300",
"#. c #8A4400",
"$. c #8B4400",
"%. c #884600",
"&. c #894600",
"*. c #894700",
"=. c #8C4500",
"-. c #8D4600",
";. c #8C4700",
":. c #8E4600",
">. c #8F4600",
",. c #8F4700",
"<. c #894300",
"1. c #8C4800",
"2. c #8D4800",
"3. c #8E4800",
"4. c #8F4800",
"5. c #8E4900",
"6. c #8F4900",
"7. c #8E4800",
"8. c #904700",
"9. c #904700",
"0. c #904800",
"q. c #914800",
"w. c #924900",
"e. c #934900",
"r. c #924A00",
"t. c #934A00",
"y. c #944A00",
"u. c #944B00",
"i. c #954B00",
"p. c #964B00",
"a. c #954C00",
"s. c #964C00",
"d. c #974C00",
"f. c #974D00",
"g. c #944A00",
"h. c #984D00",
"j. c #994E00",
"k. c #994E00",
/* pixels */
"                                                                                                                              + ",
"                                                                                                                              + ",
"                . . . . . . . . . . . . . . . . .                               . . . . . . . . . . . . . . . . .             + ",
"            . X o O # # # # # # # # # # # # # # O o .                       . o O # # # # # # # # # # # # # # O o X           + ",
"            . O $ = = = = = = = = = = = = = = = = # o                       o # = = = = = = = = = = = = = = = = $ o .         + ",
"            X # - 1 1 1 1 1 1 1 1 1 1 1 1 1 1 1 , = O .                   . O = , 1 1 1 1 1 1 1 1 1 1 1 1 1 1 1 - # X         + ",
"        . . O = < 2 3 8 8 8 8 8 8 8 8 8 8 8 8 3 1 - # .                   . # - 1 3 8 8 8 8 8 8 8 8 8 8 8 8 3 2 , = O . .     + ",
"      . o # $ - 1 2 8 w y r r r r r r r r w q 8 1 - # .                   . # - 1 8 q w r r r r r r r r y w 8 2 1 - $ # o .   + ",
"    . o # = - < 1 3 q r Z W W W W W W W L B y 8 1 - # .                   . # - 1 8 y B L W W W W W W W Z r q 3 1 , - = # o . + ",
"    . # = < 1 2 2 8 w Z  .t.t.t.t.t.t.t.,.W l q 2 - # .                   . # - 2 q l W ,.t.t.t.t.t.t.t. .Z w 8 2 2 1 , = # . + ",
". . o $ , 2 3 8 8 q l W t.j.s.y.t.t.y.s.y.@.B q 2 - # .                   . # - 2 q B @.y.s.y.t.t.y.s.j.8.W l q 8 8 3 2 - $ o @ ",
"# # $ - < 2 8 q w l L  .t.s.8.@.W _ $.t.y.@.B q 2 - # .                   . # - 2 q B @.y.t.$._ W @.8.s.t. .L l w q 8 2 , - $ * ",
"= = - , 1 2 q y B W  .,.s.y.@.L v B W ,.t. .B q 2 - # .                   . # - 2 q B @.t.,.W B v L @.y.y.,. .W B y q 2 1 , - > ",
"1 1 1 2 2 3 q v W ,.t.s.j.t.W l w y Z @.t. .B q 2 - # .                   . # - 2 q B @.t.@.Z w w l W t.j.s.t.,.W l q 3 2 2 1 5 ",
"2 2 2 2 2 3 w Z @.s.j.j.j.t.W l w y Z @.t. .B q 2 - # .                   . # - 1 q B @.t.@.Z w w l W t.j.j.j.s.@.B w 3 2 2 2 9 ",
"2 2 2 2 2 3 w Z @.s.j.j.j.y.@.L v B W ,.t.@.B q 2 - # .                   . # - 1 q B @.t.,.W B v L @.y.j.j.j.s.@.B w 3 2 2 2 9 ",
"2 2 2 2 2 3 w Z @.s.j.j.j.s.8.@.W _ $.t.y.@.B q 2 - # .                   . # - 2 q B @.y.t.$._ W @.8.s.j.j.j.s.@.B w 3 2 2 2 9 ",
"2 2 2 2 2 3 w Z @.s.j.j.j.j.s.y.t.t.y.s.y.@.B q 2 - # .                   . # - 2 q B @.y.s.y.t.t.y.s.j.j.j.j.s.@.Z w 3 2 2 2 9 ",
"1 1 1 2 2 3 w Z @.s.j.j.j.j.j.j.j.j.j.j.y.@.B q 2 - # .                   . # - 2 q B @.y.j.j.j.j.j.j.j.j.j.j.s.@.B w 3 2 2 1 5 ",
"= = - , 1 2 w Z @.s.j.j.j.j.j.j.j.j.j.j.y.@.B q 2 - # .                   . # - 1 q B @.y.j.j.j.j.j.j.j.j.j.j.s.@.B w 2 1 , - > ",
"# # $ - < 2 w Z @.s.j.j.j.j.j.j.j.j.j.j.y.@.B q 2 - # .                   . # - 1 q B @.y.j.j.j.j.j.j.j.j.j.j.s.@.B w 2 , = $ * ",
". . o $ , 2 w Z @.s.j.j.j.j.j.j.j.j.j.j.y.@.B q 2 - # .                   . # - 2 q B @.y.j.j.j.j.j.j.j.j.j.j.s.@.B w 2 - $ o @ ",
"    X # - 2 w Z @.s.j.j.j.s.t.6.$.$.6.y.y.@.B q 2 - # .                   . # - 2 q B @.t.y.6.$.$.6.t.s.j.j.j.s.@.B w 2 - # . + ",
"    . # - 2 w Z @.s.j.j.j.t.[ G a h U $.t.@.B q 2 - # .                   . # - 2 q B @.t.$.U h a G [ t.j.j.j.s.@.B w 2 - # . + ",
"    . # - 2 w Z @.s.j.j.j.6.H 0 4 5 a R 6.@.B q 2 - # .                   . # - 2 q B @.6.R a 5 4 0 H 6.j.j.j.s.@.B w 2 - # . + ",
"    . # - 2 w Z @.s.j.j.j.$.u 4 % & 9 G ,.@.B q 2 - # .                   . # - 2 q B @.,.F 6 & % 4 a $.j.j.j.s.@.B w 2 - # . + ",
"    . # - 2 w Z @.y.s.y.t.W 0 ; X O 4 h  .W l q 2 - $ o                   o $ - 2 q l W [ h 4 O X ; 0 [ t.y.s.y.@.B w 2 - # . + ",
"    X # - 2 w Z @.y.t.$._ b 6 & X o : 0 B B y q 2 , = #                   # = , 2 8 y B B 0 : o X & 7 b _ $.t.y.@.B w 2 - # . + ",
"    . # - 2 w Z @.t.,.W B q < % . o ; 7 w w q 8 2 1 , -                   - , 1 2 8 q w w 5 ; o . & < q B W ,.t.@.B w 2 - # . + ",
"    . # - 2 w Z @.t. .B w 2 - # . X & < 8 8 8 3 2 2 1 1                   1 2 2 2 3 8 8 7 < & X . # - 7 w B  .t.@.B w 2 - # . + ",
"    . # - 2 w Z $.t._ l q 1 = O . X # - 2 2 2 2 2 2 2 2                   2 2 2 2 2 2 2 2 - # X . O = 1 q l  .t.@.B w 2 - # . + ",
"    . # - 2 w Z @.t._ l q 1 = O . X # - 2 2 2 2 2 2 2 2                   2 2 2 2 2 2 2 2 - # X . O = 1 q l  .t.@.B w 2 - # . + ",
"    X # - 2 w Z @.t._ l q 1 = O . X # - 2 2 2 2 2 2 2 2                   2 2 2 2 2 2 2 2 - # X . O = 1 q l  .t.@.B w 2 - # . + ",
"    X # - 2 w Z @.t._ l q 1 = O . X # - 2 2 2 2 2 2 2 2                   2 2 2 2 2 2 2 2 - # X . O = 1 q l  .t.@.B w 2 - # . + ",
"    . # - 2 w Z @.t. .B w 2 - # . X & < 8 8 8 3 2 2 1 1                   1 1 2 2 3 8 8 7 < & X . # - 7 w B  .t.@.B w 2 - # . + ",
"    . # - 2 w Z @.t.,.W B q < % . o ; 7 w w q 8 2 1 , -                   - , 1 2 8 q w w 7 ; o . & < q B W ,.t.@.B w 2 - # . + ",
"    . # - 2 w Z @.y.t.$._ b 6 & . o : 0 B B y 8 2 , = #                   # = , 2 8 y B B 0 : o X & 7 b _ $.t.y.@.B w 2 - # . + ",
"    . # - 2 w Z @.y.s.y.t.W 0 ; X O 4 h  .W l q 2 - $ o                   o $ - 2 q l W [ h 4 O X ; 0 [ t.y.s.y.@.B w 2 - # . + ",
"    X # - 2 w Z @.s.j.j.j.$.u 4 % & 9 G ,.@.B q 2 - # .                   . # - 2 q B @.,.F 6 & % 4 a $.j.j.j.s.@.B w 2 - # . + ",
"    X # - 2 w Z @.s.j.j.j.6.H 0 4 5 a R 6.@.B q 2 - # .                   . # - 2 q B @.6.R a 5 4 0 H 6.j.j.j.s.@.B w 2 - # . + ",
"    . # - 2 w Z @.s.j.j.j.t.[ G a h U $.t.@.B q 2 - # .                   . # - 2 q B  .t.$.U h a G [ t.j.j.j.s.@.B w 2 - # . + ",
"    . # - 2 w Z @.s.j.j.j.s.t.6.$.$.6.y.y.@.B q 2 - # .                   . # - 2 q B  .y.y.6.$.$.6.t.s.j.j.j.s.@.B w 2 - # . + ",
". . o $ , 2 w Z @.s.j.j.j.j.j.j.j.j.j.j.y.@.B q 2 - # .                   . # - 2 q B  .y.j.j.j.j.j.j.j.j.j.j.s.@.B w 2 - $ o @ ",
"# # $ - < 2 w Z @.s.j.j.j.j.j.j.j.j.j.j.y.@.B q 2 - # .                   . # - 2 q B  .y.j.j.j.j.j.j.j.j.j.j.s.@.B w 2 , = $ * ",
"= = - , 1 2 w Z @.s.j.j.j.j.j.j.j.j.j.j.y.@.B q 2 - # .                   . # - 2 q B @.y.j.j.j.j.j.j.j.j.j.j.s.@.B w 2 1 , - > ",
"1 1 1 2 2 3 w Z @.s.j.j.j.j.j.j.j.j.j.j.y.@.B q 2 - # .                   . # - 2 q B @.y.j.j.j.j.j.j.j.j.j.j.s.@.B w 3 2 2 1 5 ",
"2 2 2 2 2 3 w Z @.s.j.j.j.j.s.y.t.t.y.s.y.@.B q 1 - # .                   . # - 2 q B @.y.s.y.t.t.y.s.j.j.j.j.s.@.B w 3 2 2 2 9 ",
"2 2 2 2 2 3 w Z @.s.j.j.j.s.8.@.W _ $.t.y.@.B q 1 - # .                   . # - 2 q B @.y.t.$._ W @.8.s.j.j.j.s.@.B w 3 2 2 2 9 ",
"2 2 2 2 2 3 w Z @.s.j.j.j.y.@.L v B W ,.t.@.B q 2 - # .                   . # - 2 q B @.t.,.W B v L @.y.j.j.j.s.@.B w 3 2 2 2 9 ",
"2 2 2 2 2 3 w Z @.s.j.j.j.t.W l w y Z @.t.@.B q 1 - # .                   . # - 1 q B @.t.@.Z w w l W t.j.j.j.s.@.B w 3 2 2 2 9 ",
"1 1 1 2 2 3 q v W ,.t.s.j.t.W l w y Z @.t.@.B q 1 - # .                   . # - 1 q B @.t.@.Z w w l W t.j.s.t.,.W l q 3 2 2 1 5 ",
"= = - , 1 2 q r B W  .,.s.y.@.L v B W ,.t.@.B q 2 - # .                   . # - 2 q B @.t.,.W B v L @.y.y.,. .W B y q 2 1 , - > ",
"# # $ - < 2 8 q w l L  .t.s.8.@.W _ $.t.y.@.B q 2 - # .                   . # - 2 q B @.y.t.$._ W @.8.s.t. .L l w q 8 2 , = $ * ",
". . o $ , 2 3 8 8 q l W t.j.s.y.t.t.y.s.y.@.B q 2 - # .                   . # - 2 q B @.y.s.y.t.t.y.s.j.8.W l q 8 8 3 2 - $ o @ ",
"    . # = < 1 2 2 8 w Z  .t.t.t.t.t.t.t.,.W l q 2 - # .                   . # - 2 q l W ,.t.t.t.t.t.t.t. .Z w 8 2 2 1 , = # . + ",
"    . o # = - < 1 3 q r Z W W W W W W W L B y 8 1 - # .                   . # - 1 8 y B L W W W W W W W Z r q 3 1 , - = # o . + ",
"      . o # $ - 1 2 8 w y r r r r r r r r w q 8 1 - # .                   . # - 1 8 q w r r r r r r r r y w 8 2 1 - $ # o .   + ",
"        . . O = < 2 3 8 8 8 8 8 8 8 8 8 8 8 8 3 1 - # .                   . # - 1 3 8 8 8 8 8 8 8 8 8 8 8 8 3 2 , = O . .     + ",
"            X # - 1 1 1 1 1 1 1 1 1 1 1 1 1 1 1 , = O .                   . O = , 1 1 1 1 1 1 1 1 1 1 1 1 1 1 1 - # X         + ",
"            . O $ = = = = = = = = = = = = = = = = # o                       o # = = = = = = = = = = = = = = = = $ o .         + ",
"            . X o O # # # # O # # # # # # # O O O o .                       . o O # # # # # O O # # # # # # O O o X           + ",
"                . . . . . . . . . . . . . . . . .                               . . . . . . . . . . . . . . . . .             + ",
"                                                                                                                              + ",
"                                                                                                                              + "
};
