/* XPM */
static const char *door_c_xpm[] = {
/* columns rows colors chars-per-pixel */
"64 64 139 2 ",
"   c #010001",
".  c #0B0401",
"X  c #120601",
"o  c #140901",
"O  c #1C0A01",
"+  c #071101",
"@  c #101401",
"#  c #220C01",
"$  c #2B0F00",
"%  c #251201",
"&  c #2E1100",
"*  c #231A01",
"=  c #331100",
"-  c #3C1500",
";  c #3A1C01",
":  c #362100",
">  c #431700",
",  c #461900",
"<  c #4C1900",
"1  c #551D00",
"2  c #581F00",
"3  c #452201",
"4  c #4A2601",
"5  c #522500",
"6  c #5B2100",
"7  c #532B00",
"8  c #5B2C00",
"9  c #5F3100",
"0  c #622600",
"q  c #662900",
"w  c #6D2E00",
"e  c #6E2E00",
"r  c #6E2F00",
"t  c #6F2F00",
"y  c #6C2D00",
"u  c #6B2C00",
"i  c #673400",
"p  c #673400",
"a  c #683500",
"s  c #693500",
"d  c #6A3700",
"f  c #6B3400",
"g  c #6D3800",
"h  c #6D3800",
"j  c #703000",
"k  c #723100",
"l  c #723200",
"z  c #733200",
"x  c #743300",
"c  c #753300",
"v  c #753400",
"b  c #763400",
"n  c #773500",
"m  c #753400",
"M  c #783600",
"N  c #793700",
"B  c #793700",
"V  c #703900",
"C  c #713A00",
"Z  c #753C00",
"A  c #763C00",
"S  c #763D00",
"D  c #743A00",
"F  c #7B3800",
"G  c #7C3800",
"H  c #7C3900",
"J  c #7D3A00",
"K  c #7E3A00",
"L  c #7E3B00",
"P  c #7F3B00",
"I  c #7B3F00",
"U  c #7D3A00",
"Y  c #7D4000",
"T  c #7E4100",
"R  c #7E4100",
"E  c #803C00",
"W  c #813D00",
"Q  c #823E00",
"!  c #833E00",
"~  c #843F00",
"^  c #853F00",
"/  c #823D00",
"(  c #804100",
")  c #834300",
"_  c #854000",
"`  c #864000",
"'  c #874100",
"]  c #874200",
"[  c #844400",
"{  c #874500",
"}  c #864100",
"|  c #894200",
" . c #894300",
".. c #8A4300",
"X. c #8A4400",
"o. c #8B4400",
"O. c #884600",
"+. c #894600",
"@. c #8A4600",
"#. c #8A4700",
"$. c #8B4700",
"%. c #8C4500",
"&. c #8D4500",
"*. c #8C4700",
"=. c #8D4700",
"-. c #8E4600",
";. c #8F4600",
":. c #8B4400",
">. c #8C4800",
",. c #8D4800",
"<. c #8F4800",
"1. c #8E4900",
"2. c #8E4800",
"3. c #904700",
"4. c #904700",
"5. c #904800",
"6. c #914800",
"7. c #904900",
"8. c #914900",
"9. c #924800",
"0. c #924900",
"q. c #934900",
"w. c #914A00",
"e. c #924A00",
"r. c #934A00",
"t. c #944A00",
"y. c #944B00",
"u. c #954B00",
"i. c #964B00",
"p. c #954C00",
"a. c #964C00",
"s. c #974C00",
"d. c #964D00",
"f. c #974D00",
"g. c #934A00",
"h. c #984D00",
"j. c #984E00",
"k. c #994E00",
"l. c #994E00",
/* pixels */
"                                                                                                                              + ",
"                                                                                                                              + ",
"                  . . . . . . . . . . . . . . . . . . . .             . . . . . . . . . . . . . . . . . . . .                 + ",
"              . X o O # # # # # # # # # # # # # # # # O O X .     . X O O # # # # # # # # # # # # # # # # # O o .             + ",
"              . O # = = = = = = = = = = = = = = = = = = $ # X     X O $ = = = = = = = = = = = = = = = = = = = # O .           + ",
"              X # = , < < < < < < < < < < < < < < < < < - $ O . . O $ - , < < < < < < < < < < < < < < < < < > = # X           + ",
"          . X O = > 1 2 2 6 6 6 6 6 6 6 6 6 6 6 6 6 2 1 , = O . . O = , 1 2 6 6 6 6 6 6 6 6 6 6 6 6 6 6 2 1 < - $ O . .       + ",
"      . X O # & - , 1 6 0 q t t t t t t t t t t u 0 6 1 , = O . . O = , 1 6 0 u t t t t t t t t t t u q 6 2 1 , - $ # O X .   + ",
"      X O $ = - , < 1 6 u z K W W W W W W P W K n t 0 1 , = O . . O = > 1 0 u z K W P P W W W W W K N t q 6 1 < , - = $ O X . + ",
"    . O $ - < < 1 1 2 0 t K o.q.q.q.q.q.q.q.q.%.W n q 6 , = O . . O = > 1 0 z K o.q.q.q.q.q.q.q.q.%.' N u 6 1 1 1 < , - $ O . + ",
". . X # = , 1 2 6 6 0 u n ' q.k.a.t.q.q.q.t.a.t.| N u 6 , = O . . O = , 1 q n ' q.k.a.t.q.q.q.t.a.a.%.W z q 6 6 6 2 1 , = # o @ ",
"# # # = - < 1 6 0 u t n W o.t.a.3.| ^ W ' %.q.q.| N u 6 , = O . . O = , 1 q n ' q.t.3.| ^ W ' %.q.t.q.' K c t q 0 6 1 < - = # * ",
"= = - > < < 1 0 u c K ^ o.q.a.t.| P n c K ' 3.q.| N u 6 , = O . . O = , 1 q n ' q.q.| W n c F ^ %.t.t.%.| W K z u 6 1 < , > - : ",
"< < < < 1 1 6 q z W %.q.t.a.a.q.W n u q z K %.q.| N u 6 , = O . . O = , 1 q n ' q.q.W n u q t K | t.a.a.t.q.o.K z 0 2 1 1 < < 4 ",
"1 1 1 1 1 1 6 q n ' t.k.k.k.k.q.W n u q z K %.q.| N u 6 , = O . . O = , 1 q n ' q.q.W n u q t K | t.k.k.k.k.q.W c q 6 1 1 1 1 7 ",
"1 1 1 1 1 1 6 q n ' t.k.k.k.k.t.| W n c K ' 3.q.| N u 6 , = O . . O = > 1 q n ' q.q.| W n c F ^ %.t.k.k.k.k.q.W c q 6 1 1 1 1 7 ",
"1 1 1 1 1 1 6 q n ' t.k.k.k.k.a.3.| ^ W ' %.t.q.| N u 6 , = O . . O = , 1 q n ' q.t.3.| ^ W ' %.q.a.k.k.k.k.q.W c q 6 1 1 1 1 7 ",
"1 1 1 1 1 1 6 q n ' t.k.k.k.k.k.a.t.q.q.q.t.a.t.| N u 6 , = O . . O = , 1 q n ' q.k.a.t.q.q.q.t.a.k.k.k.k.k.q.W c q 6 1 1 1 1 7 ",
"< < < < 1 1 6 q n ' t.k.k.k.k.k.k.k.k.k.k.k.k.t.| N u 6 , = O . . O = , 1 q n ' q.k.k.k.k.k.k.k.k.k.k.k.k.k.q.W c q 6 1 1 < < 4 ",
"= = - > < < 6 q n ' t.k.k.k.k.k.k.k.k.k.k.k.k.t.| N u 6 , = O . . O = > 1 q n ' q.k.k.k.k.k.k.k.k.k.k.k.k.k.q.W c q 2 < , > - : ",
"# # # = - < 6 q n ' t.k.k.k.k.k.k.k.k.k.k.k.k.t.| N u 6 , = O . . O = , 1 q n ' q.k.k.k.k.k.k.k.k.k.k.k.k.k.q.W c q 1 < - = # * ",
". . X # = , 1 q n ' t.k.k.k.k.k.k.k.k.k.k.k.k.t.| N u 6 , = O . . O = , 1 q n ' q.k.k.k.k.k.k.k.k.k.k.k.k.k.q.W c q 1 , = # o @ ",
"    . O = , 1 q n ' t.k.k.k.k.a.q.,.o.o.%.q.a.t.| N u 6 , = O . . O = , 1 q n ' q.a.q.,.o.o.o.q.t.k.k.k.k.k.q.W c q 1 > & O . + ",
"    . O = , 1 q n ' t.k.k.k.k.q.) S s i C T %.q.| N u 6 , = O . . O = , 1 q n ' q.q.) S s i C T o.t.k.k.k.k.q.W c q 1 > & O . + ",
"    . O = , 1 q n ' t.k.k.k.k.,.S 9 4 3 7 g ) ,.| N u 6 , = O . . O = , 1 q n ' q.#.S 9 4 3 7 s ) q.k.k.k.k.q.W c q 1 > & O . + ",
"    . O = , 1 q n ' t.k.k.k.a.{ s 4 % % ; 8 I %.| N u 6 , = O . . O = , 1 q n ' ,.{ i 4 % % ; 8 S ,.k.k.k.k.q.W c q 1 > & O . + ",
"    . O & > 1 q n ' q.a.a.t.q.P 8 ; O o & 4 C ' W n q 6 < = # o o # = , 1 0 z K ' I 8 ; O o % 4 s ' q.t.a.k.q.W c q 1 > & O . + ",
"    . O & > 1 q n ' q.t.%.| W f 5 = o X % 3 q n n t 0 2 < > = # # = - < 1 0 u z N f 5 = o X % , 8 B ^ o.3.a.q.W c q 1 > & O . + ",
"    . O & , 1 q n ' q.q.' K z 0 , & o . # ; 5 q u 0 6 1 1 < > - - > < < 1 6 0 u u 8 , & o . O ; 5 u n W o.t.q.W c q 1 > & O . + ",
"    . O = , 1 q n ' q.%.W z q 1 - # X . O = < 6 6 6 2 1 1 1 < < < < 1 1 1 2 6 6 6 1 - # . . O = , 6 u n ^ q.q.W c q 1 > & O . + ",
"    . O = , 1 q n ' q.%.K t 6 < = # . . O & > 1 1 1 1 1 1 1 1 1 1 1 1 1 1 1 1 1 1 < = # . . O $ > 1 0 z W q.q.W c q 1 > & O . + ",
"    . O = , 1 q n ' q.%.K t 6 < = # . . O & > 1 1 1 1 1 1 1 1 1 1 1 1 1 1 1 1 1 1 < = # . . O $ > 1 0 z W q.q.W c q 1 > & O . + ",
"    . O = , 1 q n ' q.%.K t 6 < = # . . O & > 1 1 1 1 1 1 1 1 1 1 1 1 1 1 1 1 1 1 < = # . . O $ > 1 0 z W q.q.W c q 1 > & O . + ",
"    . O = , 1 q n ' q.%.K t 6 < = # . . O & > 1 1 1 1 1 1 1 1 1 1 1 1 1 1 1 1 1 1 < = # . . O $ > 1 0 z W q.q.W c q 1 > & O . + ",
"    . O = , 1 q n ' q.%.P z q 1 - # X . O = < 6 6 6 2 1 1 1 < < < < 1 1 1 2 6 6 6 1 - # X . O = , 6 u n W q.q.W c q 1 > & O . + ",
"    . O = , 1 q n ' q.q.' K z 0 , & o . % ; 5 q u 0 6 1 1 < > - - > < < 1 6 0 u u 8 , & o . # ; 5 u n W o.t.q.W c q 1 > & O . + ",
"    . O = , 1 q n ' q.t.%.' W f 5 = o X % 3 q n n t 0 2 < > = # # = - < 1 0 u z N f 5 = o X % , 8 B ^ o.3.a.q.W c q 1 > & O . + ",
"    . O = , 1 q n ' q.a.a.q.q.P 8 ; O o & 4 C ' W n q 6 < = # o o # = , 1 0 z K ' I 8 ; O o % 4 s ' q.t.a.k.q.W c q 1 > & O . + ",
"    . O = > 1 q n ' t.k.k.k.a.{ s 4 % % ; 8 I %.| N u 6 , = O . . O = , 1 q n ' ,.{ i 4 % % ; 8 S ,.k.k.k.k.q.W c q 1 > & O . + ",
"    . O = > 1 q n ' t.k.k.k.k.,.S 9 4 3 7 g ) ,.| N u 6 , = O . . O = , 1 q n ' q.o.S 9 4 3 7 s ) q.k.k.k.k.q.W c q 1 > & O . + ",
"    . O = , 1 q n ' t.k.k.k.k.q.) S s i C T %.q.| N u 6 , = O . . O = , 1 q n ' q.q.) S s i C T o.t.k.k.k.k.q.W c q 1 > & O . + ",
"    . O = , 1 q n ' t.k.k.k.k.a.q.,.o.o.%.q.a.t.| N u 6 , = O . . O = , 1 q n ' q.a.q.,.o.o.o.q.t.k.k.k.k.k.q.W c q 1 > & O . + ",
". . X # = , 1 q n ' t.k.k.k.k.k.k.k.k.k.k.k.k.t.| N u 6 , = O . . O = , 1 q n ' q.k.k.k.k.k.k.k.k.k.k.k.k.k.q.W c q 1 , = # o @ ",
"# # # = - < 6 q n ' t.k.k.k.k.k.k.k.k.k.k.k.k.t.| N u 6 , = O . . O = , 1 q n ' q.k.k.k.k.k.k.k.k.k.k.k.k.k.q.W c q 1 < - = # * ",
"= = - > < < 6 q n ' t.k.k.k.k.k.k.k.k.k.k.k.k.t.| N u 6 , = O . . O = , 1 q n ' q.k.k.k.k.k.k.k.k.k.k.k.k.k.q.W c q 2 < , > - : ",
"< < < < 1 1 6 q n ' t.k.k.k.k.k.k.k.k.k.k.k.k.t.| N u 6 , = O . . O = , 1 q n ' q.k.k.k.k.k.k.k.k.k.k.k.k.k.q.W c q 6 1 1 < < 4 ",
"1 1 1 1 1 1 6 q n ' t.k.k.k.k.k.a.t.q.q.q.t.a.q.| N u 6 , = O . . O = , 1 q n ' q.k.a.t.q.q.q.t.a.k.k.k.k.k.q.W c q 6 1 1 1 1 7 ",
"1 1 1 1 1 1 6 q n ' t.k.k.k.k.a.3.| ^ W ' %.t.q.| N u 6 , = O . . O = , 1 q n ' q.t.3.| ^ W ' %.q.a.k.k.k.k.q.W c q 6 1 1 1 1 7 ",
"1 1 1 1 1 1 6 q n ' t.k.k.k.k.t.| W n c K ' 3.q.| N u 6 , = O . . O = , 1 q n ' q.q.| W n c F ^ %.t.k.k.k.k.q.W c q 6 1 1 1 1 7 ",
"1 1 1 1 1 1 6 q n ' t.k.k.k.k.q.W n u q z K o.q.| N u 6 , = O . . O = , 1 q n ' q.q.W n u q t K | t.k.k.k.k.q.W c q 6 1 1 1 1 7 ",
"< < < < 1 1 6 q z W %.q.t.a.a.q.W n u q z K %.q.| N u 6 , = O . . O = , 1 q n ' q.q.W n q q t K | t.a.a.t.q.o.K z 0 2 1 1 < < 4 ",
"= = - > < < 2 0 u c K ^ o.q.a.t.| W n c F ' 3.q.| N u 6 , = O . . O = , 1 q n ' q.q.| W n z F ^ %.t.t.%.| W K z u 6 1 < , > - : ",
"# # # = - < 1 6 0 u t n W o.t.a.3.| ^ W ' %.t.q.| N u 6 , = O . . O = , 1 q n ' q.t.%.| ^ W ' %.q.t.q.' K c t q 0 6 1 < - = # * ",
". . X # = , 1 2 6 6 0 u n ' q.k.a.t.q.q.q.t.a.t.| N u 6 , = O . . O = > 1 q n ' q.k.a.t.q.q.q.t.a.a.%.W z q 6 6 6 2 1 , = # o @ ",
"    . O $ - < < 1 1 2 0 t K o.q.q.q.q.q.q.q.q.%.W n q 6 , = O . . O = , 1 0 z K o.q.q.q.q.q.q.q.q.%.' N u 6 1 1 1 < , - $ O . + ",
"      X O $ = - , < 1 6 u z K W W W W W W W W K n t 0 1 , = O . . O = , 1 0 u z K W W W W W W W W K N t q 6 1 < , - = $ O X . + ",
"      . X O # & - , 1 6 0 q t t t t t t t t t t u 0 6 1 , = O . . O = , 1 6 0 u t t t t t t t t t t u q 6 2 1 , - $ # O X .   + ",
"          . X O = > 1 2 2 6 6 6 6 6 6 6 6 6 6 6 6 6 2 1 , = O . . O = , 1 2 6 6 6 6 6 6 6 6 6 6 6 6 6 6 2 1 < - $ O . .       + ",
"              X # = , < < < < < < < < < < < < < < < < < - $ O . . O $ - , < < < < < < < < < < < < < < < < < > = # X           + ",
"              . O # = = = = = = = = = = = = = = = = = = $ # X     X O $ = = = = = = = = = = = = = = = = = = = # O .           + ",
"              . X o O # # # # # # # # # # # # # # # # O O X .     . X O O # # # # # # # # # # # # # # # # # O o .             + ",
"                  . . . . . . . . . . . . . . . . . . . .             . . . . . . . . . . . . . . . . . . . .                 + ",
"                                                                                                                              + ",
"                                                                                                                              + "
};
