/* XPM */
static const char *door_xpm[] = {
"64 64 97 2 ",
"   c #000001",
".  c #994E00",
"X  c #0B0401",
"o  c #200B01",
"O  c #361200",
"+  c #4B1900",
"@  c #5E2300",
"#  c #6F2F00",
"$  c #803C00",
"%  c #914800",
"&  c #561D00",
"*  c #388700",
"=  c #894300",
"-  c #662900",
";  c #924900",
":  c #944A00",
">  c #964C00",
",  c #833E00",
"<  c #743300",
"1  c #421600",
"2  c #140701",
"3  c #317600",
"4  c #235400",
"5  c #153301",
"6  c #071101",
"7  c #591F00",
"8  c #4F1B00",
"9  c #521C00",
"0  c #4D1A00",
"q  c #5B2100",
"w  c #5D2200",
"e  c #270D01",
"r  c #7B3800",
"t  c #3A1400",
"y  c #6C2D00",
"u  c #2F1000",
"i  c #090301",
"p  c #1C0A01",
"a  c #070201",
"s  c #040101",
"d  c #984D00",
"f  c #904700",
"g  c #7F3B00",
"h  c #0C0401",
"j  c #571E00",
"k  c #4A1900",
"l  c #5F2400",
"z  c #551D00",
"x  c #341200",
"c  c #703000",
"v  c #924A00",
"b  c #452301",
"n  c #673400",
"m  c #753C00",
"M  c #8D4800",
"N  c #884600",
"B  c #010001",
"V  c #220B01",
"C  c #974D00",
"Z  c #5D3000",
"A  c #451E00",
"S  c #100701",
"D  c #3C7A00",
"F  c #703400",
"G  c #531F00",
"H  c #5A2D00",
"J  c #301601",
"K  c #0E0601",
"L  c #3B1600",
"P  c #361B01",
"I  c #2A1201",
"U  c #7F3F00",
"Y  c #241201",
"T  c #230D01",
"R  c #612900",
"E  c #120901",
"W  c #502500",
"Q  c #435F00",
"!  c #834300",
"~  c #4B4500",
"^  c #522A00",
"/  c #3A7900",
"(  c #387800",
")  c #3F5E00",
"_  c #357800",
"`  c #375B00",
"'  c #444300",
"]  c #373E00",
"[  c #327700",
"{  c #231A01",
"}  c #362100",
"|  c #1C3501",
" . c #101401",
".. c #2F5800",
"X. c #275600",
"o. c #293900",
"O. c #492700",
/* pixels */
"                                                                                                                    6 5 4 3 * * ",
"                                                                                                                    6 5 4 3 * * ",
"            B s a i X X X X X X X X X X X X X X X X i a s B B s a i X X X X X X X X X X X X X X X X i a s B         6 5 4 3 * * ",
"            s h 2 p o o o o o o o o o o o o o o o o p 2 h s s h 2 p o o o o o o o o o o o o o o o o p 2 h s         6 5 4 3 * * ",
"            a 2 V u O O O O O O O O O O O O O O O O u V 2 a a 2 V u O O O O O O O O O O O O O O O O u V 2 a         6 5 4 3 * * ",
"            i p u 1 + + + + + + + + + + + + + + + + 1 u p i i p u 1 + + + + + + + + + + + + + + + + 1 u p i         6 5 4 3 * * ",
"    B s a i 2 e t 0 j 7 q w @ @ @ @ @ @ @ @ w q 7 j + O o X X o O + j 7 q w @ @ @ @ @ @ @ @ w q 7 j 0 t e 2 i a s B 6 5 4 3 * * ",
"    s h 2 p e x 1 8 7 l - y # # # # # # # # y - l 7 + O o X X o O + 7 l - y # # # # # # # # y - l 7 8 1 x e p 2 h s 6 5 4 3 * * ",
"    a 2 V u t 1 k 9 q - c r $ $ $ $ $ $ $ $ r c - q + O o X X o O + q - c r $ $ $ $ $ $ $ $ r c - q 9 k 1 t u V 2 a 6 5 4 3 * * ",
"    i p u 1 0 8 9 z w y r = % % % % % % % % = r y w + O o X X o O + w y r = % % % % % % % % = r y w z 9 8 0 1 u p i 6 5 4 3 * * ",
"X X 2 e t 0 j 7 q w - < , ; d > : ; ; : > d % $ # @ + O o X X o O + @ # $ % d > : ; ; : > d ; , < - w q 7 j 0 t e 2  .| X.[ * * ",
"o o e x 1 8 7 l - y < g = : > f = , , = f > % $ # @ + O o X X o O + @ # $ % > f = , , = f > : = g < y - l 7 8 1 x e { o..._ * * ",
"O O t 1 k 9 q - c r , = f > : = g < < g = : % $ # @ + O o X X o O + @ # $ % : = g < < g = : > f = , r c - q 9 k 1 t } ] ` ( * * ",
"+ + 0 8 9 z w y r = ; : > d ; , < - - < , ; % $ # @ + O o X X o O + @ # $ % ; , < - - < , ; d > : ; = r y w z 9 8 0 O.' ) / * * ",
"& & & & & & @ # $ % . . . . ; , < - - < , ; % $ # @ + O o X X o O + @ # $ % ; , < - - < , ; . . . . % $ # @ & & & & ^ ~ Q D * * ",
"& & & & & & @ # $ % . . . . : = g < < g = : % $ # @ + O o X X o O + @ # $ % : = g < < g = : . . . . % $ # @ & & & & ^ ~ Q D * * ",
"& & & & & & @ # $ % . . . . > f = , , = f > % $ # @ + O o X X o O + @ # $ % > f = , , = f > . . . . % $ # @ & & & & ^ ~ Q D * * ",
"& & & & & & @ # $ % . . . . d > : ; ; : > d % $ # @ + O o X X o O + @ # $ % d > : ; ; : > d . . . . % $ # @ & & & & ^ ~ Q D * * ",
"+ + 0 8 9 z @ # $ % . . . . . . . . . . . . % $ # @ + O o X X o O + @ # $ % . . . . . . . . . . . . % $ # @ z 9 8 0 O.' ) / * * ",
"O O t 1 k 9 @ # $ % . . . . . . . . . . . . % $ # @ + O o X X o O + @ # $ % . . . . . . . . . . . . % $ # @ 9 k 1 t } ] ` ( * * ",
"o o e x 1 8 @ # $ % . . . . . . . . . . . . % $ # @ + O o X X o O + @ # $ % . . . . . . . . . . . . % $ # @ 8 1 x e { o..._ * * ",
"X X 2 e t 0 @ # $ % . . . . . . . . . . . . % $ # @ + O o X X o O + @ # $ % . . . . . . . . . . . . % $ # @ 0 t e 2  .| X.[ * * ",
"    X o O + @ # $ % . . . . C v M N N M v C % $ # @ + O o X X o O + @ # $ % C v M N N M v C . . . . % $ # @ + O o X 6 5 4 3 * * ",
"    X o O + @ # $ % . . . . v ! m n n m ! v % $ # @ + O o X X o O + @ # $ % v ! m n n m ! v . . . . % $ # @ + O o X 6 5 4 3 * * ",
"    X o O + @ # $ % . . . . M m Z b b Z m M % $ # @ + O o X X o O + @ # $ % M m Z b b Z m M . . . . % $ # @ + O o X 6 5 4 3 * * ",
"    X o O + @ # $ % . . . . N n b Y Y b n N % $ # @ + O o X X o O + @ # $ % N n b Y Y b n N . . . . % $ # @ + O o X 6 5 4 3 * * ",
"    X o O + @ # $ % d > : ; U H P E E P H U = r y w 0 t e 2 2 e t 0 w y r = U H P E E P H U ; : > d % $ # @ + O o X 6 5 4 3 * * ",
"    X o O + @ # $ % > f = , F W J S S J W F r c - q 8 1 x e e x 1 8 q - c r F W J S S J W F , = f > % $ # @ + O o X 6 5 4 3 * * ",
"    X o O + @ # $ % : = g < R A I K K I A R y - l 7 9 k 1 t t 1 k 9 7 l - y R A I K K I A R < g = : % $ # @ + O o X 6 5 4 3 * * ",
"    X o O + @ # $ % ; , < - G L T h h T L G w q 7 j z 9 8 0 0 8 9 z j 7 q w G L T h h T L G - < , ; % $ # @ + O o X 6 5 4 3 * * ",
"    X o O + @ # $ % % $ # @ + O o X X o O + & & & & & & & & & & & & & & & & + O o X X o O + @ # $ % % $ # @ + O o X 6 5 4 3 * * ",
"    X o O + @ # $ % % $ # @ + O o X X o O + & & & & & & & & & & & & & & & & + O o X X o O + @ # $ % % $ # @ + O o X 6 5 4 3 * * ",
"    X o O + @ # $ % % $ # @ + O o X X o O + & & & & & & & & & & & & & & & & + O o X X o O + @ # $ % % $ # @ + O o X 6 5 4 3 * * ",
"    X o O + @ # $ % % $ # @ + O o X X o O + & & & & & & & & & & & & & & & & + O o X X o O + @ # $ % % $ # @ + O o X 6 5 4 3 * * ",
"    X o O + @ # $ % ; , < - G L T h h T L G w q 7 j z 9 8 0 0 8 9 z j 7 q w G L T h h T L G - < , ; % $ # @ + O o X 6 5 4 3 * * ",
"    X o O + @ # $ % : = g < R A I K K I A R y - l 7 9 k 1 t t 1 k 9 7 l - y R A I K K I A R < g = : % $ # @ + O o X 6 5 4 3 * * ",
"    X o O + @ # $ % > f = , F W J S S J W F r c - q 8 1 x e e x 1 8 q - c r F W J S S J W F , = f > % $ # @ + O o X 6 5 4 3 * * ",
"    X o O + @ # $ % d > : ; U H P E E P H U = r y w 0 t e 2 2 e t 0 w y r = U H P E E P H U ; : > d % $ # @ + O o X 6 5 4 3 * * ",
"    X o O + @ # $ % . . . . N n b Y Y b n N % $ # @ + O o X X o O + @ # $ % N n b Y Y b n N . . . . % $ # @ + O o X 6 5 4 3 * * ",
"    X o O + @ # $ % . . . . M m Z b b Z m M % $ # @ + O o X X o O + @ # $ % M m Z b b Z m M . . . . % $ # @ + O o X 6 5 4 3 * * ",
"    X o O + @ # $ % . . . . v ! m n n m ! v % $ # @ + O o X X o O + @ # $ % v ! m n n m ! v . . . . % $ # @ + O o X 6 5 4 3 * * ",
"    X o O + @ # $ % . . . . C v M N N M v C % $ # @ + O o X X o O + @ # $ % C v M N N M v C . . . . % $ # @ + O o X 6 5 4 3 * * ",
"X X 2 e t 0 @ # $ % . . . . . . . . . . . . % $ # @ + O o X X o O + @ # $ % . . . . . . . . . . . . % $ # @ 0 t e 2  .| X.[ * * ",
"o o e x 1 8 @ # $ % . . . . . . . . . . . . % $ # @ + O o X X o O + @ # $ % . . . . . . . . . . . . % $ # @ 8 1 x e { o..._ * * ",
"O O t 1 k 9 @ # $ % . . . . . . . . . . . . % $ # @ + O o X X o O + @ # $ % . . . . . . . . . . . . % $ # @ 9 k 1 t } ] ` ( * * ",
"+ + 0 8 9 z @ # $ % . . . . . . . . . . . . % $ # @ + O o X X o O + @ # $ % . . . . . . . . . . . . % $ # @ z 9 8 0 O.' ) / * * ",
"& & & & & & @ # $ % . . . . d > : ; ; : > d % $ # @ + O o X X o O + @ # $ % d > : ; ; : > d . . . . % $ # @ & & & & ^ ~ Q D * * ",
"& & & & & & @ # $ % . . . . > f = , , = f > % $ # @ + O o X X o O + @ # $ % > f = , , = f > . . . . % $ # @ & & & & ^ ~ Q D * * ",
"& & & & & & @ # $ % . . . . : = g < < g = : % $ # @ + O o X X o O + @ # $ % : = g < < g = : . . . . % $ # @ & & & & ^ ~ Q D * * ",
"& & & & & & @ # $ % . . . . ; , < - - < , ; % $ # @ + O o X X o O + @ # $ % ; , < - - < , ; . . . . % $ # @ & & & & ^ ~ Q D * * ",
"+ + 0 8 9 z w y r = ; : > d ; , < - - < , ; % $ # @ + O o X X o O + @ # $ % ; , < - - < , ; d > : ; = r y w z 9 8 0 O.' ) / * * ",
"O O t 1 k 9 q - c r , = f > : = g < < g = : % $ # @ + O o X X o O + @ # $ % : = g < < g = : > f = , r c - q 9 k 1 t } ] ` ( * * ",
"o o e x 1 8 7 l - y < g = : > f = , , = f > % $ # @ + O o X X o O + @ # $ % > f = , , = f > : = g < y - l 7 8 1 x e { o..._ * * ",
"X X 2 e t 0 j 7 q w - < , ; d > : ; ; : > d % $ # @ + O o X X o O + @ # $ % d > : ; ; : > d ; , < - w q 7 j 0 t e 2  .| X.[ * * ",
"    i p u 1 0 8 9 z w y r = % % % % % % % % = r y w + O o X X o O + w y r = % % % % % % % % = r y w z 9 8 0 1 u p i 6 5 4 3 * * ",
"    a 2 V u t 1 k 9 q - c r $ $ $ $ $ $ $ $ r c - q + O o X X o O + q - c r $ $ $ $ $ $ $ $ r c - q 9 k 1 t u V 2 a 6 5 4 3 * * ",
"    s h 2 p e x 1 8 7 l - y # # # # # # # # y - l 7 + O o X X o O + 7 l - y # # # # # # # # y - l 7 8 1 x e p 2 h s 6 5 4 3 * * ",
"    B s a i 2 e t 0 j 7 q w @ @ @ @ @ @ @ @ w q 7 j + O o X X o O + j 7 q w @ @ @ @ @ @ @ @ w q 7 j 0 t e 2 i a s B 6 5 4 3 * * ",
"            i p u 1 + + + + + + + + + + + + + + + + 1 u p i i p u 1 + + + + + + + + + + + + + + + + 1 u p i         6 5 4 3 * * ",
"            a 2 V u O O O O O O O O O O O O O O O O u V 2 a a 2 V u O O O O O O O O O O O O O O O O u V 2 a         6 5 4 3 * * ",
"            s h 2 p o o o o o o o o o o o o o o o o p 2 h s s h 2 p o o o o o o o o o o o o o o o o p 2 h s         6 5 4 3 * * ",
"            B s a i X X X X X X X X X X X X X X X X i a s B B s a i X X X X X X X X X X X X X X X X i a s B         6 5 4 3 * * ",
"                                                                                                                    6 5 4 3 * * ",
"                                                                                                                    6 5 4 3 * * "
};
