/* XPM */
static const char * door_xpm[] = {
"64 64 3 1",
" 	c #000001",
".	c #561D00",
"+	c #994E00",
"                                                                ",
"                                                                ",
"                                                                ",
"                                                                ",
"        ....................        ....................        ",
"        ....................        ....................        ",
"        ....................        ....................        ",
"        ....................        ....................        ",
"    ........++++++++++++....        ....++++++++++++........    ",
"    ........++++++++++++....        ....++++++++++++........    ",
"    ........++++++++++++....        ....++++++++++++........    ",
"    ........++++++++++++....        ....++++++++++++........    ",
"........++++++++....++++....        ....++++....++++++++........",
"........++++++++....++++....        ....++++....++++++++........",
"........++++++++....++++....        ....++++....++++++++........",
"........++++++++....++++....        ....++++....++++++++........",
"........++++++++++++++++....        ....++++++++++++++++........",
"........++++++++++++++++....        ....++++++++++++++++........",
"........++++++++++++++++....        ....++++++++++++++++........",
"........++++++++++++++++....        ....++++++++++++++++........",
"    ....++++++++++++++++....        ....++++++++++++++++....    ",
"    ....++++++++++++++++....        ....++++++++++++++++....    ",
"    ....++++++++++++++++....        ....++++++++++++++++....    ",
"    ....++++++++++++++++....        ....++++++++++++++++....    ",
"    ....++++++++    ++++....        ....++++    ++++++++....    ",
"    ....++++++++    ++++....        ....++++    ++++++++....    ",
"    ....++++++++    ++++....        ....++++    ++++++++....    ",
"    ....++++++++    ++++....        ....++++    ++++++++....    ",
"    ....++++....    ........................    ....++++....    ",
"    ....++++....    ........................    ....++++....    ",
"    ....++++....    ........................    ....++++....    ",
"    ....++++....    ........................    ....++++....    ",
"    ....++++....    ........................    ....++++....    ",
"    ....++++....    ........................    ....++++....    ",
"    ....++++....    ........................    ....++++....    ",
"    ....++++....    ........................    ....++++....    ",
"    ....++++++++    ++++....        ....++++    ++++++++....    ",
"    ....++++++++    ++++....        ....++++    ++++++++....    ",
"    ....++++++++    ++++....        ....++++    ++++++++....    ",
"    ....++++++++    ++++....        ....++++    ++++++++....    ",
"    ....++++++++++++++++....        ....++++++++++++++++....    ",
"    ....++++++++++++++++....        ....++++++++++++++++....    ",
"    ....++++++++++++++++....        ....++++++++++++++++....    ",
"    ....++++++++++++++++....        ....++++++++++++++++....    ",
"........++++++++++++++++....        ....++++++++++++++++........",
"........++++++++++++++++....        ....++++++++++++++++........",
"........++++++++++++++++....        ....++++++++++++++++........",
"........++++++++++++++++....        ....++++++++++++++++........",
"........++++++++....++++....        ....++++....++++++++........",
"........++++++++....++++....        ....++++....++++++++........",
"........++++++++....++++....        ....++++....++++++++........",
"........++++++++....++++....        ....++++....++++++++........",
"    ........++++++++++++....        ....++++++++++++........    ",
"    ........++++++++++++....        ....++++++++++++........    ",
"    ........++++++++++++....        ....++++++++++++........    ",
"    ........++++++++++++....        ....++++++++++++........    ",
"        ....................        ....................        ",
"        ....................        ....................        ",
"        ....................        ....................        ",
"        ....................        ....................        ",
"                                                                ",
"                                                                ",
"                                                                ",
"                                                                "};
