/* XPM */
static const char * enemy_left_xpm[] = {
"64 64 4 1",
" 	c None",
".	c #000001",
"+	c #FFFFFF",
"@	c #64B0FF",
"                            ........                            ",
"                            ........                            ",
"                            ........                            ",
"                            ........                            ",
"                        ....++++++++....                        ",
"                        ....++++++++....                        ",
"                        ....++++++++....                        ",
"                        ....++++++++....                        ",
"                    ....++++++++++++....                        ",
"                    ....++++++++++++....                        ",
"                    ....++++++++++++....                        ",
"                    ....++++++++++++....                        ",
"                    ....++++++++++++++++....                    ",
"                    ....++++++++++++++++....                    ",
"                    ....++++++++++++++++....                    ",
"                    ....++++++++++++++++....                    ",
"            ........++++@@@@@@@@++++@@@@++++........            ",
"            ........++++@@@@@@@@++++@@@@++++........            ",
"            ........++++@@@@@@@@++++@@@@++++........            ",
"            ........++++@@@@@@@@++++@@@@++++........            ",
"        ....++++++++@@@@@@@@++++@@@@@@@@@@@@++++++++....        ",
"        ....++++++++@@@@@@@@++++@@@@@@@@@@@@++++++++....        ",
"        ....++++++++@@@@@@@@++++@@@@@@@@@@@@++++++++....        ",
"        ....++++++++@@@@@@@@++++@@@@@@@@@@@@++++++++....        ",
"    ....@@@@@@@@@@@@@@@@@@@@@@@@@@@@@@@@@@@@@@@@@@@@@@@@....    ",
"    ....@@@@@@@@@@@@@@@@@@@@@@@@@@@@@@@@@@@@@@@@@@@@@@@@....    ",
"    ....@@@@@@@@@@@@@@@@@@@@@@@@@@@@@@@@@@@@@@@@@@@@@@@@....    ",
"    ....@@@@@@@@@@@@@@@@@@@@@@@@@@@@@@@@@@@@@@@@@@@@@@@@....    ",
"....@@@@@@@@@@@@@@@@++++++++@@@@@@@@++++++++@@@@++++@@@@@@@@....",
"....@@@@@@@@@@@@@@@@++++++++@@@@@@@@++++++++@@@@++++@@@@@@@@....",
"....@@@@@@@@@@@@@@@@++++++++@@@@@@@@++++++++@@@@++++@@@@@@@@....",
"....@@@@@@@@@@@@@@@@++++++++@@@@@@@@++++++++@@@@++++@@@@@@@@....",
"....@@@@@@@@@@@@@@@@....++++@@@@@@@@....++++@@@@@@@@++++@@@@....",
"....@@@@@@@@@@@@@@@@....++++@@@@@@@@....++++@@@@@@@@++++@@@@....",
"....@@@@@@@@@@@@@@@@....++++@@@@@@@@....++++@@@@@@@@++++@@@@....",
"....@@@@@@@@@@@@@@@@....++++@@@@@@@@....++++@@@@@@@@++++@@@@....",
"....@@@@@@@@@@@@@@@@....++++@@@@@@@@....++++@@@@@@@@++++@@@@....",
"....@@@@@@@@@@@@@@@@....++++@@@@@@@@....++++@@@@@@@@++++@@@@....",
"....@@@@@@@@@@@@@@@@....++++@@@@@@@@....++++@@@@@@@@++++@@@@....",
"....@@@@@@@@@@@@@@@@....++++@@@@@@@@....++++@@@@@@@@++++@@@@....",
"....@@@@@@@@@@@@@@@@@@@@@@@@@@@@@@@@@@@@@@@@@@@@@@@@@@@@@@@@....",
"....@@@@@@@@@@@@@@@@@@@@@@@@@@@@@@@@@@@@@@@@@@@@@@@@@@@@@@@@....",
"....@@@@@@@@@@@@@@@@@@@@@@@@@@@@@@@@@@@@@@@@@@@@@@@@@@@@@@@@....",
"....@@@@@@@@@@@@@@@@@@@@@@@@@@@@@@@@@@@@@@@@@@@@@@@@@@@@@@@@....",
"    ....@@@@@@@@@@@@@@@@@@@@........@@@@@@@@@@@@@@@@@@@@....    ",
"    ....@@@@@@@@@@@@@@@@@@@@........@@@@@@@@@@@@@@@@@@@@....    ",
"    ....@@@@@@@@@@@@@@@@@@@@........@@@@@@@@@@@@@@@@@@@@....    ",
"    ....@@@@@@@@@@@@@@@@@@@@........@@@@@@@@@@@@@@@@@@@@....    ",
"        ................@@@@@@@@@@@@@@@@@@@@@@@@@@@@....        ",
"        ................@@@@@@@@@@@@@@@@@@@@@@@@@@@@....        ",
"        ................@@@@@@@@@@@@@@@@@@@@@@@@@@@@....        ",
"        ................@@@@@@@@@@@@@@@@@@@@@@@@@@@@....        ",
"        ....@@@@@@@@@@@@............................            ",
"        ....@@@@@@@@@@@@............................            ",
"        ....@@@@@@@@@@@@............................            ",
"        ....@@@@@@@@@@@@............................            ",
"        ....................        ....@@@@@@@@@@@@....        ",
"        ....................        ....@@@@@@@@@@@@....        ",
"        ....................        ....@@@@@@@@@@@@....        ",
"        ....................        ....@@@@@@@@@@@@....        ",
"                                    ....................        ",
"                                    ....................        ",
"                                    ....................        ",
"                                    ....................        "};
