/* XPM */
static const char * handpointing_xpm[] = {
"16 16 41 1",
" 	g None",
".	g #000000",
"+	g #1A1A1A",
"@	g #FFFFFF",
"#	g #727272",
"$	g #2E2E2E",
"%	g #E1E1E1",
"&	g #ACACAC",
"*	g #454545",
"=	g #373737",
"-	g #040404",
";	g #FBFBFB",
">	g #3F3F3F",
",	g #555555",
"'	g #BABABA",
")	g #272727",
"!	g #6A6A6A",
"~	g #424242",
"{	g #545454",
"]	g #606060",
"^	g #FAFAFA",
"/	g #212121",
"(	g #F5F5F5",
"_	g #EEEEEE",
":	g #ECECEC",
"<	g #0B0B0B",
"[	g #222222",
"}	g #2C2C2C",
"|	g #1E1E1E",
"1	g #1F1F1F",
"2	g #2A2A2A",
"3	g #F1F1F1",
"4	g #1C1C1C",
"5	g #282828",
"6	g #111111",
"7	g #010101",
"8	g #292929",
"9	g #343434",
"0	g #2D2D2D",
"a	g #020202",
"b	g #242424",
"    .+          ",
"    .@.         ",
"    .@#         ",
"    $@%         ",
"    .@@.&*.=-   ",
"    .@@.@@.@;.>.",
" .,. '@)@@!@@~@.",
" {@@.]@@@@@@@@@.",
" .@@^/@@(@_@:@@.",
"  <@@@@@[@}@|@@.",
"   .@@@@1@2@|@3.",
"   .@@@@4@5@|@6 ",
"    7@@@8@9@0.  ",
"     a@@@@@@@.  ",
"      =@@@.b@.  ",
"      ....  ..  "};
