/* XPM */
static const char * handopen_xpm[] = {
"16 16 37 1",
" 	g None",
".	g #000000",
"+	g #080808",
"@	g #010101",
"#	g #FFFFFF",
"$	g #F6F6F6",
"%	g #EEEEEE",
"&	g #171717",
"*	g #050505",
"=	g #181818",
"-	g #030303",
";	g #B0B0B0",
">	g #A9A9A9",
",	g #0D0D0D",
"'	g #737373",
")	g #0F0F0F",
"!	g #020202",
"~	g #FEFEFE",
"{	g #202020",
"]	g #5C5C5C",
"^	g #373737",
"/	g #878787",
"(	g #444444",
"_	g #FAFAFA",
":	g #1C1C1C",
"<	g #EFEFEF",
"[	g #EDEDED",
"}	g #0E0E0E",
"|	g #222222",
"1	g #2C2C2C",
"2	g #1D1D1D",
"3	g #1F1F1F",
"4	g #2A2A2A",
"5	g #F1F1F1",
"6	g #282828",
"7	g #333333",
"8	g #363636",
"       ..       ",
"  .+@ .#$...    ",
"  .#%@&##.##@   ",
"  @##*=##.##-.. ",
"   ;#>,##.##.'#-",
"   .##.##)##.##.",
"..!.~#{##]##^#. ",
",##./#########( ",
".##_:##$#<#[##. ",
" }#####|#1#2##. ",
"  .####3#4#2#5. ",
"  !####:#6#2#}  ",
"   .###6#7#1.   ",
"    @#######@   ",
"     8###!.#!   ",
"     ....  .    "};
