/* XPM */
static const char * heart_xpm[] = {
"64 64 4 1",
" 	c #800000",
".	c #FF0000",
"+	c #000001",
"@	c #000000",
"    ....................................................    ++++",
"    ....................................................    ++++",
"    ....................................................    ++++",
"    ....................................................    ++++",
"....    ++++++++++++++++++++++++++++++++++++++++++++++++....++++",
"....    ++++++++++++++++++++++++++++++++++++++++++++++++....++++",
"....    ++++++++++++++++++++++++++++++++++++++++++++++++....++++",
"....    ++++++++++++++++++++++++++++++++++++++++++++++++....++++",
"....++++        @@@@....++++            @@@@....++++    ....++++",
"....++++        @@@@....++++            @@@@....++++    ....++++",
"....++++        @@@@....++++            @@@@....++++    ....++++",
"....++++        @@@@....++++            @@@@....++++    ....++++",
"....++++    @@@@............++++    @@@@............++++....++++",
"....++++    @@@@............++++    @@@@............++++....++++",
"....++++    @@@@............++++    @@@@............++++....++++",
"....++++    @@@@............++++    @@@@............++++....++++",
"....++++@@@@....................@@@@....................@@@@++++",
"....++++@@@@....................@@@@....................@@@@++++",
"....++++@@@@....................@@@@....................@@@@++++",
"....++++@@@@....................@@@@....................@@@@++++",
"....++++................................................@@@@++++",
"....++++................................................@@@@++++",
"....++++................................................@@@@++++",
"....++++................................................@@@@++++",
"....++++................................................@@@@++++",
"....++++................................................@@@@++++",
"....++++................................................@@@@++++",
"....++++................................................@@@@++++",
"....++++@@@@............................................@@@@++++",
"....++++@@@@............................................@@@@++++",
"....++++@@@@............................................@@@@++++",
"....++++@@@@............................................@@@@++++",
"....++++    @@@@....................................++++....++++",
"....++++    @@@@....................................++++....++++",
"....++++    @@@@....................................++++....++++",
"....++++    @@@@....................................++++....++++",
"....++++        @@@@............................++++++++....++++",
"....++++        @@@@............................++++++++....++++",
"....++++        @@@@............................++++++++....++++",
"....++++        @@@@............................++++++++....++++",
"....++++            @@@@....................++++++++    ....++++",
"....++++            @@@@....................++++++++    ....++++",
"....++++            @@@@....................++++++++    ....++++",
"....++++            @@@@....................++++++++    ....++++",
"....++++                @@@@............++++++++        ....++++",
"....++++                @@@@............++++++++        ....++++",
"....++++                @@@@............++++++++        ....++++",
"....++++                @@@@............++++++++        ....++++",
"....++++                    @@@@....++++++++            ....++++",
"....++++                    @@@@....++++++++            ....++++",
"....++++                    @@@@....++++++++            ....++++",
"....++++                    @@@@....++++++++            ....++++",
"....++++                    ++++++++++++                ....++++",
"....++++                    ++++++++++++                ....++++",
"....++++                    ++++++++++++                ....++++",
"....++++                    ++++++++++++                ....++++",
"    ....................................................    ++++",
"    ....................................................    ++++",
"    ....................................................    ++++",
"    ....................................................    ++++",
"++++++++++++++++++++++++++++++++++++++++++++++++++++++++++++++++",
"++++++++++++++++++++++++++++++++++++++++++++++++++++++++++++++++",
"++++++++++++++++++++++++++++++++++++++++++++++++++++++++++++++++",
"++++++++++++++++++++++++++++++++++++++++++++++++++++++++++++++++"};
