/* XPM */
static const char * heart_xpm[] = {
"64 64 6 1",
" 	c None",
".	c #222034",
"+	c #932D2D",
"@	c #AC3232",
"#	c #C44747",
"$	c #D95763",
"                                                                ",
"                                                                ",
"                                                                ",
"                                                                ",
"                                                                ",
"                                                                ",
"                                                                ",
"                                                                ",
"                ........                ........                ",
"                ........                ........                ",
"                ........                ........                ",
"                ........                ........                ",
"            ....++++++++....        ....@@@@@@@@....            ",
"            ....++++++++....        ....@@@@@@@@....            ",
"            ....++++++++....        ....@@@@@@@@....            ",
"            ....++++++++....        ....@@@@@@@@....            ",
"        ....++++++++@@@@@@@@........@@@@########@@@@....        ",
"        ....++++++++@@@@@@@@........@@@@########@@@@....        ",
"        ....++++++++@@@@@@@@........@@@@########@@@@....        ",
"        ....++++++++@@@@@@@@........@@@@########@@@@....        ",
"    ....++++++++@@@@@@@@@@@@@@@@####$$$$$$$$$$$$####@@@@....    ",
"    ....++++++++@@@@@@@@@@@@@@@@####$$$$$$$$$$$$####@@@@....    ",
"    ....++++++++@@@@@@@@@@@@@@@@####$$$$$$$$$$$$####@@@@....    ",
"    ....++++++++@@@@@@@@@@@@@@@@####$$$$$$$$$$$$####@@@@....    ",
"    ....++++++++@@@@@@@@@@@@@@@@@@@@####$$$$$$$$$$$$@@@@....    ",
"    ....++++++++@@@@@@@@@@@@@@@@@@@@####$$$$$$$$$$$$@@@@....    ",
"    ....++++++++@@@@@@@@@@@@@@@@@@@@####$$$$$$$$$$$$@@@@....    ",
"    ....++++++++@@@@@@@@@@@@@@@@@@@@####$$$$$$$$$$$$@@@@....    ",
"    ....++++++++@@@@@@@@@@@@@@@@@@@@@@@@####$$$$####@@@@....    ",
"    ....++++++++@@@@@@@@@@@@@@@@@@@@@@@@####$$$$####@@@@....    ",
"    ....++++++++@@@@@@@@@@@@@@@@@@@@@@@@####$$$$####@@@@....    ",
"    ....++++++++@@@@@@@@@@@@@@@@@@@@@@@@####$$$$####@@@@....    ",
"    ....++++++++@@@@@@@@@@@@@@@@@@@@@@@@########@@@@@@@@....    ",
"    ....++++++++@@@@@@@@@@@@@@@@@@@@@@@@########@@@@@@@@....    ",
"    ....++++++++@@@@@@@@@@@@@@@@@@@@@@@@########@@@@@@@@....    ",
"    ....++++++++@@@@@@@@@@@@@@@@@@@@@@@@########@@@@@@@@....    ",
"        ....++++++++@@@@@@@@@@@@@@@@@@@@@@@@@@@@@@@@....        ",
"        ....++++++++@@@@@@@@@@@@@@@@@@@@@@@@@@@@@@@@....        ",
"        ....++++++++@@@@@@@@@@@@@@@@@@@@@@@@@@@@@@@@....        ",
"        ....++++++++@@@@@@@@@@@@@@@@@@@@@@@@@@@@@@@@....        ",
"            ....++++++++@@@@@@@@@@@@@@@@@@@@@@@@....            ",
"            ....++++++++@@@@@@@@@@@@@@@@@@@@@@@@....            ",
"            ....++++++++@@@@@@@@@@@@@@@@@@@@@@@@....            ",
"            ....++++++++@@@@@@@@@@@@@@@@@@@@@@@@....            ",
"                ....++++++++@@@@@@@@++++++++....                ",
"                ....++++++++@@@@@@@@++++++++....                ",
"                ....++++++++@@@@@@@@++++++++....                ",
"                ....++++++++@@@@@@@@++++++++....                ",
"                    ....++++++++++++++++....                    ",
"                    ....++++++++++++++++....                    ",
"                    ....++++++++++++++++....                    ",
"                    ....++++++++++++++++....                    ",
"                        ....++++++++....                        ",
"                        ....++++++++....                        ",
"                        ....++++++++....                        ",
"                        ....++++++++....                        ",
"                            ........                            ",
"                            ........                            ",
"                            ........                            ",
"                            ........                            ",
"                                                                ",
"                                                                ",
"                                                                ",
"                                                                "};
