/* XPM */
static const char * numbers_xpm[] = {
"320 32 3 1",
" 	c #B0B0B0",
".	c #000000",
"+	c #636363",
"    ....................++++                ........++++            ....................++++        ....................++++                ............++++    ............................++++    ....................++++    ............................++++    ....................++++        ....................++++    ",
"    ....................++++                ........++++            ....................++++        ....................++++                ............++++    ............................++++    ....................++++    ............................++++    ....................++++        ....................++++    ",
"    ....................++++                ........++++            ....................++++        ....................++++                ............++++    ............................++++    ....................++++    ............................++++    ....................++++        ....................++++    ",
"    ....................++++                ........++++            ....................++++        ....................++++                ............++++    ............................++++    ....................++++    ............................++++    ....................++++        ....................++++    ",
"........++++++++++++........++++        ............++++        ........++++++++++++........++++........++++++++++++........++++        ....++++........++++    ........++++++++++++++++++++++++........++++++++++++........++++........++++++++++++........++++........++++++++++++........++++........++++++++++++........++++",
"........++++++++++++........++++        ............++++        ........++++++++++++........++++........++++++++++++........++++        ....++++........++++    ........++++++++++++++++++++++++........++++++++++++........++++........++++++++++++........++++........++++++++++++........++++........++++++++++++........++++",
"........++++++++++++........++++        ............++++        ........++++++++++++........++++........++++++++++++........++++        ....++++........++++    ........++++++++++++++++++++++++........++++++++++++........++++........++++++++++++........++++........++++++++++++........++++........++++++++++++........++++",
"........++++++++++++........++++        ............++++        ........++++++++++++........++++........++++++++++++........++++        ....++++........++++    ........++++++++++++++++++++++++........++++++++++++........++++........++++++++++++........++++........++++++++++++........++++........++++++++++++........++++",
"........++++    ............++++        ++++........++++        ........++++        ........++++++++++++++++        ........++++    ....++++    ........++++    ........................++++    ........++++        ++++++++++++++++++++++++        ........++++........++++        ........++++........++++        ........++++",
"........++++    ............++++        ++++........++++        ........++++        ........++++++++++++++++        ........++++    ....++++    ........++++    ........................++++    ........++++        ++++++++++++++++++++++++        ........++++........++++        ........++++........++++        ........++++",
"........++++    ............++++        ++++........++++        ........++++        ........++++++++++++++++        ........++++    ....++++    ........++++    ........................++++    ........++++        ++++++++++++++++++++++++        ........++++........++++        ........++++........++++        ........++++",
"........++++    ............++++        ++++........++++        ........++++        ........++++++++++++++++        ........++++    ....++++    ........++++    ........................++++    ........++++        ++++++++++++++++++++++++        ........++++........++++        ........++++........++++        ........++++",
"........    ....++++........++++            ........++++        ++++++++++++............++++++++            ............++++++++........++++    ........++++    ++++++++++++++++++++........++++........................++++                    ........++++++++++++....................++++++++++++........................++++",
"........    ....++++........++++            ........++++        ++++++++++++............++++++++            ............++++++++........++++    ........++++    ++++++++++++++++++++........++++........................++++                    ........++++++++++++....................++++++++++++........................++++",
"........    ....++++........++++            ........++++        ++++++++++++............++++++++            ............++++++++........++++    ........++++    ++++++++++++++++++++........++++........................++++                    ........++++++++++++....................++++++++++++........................++++",
"........    ....++++........++++            ........++++        ++++++++++++............++++++++            ............++++++++........++++    ........++++    ++++++++++++++++++++........++++........................++++                    ........++++++++++++....................++++++++++++........................++++",
"............++++    ........++++            ........++++            ............++++++++++++                ++++++++........++++............................++++                    ........++++........++++++++++++........++++            ........++++++++    ........++++++++++++........++++    ++++++++++++++++........++++",
"............++++    ........++++            ........++++            ............++++++++++++                ++++++++........++++............................++++                    ........++++........++++++++++++........++++            ........++++++++    ........++++++++++++........++++    ++++++++++++++++........++++",
"............++++    ........++++            ........++++            ............++++++++++++                ++++++++........++++............................++++                    ........++++........++++++++++++........++++            ........++++++++    ........++++++++++++........++++    ++++++++++++++++........++++",
"............++++    ........++++            ........++++            ............++++++++++++                ++++++++........++++............................++++                    ........++++........++++++++++++........++++            ........++++++++    ........++++++++++++........++++    ++++++++++++++++........++++",
"........++++        ........++++            ........++++        ........++++++++++++            ........            ........++++++++++++++++++++........++++++++........++++        ........++++........++++        ........++++            ........++++        ........++++        ........++++........++++        ........++++",
"........++++        ........++++            ........++++        ........++++++++++++            ........            ........++++++++++++++++++++........++++++++........++++        ........++++........++++        ........++++            ........++++        ........++++        ........++++........++++        ........++++",
"........++++        ........++++            ........++++        ........++++++++++++            ........            ........++++++++++++++++++++........++++++++........++++        ........++++........++++        ........++++            ........++++        ........++++        ........++++........++++        ........++++",
"........++++        ........++++            ........++++        ........++++++++++++            ........            ........++++++++++++++++++++........++++++++........++++        ........++++........++++        ........++++            ........++++        ........++++        ........++++........++++        ........++++",
"++++....................++++++++            ........++++        ............................++++++++....................++++++++                ........++++    ++++....................++++++++++++....................++++++++            ........++++        ++++....................++++++++++++....................++++++++",
"++++....................++++++++            ........++++        ............................++++++++....................++++++++                ........++++    ++++....................++++++++++++....................++++++++            ........++++        ++++....................++++++++++++....................++++++++",
"++++....................++++++++            ........++++        ............................++++++++....................++++++++                ........++++    ++++....................++++++++++++....................++++++++            ........++++        ++++....................++++++++++++....................++++++++",
"++++....................++++++++            ........++++        ............................++++++++....................++++++++                ........++++    ++++....................++++++++++++....................++++++++            ........++++        ++++....................++++++++++++....................++++++++",
"    ++++++++++++++++++++++++                ++++++++++++        ++++++++++++++++++++++++++++++++    ++++++++++++++++++++++++                    ++++++++++++        ++++++++++++++++++++++++        ++++++++++++++++++++++++                ++++++++++++            ++++++++++++++++++++++++        ++++++++++++++++++++++++    ",
"    ++++++++++++++++++++++++                ++++++++++++        ++++++++++++++++++++++++++++++++    ++++++++++++++++++++++++                    ++++++++++++        ++++++++++++++++++++++++        ++++++++++++++++++++++++                ++++++++++++            ++++++++++++++++++++++++        ++++++++++++++++++++++++    ",
"    ++++++++++++++++++++++++                ++++++++++++        ++++++++++++++++++++++++++++++++    ++++++++++++++++++++++++                    ++++++++++++        ++++++++++++++++++++++++        ++++++++++++++++++++++++                ++++++++++++            ++++++++++++++++++++++++        ++++++++++++++++++++++++    ",
"    ++++++++++++++++++++++++                ++++++++++++        ++++++++++++++++++++++++++++++++    ++++++++++++++++++++++++                    ++++++++++++        ++++++++++++++++++++++++        ++++++++++++++++++++++++                ++++++++++++            ++++++++++++++++++++++++        ++++++++++++++++++++++++    "};
