/* XPM */
static const char *player_down_3_xpm[] = {
/* columns rows colors chars-per-pixel */
"64 64 5 1 ",
"  c #388700",
". c #FF8170",
"X c #64B0FF",
"o c #FFFFFF",
"O c None",
/* pixels */
"OOOOOOOOOOOOOOOOOOOOooooooooooooooooooooooooOOOOOOOOOOOOOOOOOOOO",
"OOOOOOOOOOOOOOOOOOOOooooooooooooooooooooooooOOOOOOOOOOOOOOOOOOOO",
"OOOOOOOOOOOOOOOOOOOOooooooooooooooooooooooooOOOOOOOOOOOOOOOOOOOO",
"OOOOOOOOOOOOOOOOOOOOooooooooooooooooooooooooOOOOOOOOOOOOOOOOOOOO",
"OOOOOOOOOOOOOOOOooooooooooooooooooooooooooooooooOOOOOOOOOOOOOOOO",
"OOOOOOOOOOOOOOOOooooooooooooooooooooooooooooooooOOOOOOOOOOOOOOOO",
"OOOOOOOOOOOOOOOOooooooooooooooooooooooooooooooooOOOOOOOOOOOOOOOO",
"OOOOOOOOOOOOOOOOooooooooooooooooooooooooooooooooOOOOOOOOOOOOOOOO",
"OOOOOOOOOOOOOOOOoooo....    ........    ....ooooOOOOOOOOOOOOOOOO",
"OOOOOOOOOOOOOOOOoooo....    ........    ....ooooOOOOOOOOOOOOOOOO",
"OOOOOOOOOOOOOOOOoooo....    ........    ....ooooOOOOOOOOOOOOOOOO",
"OOOOOOOOOOOOOOOOoooo....    ........    ....ooooOOOOOOOOOOOOOOOO",
"OOOOOOOOOOOOOOOOoooo....    ........    ....ooooOOOOOOOOOOOOOOOO",
"OOOOOOOOOOOOOOOOoooo....    ........    ....ooooOOOOOOOOOOOOOOOO",
"OOOOOOOOOOOOOOOOoooo....    ........    ....ooooOOOOOOOOOOOOOOOO",
"OOOOOOOOOOOOOOOOoooo....    ........    ....ooooOOOOOOOOOOOOOOOO",
"OOOOOOOOOOOOOOOOooooooooooooooooooooooooooooooooOOOOOOOOOOOOOOOO",
"OOOOOOOOOOOOOOOOooooooooooooooooooooooooooooooooOOOOOOOOOOOOOOOO",
"OOOOOOOOOOOOOOOOooooooooooooooooooooooooooooooooOOOOOOOOOOOOOOOO",
"OOOOOOOOOOOOOOOOooooooooooooooooooooooooooooooooOOOOOOOOOOOOOOOO",
"OOOOOOOOOOOOOOOOOOOOooooooooooooooooooooooooOOOOOOOOOOOOOOOOOOOO",
"OOOOOOOOOOOOOOOOOOOOooooooooooooooooooooooooOOOOOOOOOOOOOOOOOOOO",
"OOOOOOOOOOOOOOOOOOOOooooooooooooooooooooooooOOOOOOOOOOOOOOOOOOOO",
"OOOOOOOOOOOOOOOOOOOOooooooooooooooooooooooooOOOOOOOOOOOOOOOOOOOO",
"OOOOOOOOOOOOOOOOOOOOOOOOXXXXXXXXXXXXXXXXOOOOOOOOOOOOOOOOOOOOOOOO",
"OOOOOOOOOOOOOOOOOOOOOOOOXXXXXXXXXXXXXXXXOOOOOOOOOOOOOOOOOOOOOOOO",
"OOOOOOOOOOOOOOOOOOOOOOOOXXXXXXXXXXXXXXXXOOOOOOOOOOOOOOOOOOOOOOOO",
"OOOOOOOOOOOOOOOOOOOOOOOOXXXXXXXXXXXXXXXXOOOOOOOOOOOOOOOOOOOOOOOO",
"OOOOOOOO........ooooooooXXXXXXXXXXXXXXXXXXXXooooOOOOOOOOOOOOOOOO",
"OOOOOOOO........ooooooooXXXXXXXXXXXXXXXXXXXXooooOOOOOOOOOOOOOOOO",
"OOOOOOOO........ooooooooXXXXXXXXXXXXXXXXXXXXooooOOOOOOOOOOOOOOOO",
"OOOOOOOO........ooooooooXXXXXXXXXXXXXXXXXXXXooooOOOOOOOOOOOOOOOO",
"OOOOOOOO........ooooXXXXXXXXXXXXXXXXXXXXXXXXooooooooOOOOOOOOOOOO",
"OOOOOOOO........ooooXXXXXXXXXXXXXXXXXXXXXXXXooooooooOOOOOOOOOOOO",
"OOOOOOOO........ooooXXXXXXXXXXXXXXXXXXXXXXXXooooooooOOOOOOOOOOOO",
"OOOOOOOO........ooooXXXXXXXXXXXXXXXXXXXXXXXXooooooooOOOOOOOOOOOO",
"OOOOOOOOOOOOOOOOOOOOXXXXXXXXXXXXXXXXXXXXXXXXooooooooOOOOOOOOOOOO",
"OOOOOOOOOOOOOOOOOOOOXXXXXXXXXXXXXXXXXXXXXXXXooooooooOOOOOOOOOOOO",
"OOOOOOOOOOOOOOOOOOOOXXXXXXXXXXXXXXXXXXXXXXXXooooooooOOOOOOOOOOOO",
"OOOOOOOOOOOOOOOOOOOOXXXXXXXXXXXXXXXXXXXXXXXXooooooooOOOOOOOOOOOO",
"OOOOOOOOOOOOOOOOOOOOXXXXXXXXXXXXXXXXXXXXXXXXOOOO........OOOOOOOO",
"OOOOOOOOOOOOOOOOOOOOXXXXXXXXXXXXXXXXXXXXXXXXOOOO........OOOOOOOO",
"OOOOOOOOOOOOOOOOOOOOXXXXXXXXXXXXXXXXXXXXXXXXOOOO........OOOOOOOO",
"OOOOOOOOOOOOOOOOOOOOXXXXXXXXXXXXXXXXXXXXXXXXOOOO........OOOOOOOO",
"OOOOOOOOOOOOOOOOOOOOooooooooXXXXXXXXXXXXXXXXOOOO........OOOOOOOO",
"OOOOOOOOOOOOOOOOOOOOooooooooXXXXXXXXXXXXXXXXOOOO........OOOOOOOO",
"OOOOOOOOOOOOOOOOOOOOooooooooXXXXXXXXXXXXXXXXOOOO........OOOOOOOO",
"OOOOOOOOOOOOOOOOOOOOooooooooXXXXXXXXXXXXXXXXOOOO........OOOOOOOO",
"OOOOOOOOOOOOOOOOOOOOooooooooXXXXXXXXooooooooOOOOOOOOOOOOOOOOOOOO",
"OOOOOOOOOOOOOOOOOOOOooooooooXXXXXXXXooooooooOOOOOOOOOOOOOOOOOOOO",
"OOOOOOOOOOOOOOOOOOOOooooooooXXXXXXXXooooooooOOOOOOOOOOOOOOOOOOOO",
"OOOOOOOOOOOOOOOOOOOOooooooooXXXXXXXXooooooooOOOOOOOOOOOOOOOOOOOO",
"OOOOOOOOOOOOOOOOOOOOooooooooOOOOOOOO........OOOOOOOOOOOOOOOOOOOO",
"OOOOOOOOOOOOOOOOOOOOooooooooOOOOOOOO........OOOOOOOOOOOOOOOOOOOO",
"OOOOOOOOOOOOOOOOOOOOooooooooOOOOOOOO........OOOOOOOOOOOOOOOOOOOO",
"OOOOOOOOOOOOOOOOOOOOooooooooOOOOOOOO........OOOOOOOOOOOOOOOOOOOO",
"OOOOOOOOOOOOOOOOOOOO........OOOOOOOO........OOOOOOOOOOOOOOOOOOOO",
"OOOOOOOOOOOOOOOOOOOO........OOOOOOOO........OOOOOOOOOOOOOOOOOOOO",
"OOOOOOOOOOOOOOOOOOOO........OOOOOOOO........OOOOOOOOOOOOOOOOOOOO",
"OOOOOOOOOOOOOOOOOOOO........OOOOOOOO........OOOOOOOOOOOOOOOOOOOO",
"OOOOOOOOOOOOOOOOOOOO........OOOOOOOOOOOOOOOOOOOOOOOOOOOOOOOOOOOO",
"OOOOOOOOOOOOOOOOOOOO........OOOOOOOOOOOOOOOOOOOOOOOOOOOOOOOOOOOO",
"OOOOOOOOOOOOOOOOOOOO........OOOOOOOOOOOOOOOOOOOOOOOOOOOOOOOOOOOO",
"OOOOOOOOOOOOOOOOOOOO........OOOOOOOOOOOOOOOOOOOOOOOOOOOOOOOOOOOO"
};
