/* XPM */
static const char *player_left_2_xpm[] = {
/* columns rows colors chars-per-pixel */
"64 64 5 1 ",
"  c #388700",
". c #FF8170",
"X c #64B0FF",
"o c #FFFFFF",
"O c None",
/* pixels */
"OOOOOOOOOOOOOOOOOOOOOOOOOOOOOOOOOOOOOOOOOOOO....OOOOOOOOOOOOOOOO",
"OOOOOOOOOOOOOOOOOOOOOOOOOOOOOOOOOOOOOOOOOOOO....OOOOOOOOOOOOOOOO",
"OOOOOOOOOOOOOOOOOOOOOOOOOOOOOOOOOOOOOOOOOOOO....OOOOOOOOOOOOOOOO",
"OOOOOOOOOOOOOOOOOOOOOOOOOOOOOOOOOOOOOOOOOOOO....OOOOOOOOOOOOOOOO",
"OOOOOOOOOOOOooooooooooooooooooooooooOOOOXXXXOOOOOOOOOOOOOOOOOOOO",
"OOOOOOOOOOOOooooooooooooooooooooooooOOOOXXXXOOOOOOOOOOOOOOOOOOOO",
"OOOOOOOOOOOOooooooooooooooooooooooooOOOOXXXXOOOOOOOOOOOOOOOOOOOO",
"OOOOOOOOOOOOooooooooooooooooooooooooOOOOXXXXOOOOOOOOOOOOOOOOOOOO",
"OOOOOOOOooooooooooooooooooooooooooooooooOOOOOOOOOOOOOOOOOOOOOOOO",
"OOOOOOOOooooooooooooooooooooooooooooooooOOOOOOOOOOOOOOOOOOOOOOOO",
"OOOOOOOOooooooooooooooooooooooooooooooooOOOOOOOOOOOOOOOOOOOOOOOO",
"OOOOOOOOooooooooooooooooooooooooooooooooOOOOOOOOOOOOOOOOOOOOOOOO",
"OOOOOOOO....    ....    ........ooooooooooooOOOOOOOOOOOOOOOOOOOO",
"OOOOOOOO....    ....    ........ooooooooooooOOOOOOOOOOOOOOOOOOOO",
"OOOOOOOO....    ....    ........ooooooooooooOOOOOOOOOOOOOOOOOOOO",
"OOOOOOOO....    ....    ........ooooooooooooOOOOOOOOOOOOOOOOOOOO",
"OOOOOOOO....    ....    ....ooooooooooooooooOOOOOOOOOOOOOOOOOOOO",
"OOOOOOOO....    ....    ....ooooooooooooooooOOOOOOOOOOOOOOOOOOOO",
"OOOOOOOO....    ....    ....ooooooooooooooooOOOOOOOOOOOOOOOOOOOO",
"OOOOOOOO....    ....    ....ooooooooooooooooOOOOOOOOOOOOOOOOOOOO",
"OOOOOOOOooooooooooooooooooooooooooooooooOOOOOOOOOOOOOOOOOOOOOOOO",
"OOOOOOOOooooooooooooooooooooooooooooooooOOOOOOOOOOOOOOOOOOOOOOOO",
"OOOOOOOOooooooooooooooooooooooooooooooooOOOOOOOOOOOOOOOOOOOOOOOO",
"OOOOOOOOooooooooooooooooooooooooooooooooOOOOOOOOOOOOOOOOOOOOOOOO",
"OOOOOOOOOOOOooooooooooooooooooooXXXXXXXXOOOOOOOOOOOOOOOOOOOOOOOO",
"OOOOOOOOOOOOooooooooooooooooooooXXXXXXXXOOOOOOOOOOOOOOOOOOOOOOOO",
"OOOOOOOOOOOOooooooooooooooooooooXXXXXXXXOOOOOOOOOOOOOOOOOOOOOOOO",
"OOOOOOOOOOOOooooooooooooooooooooXXXXXXXXOOOOOOOOOOOOOOOOOOOOOOOO",
"OOOOOOOOOOOOOOOOOOOOXXXXXXXXXXXXooooooooXXXXOOOOOOOOOOOOOOOOOOOO",
"OOOOOOOOOOOOOOOOOOOOXXXXXXXXXXXXooooooooXXXXOOOOOOOOOOOOOOOOOOOO",
"OOOOOOOOOOOOOOOOOOOOXXXXXXXXXXXXooooooooXXXXOOOOOOOOOOOOOOOOOOOO",
"OOOOOOOOOOOOOOOOOOOOXXXXXXXXXXXXooooooooXXXXOOOOOOOOOOOOOOOOOOOO",
"OOOOOOOOOOOOOOOOXXXXXXXXXXXXXXXXooooooooooooOOOOOOOOOOOOOOOOOOOO",
"OOOOOOOOOOOOOOOOXXXXXXXXXXXXXXXXooooooooooooOOOOOOOOOOOOOOOOOOOO",
"OOOOOOOOOOOOOOOOXXXXXXXXXXXXXXXXooooooooooooOOOOOOOOOOOOOOOOOOOO",
"OOOOOOOOOOOOOOOOXXXXXXXXXXXXXXXXooooooooooooOOOOOOOOOOOOOOOOOOOO",
"OOOOOOOO........XXXXXXXXXXXXXXXXXXXXooooooooooooOOOOOOOOOOOOOOOO",
"OOOOOOOO........XXXXXXXXXXXXXXXXXXXXooooooooooooOOOOOOOOOOOOOOOO",
"OOOOOOOO........XXXXXXXXXXXXXXXXXXXXooooooooooooOOOOOOOOOOOOOOOO",
"OOOOOOOO........XXXXXXXXXXXXXXXXXXXXooooooooooooOOOOOOOOOOOOOOOO",
"OOOOOOOO........ooooXXXXXXXXXXXXXXXXXXXXoooo........OOOOOOOOOOOO",
"OOOOOOOO........ooooXXXXXXXXXXXXXXXXXXXXoooo........OOOOOOOOOOOO",
"OOOOOOOO........ooooXXXXXXXXXXXXXXXXXXXXoooo........OOOOOOOOOOOO",
"OOOOOOOO........ooooXXXXXXXXXXXXXXXXXXXXoooo........OOOOOOOOOOOO",
"OOOOOOOOOOOOOOOOooooXXXXXXXXXXXXXXXXXXXXXXXX........OOOOOOOOOOOO",
"OOOOOOOOOOOOOOOOooooXXXXXXXXXXXXXXXXXXXXXXXX........OOOOOOOOOOOO",
"OOOOOOOOOOOOOOOOooooXXXXXXXXXXXXXXXXXXXXXXXX........OOOOOOOOOOOO",
"OOOOOOOOOOOOOOOOooooXXXXXXXXXXXXXXXXXXXXXXXX........OOOOOOOOOOOO",
"OOOOOOOOOOOOOOOOOOOOOOOOooooooooXXXXXXXXXXXXooooooooOOOOOOOOOOOO",
"OOOOOOOOOOOOOOOOOOOOOOOOooooooooXXXXXXXXXXXXooooooooOOOOOOOOOOOO",
"OOOOOOOOOOOOOOOOOOOOOOOOooooooooXXXXXXXXXXXXooooooooOOOOOOOOOOOO",
"OOOOOOOOOOOOOOOOOOOOOOOOooooooooXXXXXXXXXXXXooooooooOOOOOOOOOOOO",
"OOOOOOOOOOOOOOOOOOOOOOOOooooooooooooOOOOoooooooo........OOOOOOOO",
"OOOOOOOOOOOOOOOOOOOOOOOOooooooooooooOOOOoooooooo........OOOOOOOO",
"OOOOOOOOOOOOOOOOOOOOOOOOooooooooooooOOOOoooooooo........OOOOOOOO",
"OOOOOOOOOOOOOOOOOOOOOOOOooooooooooooOOOOoooooooo........OOOOOOOO",
"OOOOOOOOOOOOOOOOOOOOOOOOOOOO........OOOOOOOOOOOOOOOO....OOOOOOOO",
"OOOOOOOOOOOOOOOOOOOOOOOOOOOO........OOOOOOOOOOOOOOOO....OOOOOOOO",
"OOOOOOOOOOOOOOOOOOOOOOOOOOOO........OOOOOOOOOOOOOOOO....OOOOOOOO",
"OOOOOOOOOOOOOOOOOOOOOOOOOOOO........OOOOOOOOOOOOOOOO....OOOOOOOO",
"OOOOOOOOOOOOOOOOOOOOOOOO............OOOOOOOOOOOOOOOOOOOOOOOOOOOO",
"OOOOOOOOOOOOOOOOOOOOOOOO............OOOOOOOOOOOOOOOOOOOOOOOOOOOO",
"OOOOOOOOOOOOOOOOOOOOOOOO............OOOOOOOOOOOOOOOOOOOOOOOOOOOO",
"OOOOOOOOOOOOOOOOOOOOOOOO............OOOOOOOOOOOOOOOOOOOOOOOOOOOO"
};
