/* XPM */
static const char * player_up_xpm[] = {
"64 64 4 1",
" 	c None",
".	c #FFFFFF",
"+	c #64B0FF",
"@	c #FF8170",
"                    ........................                    ",
"                    ........................                    ",
"                    ........................                    ",
"                    ........................                    ",
"                ............++++++++............                ",
"                ............++++++++............                ",
"                ............++++++++............                ",
"                ............++++++++............                ",
"                ....................++++........                ",
"                ....................++++........                ",
"                ....................++++........                ",
"                ....................++++........                ",
"                ................................                ",
"                ................................                ",
"                ................................                ",
"                ................................                ",
"                ................................                ",
"                ................................                ",
"                ................................                ",
"                ................................                ",
"                    ........................                    ",
"                    ........................                    ",
"                    ........................                    ",
"                    ........................                    ",
"                        ++++++++++++++++                        ",
"                        ++++++++++++++++                        ",
"                        ++++++++++++++++                        ",
"                        ++++++++++++++++                        ",
"                ....++++++++++++++++++++++++....@@@@@@@@        ",
"                ....++++++++++++++++++++++++....@@@@@@@@        ",
"                ....++++++++++++++++++++++++....@@@@@@@@        ",
"                ....++++++++++++++++++++++++....@@@@@@@@        ",
"            ........++++++++@@@@@@@@++++++++....@@@@@@@@        ",
"            ........++++++++@@@@@@@@++++++++....@@@@@@@@        ",
"            ........++++++++@@@@@@@@++++++++....@@@@@@@@        ",
"            ........++++++++@@@@@@@@++++++++....@@@@@@@@        ",
"            ........++++++++@@@@@@@@++++++++                    ",
"            ........++++++++@@@@@@@@++++++++                    ",
"            ........++++++++@@@@@@@@++++++++                    ",
"            ........++++++++@@@@@@@@++++++++                    ",
"        @@@@@@@@    ........................                    ",
"        @@@@@@@@    ........................                    ",
"        @@@@@@@@    ........................                    ",
"        @@@@@@@@    ........................                    ",
"        @@@@@@@@    ++++++++++++++++++++++++                    ",
"        @@@@@@@@    ++++++++++++++++++++++++                    ",
"        @@@@@@@@    ++++++++++++++++++++++++                    ",
"        @@@@@@@@    ++++++++++++++++++++++++                    ",
"                    ........++++++++........                    ",
"                    ........++++++++........                    ",
"                    ........++++++++........                    ",
"                    ........++++++++........                    ",
"                    @@@@@@@@        ........                    ",
"                    @@@@@@@@        ........                    ",
"                    @@@@@@@@        ........                    ",
"                    @@@@@@@@        ........                    ",
"                    @@@@@@@@        @@@@@@@@                    ",
"                    @@@@@@@@        @@@@@@@@                    ",
"                    @@@@@@@@        @@@@@@@@                    ",
"                    @@@@@@@@        @@@@@@@@                    ",
"                                    @@@@@@@@                    ",
"                                    @@@@@@@@                    ",
"                                    @@@@@@@@                    ",
"                                    @@@@@@@@                    "};
