/* XPM */
static const char * player_right_xpm[] = {
"64 64 4 1",
" 	c None",
".	c #FF8170",
"+	c #64B0FF",
"@	c #FFFFFF",
"                ....                                            ",
"                ....                                            ",
"                ....                                            ",
"                ....                                            ",
"                    ++++    @@@@@@@@@@@@@@@@@@@@@@@@            ",
"                    ++++    @@@@@@@@@@@@@@@@@@@@@@@@            ",
"                    ++++    @@@@@@@@@@@@@@@@@@@@@@@@            ",
"                    ++++    @@@@@@@@@@@@@@@@@@@@@@@@            ",
"                        @@@@@@@@@@@@@@@@@@@@@@@@@@@@@@@@        ",
"                        @@@@@@@@@@@@@@@@@@@@@@@@@@@@@@@@        ",
"                        @@@@@@@@@@@@@@@@@@@@@@@@@@@@@@@@        ",
"                        @@@@@@@@@@@@@@@@@@@@@@@@@@@@@@@@        ",
"                    @@@@@@@@@@@@........    ....    ....        ",
"                    @@@@@@@@@@@@........    ....    ....        ",
"                    @@@@@@@@@@@@........    ....    ....        ",
"                    @@@@@@@@@@@@........    ....    ....        ",
"                    @@@@@@@@@@@@@@@@....    ....    ....        ",
"                    @@@@@@@@@@@@@@@@....    ....    ....        ",
"                    @@@@@@@@@@@@@@@@....    ....    ....        ",
"                    @@@@@@@@@@@@@@@@....    ....    ....        ",
"                        @@@@@@@@@@@@@@@@@@@@@@@@@@@@@@@@        ",
"                        @@@@@@@@@@@@@@@@@@@@@@@@@@@@@@@@        ",
"                        @@@@@@@@@@@@@@@@@@@@@@@@@@@@@@@@        ",
"                        @@@@@@@@@@@@@@@@@@@@@@@@@@@@@@@@        ",
"                        ++++++++@@@@@@@@@@@@@@@@@@@@            ",
"                        ++++++++@@@@@@@@@@@@@@@@@@@@            ",
"                        ++++++++@@@@@@@@@@@@@@@@@@@@            ",
"                        ++++++++@@@@@@@@@@@@@@@@@@@@            ",
"                    ++++@@@@@@@@++++++++++++                    ",
"                    ++++@@@@@@@@++++++++++++                    ",
"                    ++++@@@@@@@@++++++++++++                    ",
"                    ++++@@@@@@@@++++++++++++                    ",
"                    @@@@@@@@@@@@++++++++++++++++                ",
"                    @@@@@@@@@@@@++++++++++++++++                ",
"                    @@@@@@@@@@@@++++++++++++++++                ",
"                    @@@@@@@@@@@@++++++++++++++++                ",
"                @@@@@@@@@@@@++++++++++++++++++++........        ",
"                @@@@@@@@@@@@++++++++++++++++++++........        ",
"                @@@@@@@@@@@@++++++++++++++++++++........        ",
"                @@@@@@@@@@@@++++++++++++++++++++........        ",
"            ........@@@@++++++++++++++++++++@@@@........        ",
"            ........@@@@++++++++++++++++++++@@@@........        ",
"            ........@@@@++++++++++++++++++++@@@@........        ",
"            ........@@@@++++++++++++++++++++@@@@........        ",
"            ........++++++++++++++++++++++++@@@@                ",
"            ........++++++++++++++++++++++++@@@@                ",
"            ........++++++++++++++++++++++++@@@@                ",
"            ........++++++++++++++++++++++++@@@@                ",
"            @@@@@@@@++++++++++++@@@@@@@@                        ",
"            @@@@@@@@++++++++++++@@@@@@@@                        ",
"            @@@@@@@@++++++++++++@@@@@@@@                        ",
"            @@@@@@@@++++++++++++@@@@@@@@                        ",
"        ........@@@@@@@@    @@@@@@@@@@@@                        ",
"        ........@@@@@@@@    @@@@@@@@@@@@                        ",
"        ........@@@@@@@@    @@@@@@@@@@@@                        ",
"        ........@@@@@@@@    @@@@@@@@@@@@                        ",
"        ....                ........                            ",
"        ....                ........                            ",
"        ....                ........                            ",
"        ....                ........                            ",
"                            ............                        ",
"                            ............                        ",
"                            ............                        ",
"                            ............                        "};
