/* XPM */
static const char * player_down_xpm[] = {
"64 64 4 1",
" 	c None",
".	c #FFFFFF",
"+	c #FF8170",
"@	c #64B0FF",
"                    ........................                    ",
"                    ........................                    ",
"                    ........................                    ",
"                    ........................                    ",
"                ................................                ",
"                ................................                ",
"                ................................                ",
"                ................................                ",
"                ....++++    ++++++++    ++++....                ",
"                ....++++    ++++++++    ++++....                ",
"                ....++++    ++++++++    ++++....                ",
"                ....++++    ++++++++    ++++....                ",
"                ....++++    ++++++++    ++++....                ",
"                ....++++    ++++++++    ++++....                ",
"                ....++++    ++++++++    ++++....                ",
"                ....++++    ++++++++    ++++....                ",
"                ................................                ",
"                ................................                ",
"                ................................                ",
"                ................................                ",
"                    ........................                    ",
"                    ........................                    ",
"                    ........................                    ",
"                    ........................                    ",
"                        @@@@@@@@@@@@@@@@                        ",
"                        @@@@@@@@@@@@@@@@                        ",
"                        @@@@@@@@@@@@@@@@                        ",
"                        @@@@@@@@@@@@@@@@                        ",
"                ....@@@@@@@@@@@@@@@@@@@@........++++++++        ",
"                ....@@@@@@@@@@@@@@@@@@@@........++++++++        ",
"                ....@@@@@@@@@@@@@@@@@@@@........++++++++        ",
"                ....@@@@@@@@@@@@@@@@@@@@........++++++++        ",
"            ........@@@@@@@@@@@@@@@@@@@@@@@@....++++++++        ",
"            ........@@@@@@@@@@@@@@@@@@@@@@@@....++++++++        ",
"            ........@@@@@@@@@@@@@@@@@@@@@@@@....++++++++        ",
"            ........@@@@@@@@@@@@@@@@@@@@@@@@....++++++++        ",
"            ........@@@@@@@@@@@@@@@@@@@@@@@@                    ",
"            ........@@@@@@@@@@@@@@@@@@@@@@@@                    ",
"            ........@@@@@@@@@@@@@@@@@@@@@@@@                    ",
"            ........@@@@@@@@@@@@@@@@@@@@@@@@                    ",
"        ++++++++    @@@@@@@@@@@@@@@@@@@@@@@@                    ",
"        ++++++++    @@@@@@@@@@@@@@@@@@@@@@@@                    ",
"        ++++++++    @@@@@@@@@@@@@@@@@@@@@@@@                    ",
"        ++++++++    @@@@@@@@@@@@@@@@@@@@@@@@                    ",
"        ++++++++    @@@@@@@@@@@@@@@@........                    ",
"        ++++++++    @@@@@@@@@@@@@@@@........                    ",
"        ++++++++    @@@@@@@@@@@@@@@@........                    ",
"        ++++++++    @@@@@@@@@@@@@@@@........                    ",
"                    ........@@@@@@@@........                    ",
"                    ........@@@@@@@@........                    ",
"                    ........@@@@@@@@........                    ",
"                    ........@@@@@@@@........                    ",
"                    ++++++++        ........                    ",
"                    ++++++++        ........                    ",
"                    ++++++++        ........                    ",
"                    ++++++++        ........                    ",
"                    ++++++++        ++++++++                    ",
"                    ++++++++        ++++++++                    ",
"                    ++++++++        ++++++++                    ",
"                    ++++++++        ++++++++                    ",
"                                    ++++++++                    ",
"                                    ++++++++                    ",
"                                    ++++++++                    ",
"                                    ++++++++                    "};
