/* XPM */
static const char *score_xpm[] = {
"206 64 25 1 ",
"  c None",
". c #000000",
"X c #010101",
"o c #020202",
"O c #030303",
"+ c #040404",
"@ c #060606",
"# c #070707",
"$ c #080808",
"% c #090909",
"& c #0B0B0B",
"* c #0D0D0D",
"= c #0F0F0F",
"- c #111111",
"; c #141414",
": c #161616",
"> c #171717",
", c #181818",
"< c #191919",
"1 c #373737",
"2 c #3C3C3C",
"3 c #3D3D3D",
"4 c #535353",
"5 c #575757",
"6 c #5A5A5A",
/* pixels */
"                                                                                                                                                                                                              ",
"                                                                                                                                                                                                              ",
"                                                                                                                                                                                                              ",
"                                                                                                                                                                                                              ",
"                                                                                                                                                                                                              ",
"                                                                                                                                                                                                              ",
"    ........................              ........................              ........................             ........................              ........................                           ",
"    .........................            ..........................            .........................             .........................            ..........................                          ",
"    .........................            ..........................            .........................             .........................            ..........................                          ",
"    .........................            ..........................            .........................             .........................            ..........................                          ",
"    ....+$..................             .....$...................             .....$.............$+....             ....+$.............$.....            .....$...................                           ",
"    ....,                                .....2                                ....+6              :....             ....,              5.....            .....2                                              ",
"    .....                                .....                                 .....               .....             .....               .....            .....                                               ",
"    .....                                .....                                 .....               .....             .....               .....            .....                                               ",
"    .....                                .....                                 .....               .....             .....               .....            .....                                               ",
"    .....                                .....                                 .....               .....             .....               .....            .....                                               ",
"    .....                                .....                                 .....               .....             .....               .....            .....                                               ",
"    .....                                .....                                 .....               .....             .....               .....            .....                                               ",
"    .....                                .....                                 .....               .....             .....               .....            .....                                               ",
"    .....                                .....                                 .....               .....             .....               .....            .....                                      .....    ",
"    .....                                .....                                 .....               .....             .....               .....            .....                                      .....    ",
"    .....                                .....                                 .....               .....             .....               .....            .....                                      .....    ",
"    .....                                .....                                 .....               .....             .....               .....            .....                                      .....    ",
"    .....                                .....                                 .....               .....             .....               .....            .....                                       ...     ",
"    .....                                .....                                 .....               .....             .....               .....            .....                                               ",
"    .....                                .....                                 .....               .....             .....               .....            .....                                               ",
"    .....                                .....                                 .....               .....             .....               .....            .....                                               ",
"    .....                                .....                                 .....               .....             .....               .....            .....                                               ",
"    .....                                .....                                 .....               .....             .....               .....            .....                                               ",
"    .....                                .....                                 .....               .....             .....               .....            .....                                               ",
"    ....:                                .....                                 .....               .....             .....               .....            .....2                                              ",
"    ....+*..................             .....                                 .....               .....             .....               .....            .....*+..................                           ",
"    .........................            .....                                 .....               .....             .....               .....            ..........................                          ",
"    .........................            .....                                 .....               .....             .....               .....            ..........................                          ",
"    .........................            .....                                 .....               .....             .....               .....            ..........................                          ",
"    ...................+.....            .....                                 .....               .....             ....:               .....            .........................                           ",
"                       4.....            .....                                 .....               .....             ....$*.............:.....            .....2                                      ....    ",
"                        .....            .....                                 .....               .....             .........................            .....                                      .....    ",
"                        .....            .....                                 .....               .....             .........................            .....                                      .....    ",
"                        .....            .....                                 .....               .....             .........................            .....                                      .....    ",
"                        .....            .....                                 .....               .....             .........................            .....                                      .....    ",
"                        .....            .....                                 .....               .....             .........:                           .....                                               ",
"                        .....            .....                                 .....               .....             ..........                           .....                                               ",
"                        .....            .....                                 .....               .....             ...........                          .....                                               ",
"                        .....            .....                                 .....               .....             ............                         .....                                               ",
"                        .....            .....                                 .....               .....             ..... .......                        .....                                               ",
"                        .....            .....                                 .....               .....             ....+  .......                       .....                                               ",
"                        .....            .....                                 .....               .....             .....   .......                      .....                                               ",
"                        .....            .....                                 .....               .....             .....    .......                     .....                                               ",
"                        .....            .....                                 .....               .....             .....     .......                    .....                                               ",
"                        .....            .....                                 .....               .....             .....      .......                   .....                                               ",
"                        .....            .....                                 .....               .....             .....       .......                  .....                                               ",
"                        .....            .....                                 .....               .....             .....        .......                 .....                                               ",
"                        .....            .....                                 .....               .....             .....         .......                .....                                               ",
"                        .....            .....                                 .....               .....             .....          .......               .....                                               ",
"                        .....            .....1                                .....               -....             .....           .......              .....1                                              ",
"    ...................,.....            .....:$..................             .....,.............:$....             .....            .......             .....:$..................                           ",
"    .........................            ..........................            .........................             .....             .......            ..........................                          ",
"    .........................            ..........................            .........................             .....              ......            ..........................                          ",
"    .........................            ..........................            .........................             .....               ....             ..........................                          ",
"    .........................             ........................             .........................             .....                ..               ........................                           ",
"                                                                                                                                                                                                              ",
"                                                                                                                                                                                                              ",
"                                                                                                                                                                                                              "
};
