/* XPM */
static const char *bomb_3_xpm[] = {
/* columns rows colors chars-per-pixel */
"64 64 3 1 ",
"  c #000001",
". c #FFFFFF"
,
"X c None",
/* pixels */
"XXXXXXXXXXXXXXXXXXXXXXXXXXXX        XXXXXXXXXXXXXXXX....XXXXXXXX",
"XXXXXXXXXXXXXXXXXXXXXXXXXXXX        XXXXXXXXXXXXXXXX....XXXXXXXX",
"XXXXXXXXXXXXXXXXXXXXXXXXXXXX        XXXXXXXXXXXXXXXX....XXXXXXXX",
"XXXXXXXXXXXXXXXXXXXXXXXXXXXX        XXXXXXXXXXXXXXXX....XXXXXXXX",
"XXXXXXXXXXXXXXXXXXXX                ............XXXXXXXXXXXXXXXX",
"XXXXXXXXXXXXXXXXXXXX                ............XXXXXXXXXXXXXXXX",
"XXXXXXXXXXXXXXXXXXXX                ............XXXXXXXXXXXXXXXX",
"XXXXXXXXXXXXXXXXXXXX                ............XXXXXXXXXXXXXXXX",
"XXXXXXXXXXXXXXXX                ........        XXXXXXXX....XXXX",
"XXXXXXXXXXXXXXXX                ........        XXXXXXXX....XXXX",
"XXXXXXXXXXXXXXXX                ........        XXXXXXXX....XXXX",
"XXXXXXXXXXXXXXXX                ........        XXXXXXXX....XXXX",
"XXXXXXXXXXXX        ....        ....                XXXXXXXXXXXX",
"XXXXXXXXXXXX        ....        ....                XXXXXXXXXXXX",
"XXXXXXXXXXXX        ....        ....                XXXXXXXXXXXX",
"XXXXXXXXXXXX        ....        ....                XXXXXXXXXXXX",
"XXXXXXXXXXXX    ........        ....                XXXXXXXXXXXX",
"XXXXXXXXXXXX    ........        ....                XXXXXXXXXXXX",
"XXXXXXXXXXXX    ........        ....                XXXXXXXXXXXX",
"XXXXXXXXXXXX    ........        ....                XXXXXXXXXXXX",
"XXXXXXXX        ........                                XXXXXXXX",
"XXXXXXXX        ........                                XXXXXXXX",
"XXXXXXXX        ........                                XXXXXXXX",
"XXXXXXXX        ........                                XXXXXXXX",
"XXXXXXXX    ........                                    XXXXXXXX",
"XXXXXXXX    ........                                    XXXXXXXX",
"XXXXXXXX    ........                                    XXXXXXXX",
"XXXXXXXX    ........                                    XXXXXXXX",
"XXXXXXXX    ........                                    XXXXXXXX",
"XXXXXXXX    ........                                    XXXXXXXX",
"XXXXXXXX    ........                                    XXXXXXXX",
"XXXXXXXX    ........                                    XXXXXXXX",
"XXXXXXXX                                                XXXXXXXX",
"XXXXXXXX                                                XXXXXXXX",
"XXXXXXXX                                                XXXXXXXX",
"XXXXXXXX                                                XXXXXXXX",
"XXXXXXXX                                                XXXXXXXX",
"XXXXXXXX                                                XXXXXXXX",
"XXXXXXXX                                                XXXXXXXX",
"XXXXXXXX                                                XXXXXXXX",
"XXXXXXXX                                                XXXXXXXX",
"XXXXXXXX                                                XXXXXXXX",
"XXXXXXXX                                                XXXXXXXX",
"XXXXXXXX                                                XXXXXXXX",
"XXXXXXXXXXXX                                        XXXXXXXXXXXX",
"XXXXXXXXXXXX                                        XXXXXXXXXXXX",
"XXXXXXXXXXXX                                        XXXXXXXXXXXX",
"XXXXXXXXXXXX                                        XXXXXXXXXXXX",
"XXXXXXXXXXXX                                        XXXXXXXXXXXX",
"XXXXXXXXXXXX                                        XXXXXXXXXXXX",
"XXXXXXXXXXXX                                        XXXXXXXXXXXX",
"XXXXXXXXXXXX                                        XXXXXXXXXXXX",
"XXXXXXXXXXXXXXXX                                XXXXXXXXXXXXXXXX",
"XXXXXXXXXXXXXXXX                                XXXXXXXXXXXXXXXX",
"XXXXXXXXXXXXXXXX                                XXXXXXXXXXXXXXXX",
"XXXXXXXXXXXXXXXX                                XXXXXXXXXXXXXXXX",
"XXXXXXXXXXXXXXXXXXXX                        XXXXXXXXXXXXXXXXXXXX",
"XXXXXXXXXXXXXXXXXXXX                        XXXXXXXXXXXXXXXXXXXX",
"XXXXXXXXXXXXXXXXXXXX                        XXXXXXXXXXXXXXXXXXXX",
"XXXXXXXXXXXXXXXXXXXX                        XXXXXXXXXXXXXXXXXXXX",
"XXXXXXXXXXXXXXXXXXXXXXXXXXXX        XXXXXXXXXXXXXXXXXXXXXXXXXXXX",
"XXXXXXXXXXXXXXXXXXXXXXXXXXXX        XXXXXXXXXXXXXXXXXXXXXXXXXXXX",
"XXXXXXXXXXXXXXXXXXXXXXXXXXXX        XXXXXXXXXXXXXXXXXXXXXXXXXXXX",
"XXXXXXXXXXXXXXXXXXXXXXXXXXXX        XXXXXXXXXXXXXXXXXXXXXXXXXXXX"
};
