/* XPM */
static const char *bomb_2_xpm[] = {
/* columns rows colors chars-per-pixel */
"64 64 4 1 ",
"  c #000001",
". c #B1B1B1",
"X c #FFFFFF",
"o c None",
/* pixels */
"ooooooooooooooooooooooooooooooooooooXXXXXXXXooooXXXXoooooooooooo",
"ooooooooooooooooooooooooooooooooooooXXXXXXXXooooXXXXoooooooooooo",
"ooooooooooooooooooooooooooooooooooooXXXXXXXXooooXXXXoooooooooooo",
"ooooooooooooooooooooooooooooooooooooXXXXXXXXooooXXXXoooooooooooo",
"oooooooooooooooooooooooo        XXXXXXXXoooooooooooooooooooooooo",
"oooooooooooooooooooooooo        XXXXXXXXoooooooooooooooooooooooo",
"oooooooooooooooooooooooo        XXXXXXXXoooooooooooooooooooooooo",
"oooooooooooooooooooooooo        XXXXXXXXoooooooooooooooooooooooo",
"oooooooooooooooo                XXXX        XXXXoooooooooooooooo",
"oooooooooooooooo                XXXX        XXXXoooooooooooooooo",
"oooooooooooooooo                XXXX        XXXXoooooooooooooooo",
"oooooooooooooooo                XXXX        XXXXoooooooooooooooo",
"oooooooooooo        XXXX....    XXXX                oooooooooooo",
"oooooooooooo        XXXX....    XXXX                oooooooooooo",
"oooooooooooo        XXXX....    XXXX                oooooooooooo",
"oooooooooooo        XXXX....    XXXX                oooooooooooo",
"oooooooo        XXXXXXXX                                oooooooo",
"oooooooo        XXXXXXXX                                oooooooo",
"oooooooo        XXXXXXXX                                oooooooo",
"oooooooo        XXXXXXXX                                oooooooo",
"oooooooo    ....XXXXXXXX                                oooooooo",
"oooooooo    ....XXXXXXXX                                oooooooo",
"oooooooo    ....XXXXXXXX                                oooooooo",
"oooooooo    ....XXXXXXXX                                oooooooo",
"oooo        XXXXXXXX....                                    oooo",
"oooo        XXXXXXXX....                                    oooo",
"oooo        XXXXXXXX....                                    oooo",
"oooo        XXXXXXXX....                                    oooo",
"oooo        XXXXXXXX                                        oooo",
"oooo        XXXXXXXX                                        oooo",
"oooo        XXXXXXXX                                        oooo",
"oooo        XXXXXXXX                                        oooo",
"oooo        ........                                        oooo",
"oooo        ........                                        oooo",
"oooo        ........                                        oooo",
"oooo        ........                                        oooo",
"oooo                                                        oooo",
"oooo                                                        oooo",
"oooo                                                        oooo",
"oooo                                                        oooo",
"oooo                                                        oooo",
"oooo                                                        oooo",
"oooo                                                        oooo",
"oooo                                                        oooo",
"oooooooo                                                oooooooo",
"oooooooo                                                oooooooo",
"oooooooo                                                oooooooo",
"oooooooo                                                oooooooo",
"oooooooo                                                oooooooo",
"oooooooo                                                oooooooo",
"oooooooo                                                oooooooo",
"oooooooo                                                oooooooo",
"oooooooooooo                                        oooooooooooo",
"oooooooooooo                                        oooooooooooo",
"oooooooooooo                                        oooooooooooo",
"oooooooooooo                                        oooooooooooo",
"oooooooooooooooo                                oooooooooooooooo",
"oooooooooooooooo                                oooooooooooooooo",
"oooooooooooooooo                                oooooooooooooooo",
"oooooooooooooooo                                oooooooooooooooo",
"oooooooooooooooooooooooo                oooooooooooooooooooooooo",
"oooooooooooooooooooooooo                oooooooooooooooooooooooo",
"oooooooooooooooooooooooo                oooooooooooooooooooooooo",
"oooooooooooooooooooooooo                oooooooooooooooooooooooo"
};
