/* XPM */
static const char * brick_1_xpm[] = {
"64 64 3 1",
" 	c #B53120",
".	c #FFCCC5",
"+	c #FF8170",
"                                                                ",
"                                                                ",
"                                                                ",
"                                                                ",
"    ........................................................    ",
"    ........................................................    ",
"    ........................................................    ",
"    ........................................................    ",
"....++++++++++++++++++++++++++++++++++++++++++++++++++++++++    ",
"....++++++++++++++++++++++++++++++++++++++++++++++++++++++++    ",
"....++++++++++++++++++++++++++++++++++++++++++++++++++++++++    ",
"....++++++++++++++++++++++++++++++++++++++++++++++++++++++++    ",
"....++++++++++++++++++++++++++++++++++++++++++++++++++++++++    ",
"....++++++++++++++++++++++++++++++++++++++++++++++++++++++++    ",
"....++++++++++++++++++++++++++++++++++++++++++++++++++++++++    ",
"....++++++++++++++++++++++++++++++++++++++++++++++++++++++++    ",
"....++++++++++++++++++++++++++++++++++++++++++++++++++++++++    ",
"....++++++++++++++++++++++++++++++++++++++++++++++++++++++++    ",
"....++++++++++++++++++++++++++++++++++++++++++++++++++++++++    ",
"....++++++++++++++++++++++++++++++++++++++++++++++++++++++++    ",
"                                                                ",
"                                                                ",
"                                                                ",
"                                                                ",
"....................        ....................................",
"....................        ....................................",
"....................        ....................................",
"....................        ....................................",
"++++++++++++++++++++    ....++++++++++++++++++++++++++++++++++++",
"++++++++++++++++++++    ....++++++++++++++++++++++++++++++++++++",
"++++++++++++++++++++    ....++++++++++++++++++++++++++++++++++++",
"++++++++++++++++++++    ....++++++++++++++++++++++++++++++++++++",
"++++++++++++++++++++    ....++++++++++++++++++++++++++++++++++++",
"++++++++++++++++++++    ....++++++++++++++++++++++++++++++++++++",
"++++++++++++++++++++    ....++++++++++++++++++++++++++++++++++++",
"++++++++++++++++++++    ....++++++++++++++++++++++++++++++++++++",
"++++++++++++++++++++    ....++++++++++++++++++++++++++++++++++++",
"++++++++++++++++++++    ....++++++++++++++++++++++++++++++++++++",
"++++++++++++++++++++    ....++++++++++++++++++++++++++++++++++++",
"++++++++++++++++++++    ....++++++++++++++++++++++++++++++++++++",
"                                                                ",
"                                                                ",
"                                                                ",
"                                                                ",
"....................................        ....................",
"....................................        ....................",
"....................................        ....................",
"....................................        ....................",
"++++++++++++++++++++++++++++++++++++    ....++++++++++++++++++++",
"++++++++++++++++++++++++++++++++++++    ....++++++++++++++++++++",
"++++++++++++++++++++++++++++++++++++    ....++++++++++++++++++++",
"++++++++++++++++++++++++++++++++++++    ....++++++++++++++++++++",
"++++++++++++++++++++++++++++++++++++    ....++++++++++++++++++++",
"++++++++++++++++++++++++++++++++++++    ....++++++++++++++++++++",
"++++++++++++++++++++++++++++++++++++    ....++++++++++++++++++++",
"++++++++++++++++++++++++++++++++++++    ....++++++++++++++++++++",
"++++++++++++++++++++++++++++++++++++    ....++++++++++++++++++++",
"++++++++++++++++++++++++++++++++++++    ....++++++++++++++++++++",
"++++++++++++++++++++++++++++++++++++    ....++++++++++++++++++++",
"++++++++++++++++++++++++++++++++++++    ....++++++++++++++++++++",
"                                                                ",
"                                                                ",
"                                                                ",
"                                                                "};
