/* XPM */
static const char * brick_2_xpm[] = {
"64 64 4 1",
" 	c None",
".	c #FFCCC5",
"+	c #FF8170",
"@	c #B53120",
"                                                                ",
"                                                                ",
"                                                                ",
"                                                                ",
"                                                                ",
"                                                                ",
"                                                                ",
"                                                                ",
"        ............................................            ",
"        ............................................            ",
"        ............................................            ",
"        ............................................            ",
"    ....++++++++++++++++++++++++++++++++++++++++++++++++        ",
"    ....++++++++++++++++++++++++++++++++++++++++++++++++        ",
"    ....++++++++++++++++++++++++++++++++++++++++++++++++        ",
"    ....++++++++++++++++++++++++++++++++++++++++++++++++        ",
"        ++++++++++++++++++++++++++++++++++++++++++++@@@@        ",
"        ++++++++++++++++++++++++++++++++++++++++++++@@@@        ",
"        ++++++++++++++++++++++++++++++++++++++++++++@@@@        ",
"        ++++++++++++++++++++++++++++++++++++++++++++@@@@        ",
"        @@@@@@@@@@@@@@@@@@@@@@@@@@@@@@@@@@@@@@@@@@@@            ",
"        @@@@@@@@@@@@@@@@@@@@@@@@@@@@@@@@@@@@@@@@@@@@            ",
"        @@@@@@@@@@@@@@@@@@@@@@@@@@@@@@@@@@@@@@@@@@@@            ",
"        @@@@@@@@@@@@@@@@@@@@@@@@@@@@@@@@@@@@@@@@@@@@            ",
"                                                                ",
"                                                                ",
"                                                                ",
"                                                                ",
"............                    ................................",
"............                    ................................",
"............                    ................................",
"............                    ................................",
"++++++++++++++++            ....++++++++++++++++++++++++++++++++",
"++++++++++++++++            ....++++++++++++++++++++++++++++++++",
"++++++++++++++++            ....++++++++++++++++++++++++++++++++",
"++++++++++++++++            ....++++++++++++++++++++++++++++++++",
"++++++++++++@@@@                ++++++++++++++++++++++++++++++++",
"++++++++++++@@@@                ++++++++++++++++++++++++++++++++",
"++++++++++++@@@@                ++++++++++++++++++++++++++++++++",
"++++++++++++@@@@                ++++++++++++++++++++++++++++++++",
"@@@@@@@@@@@@                    @@@@@@@@@@@@@@@@@@@@@@@@@@@@@@@@",
"@@@@@@@@@@@@                    @@@@@@@@@@@@@@@@@@@@@@@@@@@@@@@@",
"@@@@@@@@@@@@                    @@@@@@@@@@@@@@@@@@@@@@@@@@@@@@@@",
"@@@@@@@@@@@@                    @@@@@@@@@@@@@@@@@@@@@@@@@@@@@@@@",
"                                                                ",
"                                                                ",
"                                                                ",
"                                                                ",
"................................                    ............",
"................................                    ............",
"................................                    ............",
"................................                    ............",
"++++++++++++++++++++++++++++++++++++            ....++++++++++++",
"++++++++++++++++++++++++++++++++++++            ....++++++++++++",
"++++++++++++++++++++++++++++++++++++            ....++++++++++++",
"++++++++++++++++++++++++++++++++++++            ....++++++++++++",
"++++++++++++++++++++++++++++++++@@@@                ++++++++++++",
"++++++++++++++++++++++++++++++++@@@@                ++++++++++++",
"++++++++++++++++++++++++++++++++@@@@                ++++++++++++",
"++++++++++++++++++++++++++++++++@@@@                ++++++++++++",
"@@@@@@@@@@@@@@@@@@@@@@@@@@@@@@@@                    @@@@@@@@@@@@",
"@@@@@@@@@@@@@@@@@@@@@@@@@@@@@@@@                    @@@@@@@@@@@@",
"@@@@@@@@@@@@@@@@@@@@@@@@@@@@@@@@                    @@@@@@@@@@@@",
"@@@@@@@@@@@@@@@@@@@@@@@@@@@@@@@@                    @@@@@@@@@@@@"};
