/* XPM */
static const char * brick_0_xpm[] = {
"64 64 3 1",
" 	c #000001",
".	c #FFFFFF",
"+	c #B0B0B0",
"                                                                ",
"                                                                ",
"                                                                ",
"                                                                ",
"    ........................................................    ",
"    ........................................................    ",
"    ........................................................    ",
"    ........................................................    ",
"....++++++++++++++++++++++++++++++++++++++++++++++++++++++++    ",
"....++++++++++++++++++++++++++++++++++++++++++++++++++++++++    ",
"....++++++++++++++++++++++++++++++++++++++++++++++++++++++++    ",
"....++++++++++++++++++++++++++++++++++++++++++++++++++++++++    ",
"....++++++++++++++++++++++++++++++++++++++++++++++++++++++++    ",
"....++++++++++++++++++++++++++++++++++++++++++++++++++++++++    ",
"....++++++++++++++++++++++++++++++++++++++++++++++++++++++++    ",
"....++++++++++++++++++++++++++++++++++++++++++++++++++++++++    ",
"....++++++++++++++++++++++++++++++++++++++++++++++++++++++++    ",
"....++++++++++++++++++++++++++++++++++++++++++++++++++++++++    ",
"....++++++++++++++++++++++++++++++++++++++++++++++++++++++++    ",
"....++++++++++++++++++++++++++++++++++++++++++++++++++++++++    ",
"                                                                ",
"                                                                ",
"                                                                ",
"                                                                ",
"....................        ....................................",
"....................        ....................................",
"....................        ....................................",
"....................        ....................................",
"++++++++++++++++++++    ....++++++++++++++++++++++++++++++++++++",
"++++++++++++++++++++    ....++++++++++++++++++++++++++++++++++++",
"++++++++++++++++++++    ....++++++++++++++++++++++++++++++++++++",
"++++++++++++++++++++    ....++++++++++++++++++++++++++++++++++++",
"++++++++++++++++++++    ....++++++++++++++++++++++++++++++++++++",
"++++++++++++++++++++    ....++++++++++++++++++++++++++++++++++++",
"++++++++++++++++++++    ....++++++++++++++++++++++++++++++++++++",
"++++++++++++++++++++    ....++++++++++++++++++++++++++++++++++++",
"++++++++++++++++++++    ....++++++++++++++++++++++++++++++++++++",
"++++++++++++++++++++    ....++++++++++++++++++++++++++++++++++++",
"++++++++++++++++++++    ....++++++++++++++++++++++++++++++++++++",
"++++++++++++++++++++    ....++++++++++++++++++++++++++++++++++++",
"                                                                ",
"                                                                ",
"                                                                ",
"                                                                ",
"....................................        ....................",
"....................................        ....................",
"....................................        ....................",
"....................................        ....................",
"++++++++++++++++++++++++++++++++++++    ....++++++++++++++++++++",
"++++++++++++++++++++++++++++++++++++    ....++++++++++++++++++++",
"++++++++++++++++++++++++++++++++++++    ....++++++++++++++++++++",
"++++++++++++++++++++++++++++++++++++    ....++++++++++++++++++++",
"++++++++++++++++++++++++++++++++++++    ....++++++++++++++++++++",
"++++++++++++++++++++++++++++++++++++    ....++++++++++++++++++++",
"++++++++++++++++++++++++++++++++++++    ....++++++++++++++++++++",
"++++++++++++++++++++++++++++++++++++    ....++++++++++++++++++++",
"++++++++++++++++++++++++++++++++++++    ....++++++++++++++++++++",
"++++++++++++++++++++++++++++++++++++    ....++++++++++++++++++++",
"++++++++++++++++++++++++++++++++++++    ....++++++++++++++++++++",
"++++++++++++++++++++++++++++++++++++    ....++++++++++++++++++++",
"                                                                ",
"                                                                ",
"                                                                ",
"                                                                "};
