/* XPM */
static const char * powerup_xpm[] = {
"64 64 3 1",
" 	c #6B6D00",
".	c #BCBE00",
"+	c #000001",
"    ....................................................    ++++",
"    ....................................................    ++++",
"    ....................................................    ++++",
"    ....................................................    ++++",
"....    ++++++++++++++++++++++++++++++++++++++++++++++++....++++",
"....    ++++++++++++++++++++++++++++++++++++++++++++++++....++++",
"....    ++++++++++++++++++++++++++++++++++++++++++++++++....++++",
"....    ++++++++++++++++++++++++++++++++++++++++++++++++....++++",
"....++++        ........++++            ........++++    ....++++",
"....++++        ........++++            ........++++    ....++++",
"....++++        ........++++            ........++++    ....++++",
"....++++        ........++++            ........++++    ....++++",
"....++++    ................++++    ................++++....++++",
"....++++    ................++++    ................++++....++++",
"....++++    ................++++    ................++++....++++",
"....++++    ................++++    ................++++....++++",
"....++++....................................................++++",
"....++++....................................................++++",
"....++++....................................................++++",
"....++++....................................................++++",
"....++++....................................................++++",
"....++++....................................................++++",
"....++++....................................................++++",
"....++++....................................................++++",
"....++++....................................................++++",
"....++++....................................................++++",
"....++++....................................................++++",
"....++++....................................................++++",
"....++++....................................................++++",
"....++++....................................................++++",
"....++++....................................................++++",
"....++++....................................................++++",
"....++++    ........................................++++....++++",
"....++++    ........................................++++....++++",
"....++++    ........................................++++....++++",
"....++++    ........................................++++....++++",
"....++++        ................................++++++++....++++",
"....++++        ................................++++++++....++++",
"....++++        ................................++++++++....++++",
"....++++        ................................++++++++....++++",
"....++++            ........................++++++++    ....++++",
"....++++            ........................++++++++    ....++++",
"....++++            ........................++++++++    ....++++",
"....++++            ........................++++++++    ....++++",
"....++++                ................++++++++        ....++++",
"....++++                ................++++++++        ....++++",
"....++++                ................++++++++        ....++++",
"....++++                ................++++++++        ....++++",
"....++++                    ........++++++++            ....++++",
"....++++                    ........++++++++            ....++++",
"....++++                    ........++++++++            ....++++",
"....++++                    ........++++++++            ....++++",
"....++++                    ++++++++++++                ....++++",
"....++++                    ++++++++++++                ....++++",
"....++++                    ++++++++++++                ....++++",
"....++++                    ++++++++++++                ....++++",
"    ....................................................    ++++",
"    ....................................................    ++++",
"    ....................................................    ++++",
"    ....................................................    ++++",
"++++++++++++++++++++++++++++++++++++++++++++++++++++++++++++++++",
"++++++++++++++++++++++++++++++++++++++++++++++++++++++++++++++++",
"++++++++++++++++++++++++++++++++++++++++++++++++++++++++++++++++",
"++++++++++++++++++++++++++++++++++++++++++++++++++++++++++++++++"};
