/* XPM */
static const char * wall_xpm[] = {
"64 64 3 1",
" 	c #B0B0B0",
".	c #FFFFFF",
"+	c #000001",
"    ........................................................++++",
"    ........................................................++++",
"    ........................................................++++",
"    ........................................................++++",
"....                                                        ++++",
"....                                                        ++++",
"....                                                        ++++",
"....                                                        ++++",
"....                                                        ++++",
"....                                                        ++++",
"....                                                        ++++",
"....                                                        ++++",
"....                                                        ++++",
"....                                                        ++++",
"....                                                        ++++",
"....                                                        ++++",
"....                                                        ++++",
"....                                                        ++++",
"....                                                        ++++",
"....                                                        ++++",
"....                                                        ++++",
"....                                                        ++++",
"....                                                        ++++",
"....                                                        ++++",
"....                                                        ++++",
"....                                                        ++++",
"....                                                        ++++",
"....                                                        ++++",
"....                                                        ++++",
"....                                                        ++++",
"....                                                        ++++",
"....                                                        ++++",
"....                                                        ++++",
"....                                                        ++++",
"....                                                        ++++",
"....                                                        ++++",
"....                                                        ++++",
"....                                                        ++++",
"....                                                        ++++",
"....                                                        ++++",
"....                                                        ++++",
"....                                                        ++++",
"....                                                        ++++",
"....                                                        ++++",
"....                                                        ++++",
"....                                                        ++++",
"....                                                        ++++",
"....                                                        ++++",
"....                                                        ++++",
"....                                                        ++++",
"....                                                        ++++",
"....                                                        ++++",
"....                                                        ++++",
"....                                                        ++++",
"....                                                        ++++",
"....                                                        ++++",
"....++++++++++++++++++++++++++++++++++++++++++++++++++++    ++++",
"....++++++++++++++++++++++++++++++++++++++++++++++++++++    ++++",
"....++++++++++++++++++++++++++++++++++++++++++++++++++++    ++++",
"....++++++++++++++++++++++++++++++++++++++++++++++++++++    ++++",
"++++++++++++++++++++++++++++++++++++++++++++++++++++++++++++++++",
"++++++++++++++++++++++++++++++++++++++++++++++++++++++++++++++++",
"++++++++++++++++++++++++++++++++++++++++++++++++++++++++++++++++",
"++++++++++++++++++++++++++++++++++++++++++++++++++++++++++++++++"};
