/* XPM */
static const char *explosion_arm_v_4_xpm[] = {
/* columns rows colors chars-per-pixel */
"64 64 4 1 ",
"  c #B53120",
". c #FF8170",
"X c #FFCCC5",
"o c None",
/* pixels */
"oooo    ........XXXXXXXXXXXXXXXXXXXXXXXXXXXXXXXX....        oooo",
"oooo    ........XXXXXXXXXXXXXXXXXXXXXXXXXXXXXXXX....        oooo",
"oooo    ........XXXXXXXXXXXXXXXXXXXXXXXXXXXXXXXX....        oooo",
"oooo    ........XXXXXXXXXXXXXXXXXXXXXXXXXXXXXXXX....        oooo",
"oooo........XXXXXXXXXXXXXXXXXXXXXXXXXXXXXXXXXXXX........        ",
"oooo........XXXXXXXXXXXXXXXXXXXXXXXXXXXXXXXXXXXX........        ",
"oooo........XXXXXXXXXXXXXXXXXXXXXXXXXXXXXXXXXXXX........        ",
"oooo........XXXXXXXXXXXXXXXXXXXXXXXXXXXXXXXXXXXX........        ",
"        ........XXXXXXXXXXXXXXXXXXXXXXXXXXXX............    oooo",
"        ........XXXXXXXXXXXXXXXXXXXXXXXXXXXX............    oooo",
"        ........XXXXXXXXXXXXXXXXXXXXXXXXXXXX............    oooo",
"        ........XXXXXXXXXXXXXXXXXXXXXXXXXXXX............    oooo",
"oooo    ....XXXXXXXXXXXXXXXXXXXXXXXXXXXXXXXXXXXX........        ",
"oooo    ....XXXXXXXXXXXXXXXXXXXXXXXXXXXXXXXXXXXX........        ",
"oooo    ....XXXXXXXXXXXXXXXXXXXXXXXXXXXXXXXXXXXX........        ",
"oooo    ....XXXXXXXXXXXXXXXXXXXXXXXXXXXXXXXXXXXX........        ",
"oooo    ........XXXXXXXXXXXXXXXXXXXXXXXXXXXX............    oooo",
"oooo    ........XXXXXXXXXXXXXXXXXXXXXXXXXXXX............    oooo",
"oooo    ........XXXXXXXXXXXXXXXXXXXXXXXXXXXX............    oooo",
"oooo    ........XXXXXXXXXXXXXXXXXXXXXXXXXXXX............    oooo",
"        ........XXXXXXXXXXXXXXXXXXXXXXXXXXXX........        oooo",
"        ........XXXXXXXXXXXXXXXXXXXXXXXXXXXX........        oooo",
"        ........XXXXXXXXXXXXXXXXXXXXXXXXXXXX........        oooo",
"        ........XXXXXXXXXXXXXXXXXXXXXXXXXXXX........        oooo",
"oooo    ....XXXXXXXXXXXXXXXXXXXXXXXXXXXXXXXXXXXX........        ",
"oooo    ....XXXXXXXXXXXXXXXXXXXXXXXXXXXXXXXXXXXX........        ",
"oooo    ....XXXXXXXXXXXXXXXXXXXXXXXXXXXXXXXXXXXX........        ",
"oooo    ....XXXXXXXXXXXXXXXXXXXXXXXXXXXXXXXXXXXX........        ",
"    ....    ....XXXXXXXXXXXXXXXXXXXXXXXXXXXXXXXX....        oooo",
"    ....    ....XXXXXXXXXXXXXXXXXXXXXXXXXXXXXXXX....        oooo",
"    ....    ....XXXXXXXXXXXXXXXXXXXXXXXXXXXXXXXX....        oooo",
"    ....    ....XXXXXXXXXXXXXXXXXXXXXXXXXXXXXXXX....        oooo",
"oooo    ........XXXXXXXXXXXXXXXXXXXXXXXXXXXXXXXX....        oooo",
"oooo    ........XXXXXXXXXXXXXXXXXXXXXXXXXXXXXXXX....        oooo",
"oooo    ........XXXXXXXXXXXXXXXXXXXXXXXXXXXXXXXX....        oooo",
"oooo    ........XXXXXXXXXXXXXXXXXXXXXXXXXXXXXXXX....        oooo",
"oooo........XXXXXXXXXXXXXXXXXXXXXXXXXXXXXXXXXXXX........        ",
"oooo........XXXXXXXXXXXXXXXXXXXXXXXXXXXXXXXXXXXX........        ",
"oooo........XXXXXXXXXXXXXXXXXXXXXXXXXXXXXXXXXXXX........        ",
"oooo........XXXXXXXXXXXXXXXXXXXXXXXXXXXXXXXXXXXX........        ",
"        ........XXXXXXXXXXXXXXXXXXXXXXXXXXXX............    oooo",
"        ........XXXXXXXXXXXXXXXXXXXXXXXXXXXX............    oooo",
"        ........XXXXXXXXXXXXXXXXXXXXXXXXXXXX............    oooo",
"        ........XXXXXXXXXXXXXXXXXXXXXXXXXXXX............    oooo",
"oooo    ....XXXXXXXXXXXXXXXXXXXXXXXXXXXXXXXXXXXX........        ",
"oooo    ....XXXXXXXXXXXXXXXXXXXXXXXXXXXXXXXXXXXX........        ",
"oooo    ....XXXXXXXXXXXXXXXXXXXXXXXXXXXXXXXXXXXX........        ",
"oooo    ....XXXXXXXXXXXXXXXXXXXXXXXXXXXXXXXXXXXX........        ",
"oooo    ........XXXXXXXXXXXXXXXXXXXXXXXXXXXX............    oooo",
"oooo    ........XXXXXXXXXXXXXXXXXXXXXXXXXXXX............    oooo",
"oooo    ........XXXXXXXXXXXXXXXXXXXXXXXXXXXX............    oooo",
"oooo    ........XXXXXXXXXXXXXXXXXXXXXXXXXXXX............    oooo",
"        ........XXXXXXXXXXXXXXXXXXXXXXXXXXXX........        oooo",
"        ........XXXXXXXXXXXXXXXXXXXXXXXXXXXX........        oooo",
"        ........XXXXXXXXXXXXXXXXXXXXXXXXXXXX........        oooo",
"        ........XXXXXXXXXXXXXXXXXXXXXXXXXXXX........        oooo",
"oooo    ....XXXXXXXXXXXXXXXXXXXXXXXXXXXXXXXXXXXX........        ",
"oooo    ....XXXXXXXXXXXXXXXXXXXXXXXXXXXXXXXXXXXX........        ",
"oooo    ....XXXXXXXXXXXXXXXXXXXXXXXXXXXXXXXXXXXX........        ",
"oooo    ....XXXXXXXXXXXXXXXXXXXXXXXXXXXXXXXXXXXX........        ",
"    ....    ....XXXXXXXXXXXXXXXXXXXXXXXXXXXXXXXX....        oooo",
"    ....    ....XXXXXXXXXXXXXXXXXXXXXXXXXXXXXXXX....        oooo",
"    ....    ....XXXXXXXXXXXXXXXXXXXXXXXXXXXXXXXX....        oooo",
"    ....    ....XXXXXXXXXXXXXXXXXXXXXXXXXXXXXXXX....        oooo"
};
