/* XPM */
static const char *explosion_hand_down_1_xpm[] = {
/* columns rows colors chars-per-pixel */
"64 64 21 1 ",
"  c #B53120",
". c #B53121",
"X c #B73323",
"o c #B73423",
"O c #B83627",
"+ c #C34537",
"@ c #C6483A",
"# c #C6493A",
"$ c #C84B3C",
"% c #D25849",
"& c #E96D5D",
"* c #EA6F5F",
"= c #F27665",
"- c #F37766",
"; c #F37767",
": c #F57868",
"> c #FD7F6E",
", c #FE806F",
"< c #FE8070",
"1 c #FF8170",
"2 c None",
/* pixels */
"22222222222222222222  o#-,111111111111,-#o  22222222222222222222",
"22222222222222222222  o#-,111111111111,-#o  22222222222222222222",
"22222222222222222222  o#=>,<11111111<,>=#o  22222222222222222222",
"22222222222222222222  X+&=;:>111111>:;=&+X  22222222222222222222",
"22222222222222222222  .O+#$%:<1111<:%$#+O.  22222222222222222222",
"22222222222222222222   .XoO$;,1111,;$OoX.   22222222222222222222",
"22222222222222222222   .XoO$;,1111,;$OoX.   22222222222222222222",
"22222222222222222222  .O+#$%:<1111<:%$#+O.  22222222222222222222",
"22222222222222222222  X+&=;:>111111>:;=&+X  22222222222222222222",
"22222222222222222222  o#=>,<11111111<,>=#o  22222222222222222222",
"22222222222222222222  o#-,1111111111<,>=#o  22222222222222222222",
"22222222222222222222  o#-,111111111>:;=*@o  22222222222222222222",
"2222222222222222      o#-,11111111<:%$#@2222    2222222222222222",
"2222222222222222      o#-,11111111,;$Ooo2222    2222222222222222",
"2222222222222222      o#=>,<111111,;$Ooo2222    2222222222222222",
"2222222222222222      o@*=;:>11111<:%$#@2222    2222222222222222",
"222222222222222222222222@#$%:<11111>:;=*@o  22222222222222222222",
"222222222222222222222222ooO$;,111111<,>=#o  22222222222222222222",
"222222222222222222222222  o#-,11111111,-#o  22222222222222222222",
"222222222222222222222222  o#-,11111111,-#o  22222222222222222222",
"22222222222222222222      o#-,11111111,-#o  22222222222222222222",
"22222222222222222222      o#-,11111111,-#o  22222222222222222222",
"22222222222222222222   .XoO$;,111111<,>=#o  22222222222222222222",
"22222222222222222222  .O+#$%:<11111>:;=*@o  22222222222222222222",
"22222222222222222222  X+&=;:>11111<:%$#@222222222222222222222222",
"22222222222222222222  o#=>,<111111,;$Ooo222222222222222222222222",
"22222222222222222222  o#=>,<111111,;$Ooo222222222222222222222222",
"22222222222222222222  o@*=;:>11111<:%$#@222222222222222222222222",
"2222222222222222    2222@#$%:<11111>:;=*@o  22222222222222222222",
"2222222222222222    2222ooO$;,111111<,>=#o  22222222222222222222",
"2222222222222222    2222ooO$;,11111111,-#o  22222222222222222222",
"2222222222222222    2222@#$%:<11111111,-#o  22222222222222222222",
"22222222222222222222  o@*=;:>111111111,-#o  22222222222222222222",
"22222222222222222222  o#=>,<1111111111,-#o  22222222222222222222",
"22222222222222222222  o#=>,<11111111<,>=#o  22222222222222222222",
"22222222222222222222  X+&=;:>111111>:;=&+X  22222222222222222222",
"2222222222222222      .O+#$%:<1111<:%$#+O.      2222222222222222",
"2222222222222222       .XoO$;,1111,;$OoX.       2222222222222222",
"2222222222222222          o#=>,,,,>=#o          2222222222222222",
"2222222222222222          X+&=----=&+X          2222222222222222",
"22222222222222222222      .O+######+O.      22222222222222222222",
"22222222222222222222       .XooooooX.       22222222222222222222",
"22222222222222222222                        22222222222222222222",
"22222222222222222222                        22222222222222222222",
"2222222222222222    22222222    22222222    22222222222222222222",
"2222222222222222    22222222    22222222    22222222222222222222",
"2222222222222222    22222222    22222222    22222222222222222222",
"2222222222222222    22222222    22222222    22222222222222222222",
"2222222222222222222222222222222222222222222222222222222222222222",
"2222222222222222222222222222222222222222222222222222222222222222",
"2222222222222222222222222222222222222222222222222222222222222222",
"2222222222222222222222222222222222222222222222222222222222222222",
"2222222222222222222222222222222222222222222222222222222222222222",
"2222222222222222222222222222222222222222222222222222222222222222",
"2222222222222222222222222222222222222222222222222222222222222222",
"2222222222222222222222222222222222222222222222222222222222222222",
"2222222222222222222222222222222222222222222222222222222222222222",
"2222222222222222222222222222222222222222222222222222222222222222",
"2222222222222222222222222222222222222222222222222222222222222222",
"2222222222222222222222222222222222222222222222222222222222222222",
"2222222222222222222222222222222222222222222222222222222222222222",
"2222222222222222222222222222222222222222222222222222222222222222",
"2222222222222222222222222222222222222222222222222222222222222222",
"2222222222222222222222222222222222222222222222222222222222222222"
};
