/* XPM */
static const char *explosion_hand_down_4_xpm[] = {
/* columns rows colors chars-per-pixel */
"64 64 61 1 ",
"  c #71750E",
". c #B53120",
"X c #B53121",
"o c #B53220",
"O c #B43320",
"+ c #B53221",
"@ c #B73323",
"# c #B23720",
"$ c #B73423",
"% c #B73424",
"& c #B83627",
"* c #B93827",
"= c #AA461D",
"- c #C34537",
"; c #C34637",
": c #C6483A",
"> c #C6493A",
", c #C64A3A",
"< c #C74B3C",
"1 c #C84B3C",
"2 c #C84B3D",
"3 c #C94D3E",
"4 c #D05546",
"5 c #D25849",
"6 c #D25D50",
"7 c #E96D5D",
"8 c #EA6F5F",
"9 c #EC6F60",
"0 c #F07465",
"q c #F27665",
"w c #F37666",
"e c #F37766",
"r c #F37767",
"t c #F37869",
"y c #F57868",
"u c #FD7F6E",
"i c #FD806F",
"p c #FE806F",
"a c #FE8070",
"s c #FE8170",
"d c #FF8170",
"f c #FE8272",
"g c #FF8372",
"h c #FF8373",
"j c #FF8475",
"k c #FF8575",
"l c #F5897C",
"z c #FF9082",
"x c #FE9385",
"c c #FF9386",
"v c #FF9488",
"b c #FFA095",
"n c #FDB5AD",
"m c #FFB6AD",
"M c #FFBFB7",
"N c #FFC0B9",
"B c #FFC3BB",
"V c #FFCAC3",
"C c #FFCBC4",
"Z c #FFCCC5",
"A c None",
/* pixels */
"AAAA..$>epddddgcNCZZZZZZZZZZZZZZZZZZZZZZZZCNcgddddddddpe>$..AAAA",
"AAAA..$>epddddgcNCZZZZZZZZZZZZZZZZZZZZZZZZCNcgddddddddpe>$..AAAA",
"AAAA..$>epddddgcNCZZZZZZZZZZZZZZZZZZZZZZZZCNcgddddddapuq>$..AAAA",
"AAAA..$>epddddgcNCZZZZZZZZZZZZZZZZZZZZZZZZCNcgddddduyrq7-@..AAAA",
"......$>epddddgcNCZZZZZZZZZZZZZZZZZZZZZZZZCNcgdddday51>-&X..AAAA",
"......$>epddddgcNCZZZZZZZZZZZZZZZZZZZZZZZZCNcgddddpr1&$@X...AAAA",
"......$>epddggjvNCZZZZZZZZZZZZZZZZZZZZZZZZCNvjggddpr1&$@X...AAAA",
"......$>epdkzcvbBCZZZZZZZZZZZZZZZZZZZZZZZZCBbvczkday51>-&X..AAA ",
"AAAA..$>esgzmMNBVZZZZZZZZZZZZZZZZZZZZZZZZZZVBNMmzgduyrq7-@...o#=",
"AAAA..$>epgcMVCCZZZZZZZZZZZZZZZZZZZZZZZZZZZZCCVMcgddapuq>$.....O",
"AAAA$$&<wufxMVCCZZZZZZZZZZZZZZZZZZZZZZZZZZZZZZCNcgddapuq>$......",
"AAAA:><49wtlnMNBVZZZZZZZZZZZZZZZZZZZZZZZZZZZZZCNcgduyrq7-@......",
"..$:8qw94<26lxvbBCZZZZZZZZZZZZZZZZZZZZZZZZZZZZCNcgsy51>-&X..AAAA",
"..$>quuw<&&2tfjvNCZZZZZZZZZZZZZZZZZZZZZZZZZZZZCNcgsr1&$@X...AAAA",
"..$>quuw<&&1rsgcNCZZZZZZZZZZZZZZZZZZZZZZZZZZZZCNcgse>$......AAAA",
"..$:8qw94<15ysgcNCZZZZZZZZZZZZZZZZZZZZZZZZZZZZCNcgse>$......AAAA",
"AAAA:><49wryudgcNCZZZZZZZZZZZZZZZZZZZZZZZZZZZZCNcgse>$......AAAA",
"AAAA$$&<wupaddgcNCZZZZZZZZZZZZZZZZZZZZZZZZZZZZCNcgse>$......AAAA",
"AAAA$$&1rpddggjvNCZZZZZZZZZZZZZZZZZZZZZZZZZZZZCNcgsr1&$@X...AAAA",
"AAAA>>15yadkzcvbBCZZZZZZZZZZZZZZZZZZZZZZZZZZZZCNcgsy51>-&X..AAAA",
"AAAAeeryudgzmMNBVZZZZZZZZZZZZZZZZZZZZZZZZZZZZZCNcgduyrq7-@......",
"AAAApppaddgcMVCCZZZZZZZZZZZZZZZZZZZZZZZZZZZZZZCNcgddapuq>$......",
"AAAAippaddgcMVCCZZZZZZZZZZZZZZZZZZZZZZZZZZZZCCVMcgddddpe>$......",
"AAAA0wryudgzmMNBVZZZZZZZZZZZZZZZZZZZZZZZZZZVBNMmzgddddpe>$......",
"..+*;>15yadkzcvbBCZZZZZZZZZZZZZZZZZZZZZZZZCBbvczkdddddpe>$..AAAA",
"....@$&1rpddggjvNCZZZZZZZZZZZZZZZZZZZZZZZZCNvjhgddddddpe>$..AAAA",
"......$>epddddgcNCZZZZZZZZZZZZZZZZZZZZZZZZCNvjhgddddddpe>$..AAAA",
"......$>epddddgcNCZZZZZZZZZZZZZZZZZZZZZZZZCBbvczkdddddpe>$..AAAA",
"AAAA..$>epddddgcNCZZZZZZZZZZZZZZZZZZZZZZZZZVBNMmzgddddpe>$..AAAA",
"AAAA..$>epddddgcNCZZZZZZZZZZZZZZZZZZZZZZZZZZCCVMcgddddpe>$..AAAA",
"AAAA..$>qupaddgcNCZZZZZZZZZZZZZZZZZZZZZZZZZZZZCNcgddddpe>$..AAAA",
"AAAA..@-7qryudgcNCZZZZZZZZZZZZZZZZZZZZZZZZZZZZCNcgddddpe>$..AAAA",
"......X&->15ysgcNCZZZZZZZZZZZZZZZZZZZZZZZZZZZZCNcgddddpe>$......",
".......X@$&1rsgcNCZZZZZZZZZZZZZZZZZZZZZZZZZZZZCNcgddddpe>$......",
"..........$>esgcMVCCZZZZZZZZZZZZZZZZZZZZZZZZCCVMcgddapuq>$......",
"..........$>esgzmMNBVZZZZZZZZZZZZZZZZZZZZZZVBNMmzgduyrq7-@......",
"....AAAA..$>epdkzcvbBCZZZZZZZZZZZZZZZZZZZZCBbvczkday51>-&X..AAAA",
"....AAAA..$>epddggjvNCZZZZZZZZZZZZZZZZZZZZCNvjggddpr1&$@X...AAAA",
"....AAAA..$>epddddgcMVCCZZZZZZZZZZZZZZZZCCVMcgddddpe>$......AAAA",
"....AAAA..$>epddddgzmMNBVZZZZZZZZZZZZZZVBNMmzgddddpe>$......AAAA",
"AAAA......$>epdddddkzcvbBCZZZZZZZZZZZZCBbvczkdddddpe>$..AAAA....",
"AAAA......$>epddddddggjvNCZZZZZZZZZZZZCNvjggddddddpe>$..AAAA....",
"AAAA...X@$&1rpddddddddgcMVCCCCCCCCCCCCVMcgddappaddpe>$..AAAA....",
"AAAA..X&->15yaddddddddgzmMNNNNNNNNNNNNMmzgduyrryudpe>$..AAAA....",
"AAAA..@-7qryuddddddddddkzcccccccccccccczkday5115yape>$......AAAA",
"AAAA..$>qupaddddddddddddggggggggggggggggddpr1&&1rppe>$......AAAA",
"AAAA..$>qupppppppppppppaddddssssddddddddddpe>$$>eppe>$......AAAA",
"AAAA..@-7qeeeeeeeeeeeeryudduyrryudddddddddpe>$$>eppe>$......AAAA",
"......X&->>>>>>>>>>>>>15yaay5115yaddddddddpe>$$>eppe>$......AAAA",
".......X@$$$$$$$$$$$$$&1rppr1&&1rpddddddddpe>$$>eppe>$......AAAA",
"......................$>quuq>$$>qupppppaddpw>$$>quuq>$......AAAA",
"......................@-7qq7-@@-7qeeeeryudi0;@@-7qq8:$......AAAA",
"AAAA........AAAAAAAA..X&->>-&XX&->>>>>,3AAAA*XX&->>:AAAA........",
"AAAA........AAAAAAAA...X@$$@X..X@$$$$$$%AAAA+..X@$$$AAAA........",
"AAAA........AAAAAAAA....................AAAA........AAAA........",
"AAAA........AAAAAAAA....................AAAA........AAAA........",
"........AAAA....AAAAAAAA....AAAA....AAAA........AAAA....AAAA....",
"........AAAA....AAAAAAAA....AAAA....AAAA........AAAA....AAAA....",
"........AAAA....AAAAAAAA....AAAA....AAAA........AAAA....AAAA....",
"........AAAA....AAAAAAAA....AAAA....AAAA........AAAA....AAAA....",
"........AAAAAAAAAAAAAAAAAAAAAAAAAAAAAAAA....AAAAAAAAAAAAAAAA....",
"........AAAAAAAAAAAAAAAAAAAAAAAAAAAAAAAA....AAAAAAAAAAAAAAAA....",
"........AAAAAAAAAAAAAAAAAAAAAAAAAAAAAAAA....AAAAAAAAAAAAAAAA....",
"........AAAAAAAAAAAAAAAAAAAAAAAAAAAAAAAA....AAAAAAAAAAAAAAAA...."
};
