/* XPM */
static const char *explosion_center_3_xpm[] = {
/* columns rows colors chars-per-pixel */
"64 64 4 1 ",
"  c #B53120",
". c #FF8170",
"X c #FFCCC5",
"o c None",
/* pixels */
"oooooooooooo    ........XXXXXXXXXXXXXXXX....        oooooooooooo",
"oooooooooooo    ........XXXXXXXXXXXXXXXX....        oooooooooooo",
"oooooooooooo    ........XXXXXXXXXXXXXXXX....        oooooooooooo",
"oooooooooooo    ........XXXXXXXXXXXXXXXX....        oooooooooooo",
"oooo                ....XXXXXXXXXXXX........            oooooooo",
"oooo                ....XXXXXXXXXXXX........            oooooooo",
"oooo                ....XXXXXXXXXXXX........            oooooooo",
"oooo                ....XXXXXXXXXXXX........            oooooooo",
"                ........XXXXXXXXXXXXXXXX........        oooo    ",
"                ........XXXXXXXXXXXXXXXX........        oooo    ",
"                ........XXXXXXXXXXXXXXXX........        oooo    ",
"                ........XXXXXXXXXXXXXXXX........        oooo    ",
"            ............XXXXXXXXXXXXXXXX............            ",
"            ............XXXXXXXXXXXXXXXX............            ",
"            ............XXXXXXXXXXXXXXXX............            ",
"            ............XXXXXXXXXXXXXXXX............            ",
"....................XXXXXXXXXXXXXXXXXXXX................    ....",
"....................XXXXXXXXXXXXXXXXXXXX................    ....",
"....................XXXXXXXXXXXXXXXXXXXX................    ....",
"....................XXXXXXXXXXXXXXXXXXXX................    ....",
"................XXXXXXXXXXXXXXXXXXXXXXXXXXXX........XXXX....XXXX",
"................XXXXXXXXXXXXXXXXXXXXXXXXXXXX........XXXX....XXXX",
"................XXXXXXXXXXXXXXXXXXXXXXXXXXXX........XXXX....XXXX",
"................XXXXXXXXXXXXXXXXXXXXXXXXXXXX........XXXX....XXXX",
"XXXXXXXXXXXXXXXXXXXXXXXXXXXXXXXXXXXXXXXXXXXXXXXXXXXXXXXXXXXXXXXX",
"XXXXXXXXXXXXXXXXXXXXXXXXXXXXXXXXXXXXXXXXXXXXXXXXXXXXXXXXXXXXXXXX",
"XXXXXXXXXXXXXXXXXXXXXXXXXXXXXXXXXXXXXXXXXXXXXXXXXXXXXXXXXXXXXXXX",
"XXXXXXXXXXXXXXXXXXXXXXXXXXXXXXXXXXXXXXXXXXXXXXXXXXXXXXXXXXXXXXXX",
"XXXXXXXXXXXXXXXXXXXXXXXXXXXXXXXXXXXXXXXXXXXXXXXXXXXXXXXXXXXXXXXX",
"XXXXXXXXXXXXXXXXXXXXXXXXXXXXXXXXXXXXXXXXXXXXXXXXXXXXXXXXXXXXXXXX",
"XXXXXXXXXXXXXXXXXXXXXXXXXXXXXXXXXXXXXXXXXXXXXXXXXXXXXXXXXXXXXXXX",
"XXXXXXXXXXXXXXXXXXXXXXXXXXXXXXXXXXXXXXXXXXXXXXXXXXXXXXXXXXXXXXXX",
"XXXXXXXXXXXXXXXXXXXXXXXXXXXXXXXXXXXXXXXXXXXXXXXXXXXXXXXXXXXXXXXX",
"XXXXXXXXXXXXXXXXXXXXXXXXXXXXXXXXXXXXXXXXXXXXXXXXXXXXXXXXXXXXXXXX",
"XXXXXXXXXXXXXXXXXXXXXXXXXXXXXXXXXXXXXXXXXXXXXXXXXXXXXXXXXXXXXXXX",
"XXXXXXXXXXXXXXXXXXXXXXXXXXXXXXXXXXXXXXXXXXXXXXXXXXXXXXXXXXXXXXXX",
"XXXXXXXXXXXXXXXXXXXXXXXXXXXXXXXXXXXXXXXXXXXXXXXXXXXX....XXXXXXXX",
"XXXXXXXXXXXXXXXXXXXXXXXXXXXXXXXXXXXXXXXXXXXXXXXXXXXX....XXXXXXXX",
"XXXXXXXXXXXXXXXXXXXXXXXXXXXXXXXXXXXXXXXXXXXXXXXXXXXX....XXXXXXXX",
"XXXXXXXXXXXXXXXXXXXXXXXXXXXXXXXXXXXXXXXXXXXXXXXXXXXX....XXXXXXXX",
"XXXX........XXXXXXXXXXXXXXXXXXXXXXXXXXXXXXXX....................",
"XXXX........XXXXXXXXXXXXXXXXXXXXXXXXXXXXXXXX....................",
"XXXX........XXXXXXXXXXXXXXXXXXXXXXXXXXXXXXXX....................",
"XXXX........XXXXXXXXXXXXXXXXXXXXXXXXXXXXXXXX....................",
"................XXXXXXXXXXXXXXXXXXXXXXXXXXXX............    ....",
"................XXXXXXXXXXXXXXXXXXXXXXXXXXXX............    ....",
"................XXXXXXXXXXXXXXXXXXXXXXXXXXXX............    ....",
"................XXXXXXXXXXXXXXXXXXXXXXXXXXXX............    ....",
"        ........XXXXXXXXXXXXXXXXXXXXXXXX........                ",
"        ........XXXXXXXXXXXXXXXXXXXXXXXX........                ",
"        ........XXXXXXXXXXXXXXXXXXXXXXXX........                ",
"        ........XXXXXXXXXXXXXXXXXXXXXXXX........                ",
"            ............XXXXXXXXXXXX........    ....    oooo    ",
"            ............XXXXXXXXXXXX........    ....    oooo    ",
"            ............XXXXXXXXXXXX........    ....    oooo    ",
"            ............XXXXXXXXXXXX........    ....    oooo    ",
"oooo            ........XXXXXXXXXXXXXXXX....            oooooooo",
"oooo            ........XXXXXXXXXXXXXXXX....            oooooooo",
"oooo            ........XXXXXXXXXXXXXXXX....            oooooooo",
"oooo            ........XXXXXXXXXXXXXXXX....            oooooooo",
"oooooooo        ....XXXXXXXXXXXXXXXXXXXX........    oooooooooooo",
"oooooooo        ....XXXXXXXXXXXXXXXXXXXX........    oooooooooooo",
"oooooooo        ....XXXXXXXXXXXXXXXXXXXX........    oooooooooooo",
"oooooooo        ....XXXXXXXXXXXXXXXXXXXX........    oooooooooooo"
};
