/* XPM */
static const char *explosion_hand_down_2_xpm[] = {
/* columns rows colors chars-per-pixel */
"64 64 43 1 ",
"  c #B53120",
". c #B53121",
"X c #B73323",
"o c #B73423",
"O c #B83627",
"+ c #C34537",
"@ c #C6483A",
"# c #C6493A",
"$ c #C84B3C",
"% c #C84B3D",
"& c #D25849",
"* c #D25D50",
"= c #E96D5D",
"- c #EA6F5F",
"; c #F27665",
": c #F37766",
"> c #F37767",
", c #F37869",
"< c #F57868",
"1 c #FD7F6E",
"2 c #FE806F",
"3 c #FE8070",
"4 c #FE8170",
"5 c #FF8170",
"6 c #FE8272",
"7 c #FF8372",
"8 c #FF8475",
"9 c #FF8575",
"0 c #F5897C",
"q c #FF9082",
"w c #FE9385",
"e c #FF9386",
"r c #FF9488",
"t c #FFA095",
"y c #FDB5AD",
"u c #FFB6AD",
"i c #FFBFB7",
"p c #FFC0B9",
"a c #FFC3BB",
"s c #FFCAC3",
"d c #FFCBC4",
"f c #FFCCC5",
"g c None",
/* pixels */
"gggggggggggg          o#:47epdffffdpe755552:#o      gggggggggggg",
"gggggggggggg          o#:47epdffffdpe755552:#o      gggggggggggg",
"gggggggggggg       .XoO$>47epdffffdpe755552:#o      gggggggggggg",
"gggggggggggg      .O+#$&<47epdffffdpe755552:#o      gggggggggggg",
"gggggggggggggggg  X+=;><157epdffffdpe755552:#o  gggggggggggggggg",
"gggggggggggggggg  o#;123557epdffffdpe755552:#o  gggggggggggggggg",
"gggggggggggggggg  o#:255778rpdffffdpe755552:#o  gggggggggggggggg",
"gggggggggggggggg  o#:259qertadffffdpe755552:#o  gggggggggggggggg",
"gggggggggggggggg  o#:47quipasfffffdpe755552:#o      gggggggggggg",
"gggggggggggggggg  o#:47eisddffffffdpe755552:#o      gggggggggggg",
"gggggggggggggggg  o#:47eisddffffffdpe755321;#o      gggggggggggg",
"gggggggggggggggg  o#:47quipasfffffdpe751<>;=+X      gggggggggggg",
"gggggggggggggggg  o#:259qertadffffdpe74<&$#+O.      gggggggggggg",
"gggggggggggggggg  o#:255778rpdffffdpe74>$OoX.       gggggggggggg",
"gggggggggggggggg  o#:255557epdffffdpe74>$OoX.       gggggggggggg",
"gggggggggggggggg  o#:255557epdffffdpe74<&$#+O.      gggggggggggg",
"gggggggggggggggg  o#:255557epdffffdpe751<>;=+X  gggggggggggggggg",
"gggggggggggggggg  o#:255557epdffffdpe755321;#o  gggggggggggggggg",
"gggggggggggggggg  o#:255557epdffffdpr877552:#o  gggggggggggggggg",
"gggggggggggggggg  o#:255557epdffffdatreq952:#o  gggggggggggggggg",
"gggggggggggg      o#:255557epdfffffsapiuq74:#o      gggggggggggg",
"gggggggggggg      o#:255557epdffffffddsie74:#o      gggggggggggg",
"gggggggggggg      o#:255778rpdffffffffdpe74:#o      gggggggggggg",
"gggggggggggg      o#:259qertadffffffffdpe74:#o      gggggggggggg",
"gggggggggggg      o#:47quipasfffffffffdpe74:#o  gggggggggggggggg",
"gggggggggggg      o#:27eisddffffffffffdpe72:#o  gggggggggggggggg",
"gggggggggggg      o#;16wisddffffffffddsiw61;#o  gggggggggggggggg",
"gggggggggggg      X+=;,0yipasffffffsapiy0,;=+X  gggggggggggggggg",
"gggggggggggggggg  .O+#%*0wrtadffffdatrw0*%#+O.      gggggggggggg",
"gggggggggggggggg   .XoO%,68rpdffffdpr86,%OoX.       gggggggggggg",
"gggggggggggggggg      o#;16wisddddsiw61;#o          gggggggggggg",
"gggggggggggggggg      X+=;,0yippppiy0,;=+X          gggggggggggg",
"gggggggggggg          .O+#%*0weeeew0*%#+O.  gggggggggggggggggggg",
"gggggggggggg           .XoO%,677776,%OoX.   gggggggggggggggggggg",
"gggggggggggg              o#;124421;#o      gggggggggggggggggggg",
"gggggggggggg              X+=;::::;-@o      gggggggggggggggggggg",
"gggggggggggg        gggg  .O+######@gggg        gggggggggggggggg",
"gggggggggggg        gggg   .Xooooooogggg        gggggggggggggggg",
"gggggggggggg        gggg            gggg        gggggggggggggggg",
"gggggggggggg        gggg            gggg        gggggggggggggggg",
"gggggggggggggggggggggggg    gggggggggggggggg    gggggggggggggggg",
"gggggggggggggggggggggggg    gggggggggggggggg    gggggggggggggggg",
"gggggggggggggggggggggggg    gggggggggggggggg    gggggggggggggggg",
"gggggggggggggggggggggggg    gggggggggggggggg    gggggggggggggggg",
"gggggggggggggggggggggggggggggggggggggggggggggggggggggggggggggggg",
"gggggggggggggggggggggggggggggggggggggggggggggggggggggggggggggggg",
"gggggggggggggggggggggggggggggggggggggggggggggggggggggggggggggggg",
"gggggggggggggggggggggggggggggggggggggggggggggggggggggggggggggggg",
"gggggggggggggggggggggggggggggggggggggggggggggggggggggggggggggggg",
"gggggggggggggggggggggggggggggggggggggggggggggggggggggggggggggggg",
"gggggggggggggggggggggggggggggggggggggggggggggggggggggggggggggggg",
"gggggggggggggggggggggggggggggggggggggggggggggggggggggggggggggggg",
"gggggggggggggggggggggggggggggggggggggggggggggggggggggggggggggggg",
"gggggggggggggggggggggggggggggggggggggggggggggggggggggggggggggggg",
"gggggggggggggggggggggggggggggggggggggggggggggggggggggggggggggggg",
"gggggggggggggggggggggggggggggggggggggggggggggggggggggggggggggggg",
"gggggggggggggggggggggggggggggggggggggggggggggggggggggggggggggggg",
"gggggggggggggggggggggggggggggggggggggggggggggggggggggggggggggggg",
"gggggggggggggggggggggggggggggggggggggggggggggggggggggggggggggggg",
"gggggggggggggggggggggggggggggggggggggggggggggggggggggggggggggggg",
"gggggggggggggggggggggggggggggggggggggggggggggggggggggggggggggggg",
"gggggggggggggggggggggggggggggggggggggggggggggggggggggggggggggggg",
"gggggggggggggggggggggggggggggggggggggggggggggggggggggggggggggggg",
"gggggggggggggggggggggggggggggggggggggggggggggggggggggggggggggggg"
};
