/* XPM */
static const char *explosion_hand_left_4_xpm[] = {
/* columns rows colors chars-per-pixel */
"64 64 5 1 ",
"  c #B53120",
". c #388700",
"X c #FF8170",
"o c #FFCCC5",
"O c None",
/* pixels */
"        OOOO    OOOOOOOO        OOOO    OOOOOOOO    OOOO    OOOO",
"        OOOO    OOOOOOOO        OOOO    OOOOOOOO    OOOO    OOOO",
"        OOOO    OOOOOOOO        OOOO    OOOOOOOO    OOOO    OOOO",
"        OOOO    OOOOOOOO        OOOO    OOOOOOOO    OOOO    OOOO",
"                        OOOO            XXXX    XXXX            ",
"                        OOOO            XXXX    XXXX            ",
"                        OOOO            XXXX    XXXX            ",
"                        OOOO            XXXX    XXXX            ",
"OOOOOOOO        XXXX            XXXXXXXXXXXXXXXX    XXXXXXXXXXXX",
"OOOOOOOO        XXXX            XXXXXXXXXXXXXXXX    XXXXXXXXXXXX",
"OOOOOOOO        XXXX            XXXXXXXXXXXXXXXX    XXXXXXXXXXXX",
"OOOOOOOO        XXXX            XXXXXXXXXXXXXXXX    XXXXXXXXXXXX",
"OOOO    OOOO    XXXXXXXXXXXXXXXXXXXXXXXXooooXXXXXXXXooooXXXXXXXX",
"OOOO    OOOO    XXXXXXXXXXXXXXXXXXXXXXXXooooXXXXXXXXooooXXXXXXXX",
"OOOO    OOOO    XXXXXXXXXXXXXXXXXXXXXXXXooooXXXXXXXXooooXXXXXXXX",
"OOOO    OOOO    XXXXXXXXXXXXXXXXXXXXXXXXooooXXXXXXXXooooXXXXXXXX",
"OOOOOOOOOOOO    XXXXXXXXXXXXoooooooooooooooooooooooooooooooooooo",
"OOOOOOOOOOOO    XXXXXXXXXXXXoooooooooooooooooooooooooooooooooooo",
"OOOOOOOOOOOO    XXXXXXXXXXXXoooooooooooooooooooooooooooooooooooo",
"OOOOOOOOOOOO    XXXXXXXXXXXXoooooooooooooooooooooooooooooooooooo",
"OOOOOOOO        XXXXXXXXoooooooooooooooooooooooooooooooooooooooo",
"OOOOOOOO        XXXXXXXXoooooooooooooooooooooooooooooooooooooooo",
"OOOOOOOO        XXXXXXXXoooooooooooooooooooooooooooooooooooooooo",
"OOOOOOOO        XXXXXXXXoooooooooooooooooooooooooooooooooooooooo",
"OOOO        XXXXXXXXoooooooooooooooooooooooooooooooooooooooooooo",
"OOOO        XXXXXXXXoooooooooooooooooooooooooooooooooooooooooooo",
"OOOO        XXXXXXXXoooooooooooooooooooooooooooooooooooooooooooo",
"OOOO        XXXXXXXXoooooooooooooooooooooooooooooooooooooooooooo",
"OOOOOOOO        XXXXoooooooooooooooooooooooooooooooooooooooooooo",
"OOOOOOOO        XXXXoooooooooooooooooooooooooooooooooooooooooooo",
"OOOOOOOO        XXXXoooooooooooooooooooooooooooooooooooooooooooo",
"OOOOOOOO        XXXXoooooooooooooooooooooooooooooooooooooooooooo",
"OOOO        XXXXXXXXoooooooooooooooooooooooooooooooooooooooooooo",
"OOOO        XXXXXXXXoooooooooooooooooooooooooooooooooooooooooooo",
"OOOO        XXXXXXXXoooooooooooooooooooooooooooooooooooooooooooo",
"OOOO        XXXXXXXXoooooooooooooooooooooooooooooooooooooooooooo",
"OOOOOOOO    XXXXXXXXoooooooooooooooooooooooooooooooooooooooooooo",
"OOOOOOOO    XXXXXXXXoooooooooooooooooooooooooooooooooooooooooooo",
"OOOOOOOO    XXXXXXXXoooooooooooooooooooooooooooooooooooooooooooo",
"OOOOOOOO    XXXXXXXXoooooooooooooooooooooooooooooooooooooooooooo",
"        OOOOXXXXXXXXXXXXoooooooooooooooooooooooooooooooooooooooo",
"        OOOOXXXXXXXXXXXXoooooooooooooooooooooooooooooooooooooooo",
"        OOOOXXXXXXXXXXXXoooooooooooooooooooooooooooooooooooooooo",
"        OOOOXXXXXXXXXXXXoooooooooooooooooooooooooooooooooooooooo",
"OOOO                XXXXXXXXooooooooXXXXooooooooooooooooXXXXXXXX",
"OOOO                XXXXXXXXooooooooXXXXooooooooooooooooXXXXXXXX",
"OOOO                XXXXXXXXooooooooXXXXooooooooooooooooXXXXXXXX",
"OOOO                XXXXXXXXooooooooXXXXooooooooooooooooXXXXXXXX",
"OOOOOOOO    XXXXXXXXXXXXXXXXXXXXXXXXXXXXXXXXXXXXXXXXXXXXXXXXXXXX",
"OOOOOOOO    XXXXXXXXXXXXXXXXXXXXXXXXXXXXXXXXXXXXXXXXXXXXXXXXXXXX",
"OOOOOOOO    XXXXXXXXXXXXXXXXXXXXXXXXXXXXXXXXXXXXXXXXXXXXXXXXXXXX",
"OOOOOOOO    XXXXXXXXXXXXXXXXXXXXXXXXXXXXXXXXXXXXXXXXXXXXXXXXXXXX",
"OOOO    OOOO                XXXXXXXXXXXXXXXX        XXXX    XXXX",
"OOOO    OOOO                XXXXXXXXXXXXXXXX        XXXX    XXXX",
"OOOO    OOOO                XXXXXXXXXXXXXXXX        XXXX    XXXX",
"OOOO    OOOO                XXXXXXXXXXXXXXXX        XXXX    XXXX",
"OOOOOOOO            OOOO                                        ",
"OOOOOOOO            OOOO                                        ",
"OOOOOOOO            OOOO                                        ",
"OOOOOOOO            OOOO                                        ",
"            OOOOOOOO    OOOO    OOOOOOOO    OOOOOOOO    OOOOOOOO",
"            OOOOOOOO    OOOO    OOOOOOOO    OOOOOOOO    OOOOOOOO",
"            OOOOOOOO    OOOO    OOOOOOOO    OOOOOOOO    OOOOOOOO",
"            OOOOOOOO    OOOO    OOOOOOOO    OOOOOOOO    .OOOOOOO"
};
