/* XPM */
static const char *explosion_hand_up_1_xpm[] = {
/* columns rows colors chars-per-pixel */
"64 64 10 1 ",
"  c #B53120",
". c #B63221",
"X c #BC3C2D",
"o c #BD3D2D",
"O c #C34637",
"+ c #F57868",
"@ c #F57968",
"# c #FA7D6C",
"$ c #FF8170",
"% c None",
/* pixels */
"%%%%%%%%%%%%%%%%%%%%%%%%%%%%%%%%%%%%%%%%%%%%%%%%%%%%%%%%%%%%%%%%",
"%%%%%%%%%%%%%%%%%%%%%%%%%%%%%%%%%%%%%%%%%%%%%%%%%%%%%%%%%%%%%%%%",
"%%%%%%%%%%%%%%%%%%%%%%%%%%%%%%%%%%%%%%%%%%%%%%%%%%%%%%%%%%%%%%%%",
"%%%%%%%%%%%%%%%%%%%%%%%%%%%%%%%%%%%%%%%%%%%%%%%%%%%%%%%%%%%%%%%%",
"%%%%%%%%%%%%%%%%%%%%%%%%%%%%%%%%%%%%%%%%%%%%%%%%%%%%%%%%%%%%%%%%",
"%%%%%%%%%%%%%%%%%%%%%%%%%%%%%%%%%%%%%%%%%%%%%%%%%%%%%%%%%%%%%%%%",
"%%%%%%%%%%%%%%%%%%%%%%%%%%%%%%%%%%%%%%%%%%%%%%%%%%%%%%%%%%%%%%%%",
"%%%%%%%%%%%%%%%%%%%%%%%%%%%%%%%%%%%%%%%%%%%%%%%%%%%%%%%%%%%%%%%%",
"%%%%%%%%%%%%%%%%%%%%%%%%%%%%%%%%%%%%%%%%%%%%%%%%%%%%%%%%%%%%%%%%",
"%%%%%%%%%%%%%%%%%%%%%%%%%%%%%%%%%%%%%%%%%%%%%%%%%%%%%%%%%%%%%%%%",
"%%%%%%%%%%%%%%%%%%%%%%%%%%%%%%%%%%%%%%%%%%%%%%%%%%%%%%%%%%%%%%%%",
"%%%%%%%%%%%%%%%%%%%%%%%%%%%%%%%%%%%%%%%%%%%%%%%%%%%%%%%%%%%%%%%%",
"%%%%%%%%%%%%%%%%%%%%%%%%%%%%%%%%%%%%%%%%%%%%%%%%%%%%%%%%%%%%%%%%",
"%%%%%%%%%%%%%%%%%%%%%%%%%%%%%%%%%%%%%%%%%%%%%%%%%%%%%%%%%%%%%%%%",
"%%%%%%%%%%%%%%%%%%%%%%%%%%%%%%%%%%%%%%%%%%%%%%%%%%%%%%%%%%%%%%%%",
"%%%%%%%%%%%%%%%%%%%%%%%%%%%%%%%%%%%%%%%%%%%%%%%%%%%%%%%%%%%%%%%%",
"%%%%%%%%%%%%%%%%%%%%    %%%%%%%%    %%%%%%%%    %%%%%%%%%%%%%%%%",
"%%%%%%%%%%%%%%%%%%%%    %%%%%%%%    %%%%%%%%    %%%%%%%%%%%%%%%%",
"%%%%%%%%%%%%%%%%%%%%    %%%%%%%%    %%%%%%%%    %%%%%%%%%%%%%%%%",
"%%%%%%%%%%%%%%%%%%%%    %%%%%%%%    %%%%%%%%    %%%%%%%%%%%%%%%%",
"%%%%%%%%%%%%%%%%%%%%                        %%%%%%%%%%%%%%%%%%%%",
"%%%%%%%%%%%%%%%%%%%%                        %%%%%%%%%%%%%%%%%%%%",
"%%%%%%%%%%%%%%%%%%%%                        %%%%%%%%%%%%%%%%%%%%",
"%%%%%%%%%%%%%%%%%%%%       .XooooooX.       %%%%%%%%%%%%%%%%%%%%",
"%%%%%%%%%%%%%%%%           X+######+X           %%%%%%%%%%%%%%%%",
"%%%%%%%%%%%%%%%%           o#$$$$$$#o           %%%%%%%%%%%%%%%%",
"%%%%%%%%%%%%%%%%           o#$$$$$$#o           %%%%%%%%%%%%%%%%",
"%%%%%%%%%%%%%%%%       .XooO#$$$$$$#OooX.       %%%%%%%%%%%%%%%%",
"%%%%%%%%%%%%%%%%%%%%   X+###$$$$$$$$###+X   %%%%%%%%%%%%%%%%%%%%",
"%%%%%%%%%%%%%%%%%%%%   o#$$$$$$$$$$$$$$#o   %%%%%%%%%%%%%%%%%%%%",
"%%%%%%%%%%%%%%%%%%%%   o#$$$$$$$$$$$$$$#o   %%%%%%%%%%%%%%%%%%%%",
"%%%%%%%%%%%%%%%%%%%%   o#$$$$$$$$$$$###@o   %%%%%%%%%%%%%%%%%%%%",
"%%%%%%%%%%%%%%%%%%%%   o#$$$$$$$$$$#Oooo%%%%    %%%%%%%%%%%%%%%%",
"%%%%%%%%%%%%%%%%%%%%   o#$$$$$$$$$$#o   %%%%    %%%%%%%%%%%%%%%%",
"%%%%%%%%%%%%%%%%%%%%   o#$$$$$$$$$$#o   %%%%    %%%%%%%%%%%%%%%%",
"%%%%%%%%%%%%%%%%%%%%   o@###$$$$$$$#Oooo%%%%    %%%%%%%%%%%%%%%%",
"%%%%%%%%%%%%%%%%%%%%%%%%oooO#$$$$$$$###@o   %%%%%%%%%%%%%%%%%%%%",
"%%%%%%%%%%%%%%%%%%%%%%%%   o#$$$$$$$$$$#o   %%%%%%%%%%%%%%%%%%%%",
"%%%%%%%%%%%%%%%%%%%%%%%%   o#$$$$$$$$$$#o   %%%%%%%%%%%%%%%%%%%%",
"%%%%%%%%%%%%%%%%%%%%%%%%oooO#$$$$$$$###+X   %%%%%%%%%%%%%%%%%%%%",
"%%%%%%%%%%%%%%%%%%%%   o@###$$$$$$$#OooX.   %%%%%%%%%%%%%%%%%%%%",
"%%%%%%%%%%%%%%%%%%%%   o#$$$$$$$$$$#o       %%%%%%%%%%%%%%%%%%%%",
"%%%%%%%%%%%%%%%%%%%%   o#$$$$$$$$$$#o       %%%%%%%%%%%%%%%%%%%%",
"%%%%%%%%%%%%%%%%%%%%   o#$$$$$$$$$$#o       %%%%%%%%%%%%%%%%%%%%",
"%%%%%%%%%%%%%%%%%%%%   o#$$$$$$$$$$#o   %%%%%%%%%%%%%%%%%%%%%%%%",
"%%%%%%%%%%%%%%%%%%%%   o#$$$$$$$$$$#o   %%%%%%%%%%%%%%%%%%%%%%%%",
"%%%%%%%%%%%%%%%%%%%%   o#$$$$$$$$$$#o   %%%%%%%%%%%%%%%%%%%%%%%%",
"%%%%%%%%%%%%%%%%%%%%   o@###$$$$$$$#Oooo%%%%%%%%%%%%%%%%%%%%%%%%",
"%%%%%%%%%%%%%%%%    %%%%oooO#$$$$$$$###@o       %%%%%%%%%%%%%%%%",
"%%%%%%%%%%%%%%%%    %%%%   o#$$$$$$$$$$#o       %%%%%%%%%%%%%%%%",
"%%%%%%%%%%%%%%%%    %%%%   o#$$$$$$$$$$#o       %%%%%%%%%%%%%%%%",
"%%%%%%%%%%%%%%%%    %%%%oooO#$$$$$$$$$$#o       %%%%%%%%%%%%%%%%",
"%%%%%%%%%%%%%%%%%%%%   o@###$$$$$$$$$$$#o   %%%%%%%%%%%%%%%%%%%%",
"%%%%%%%%%%%%%%%%%%%%   o#$$$$$$$$$$$$$$#o   %%%%%%%%%%%%%%%%%%%%",
"%%%%%%%%%%%%%%%%%%%%   o#$$$$$$$$$$$$$$#o   %%%%%%%%%%%%%%%%%%%%",
"%%%%%%%%%%%%%%%%%%%%   X+###$$$$$$$$###+X   %%%%%%%%%%%%%%%%%%%%",
"%%%%%%%%%%%%%%%%%%%%   .XooO#$$$$$$#OooX.   %%%%%%%%%%%%%%%%%%%%",
"%%%%%%%%%%%%%%%%%%%%       o#$$$$$$#o       %%%%%%%%%%%%%%%%%%%%",
"%%%%%%%%%%%%%%%%%%%%       o#$$$$$$#o       %%%%%%%%%%%%%%%%%%%%",
"%%%%%%%%%%%%%%%%%%%%   .XooO#$$$$$$#OooX.   %%%%%%%%%%%%%%%%%%%%",
"%%%%%%%%%%%%%%%%%%%%   X+###$$$$$$$$###+X   %%%%%%%%%%%%%%%%%%%%",
"%%%%%%%%%%%%%%%%%%%%   o#$$$$$$$$$$$$$$#o   %%%%%%%%%%%%%%%%%%%%",
"%%%%%%%%%%%%%%%%%%%%   o#$$$$$$$$$$$$$$#o   %%%%%%%%%%%%%%%%%%%%",
"%%%%%%%%%%%%%%%%%%%%   o#$$$$$$$$$$$$$$#o   %%%%%%%%%%%%%%%%%%%%"
};
