/* XPM */
static const char *explosion_hand_left_3_xpm[] = {
/* columns rows colors chars-per-pixel */
"64 64 4 1 ",
"  c #B53120",
". c #FF8170",
"X c #FFCCC5",
"o c None",
/* pixels */
"    oooo    oooooooo    oooooooooooooooooooooooooooooooooooooooo",
"    oooo    oooooooo    oooooooooooooooooooooooooooooooooooooooo",
"    oooo    oooooooo    oooooooooooooooooooooooooooooooooooooooo",
"    oooo    oooooooo    oooooooooooooooooooooooooooooooooooooooo",
"                oooooooo    oooooooo    oooooooo        oooooooo",
"                oooooooo    oooooooo    oooooooo        oooooooo",
"                oooooooo    oooooooo    oooooooo        oooooooo",
"                oooooooo    oooooooo    oooooooo        oooooooo",
"oooo                            oooo    oooo            oooo    ",
"oooo                            oooo    oooo            oooo    ",
"oooo                            oooo    oooo            oooo    ",
"oooo                            oooo    oooo            oooo    ",
"oooooooo                                    ....                ",
"oooooooo                                    ....                ",
"oooooooo                                    ....                ",
"oooooooo                                    ....                ",
"oooooooo                ....        ....................    ....",
"oooooooo                ....        ....................    ....",
"oooooooo                ....        ....................    ....",
"oooooooo                ....        ....................    ....",
"oooooooooooooooo        ................XXXXXXXX....XXXX....XXXX",
"oooooooooooooooo        ................XXXXXXXX....XXXX....XXXX",
"oooooooooooooooo        ................XXXXXXXX....XXXX....XXXX",
"oooooooooooooooo        ................XXXXXXXX....XXXX....XXXX",
"oooooooo            ........XXXX....XXXXXXXXXXXXXXXX....XXXXXXXX",
"oooooooo            ........XXXX....XXXXXXXXXXXXXXXX....XXXXXXXX",
"oooooooo            ........XXXX....XXXXXXXXXXXXXXXX....XXXXXXXX",
"oooooooo            ........XXXX....XXXXXXXXXXXXXXXX....XXXXXXXX",
"oooooooooooo            ....XXXXXXXXXXXXXXXXXXXXXXXXXXXXXXXXXXXX",
"oooooooooooo            ....XXXXXXXXXXXXXXXXXXXXXXXXXXXXXXXXXXXX",
"oooooooooooo            ....XXXXXXXXXXXXXXXXXXXXXXXXXXXXXXXXXXXX",
"oooooooooooo            ....XXXXXXXXXXXXXXXXXXXXXXXXXXXXXXXXXXXX",
"oooo    oooooooo        ....XXXXXXXXXXXXXXXXXXXXXXXXXXXXXXXXXXXX",
"oooo    oooooooo        ....XXXXXXXXXXXXXXXXXXXXXXXXXXXXXXXXXXXX",
"oooo    oooooooo        ....XXXXXXXXXXXXXXXXXXXXXXXXXXXXXXXXXXXX",
"oooo    oooooooo        ....XXXXXXXXXXXXXXXXXXXXXXXXXXXXXXXXXXXX",
"oooooooo            ........XXXX....XXXXXXXX....XXXX....XXXXXXXX",
"oooooooo            ........XXXX....XXXXXXXX....XXXX....XXXXXXXX",
"oooooooo            ........XXXX....XXXXXXXX....XXXX....XXXXXXXX",
"oooooooo            ........XXXX....XXXXXXXX....XXXX....XXXXXXXX",
"oooooooooooo            ........    ............XXXX............",
"oooooooooooo            ........    ............XXXX............",
"oooooooooooo            ........    ............XXXX............",
"oooooooooooo            ........    ............XXXX............",
"oooo    oooo                                ....    ....    ....",
"oooo    oooo                                ....    ....    ....",
"oooo    oooo                                ....    ....    ....",
"oooo    oooo                                ....    ....    ....",
"oooooooo                                                        ",
"oooooooo                                                        ",
"oooooooo                                                        ",
"oooooooo                                                        ",
"oooooooooooo                    oooo    oooooooo        oooo    ",
"oooooooooooo                    oooo    oooooooo        oooo    ",
"oooooooooooo                    oooo    oooooooo        oooo    ",
"oooooooooooo                    oooo    oooooooo        oooo    ",
"oooo            oooooooo        oooooooo    oooooooooooooooooooo",
"oooo            oooooooo        oooooooo    oooooooooooooooooooo",
"oooo            oooooooo        oooooooo    oooooooooooooooooooo",
"oooo            oooooooo        oooooooo    oooooooooooooooooooo",
"        oooooooooooooooooooooooooooooooooooooooooooooooooooooooo",
"        oooooooooooooooooooooooooooooooooooooooooooooooooooooooo",
"        oooooooooooooooooooooooooooooooooooooooooooooooooooooooo",
"        oooooooooooooooooooooooooooooooooooooooooooooooooooooooo"
};
