/* XPM */
static const char *explosion_hand_right_2_xpm[] = {
/* columns rows colors chars-per-pixel */
"64 64 34 1 ",
"  c #B53120",
". c #B63221",
"X c #B63323",
"o c #B73424",
"O c #C04233",
"+ c #C24435",
"@ c #C34536",
"# c #CC5142",
"$ c #CC5447",
"% c #EE7262",
"& c #EF7363",
"* c #F67968",
"= c #F67A69",
"- c #F67A6A",
"; c #F77A6A",
": c #FE806F",
"> c #FF8170",
", c #FF8171",
"< c #FF8271",
"1 c #FF8272",
"2 c #FF8373",
"3 c #F7877A",
"4 c #FF8D7F",
"5 c #FF8F81",
"6 c #FF8F82",
"7 c #FF9A8E",
"8 c #FEBBB3",
"9 c #FFBBB3",
"0 c #FFC3BB",
"q c #FFC3BC",
"w c #FFC5BD",
"e c #FFCBC4",
"r c #FFCCC5",
"t c None",
/* pixels */
"tttttttttttttttttttttttttttttttttttttttttttttttttttttttttttttttt",
"tttttttttttttttttttttttttttttttttttttttttttttttttttttttttttttttt",
"tttttttttttttttttttttttttttttttttttttttttttttttttttttttttttttttt",
"tttttttttttttttttttttttttttttttttttttttttttttttttttttttttttttttt",
"tttttttttttttttttttttttttttttttttttttttttttttttttttttttttttttttt",
"tttttttttttttttttttttttttttttttttttttttttttttttttttttttttttttttt",
"tttttttttttttttttttttttttttttttttttttttttttttttttttttttttttttttt",
"tttttttttttttttttttttttttttttttttttttttttttttttttttttttttttttttt",
"tttttttttttttttttttttttttttttttttttttttttttttttttttttttttttttttt",
"tttttttttttttttttttttttttttttttttttttttttttttttttttttttttttttttt",
"tttttttttttttttttttttttttttttttttttttttttttttttttttttttttttttttt",
"tttttttttttttttttttttttttttttttttttttttttttttttttttttttttttttttt",
"    tttt        tttt    tttt    tttttttttttttttttttttttttttttttt",
"    tttt        tttt    tttt    tttttttttttttttttttttttttttttttt",
"    tttt        tttt    tttt    tttttttttttttttttttttttttttttttt",
"    tttt        tttt    tttt    tttttttttttttttttttttttttttttttt",
"                                tttt        tttttttttttttttttttt",
"                                tttt        tttttttttttttttttttt",
"............    ............    tttt        tttttttttttttttttttt",
"+++++++++++Oo  oO++++++++++Oo   tttt        tttttttttttttttttttt",
"==========*%O..O%*========*%O.          tttttttttttttttttttttttt",
">>>>>>>>>>:*+..+*:>>>>>>>>:*+.          tttttttttttttttttttttttt",
">>>>>>>>>>>=@XX@=>>><<<<<<,-@X..        tttttttttttttttttttttttt",
">>>>>>>>>>>;#@@#;>>245555553$@+Oo       tttttttttttttttttttttttt",
">>>>>>>>>>>:;==;:><490qqqq083-*%O.  tttttttttttttttttttttttttttt",
">>>>>>>>>>>>>>>>>><50errrre05,:*+.  tttttttttttttttttttttttttttt",
"<<<<<<<<<<<<<<<<<<16qrrrrrrq61,-@X..tttttttttttttttttttttttttttt",
"55555555555555555567wrrrrrrw7653$@++tttttttttttttttttttttttttttt",
"qqqqqqqqqqqqqqqqqqqwerrrrrrewq083-*&+.  tttttttttttttttttttttttt",
"rrrrrrrrrrrrrrrrrrrrrrrrrrrrrre05,:*+.  tttttttttttttttttttttttt",
"rrrrrrrrrrrrrrrrrrrrrrrrrrrrrrrq5<>=+.  tttttttttttttttttttttttt",
"rrrrrrrrrrrrrrrrrrrrrrrrrrrrrrrq5<>=+.  tttttttttttttttttttttttt",
"rrrrrrrrrrrrrrrrrrrrrrrrrrrrrrrq5<>=+.  tttttttttttttttttttttttt",
"rrrrrrrrrrrrrrrrrrrrrrrrrrrrrrrq5<>=+.  tttttttttttttttttttttttt",
"rrrrrrrrrrrrrrrrrrrrrrrrrrrrrre05,:*+.  tttttttttttttttttttttttt",
"qqqqqqqwerrewqqqqqqqqqqwerrewq083-*%O.  tttttttttttttttttttttttt",
"55555567wrrw765555555567wrrw7653$@+Oo       tttttttttttttttttttt",
"<<<<<<16qrrq61<<<<<<<<16qrrq61,-@X..        tttttttttttttttttttt",
">>>>>><50ee05<>>>>>>>><50ee05,:*+.          tttttttttttttttttttt",
"===;:><490094<>>>>>>>><490083-*%O.          tttttttttttttttttttt",
"++@#;>>245542>>>>>>>>>>24553$@+Oo   tttttttttttttttttttttttttttt",
"..X@=>>><<<<>>>>>>>>>>>><<,-@X..    tttttttttttttttttttttttttttt",
"  .+*:>>>>>>>>>>>>>>>>>>>>:*+.      tttttttttttttttttttttttttttt",
"  .O%*====================*%O.      tttttttttttttttttttttttttttt",
"   oO++++++++++++++++++++++Oo           tttttttttttttttttttttttt",
"    ........................            tttttttttttttttttttttttt",
"                                        tttttttttttttttttttttttt",
"                                        tttttttttttttttttttttttt",
"    tttttttttttttttt        tttt        tttttttttttttttttttttttt",
"    tttttttttttttttt        tttt        tttttttttttttttttttttttt",
"    tttttttttttttttt        tttt        tttttttttttttttttttttttt",
"    tttttttttttttttt        tttt        tttttttttttttttttttttttt",
"tttttttttttttttttttttttttttttttttttttttttttttttttttttttttttttttt",
"tttttttttttttttttttttttttttttttttttttttttttttttttttttttttttttttt",
"tttttttttttttttttttttttttttttttttttttttttttttttttttttttttttttttt",
"tttttttttttttttttttttttttttttttttttttttttttttttttttttttttttttttt",
"tttttttttttttttttttttttttttttttttttttttttttttttttttttttttttttttt",
"tttttttttttttttttttttttttttttttttttttttttttttttttttttttttttttttt",
"tttttttttttttttttttttttttttttttttttttttttttttttttttttttttttttttt",
"tttttttttttttttttttttttttttttttttttttttttttttttttttttttttttttttt",
"tttttttttttttttttttttttttttttttttttttttttttttttttttttttttttttttt",
"tttttttttttttttttttttttttttttttttttttttttttttttttttttttttttttttt",
"tttttttttttttttttttttttttttttttttttttttttttttttttttttttttttttttt",
"tttttttttttttttttttttttttttttttttttttttttttttttttttttttttttttttt"
};
