/* XPM */
static const char *explosion_hand_right_4_xpm[] = {
/* columns rows colors chars-per-pixel */
"64 64 47 1 ",
"  c #637B0A",
". c #B53120",
"X c #B53220",
"o c #B63221",
"O c #B63222",
"+ c #B63323",
"@ c #B33520",
"# c #B73424",
"$ c #B73524",
"% c #AC431D",
"& c #C04233",
"* c #C24435",
"= c #C24535",
"- c #C34536",
"; c #C44737",
": c #CB4F40",
"> c #CC5142",
", c #CC5447",
"< c #EE7262",
"1 c #EF7363",
"2 c #F07363",
"3 c #F47868",
"4 c #F67968",
"5 c #F67969",
"6 c #F67A69",
"7 c #F67A6A",
"8 c #F77A6A",
"9 c #FE806F",
"0 c #FE8170",
"q c #FF8170",
"w c #FF8171",
"e c #FF8271",
"r c #FF8272",
"t c #FF8373",
"y c #F7877A",
"u c #FF8D7F",
"i c #FF8F81",
"p c #FF8F82",
"a c #FF9A8E",
"s c #FEBBB3",
"d c #FFBBB3",
"f c #FFC3BB",
"g c #FFC3BC",
"h c #FFC5BD",
"j c #FFCBC4",
"k c #FFCCC5",
"l c None",
/* pixels */
"lllllll %X..llllllll....llllllll....llll....llllllll............",
"llllllll@...llllllll....llllllll....llll....llllllll............",
"llllllll....llllllll....llllllll....llll....llllllll............",
"llllllll....llllllll....llllllll....llll....llllllll............",
"........................................llll............llllllll",
"........................................llll............llllllll",
"oooo....oooo........oooooooooooooooo....llll............llllllll",
"***&#..#&**&#......#&**************&#...llll............llllllll",
"664<&oo&<44<&o....o&<46666666666664<&o..............llll....llll",
"qq94*oo*4994*o....o*49qqqqqqqqqqqq94*o..............llll....llll",
"qqq6-++-6qq6-+oooo+-6qqqqqqqqqqqqqq6-+oooooooooooooollll....llll",
"qqq8>-->8qq8>-****->8qqqqqqqqqqqqqq8>-**************llll....llll",
"qqq986689qq9866666689qqqqqqqqqqqqqq98666666666666641*o..llllllll",
"qqqqqqqqqqqqqqqqqqqqqqqqqqqqqqqqqqqqqqqqqqqqqqqqqq94*o..llllllll",
"qqqqqqqqeeeeeeeeeeeeeeeeqqqqeeeeeeeeqqqqqqqqqqqqqq94*o..llllllll",
"qqqqqqqtuiiiiiiiiiiiiiiutqqtuiiiiiiutqqqqqq98666664<&o..llllllll",
"qqqqqqeudfggggggggggggfdueeudfggggfdueqqqqq8>-*****&#.......llll",
"qqqqqqeifjkkkkkkkkkkkkjfieeifjkkkkjfieqqqqq6-+oooooo........llll",
"eeeeeerpgkkkkkkkkkkkkkkgprrpgkkkkkkgpreeqqq6-+oooooo........llll",
"iiiiiipahkkkkkkkkkkkkkkhappahkkkkkkhapiutqq8>-*****&$.......llll",
"ggggggghjkkkkkkkkkkkkkkjhgghjkkkkkkjhgfdueq986666653llll........",
"kkkkkkkkkkkkkkkkkkkkkkkkkkkkkkkkkkkkkkjfieqqqqqqqqq0llll........",
"kkkkkkkkkkkkkkkkkkkkkkkkkkkkkkkkkkkkkkkgpreeqqqqqqqqllll........",
"kkkkkkkkkkkkkkkkkkkkkkkkkkkkkkkkkkkkkkkhapiutqqqqqq9llll........",
"kkkkkkkkkkkkkkkkkkkkkkkkkkkkkkkkkkkkkkkjhgfdueqqqqq8;O..llllllll",
"kkkkkkkkkkkkkkkkkkkkkkkkkkkkkkkkkkkkkkkkkkjfieqqqqq6=o..llllllll",
"kkkkkkkkkkkkkkkkkkkkkkkkkkkkkkkkkkkkkkkkkkkgieqqqqq6*o..llllllll",
"kkkkkkkkkkkkkkkkkkkkkkkkkkkkkkkkkkkkkkkkkkkgieqqqqq6*o..llllllll",
"kkkkkkkkkkkkkkkkkkkkkkkkkkkkkkkkkkkkkkkkkkkgieqqqqq6*o......llll",
"kkkkkkkkkkkkkkkkkkkkkkkkkkkkkkkkkkkkkkkkkkkgieqqqqq6*o......llll",
"kkkkkkkkkkkkkkkkkkkkkkkkkkkkkkkkkkkkkkkkkkkgieqqqq94*o......llll",
"kkkkkkkkkkkkkkkkkkkkkkkkkkkkkkkkkkkkkkkkkkkgieq9864<&o......llll",
"kkkkkkkkkkkkkkkkkkkkkkkkkkkkkkkkkkkkkkkkkkkgieq8>-*&#...llllllll",
"kkkkkkkkkkkkkkkkkkkkkkkkkkkkkkkkkkkkkkkkkkkgieq6-+oo....llllllll",
"kkkkkkkkkkkkkkkkkkkkkkkkkkkkkkkkkkkkkkkkkkkgieq6-+oo....llllllll",
"kkkkkkkkkkkkkkkkkkkkkkkkkkkkkkkkkkkkkkkkkkkgieq8>-*&#...llllllll",
"kkkkkkkkkkkkkkkkkkkkkkkkkkkkkkkkkkkkkkkkkkkgieq9864<&o......llll",
"kkkkkkkkkkkkkkkkkkkkkkkkkkkkkkkkkkkkkkkkkkkgieqqqq94*o......llll",
"kkkkkkkkkkkkkkkkkkkkkkkkkkkkkkkkkkkkkkkkkkjfieqqqq94*o......llll",
"kkkkkkkkkkkkkkkkkkkkkkkkkkkkkkkkkkkkkkkjhgfdueq9864<&o......llll",
"kkkkkkkkkkkkkkkkkkkkkkkkkkkkkkkkkkkkkkkhapiutqq8>-*&#...llllllll",
"kkkkkkkkkkkkkkkkkkkkkkkkkkkkkkkkkkkkkkkgpreeqqq6-+oo....llllllll",
"kkkkkkkkkkkkkkkkkkkkkkkkkkkkkkkkkkkkkkjfieqqqqq6*o......llllllll",
"kkkkkkkkkkkkkkkkkkkkkkkkkkkkkkkkkkkjhgfdueqqqqq6*o......llllllll",
"kkkkkkkkkkkkkkkkkkkkkkkkkkkkkkkkkkkhapiutqqqqqq6*o..llllllllllll",
"kkkkkkkkkkkkkkkkkkkkkkkkkkkkkkkkkkkgpreeqqqqqqq6*o..llllllllllll",
"kkkkkkkkkkkkkkkkkkkkkkkkkkkkkkkkkkjfieqqqqqqqqq6*o..llllllllllll",
"ggggggghjkkjhgggggghjkkjhgggggggggfdueqqqqqqqqq6*o..llllllllllll",
"iiiiiipahkkhapiiiipahkkhapiiiiiiiiiutqqqqqqqqqq6*o..llll....llll",
"eeeeeerpgkkgpreeeerpgkkgpreeeeeeeeeeqqqqqqqqqqq6*o..llll....llll",
"qqqqqqeifjjfiwqqqqeifjjfieqqqqqqqqqqqqqqqqqqqqq6*o..llll....llll",
"qqqqqqeudffsy7689qeudffdueqqqqq98666666666689qq6*o..llll....llll",
"qqqqqqqtuiiy,-->8qqtuiiutqqqqqq8>-********->8qq6*o......llllllll",
"qqqqqqqqeew7-++-6qqqeeeeqqqqqqq6-+oooooooo+-6qq6*o......llllllll",
"qqqqqqqqqq95-++-59qqqqqqqqqqqq94*o........o*4994*o......llllllll",
"666666666652:--:25689qq98666664<&o........o&<44<&o......llllllll",
"**********-:2552:-->8qq8>-*****&#...llll...#&**&#...............",
"oooooooooo+-5995-++-6qq6-+oooooo....llll....oooo................",
"..........o*4994*oo*6qq5*o..........llll........................",
"..........o*1441*oo*6q03&o..........llll........................",
"llll....llll****llllllll$...llll........llllllll....llll........",
"llll....lllloooollllllll....llll........llllllll....llll........",
"llll....llll....llllllll....llll........llllllll....llll........",
"llll....llll....llllllll....llll........llllllll....llll........"
};
