/* XPM */
static const char *explosion_arm_h_3_xpm[] ={
/* columns rows colors chars-per-pixel */
"64 64 28 1 ",
"  c #B53120",
". c #B63221",
"X c #BC3C2D",
"o c #BD3D2D",
"O c #C34637",
"+ c #C34739",
"@ c #BD4F45",
"# c #C3554A",
"$ c #F57868",
"% c #F57968",
"& c #FA7D6C",
"* c #FA7E6D",
"= c #FF8170",
"- c #FF8271",
"; c #FA8576",
": c #FF8879",
"> c #FF8979",
", c #FF897A",
"< c #FF9082",
"1 c #FF9083",
"2 c #FAC0B9",
"3 c #FFC2BB",
"4 c #FFC3BB",
"5 c #FAC5BE",
"6 c #FFC7C0",
"7 c #FFC8C0",
"8 c #FFCCC5",
"9 c None",
/* pixels */
"9999999999999999999999999999999999999999999999999999999999999999",
"9999999999999999999999999999999999999999999999999999999999999999",
"9999999999999999999999999999999999999999999999999999999999999999",
"9999999999999999999999999999999999999999999999999999999999999999",
"99999999    99999999        999999999999    99999999        9999",
"99999999    99999999        999999999999    99999999        9999",
"99999999    99999999        999999999999    99999999        9999",
"99999999    99999999        999999999999    99999999        9999",
"99999999    9999            9999    9999    9999            9999",
"99999999    9999            9999    9999    9999            9999",
"99999999    9999            9999    9999    9999            9999",
"99999999    9999oooX.       9999    9999    9999oooX.       9999",
"               o%&&$X                          o%&&$X           ",
"               o&==&o                          o&==&o           ",
"               o&==&o                          o&==&o           ",
"oooX.  .XooooooO&==&OooooooX.  .XooX.  .XooooooO&==&OooooooX.   ",
"&&&$X  X$&&&&&&&====&&&&&&&$X  X$&&$X  X$&&&&&&&====&&&&&&&$X   ",
"===&o  o&==================&o  o&==&o  o&==================&o   ",
"===&o  o&==================&o  o&==&o  o&==================&o   ",
"===&OooO&==->,,,,,,>-==->,,;+oo+;,,;+ooO&==->,,,,,,>-==->,,;+ooo",
"====&&&&===>36666663>==>3663;&&;3663;&&&===>36666663>==>3663;&&&",
"===========,68888886,==,6886,==,6886,======,68888886,==,6886,===",
"===========,68888886,==,6886,==,6886,======,68888886,==,6886,===",
",,,>-==->,,1788888871,,<4664<,,17886,==->,,1788888871,,<4664<,,,",
"6663>==>3667888888887664<,,<46678886,==>3667888888887664<,,<4666",
"8886,==,6888888888888886,==,68888886,==,6888888888888886,==,6888",
"8886,==,6888888888888886,==,68888886,==,6888888888888886,==,6888",
"88871,,178888888888888871,,1788888871,,178888888888888871,,17888",
"8888766788888888888888887667888888887667888888888888888876678888",
"8888888888888888888888888888888888888888888888888888888888888888",
"8888888888888888888888888888888888888888888888888888888888888888",
"8888888888888888888888888888888888888888888888888888888888888888",
"8888888888888888888888888888888888888888888888888888888888888888",
"8888888888888888888888888888888888888888888888888888888888888888",
"8888888888888888888888888888888888888888888888888888888888888888",
"8888766788888888766788887667888888887667888888887667888876678888",
"88871,,1788888871,,178871,,1788888871,,1788888871,,178871,,17888",
"8886,==,68888886,==,6886,==,68888886,==,68888886,==,6886,==,6888",
"8886,==,68888886,==,6886,==,68888886,==,68888886,==,6886,==,6888",
"6663;&&;36666663>==,6886,==>36666663;&&;36666663>==,6886,==>3666",
",,,;+oo+;,,,,,,>-==,6886,==->,,,,,,;+oo+;,,,,,,>-==,6886,==->,,,",
"===&o  o&==========,6886,==========&o  o&==========,6886,=======",
"===&o  o&==========,6886,==========&o  o&==========,6886,=======",
"&&&$X  X$&&&&&&&===:2552:===&&&&===&o  X$&&&&&&&===:2552:===&&&&",
"oooX.  .XooooooO&==*#@@#*==&OooO&==&o  .XooooooO&==*#@@#*==&Oooo",
"               o&==&o  o&==&o  o&==&o          o&==&o  o&==&o   ",
"               o&==&o  o&==&o  o&==&o          o&==&o  o&==&o   ",
"               X$&&$X  X$&&$X  X$&&$X          X$&&$X  X$&&$X   ",
"               .XooX.  .XooX.  .XooX.          .XooX.  .XooX.   ",
"                                                                ",
"                                                                ",
"                                                                ",
"99999999    99999999        9999    9999    999999999       9999",
"99999999    99999999        9999    9999    999999999       9999",
"99999999    99999999        9999    9999    999999999       9999",
"99999999    99999999        9999    9999    999999999       9999",
"999999999999    9999999999999999999999999999    9999999999999999",
"999999999999    9999999999999999999999999999    9999999999999999",
"999999999999    9999999999999999999999999999    9999999999999999",
"999999999999    9999999999999999999999999999    9999999999999999",
"9999999999999999999999999999999999999999999999999999999999999999",
"9999999999999999999999999999999999999999999999999999999999999999",
"9999999999999999999999999999999999999999999999999999999999999999",
"9999999999999999999999999999999999999999999999999999999999999999"
};
