/* XPM */
static const char *explosion_hand_right_1_xpm[] = {
/* columns rows colors chars-per-pixel */
"64 64 16 1 ",
"  c #B53120",
". c #B63221",
"X c #B63323",
"o c #B73424",
"O c #C04233",
"+ c #C24435",
"@ c #C34536",
"# c #CC5142",
"$ c #EE7262",
"% c #EF7363",
"& c #F67968",
"* c #F67A69",
"= c #F77A6A",
"- c #FE806F",
"; c #FF8170",
": c None",
/* pixels */
"::::::::::::::::::::::::::::::::::::::::::::::::::::::::::::::::",
"::::::::::::::::::::::::::::::::::::::::::::::::::::::::::::::::",
"::::::::::::::::::::::::::::::::::::::::::::::::::::::::::::::::",
"::::::::::::::::::::::::::::::::::::::::::::::::::::::::::::::::",
"::::::::::::::::::::::::::::::::::::::::::::::::::::::::::::::::",
"::::::::::::::::::::::::::::::::::::::::::::::::::::::::::::::::",
"::::::::::::::::::::::::::::::::::::::::::::::::::::::::::::::::",
"::::::::::::::::::::::::::::::::::::::::::::::::::::::::::::::::",
"::::::::::::::::::::::::::::::::::::::::::::::::::::::::::::::::",
"::::::::::::::::::::::::::::::::::::::::::::::::::::::::::::::::",
"::::::::::::::::::::::::::::::::::::::::::::::::::::::::::::::::",
"::::::::::::::::::::::::::::::::::::::::::::::::::::::::::::::::",
"::::::::::::::::::::::::::::::::::::::::::::::::::::::::::::::::",
"::::::::::::::::::::::::::::::::::::::::::::::::::::::::::::::::",
"::::::::::::::::::::::::::::::::::::::::::::::::::::::::::::::::",
"::::::::::::::::::::::::::::::::::::::::::::::::::::::::::::::::",
"::::::::::::    ::::::::::::::::::::    ::::::::::::::::::::::::",
"::::::::::::    ::::::::::::::::::::    ::::::::::::::::::::::::",
"::::::::::::    ::::::::::::::::::::    ::::::::::::::::::::::::",
"::::::::::::    ::::::::::::::::::::    ::::::::::::::::::::::::",
"            ::::        ::::                    ::::::::::::::::",
"            ::::        ::::                    ::::::::::::::::",
"....    ....::::........::::........            ::::::::::::::::",
"+++Oo  oO+++::::++++++++::::+++++++Oo           ::::::::::::::::",
"**&$O..O$&&%+..+%&****&%+..+%&****&$O.      ::::::::::::::::::::",
";;-&+..+&--&+..+&-;;;;-&+..+&-;;;;-&+.      ::::::::::::::::::::",
";;;*@XX@*;;*@XX@*;;;;;;*@XX@*;;;;;;*@X..    ::::::::::::::::::::",
";;;=#@@#=;;=#@@#=;;;;;;=#@@#=;;;;;;=#@+Oo   ::::::::::::::::::::",
";;;-=**=-;;-=**=-;;;;;;-=**=-;;;;;;-=*&$O.  ::::::::::::::::::::",
";;;;;;;;;;;;;;;;;;;;;;;;;;;;;;;;;;;;;;-&+.  ::::::::::::::::::::",
";;;;;;;;;;;;;;;;;;;;;;;;;;;;;;;;;;;;;;;*+.  ::::::::::::::::::::",
";;;;;;;;;;;;;;;;;;;;;;;;;;;;;;;;;;;;;;;*+.  ::::::::::::::::::::",
";;;;;;;;;;;;;;;;;;;;;;;;;;;;;;;;;;;;;;;*+.      ::::::::::::::::",
";;;;;;;;;;;;;;;;;;;;;;;;;;;;;;;;;;;;;;;*+.      ::::::::::::::::",
";;;;;;;;;;;;;;;;;;;;;;;;;;;;;;;;;;;;;;-&+.      ::::::::::::::::",
";;;-=**=-;;;;;;-=******=-;;-=**=-;;-=*&$O.      ::::::::::::::::",
";;;=#@@#=;;;;;;=#@++++@#=;;=#@@#=;;=#@+Oo   ::::::::::::::::::::",
";;;*@XX@*;;;;;;*@X....X@*;;*@XX@*;;*@X..    ::::::::::::::::::::",
";;-&+..+&-;;;;-&+.    .+&--&+..+&--&+.      ::::::::::::::::::::",
"**&$O..O$&****&%+.    .O$&&%+..+%&&$O.      ::::::::::::::::::::",
"+++Oo  oO+++++++::::   oO+++::::+++Oo       ::::::::::::::::::::",
"....    ........::::    ....::::....        ::::::::::::::::::::",
"                ::::        ::::            ::::::::::::::::::::",
"                ::::        ::::            ::::::::::::::::::::",
"::::::::::::    ::::::::::::    ::::    ::::    ::::::::::::::::",
"::::::::::::    ::::::::::::    ::::    ::::    ::::::::::::::::",
"::::::::::::    ::::::::::::    ::::    ::::    ::::::::::::::::",
"::::::::::::    ::::::::::::    ::::    ::::    ::::::::::::::::",
"::::::::::::::::::::::::::::::::::::::::::::::::::::::::::::::::",
"::::::::::::::::::::::::::::::::::::::::::::::::::::::::::::::::",
"::::::::::::::::::::::::::::::::::::::::::::::::::::::::::::::::",
"::::::::::::::::::::::::::::::::::::::::::::::::::::::::::::::::",
"::::::::::::::::::::::::::::::::::::::::::::::::::::::::::::::::",
"::::::::::::::::::::::::::::::::::::::::::::::::::::::::::::::::",
"::::::::::::::::::::::::::::::::::::::::::::::::::::::::::::::::",
"::::::::::::::::::::::::::::::::::::::::::::::::::::::::::::::::",
"::::::::::::::::::::::::::::::::::::::::::::::::::::::::::::::::",
"::::::::::::::::::::::::::::::::::::::::::::::::::::::::::::::::",
"::::::::::::::::::::::::::::::::::::::::::::::::::::::::::::::::",
"::::::::::::::::::::::::::::::::::::::::::::::::::::::::::::::::",
"::::::::::::::::::::::::::::::::::::::::::::::::::::::::::::::::",
"::::::::::::::::::::::::::::::::::::::::::::::::::::::::::::::::",
"::::::::::::::::::::::::::::::::::::::::::::::::::::::::::::::::",
"::::::::::::::::::::::::::::::::::::::::::::::::::::::::::::::::"
};
