/* XPM */
static const char *explosion_arm_v_3_xpm[] = {
/* columns rows colors chars-per-pixel */
"64 64 4 1 ",
"  c #B53120",
". c #FF8170",
"X c #FFCCC5",
"o c None",
/* pixels */
"oooooooooooo        ....XXXXXXXXXXXXXXXX....        oooooooooooo",
"oooooooooooo        ....XXXXXXXXXXXXXXXX....        oooooooooooo",
"oooooooooooo        ....XXXXXXXXXXXXXXXX....        oooooooooooo",
"oooooooooooo        ....XXXXXXXXXXXXXXXX....        oooooooooooo",
"oooo            ....XXXX....XXXXXXXX............        oooooooo",
"oooo            ....XXXX....XXXXXXXX............        oooooooo",
"oooo            ....XXXX....XXXXXXXX............        oooooooo",
"oooo            ....XXXX....XXXXXXXX............        oooooooo",
"oooo            ........XXXXXXXXXXXXXXXXXXXX            oooooooo",
"oooo            ........XXXXXXXXXXXXXXXXXXXX            oooooooo",
"oooo            ........XXXXXXXXXXXXXXXXXXXX            oooooooo",
"oooo            ........XXXXXXXXXXXXXXXXXXXX        oooooooooooo",
"oooooooo    ........XXXXXXXXXXXXXXXX............    oooooooooooo",
"oooooooo    ........XXXXXXXXXXXXXXXX............    oooooooooooo",
"oooooooo    ........XXXXXXXXXXXXXXXX............    oooooooooooo",
"oooooooo    ........XXXXXXXXXXXXXXXX............    oooooooooooo",
"oooooooooooo    ....XXXXXXXXXXXXXXXXXXXX....        oooo    oooo",
"oooooooooooo    ....XXXXXXXXXXXXXXXXXXXX....        oooo    oooo",
"oooooooooooo    ....XXXXXXXXXXXXXXXXXXXX....        oooo    oooo",
"oooooooooooo    ....XXXXXXXXXXXXXXXXXXXX....        oooo    oooo",
"oooo            ........XXXXXXXXXXXXXXXX....            oooooooo",
"oooo            ........XXXXXXXXXXXXXXXX....            oooooooo",
"oooo            ........XXXXXXXXXXXXXXXX....            oooooooo",
"oooo            ........XXXXXXXXXXXXXXXX....            oooooooo",
"oooooooooooo        ........XXXXXXXX....            oooooooooooo",
"oooooooooooo        ........XXXXXXXX....            oooooooooooo",
"oooooooooooo        ........XXXXXXXX....            oooooooooooo",
"oooooooooooo        ........XXXXXXXX....            oooooooooooo",
"oooooooo        ....XXXXXXXXXXXXXXXXXXXX........        oooooooo",
"oooooooo        ....XXXXXXXXXXXXXXXXXXXX........        oooooooo",
"oooooooo        ....XXXXXXXXXXXXXXXXXXXX........        oooooooo",
"oooooooo        ....XXXXXXXXXXXXXXXXXXXX........        oooooooo",
"oooooooooooo        ....XXXXXXXXXXXXXXXX....        oooooooooooo",
"oooooooooooo        ....XXXXXXXXXXXXXXXX....        oooooooooooo",
"oooooooooooo        ....XXXXXXXXXXXXXXXX....        oooooooooooo",
"oooooooooooo        ....XXXXXXXXXXXXXXXX....        oooooooooooo",
"oooo            ....XXXX....XXXXXXXX............        oooooooo",
"oooo            ....XXXX....XXXXXXXX............        oooooooo",
"oooo            ....XXXX....XXXXXXXX............        oooooooo",
"oooo            ....XXXX....XXXXXXXX............        oooooooo",
"oooo            ........XXXXXXXXXXXXXXXXXXXX            oooooooo",
"oooo            ........XXXXXXXXXXXXXXXXXXXX            oooooooo",
"oooo            ........XXXXXXXXXXXXXXXXXXXX            oooooooo",
"oooo            ........XXXXXXXXXXXXXXXXXXXX            oooooooo",
"oooooooo    ........XXXXXXXXXXXXXXXX............    oooooooooooo",
"oooooooo    ........XXXXXXXXXXXXXXXX............    oooooooooooo",
"oooooooo    ........XXXXXXXXXXXXXXXX............    oooooooooooo",
"oooooooo    ........XXXXXXXXXXXXXXXX............    oooooooooooo",
"oooooooooooo    ....XXXXXXXXXXXXXXXXXXXX....        oooo    oooo",
"oooooooooooo    ....XXXXXXXXXXXXXXXXXXXX....        oooo    oooo",
"oooooooooooo    ....XXXXXXXXXXXXXXXXXXXX....        oooo    oooo",
"oooooooooooo    ....XXXXXXXXXXXXXXXXXXXX....        oooo    oooo",
"oooo            ........XXXXXXXXXXXXXXXX....            oooooooo",
"oooo            ........XXXXXXXXXXXXXXXX....            oooooooo",
"oooo            ........XXXXXXXXXXXXXXXX....            oooooooo",
"oooo            ........XXXXXXXXXXXXXXXX....            oooooooo",
"oooooooooooo        ........XXXXXXXX....            oooooooooooo",
"oooooooooooo        ........XXXXXXXX....            oooooooooooo",
"oooooooooooo        ........XXXXXXXX....            oooooooooooo",
"oooooooooooo        ........XXXXXXXX....            oooooooooooo",
"oooooooooooo    ........XXXXXXXXXXXXXXXX....        oooooooooooo",
"oooooooooooo    ........XXXXXXXXXXXXXXXX....        oooooooooooo",
"oooooooooooo    ........XXXXXXXXXXXXXXXX....        oooooooooooo",
"oooooooooooo    ........XXXXXXXXXXXXXXXX....        oooooooooooo"
};
