/* XPM */
static const char *explosion_arm_h_2_xpm[] ={
/* columns rows colors chars-per-pixel */
"64 64 19 1 ",
"  c #B53120",
". c #B63221",
"X c #BC3C2D",
"o c #BD3D2D",
"O c #C34637",
"+ c #C34739",
"@ c #F57868",
"# c #FA7D6C",
"$ c #FF8170",
"% c #FF8271",
"& c #FA8576",
"* c #FF8979",
"= c #FF897A",
"- c #FF9083",
"; c #FFC2BB",
": c #FFC7C0",
"> c #FFC8C0",
", c #FFCCC5",
"< c None",
/* pixels */
"<<<<<<<<<<<<<<<<<<<<<<<<<<<<<<<<<<<<<<<<<<<<<<<<<<<<<<<<<<<<<<<<",
"<<<<<<<<<<<<<<<<<<<<<<<<<<<<<<<<<<<<<<<<<<<<<<<<<<<<<<<<<<<<<<<<",
"<<<<<<<<<<<<<<<<<<<<<<<<<<<<<<<<<<<<<<<<<<<<<<<<<<<<<<<<<<<<<<<<",
"<<<<<<<<<<<<<<<<<<<<<<<<<<<<<<<<<<<<<<<<<<<<<<<<<<<<<<<<<<<<<<<<",
"<<<<<<<<<<<<<<<<<<<<<<<<<<<<<<<<<<<<<<<<<<<<<<<<<<<<<<<<<<<<<<<<",
"<<<<<<<<<<<<<<<<<<<<<<<<<<<<<<<<<<<<<<<<<<<<<<<<<<<<<<<<<<<<<<<<",
"<<<<<<<<<<<<<<<<<<<<<<<<<<<<<<<<<<<<<<<<<<<<<<<<<<<<<<<<<<<<<<<<",
"<<<<<<<<<<<<<<<<<<<<<<<<<<<<<<<<<<<<<<<<<<<<<<<<<<<<<<<<<<<<<<<<",
"<<<<<<<<<<<<<<<<<<<<<<<<<<<<<<<<<<<<<<<<<<<<<<<<<<<<<<<<<<<<<<<<",
"<<<<<<<<<<<<<<<<<<<<<<<<<<<<<<<<<<<<<<<<<<<<<<<<<<<<<<<<<<<<<<<<",
"<<<<<<<<<<<<<<<<<<<<<<<<<<<<<<<<<<<<<<<<<<<<<<<<<<<<<<<<<<<<<<<<",
"<<<<<<<<<<<<<<<<<<<<<<<<<<<<<<<<<<<<<<<<<<<<<<<<<<<<<<<<<<<<<<<<",
"<<<<    <<<<<<<<<<<<    <<<<<<<<        <<<<<<<<<<<<    <<<<<<<<",
"<<<<    <<<<<<<<<<<<    <<<<<<<<        <<<<<<<<<<<<    <<<<<<<<",
"<<<<    <<<<<<<<<<<<    <<<<<<<<        <<<<<<<<<<<<    <<<<<<<<",
"<<<<    <<<<<<<<<<<<    <<<<<<<<        <<<<<<<<<<<<    <<<<<<<<",
"                                                                ",
"                                                                ",
"                                                                ",
"   .XooooooooooooooooooX.  .XooooooooooooooooooooooooooX.  .Xooo",
"   X@##################@X  X@##########################@X  X@###",
"   o#$$$$$$$$$$$$$$$$$$#o  o#$$$$$$$$$$$$$$$$$$$$$$$$$$#o  o#$$$",
"   o#$$$$$$$$$$$$$$$$$$#o  o#$$$$$$$$$$$$$$$$$$$$$$$$$$#o  o#$$$",
"oooO#$$$$$$$$$$%*==*%$$#OooO#$$$$$$$$$$$$$$$$$$%*==*%$$#OooO#$$$",
"####$$$$$$$$$$$*;::;*$$$####$$$$$$$$$$$$$$$$$$$*;::;*$$$####$$$$",
"$$$$$$$$$$$$$$$=:,,:=$$$$$$$$$$$$$$$$$$$$$$$$$$=:,,:=$$$$$$$$$$$",
"$$$$$$$$$$$$$$$=:,,:=$$$$$$$$$$$$$$$$$$$$$$$$$$=:,,:=$$$$$$$$$$$",
"===============->,,>-==========================->,,>-===========",
":::::::::::::::>,,,,>::::::::::::::::::::::::::>,,,,>:::::::::::",
",,,,,,,,,,,,,,,,,,,,,,,,,,,,,,,,,,,,,,,,,,,,,,,,,,,,,,,,,,,,,,,,",
",,,,,,,,,,,,,,,,,,,,,,,,,,,,,,,,,,,,,,,,,,,,,,,,,,,,,,,,,,,,,,,,",
",,,,,,,,,,,,,,,,,,,,,,,,,,,,,,,,,,,,,,,,,,,,,,,,,,,,,,,,,,,,,,,,",
",,,,,,,,,,,,,,,,,,,,,,,,,,,,,,,,,,,,,,,,,,,,,,,,,,,,,,,,,,,,,,,,",
",,,,,,,,,,,,,,,,,,,,,,,,,,,,,,,,,,,,,,,,,,,,,,,,,,,,,,,,,,,,,,,,",
",,,,,,,,,,,,,,,,,,,,,,,,,,,,,,,,,,,,,,,,,,,,,,,,,,,,,,,,,,,,,,,,",
":::>,,,,>::::::::::::::::::::::::::>,,,,>:::::::::::::::::::::::",
"===->,,>-==========================->,,>-=======================",
"$$$=:,,:=$$$$$$$$$$$$$$$$$$$$$$$$$$=:,,:=$$$$$$$$$$$$$$$$$$$$$$$",
"$$$=:,,:=$$$$$$$$$$$$$$$$$$$$$$$$$$=:,,:=$$$$$$$$$$$$$$$$$$$$$$$",
"###&;::;*$$$####$$$$$$$$$$$$####$$$*;::;*$$$####$$$$$$$$$$$$####",
"ooo+&==*%$$#OooO#$$$$$$$$$$#OooO#$$%*==*%$$#OooO#$$$$$$$$$$#Oooo",
"   o#$$$$$$#o  o#$$$$$$$$$$#o  o#$$$$$$$$$$#o  o#$$$$$$$$$$#o   ",
"   o#$$$$$$#o  o#$$$$$$$$$$#o  o#$$$$$$$$$$#o  o#$$$$$$$$$$#o   ",
"   X@######@X  X@##########@X  X@##########@X  X@##########@X   ",
"   .XooooooX.  .XooooooooooX.  .XooooooooooX.  .XooooooooooX.   ",
"                                                                ",
"                                                                ",
"                                                                ",
"<<<<    <<<<        <<<<    <<<<        <<<<        <<<<    <<<<",
"<<<<    <<<<        <<<<    <<<<        <<<<        <<<<    <<<<",
"<<<<    <<<<        <<<<    <<<<        <<<<        <<<<    <<<<",
"<<<<    <<<<        <<<<    <<<<        <<<<        <<<<    <<<<",
"<<<<<<<<<<<<<<<<<<<<<<<<<<<<<<<<<<<<<<<<<<<<<<<<<<<<<<<<<<<<<<<<",
"<<<<<<<<<<<<<<<<<<<<<<<<<<<<<<<<<<<<<<<<<<<<<<<<<<<<<<<<<<<<<<<<",
"<<<<<<<<<<<<<<<<<<<<<<<<<<<<<<<<<<<<<<<<<<<<<<<<<<<<<<<<<<<<<<<<",
"<<<<<<<<<<<<<<<<<<<<<<<<<<<<<<<<<<<<<<<<<<<<<<<<<<<<<<<<<<<<<<<<",
"<<<<<<<<<<<<<<<<<<<<<<<<<<<<<<<<<<<<<<<<<<<<<<<<<<<<<<<<<<<<<<<<",
"<<<<<<<<<<<<<<<<<<<<<<<<<<<<<<<<<<<<<<<<<<<<<<<<<<<<<<<<<<<<<<<<",
"<<<<<<<<<<<<<<<<<<<<<<<<<<<<<<<<<<<<<<<<<<<<<<<<<<<<<<<<<<<<<<<<",
"<<<<<<<<<<<<<<<<<<<<<<<<<<<<<<<<<<<<<<<<<<<<<<<<<<<<<<<<<<<<<<<<",
"<<<<<<<<<<<<<<<<<<<<<<<<<<<<<<<<<<<<<<<<<<<<<<<<<<<<<<<<<<<<<<<<",
"<<<<<<<<<<<<<<<<<<<<<<<<<<<<<<<<<<<<<<<<<<<<<<<<<<<<<<<<<<<<<<<<",
"<<<<<<<<<<<<<<<<<<<<<<<<<<<<<<<<<<<<<<<<<<<<<<<<<<<<<<<<<<<<<<<<",
"<<<<<<<<<<<<<<<<<<<<<<<<<<<<<<<<<<<<<<<<<<<<<<<<<<<<<<<<<<<<<<<<"
};
