/* XPM */
static const char *explosion_hand_down_3_xpm[] = {
/* columns rows colors chars-per-pixel */
"64 64 61 1 ",
"  c #B53120",
". c #B53121",
"X c #B73323",
"o c #B73423",
"O c #B73424",
"+ c #B83627",
"@ c #B83B2E",
"# c #C34537",
"$ c #C6483A",
"% c #C6493A",
"& c #C84B3C",
"* c #C84B3D",
"= c #C84E3F",
"- c #D25849",
"; c #D25D50",
": c #E96D5D",
"> c #EA6F5F",
", c #C86962",
"< c #D26E64",
"1 c #F27665",
"2 c #F37766",
"3 c #F37767",
"4 c #F37867",
"5 c #F37869",
"6 c #F57868",
"7 c #F57D6E",
"8 c #FD7F6E",
"9 c #FE806F",
"0 c #FE8070",
"q c #FE8170",
"w c #FF8170",
"e c #FE8272",
"r c #FF8372",
"t c #FF8373",
"y c #FF8475",
"u c #FF8575",
"i c #F5897C",
"p c #FD8E81",
"a c #FF9082",
"s c #FE9385",
"d c #FF9386",
"f c #FF9487",
"g c #FF9488",
"h c #FF9D92",
"j c #FFA095",
"k c #F5B1A9",
"l c #FDB5AD",
"z c #FFB6AD",
"x c #F3BAB3",
"c c #FFB9B0",
"v c #FEBFB7",
"b c #FFBFB7",
"n c #FFC0B7",
"m c #FFC0B8",
"M c #FFC0B9",
"N c #FFC3BB",
"B c #FEC9C2",
"V c #FFCAC3",
"C c #FFCBC4",
"Z c #FFCCC5",
"A c None",
/* pixels */
"AAAAAAAA      o%2qrdMCZZZZZZZZZZZZZZZZCMdrwwww92%o      AAAAAAAA",
"AAAAAAAA      o%29rdMCZZZZZZZZZZZZZZZZCMdrwwww92%o      AAAAAAAA",
"AAAAAAAA      o%18esbVCCZZZZZZZZZZZZZZCMdrww0981%o      AAAAAAAA",
"AAAAAAAA      X#:15ilbMNVZZZZZZZZZZZZZCMdrw8631:#X      AAAAAAAA",
"AAAAAAAAAAAA  .+#%*;isgjNCZZZZZZZZZZZZCMdrq6-&%#+.  AAAAAAAAAAAA",
"AAAAAAAAAAAA   .Xo+*5eygMCZZZZZZZZZZZZCMdrq3&+oX.   AAAAAAAAAAAA",
"AAAAAAAAAAAA   .Xo+*5eygmVCCZZZZZZZZCCVbdrq3&+oX.   AAAAAAAAAAAA",
"AAAAAAAAAAAA  .+#%*;isfhcmMNVZZZZZZVNMbzarq6-&%#+.  AAAAAAAAAAAA",
"AAAA          X#:15ilbnchggjNCZZZZCNjgdauww8631:#X      AAAAAAAA",
"AAAA          o%18esbVVngyygMCZZZZCMgytrwwww0981%o      AAAAAAAA",
"AAAA          o%29rdbVVngyygMCZZZZCMgytrrrrrq981%o      AAAAAAAA",
"AAAA          o%2qrazbnchggjNCZZZZCNjgdddddp741:#X      AAAAAAAA",
"AAAA          o%29wuadfhcmMNVZZZZZZVNMMMMMvk<=%#+.      AAAAAAAA",
"AAAA          o%29wwrtygmVCCZZZZZZZZCCCCCCBx,@OX.       AAAAAAAA",
"AAAA       .Xo+&39wwrtygMCZZZZZZZZZZCCCCCCBx,@OX.       AAAAAAAA",
"AAAA      .+#%&-60wuadgjNCZZZZZZZZZVNMMMMMvk<=%#+.      AAAAAAAA",
"AAAAAAAA  X#:1368wrazbMNVZZZZZZZZZCNjgdddddp741:#X  AAAAAAAAAAAA",
"AAAAAAAA  o%1890wwrdbVCCZZZZZZZZZZCMgytrrrrrq981%o  AAAAAAAAAAAA",
"AAAAAAAA  o%1890wwrdMCZZZZZZZZZZZZCMgytrwwww0981%o  AAAAAAAAAAAA",
"AAAAAAAA  o$>1368wrdMCZZZZZZZZZZZZCNjgdauww8631:#X  AAAAAAAAAAAA",
"AAAAAAAAAAAA$%&-6qrdMCZZZZZZZZZZZZZVNMbzarq6-&%#+.  AAAA    AAAA",
"AAAAAAAAAAAAoo+&3qrdMCZZZZZZZZZZZZZZCCVbdrq3&+oX.   AAAA    AAAA",
"AAAAAAAAAAAA  o%2qrdbVCCZZZZZZZZZZZZZZCMdrq2%o      AAAA    AAAA",
"AAAAAAAAAAAA  o%2qrazbMNVZZZZZZZZZZZZZCMdrq2%o      AAAA    AAAA",
"AAAA          o%29wuadgjNCZZZZZZZZZZZZCMdrq2%o          AAAAAAAA",
"AAAA          o%29wwrrygMCZZZZZZZZZZZZCMdr92%o          AAAAAAAA",
"AAAA          o%1890wwrdbVCCZZZZZZZZCCVbse81%o          AAAAAAAA",
"AAAA          X#:1368wrazbMNVZZZZZZVNMbli51:#X          AAAAAAAA",
"AAAAAAAAAAAA  .+#%&-60wuadgjNCZZZZCNjgsi;*%#+.      AAAAAAAAAAAA",
"AAAAAAAAAAAA   .Xo+&39wwrtygMCZZZZCMgye5*+oX.       AAAAAAAAAAAA",
"AAAAAAAAAAAA      o%29wwrtygMCZZZZCMgye5*+oX.       AAAAAAAAAAAA",
"AAAAAAAAAAAA      o%29wuadgjNCZZZZCNjgsi;*%#+.      AAAAAAAAAAAA",
"AAAAAAAA          o%2qrazbMNVZZZZZZVNMbli51:#X              AAAA",
"AAAAAAAA          o%2qrdbVCCZZZZZZZZCCVbse81%o              AAAA",
"AAAAAAAA       .Xo+&3qrdbVCCCCCCCCCCCCVbdr92%o              AAAA",
"AAAAAAAA      .+#%&-6qrazbMMMMMMMMMMMMbzarq2%o              AAAA",
"AAAA          X#:1368wwuaddddddddddddddauw92%o              AAAA",
"AAAA          o%1890wwwwrrrrrrrrrrrrrrrrww92%o              AAAA",
"AAAA          o%18999990wwwwqqqqqqqqwwww0981%o              AAAA",
"AAAA          X#:12222368ww8632222368ww8631:#X              AAAA",
"    AAAA      .+#%%%%%&-6006-&%%%%&-6006-&%#+.          AAAAAAAA",
"    AAAA       .Xooooo+&3993&+oooo+&3993&+oX.           AAAAAAAA",
"    AAAA              o%1881%o    o%1881%o              AAAAAAAA",
"    AAAA              X#:11:#X    X#:11:#X              AAAAAAAA",
"AAAAAAAA              .+#%%#+.    .+#%%#+.              AAAAAAAA",
"AAAAAAAA               .XooX.      .XooX.               AAAAAAAA",
"AAAAAAAA                                                AAAAAAAA",
"AAAAAAAA                                                AAAAAAAA",
"AAAA                AAAA        AAAA                        AAAA",
"AAAA                AAAA        AAAA                        AAAA",
"AAAA                AAAA        AAAA                        AAAA",
"AAAA                AAAA        AAAA                        AAAA",
"                    AAAA    AAAAAAAA    AAAAAAAA    AAAA    AAAA",
"                    AAAA    AAAAAAAA    AAAAAAAA    AAAA    AAAA",
"                    AAAA    AAAAAAAA    AAAAAAAA    AAAA    AAAA",
"                    AAAA    AAAAAAAA    AAAAAAAA    AAAA    AAAA",
"AAAA        AAAAAAAAAAAAAAAAAAAA    AAAAAAAA    AAAAAAAA        ",
"AAAA        AAAAAAAAAAAAAAAAAAAA    AAAAAAAA    AAAAAAAA        ",
"AAAA        AAAAAAAAAAAAAAAAAAAA    AAAAAAAA    AAAAAAAA        ",
"AAAA        AAAAAAAAAAAAAAAAAAAA    AAAAAAAA    AAAAAAAA        ",
"        AAAAAAAAAAAAAAAAAAAAAAAAAAAAAAAAAAAAAAAAAAAAAAAAAAAA    ",
"        AAAAAAAAAAAAAAAAAAAAAAAAAAAAAAAAAAAAAAAAAAAAAAAAAAAA    ",
"        AAAAAAAAAAAAAAAAAAAAAAAAAAAAAAAAAAAAAAAAAAAAAAAAAAAA    ",
"        AAAAAAAAAAAAAAAAAAAAAAAAAAAAAAAAAAAAAAAAAAAAAAAAAAAA    "
};
