/* XPM */
static const char *explosion_hand_left_1_xpm[] = {
/* columns rows colors chars-per-pixel */
"64 64 3 1 ",
"  c #B53120",
". c #FF8170",
"X c None",
/* pixels */
"XXXXXXXXXXXXXXXXXXXXXXXXXXXXXXXXXXXXXXXXXXXXXXXXXXXXXXXXXXXXXXXX",
"XXXXXXXXXXXXXXXXXXXXXXXXXXXXXXXXXXXXXXXXXXXXXXXXXXXXXXXXXXXXXXXX",
"XXXXXXXXXXXXXXXXXXXXXXXXXXXXXXXXXXXXXXXXXXXXXXXXXXXXXXXXXXXXXXXX",
"XXXXXXXXXXXXXXXXXXXXXXXXXXXXXXXXXXXXXXXXXXXXXXXXXXXXXXXXXXXXXXXX",
"XXXXXXXXXXXXXXXXXXXXXXXXXXXXXXXXXXXXXXXXXXXXXXXXXXXXXXXXXXXXXXXX",
"XXXXXXXXXXXXXXXXXXXXXXXXXXXXXXXXXXXXXXXXXXXXXXXXXXXXXXXXXXXXXXXX",
"XXXXXXXXXXXXXXXXXXXXXXXXXXXXXXXXXXXXXXXXXXXXXXXXXXXXXXXXXXXXXXXX",
"XXXXXXXXXXXXXXXXXXXXXXXXXXXXXXXXXXXXXXXXXXXXXXXXXXXXXXXXXXXXXXXX",
"XXXXXXXXXXXXXXXXXXXXXXXXXXXXXXXXXXXXXXXXXXXXXXXXXXXXXXXXXXXXXXXX",
"XXXXXXXXXXXXXXXXXXXXXXXXXXXXXXXXXXXXXXXXXXXXXXXXXXXXXXXXXXXXXXXX",
"XXXXXXXXXXXXXXXXXXXXXXXXXXXXXXXXXXXXXXXXXXXXXXXXXXXXXXXXXXXXXXXX",
"XXXXXXXXXXXXXXXXXXXXXXXXXXXXXXXXXXXXXXXXXXXXXXXXXXXXXXXXXXXXXXXX",
"XXXXXXXXXXXXXXXXXXXXXXXXXXXXXXXXXXXXXXXXXXXXXXXXXXXXXXXXXXXXXXXX",
"XXXXXXXXXXXXXXXXXXXXXXXXXXXXXXXXXXXXXXXXXXXXXXXXXXXXXXXXXXXXXXXX",
"XXXXXXXXXXXXXXXXXXXXXXXXXXXXXXXXXXXXXXXXXXXXXXXXXXXXXXXXXXXXXXXX",
"XXXXXXXXXXXXXXXXXXXXXXXXXXXXXXXXXXXXXXXXXXXXXXXXXXXXXXXXXXXXXXXX",
"XXXXXXXXXXXXXXXX    XXXX    XXXX    XXXXXXXXXXXX    XXXXXXXXXXXX",
"XXXXXXXXXXXXXXXX    XXXX    XXXX    XXXXXXXXXXXX    XXXXXXXXXXXX",
"XXXXXXXXXXXXXXXX    XXXX    XXXX    XXXXXXXXXXXX    XXXXXXXXXXXX",
"XXXXXXXXXXXXXXXX    XXXX    XXXX    XXXXXXXXXXXX    XXXXXXXXXXXX",
"XXXXXXXXXXXXXXXXXXXX            XXXX        XXXX                ",
"XXXXXXXXXXXXXXXXXXXX            XXXX        XXXX                ",
"XXXXXXXXXXXXXXXXXXXX            XXXX        XXXX                ",
"XXXXXXXXXXXXXXXXXXXX            XXXX        XXXX                ",
"XXXXXXXXXXXXXXXXXXXX        ....    ....        ........    ....",
"XXXXXXXXXXXXXXXXXXXX        ....    ....        ........    ....",
"XXXXXXXXXXXXXXXXXXXX        ....    ....        ........    ....",
"XXXXXXXXXXXXXXXXXXXX        ....    ....        ........    ....",
"XXXXXXXXXXXXXXXX        ........................................",
"XXXXXXXXXXXXXXXX        ........................................",
"XXXXXXXXXXXXXXXX        ........................................",
"XXXXXXXXXXXXXXXX        ........................................",
"XXXXXXXXXXXXXXXXXXXX    ........................................",
"XXXXXXXXXXXXXXXXXXXX    ........................................",
"XXXXXXXXXXXXXXXXXXXX    ........................................",
"XXXXXXXXXXXXXXXXXXXX    ........................................",
"XXXXXXXXXXXXXXXXXXXX        ........    ........    ....    ....",
"XXXXXXXXXXXXXXXXXXXX        ........    ........    ....    ....",
"XXXXXXXXXXXXXXXXXXXX        ........    ........    ....    ....",
"XXXXXXXXXXXXXXXXXXXX        ........    ........    ....    ....",
"XXXXXXXXXXXXXXXX                    XXXX        XXXX            ",
"XXXXXXXXXXXXXXXX                    XXXX        XXXX            ",
"XXXXXXXXXXXXXXXX                    XXXX        XXXX            ",
"XXXXXXXXXXXXXXXX                    XXXX        XXXX            ",
"XXXXXXXXXXXXXXXXXXXXXXXX    XXXXXXXXXXXXXXXXXXXX    XXXXXXXXXXXX",
"XXXXXXXXXXXXXXXXXXXXXXXX    XXXXXXXXXXXXXXXXXXXX    XXXXXXXXXXXX",
"XXXXXXXXXXXXXXXXXXXXXXXX    XXXXXXXXXXXXXXXXXXXX    XXXXXXXXXXXX",
"XXXXXXXXXXXXXXXXXXXXXXXX    XXXXXXXXXXXXXXXXXXXX    XXXXXXXXXXXX",
"XXXXXXXXXXXXXXXXXXXXXXXXXXXXXXXXXXXXXXXXXXXXXXXXXXXXXXXXXXXXXXXX",
"XXXXXXXXXXXXXXXXXXXXXXXXXXXXXXXXXXXXXXXXXXXXXXXXXXXXXXXXXXXXXXXX",
"XXXXXXXXXXXXXXXXXXXXXXXXXXXXXXXXXXXXXXXXXXXXXXXXXXXXXXXXXXXXXXXX",
"XXXXXXXXXXXXXXXXXXXXXXXXXXXXXXXXXXXXXXXXXXXXXXXXXXXXXXXXXXXXXXXX",
"XXXXXXXXXXXXXXXXXXXXXXXXXXXXXXXXXXXXXXXXXXXXXXXXXXXXXXXXXXXXXXXX",
"XXXXXXXXXXXXXXXXXXXXXXXXXXXXXXXXXXXXXXXXXXXXXXXXXXXXXXXXXXXXXXXX",
"XXXXXXXXXXXXXXXXXXXXXXXXXXXXXXXXXXXXXXXXXXXXXXXXXXXXXXXXXXXXXXXX",
"XXXXXXXXXXXXXXXXXXXXXXXXXXXXXXXXXXXXXXXXXXXXXXXXXXXXXXXXXXXXXXXX",
"XXXXXXXXXXXXXXXXXXXXXXXXXXXXXXXXXXXXXXXXXXXXXXXXXXXXXXXXXXXXXXXX",
"XXXXXXXXXXXXXXXXXXXXXXXXXXXXXXXXXXXXXXXXXXXXXXXXXXXXXXXXXXXXXXXX",
"XXXXXXXXXXXXXXXXXXXXXXXXXXXXXXXXXXXXXXXXXXXXXXXXXXXXXXXXXXXXXXXX",
"XXXXXXXXXXXXXXXXXXXXXXXXXXXXXXXXXXXXXXXXXXXXXXXXXXXXXXXXXXXXXXXX",
"XXXXXXXXXXXXXXXXXXXXXXXXXXXXXXXXXXXXXXXXXXXXXXXXXXXXXXXXXXXXXXXX",
"XXXXXXXXXXXXXXXXXXXXXXXXXXXXXXXXXXXXXXXXXXXXXXXXXXXXXXXXXXXXXXXX",
"XXXXXXXXXXXXXXXXXXXXXXXXXXXXXXXXXXXXXXXXXXXXXXXXXXXXXXXXXXXXXXXX",
"XXXXXXXXXXXXXXXXXXXXXXXXXXXXXXXXXXXXXXXXXXXXXXXXXXXXXXXXXXXXXXXX"
};
