/* XPM */
static const char *explosion_center_4_xpm[] = {
/* columns rows colors chars-per-pixel */
"64 64 4 1 ",
"  c #B53120",
". c #FF8170",
"X c #FFCCC5",
"o c None",
/* pixels */
"oooo            ....XXXXXXXXXXXXXXXXXXXXXXXXXXXXXXXX....    oooo",
"oooo            ....XXXXXXXXXXXXXXXXXXXXXXXXXXXXXXXX....    oooo",
"oooo            ....XXXXXXXXXXXXXXXXXXXXXXXXXXXXXXXX....    oooo",
"oooo            ....XXXXXXXXXXXXXXXXXXXXXXXXXXXXXXXX....    oooo",
"        ............XXXXXXXXXXXXXXXXXXXXXXXX............        ",
"        ............XXXXXXXXXXXXXXXXXXXXXXXX............        ",
"        ............XXXXXXXXXXXXXXXXXXXXXXXX............        ",
"        ............XXXXXXXXXXXXXXXXXXXXXXXX............        ",
"................XXXX....XXXXXXXXXXXXXXXXXXXXXXXXXXXXXXXX........",
"................XXXX....XXXXXXXXXXXXXXXXXXXXXXXXXXXXXXXX........",
"................XXXX....XXXXXXXXXXXXXXXXXXXXXXXXXXXXXXXX........",
"................XXXX....XXXXXXXXXXXXXXXXXXXXXXXXXXXXXXXX........",
"XXXX....XXXX....XXXXXXXXXXXXXXXXXXXXXXXXXXXXXXXXXXXXXXXX........",
"XXXX....XXXX....XXXXXXXXXXXXXXXXXXXXXXXXXXXXXXXXXXXXXXXX........",
"XXXX....XXXX....XXXXXXXXXXXXXXXXXXXXXXXXXXXXXXXXXXXXXXXX........",
"XXXX....XXXX....XXXXXXXXXXXXXXXXXXXXXXXXXXXXXXXXXXXXXXXX........",
"XXXXXXXXXXXXXXXXXXXXXXXXXXXXXXXXXXXXXXXXXXXXXXXXXXXXXXXXXXXXXXXX",
"XXXXXXXXXXXXXXXXXXXXXXXXXXXXXXXXXXXXXXXXXXXXXXXXXXXXXXXXXXXXXXXX",
"XXXXXXXXXXXXXXXXXXXXXXXXXXXXXXXXXXXXXXXXXXXXXXXXXXXXXXXXXXXXXXXX",
"XXXXXXXXXXXXXXXXXXXXXXXXXXXXXXXXXXXXXXXXXXXXXXXXXXXXXXXXXXXXXXXX",
"XXXXXXXXXXXXXXXXXXXXXXXXXXXXXXXXXXXXXXXXXXXXXXXXXXXXXXXXXXXXXXXX",
"XXXXXXXXXXXXXXXXXXXXXXXXXXXXXXXXXXXXXXXXXXXXXXXXXXXXXXXXXXXXXXXX",
"XXXXXXXXXXXXXXXXXXXXXXXXXXXXXXXXXXXXXXXXXXXXXXXXXXXXXXXXXXXXXXXX",
"XXXXXXXXXXXXXXXXXXXXXXXXXXXXXXXXXXXXXXXXXXXXXXXXXXXXXXXXXXXXXXXX",
"XXXXXXXXXXXXXXXXXXXXXXXXXXXXXXXXXXXXXXXXXXXXXXXXXXXXXXXXXXXXXXXX",
"XXXXXXXXXXXXXXXXXXXXXXXXXXXXXXXXXXXXXXXXXXXXXXXXXXXXXXXXXXXXXXXX",
"XXXXXXXXXXXXXXXXXXXXXXXXXXXXXXXXXXXXXXXXXXXXXXXXXXXXXXXXXXXXXXXX",
"XXXXXXXXXXXXXXXXXXXXXXXXXXXXXXXXXXXXXXXXXXXXXXXXXXXXXXXXXXXXXXXX",
"XXXXXXXXXXXXXXXXXXXXXXXXXXXXXXXXXXXXXXXXXXXXXXXXXXXXXXXXXXXXXXXX",
"XXXXXXXXXXXXXXXXXXXXXXXXXXXXXXXXXXXXXXXXXXXXXXXXXXXXXXXXXXXXXXXX",
"XXXXXXXXXXXXXXXXXXXXXXXXXXXXXXXXXXXXXXXXXXXXXXXXXXXXXXXXXXXXXXXX",
"XXXXXXXXXXXXXXXXXXXXXXXXXXXXXXXXXXXXXXXXXXXXXXXXXXXXXXXXXXXXXXXX",
"XXXXXXXXXXXXXXXXXXXXXXXXXXXXXXXXXXXXXXXXXXXXXXXXXXXXXXXXXXXXXXXX",
"XXXXXXXXXXXXXXXXXXXXXXXXXXXXXXXXXXXXXXXXXXXXXXXXXXXXXXXXXXXXXXXX",
"XXXXXXXXXXXXXXXXXXXXXXXXXXXXXXXXXXXXXXXXXXXXXXXXXXXXXXXXXXXXXXXX",
"XXXXXXXXXXXXXXXXXXXXXXXXXXXXXXXXXXXXXXXXXXXXXXXXXXXXXXXXXXXXXXXX",
"XXXXXXXXXXXXXXXXXXXXXXXXXXXXXXXXXXXXXXXXXXXXXXXXXXXXXXXXXXXXXXXX",
"XXXXXXXXXXXXXXXXXXXXXXXXXXXXXXXXXXXXXXXXXXXXXXXXXXXXXXXXXXXXXXXX",
"XXXXXXXXXXXXXXXXXXXXXXXXXXXXXXXXXXXXXXXXXXXXXXXXXXXXXXXXXXXXXXXX",
"XXXXXXXXXXXXXXXXXXXXXXXXXXXXXXXXXXXXXXXXXXXXXXXXXXXXXXXXXXXXXXXX",
"XXXXXXXXXXXXXXXXXXXXXXXXXXXXXXXXXXXXXXXXXXXXXXXXXXXXXXXXXXXXXXXX",
"XXXXXXXXXXXXXXXXXXXXXXXXXXXXXXXXXXXXXXXXXXXXXXXXXXXXXXXXXXXXXXXX",
"XXXXXXXXXXXXXXXXXXXXXXXXXXXXXXXXXXXXXXXXXXXXXXXXXXXXXXXXXXXXXXXX",
"XXXXXXXXXXXXXXXXXXXXXXXXXXXXXXXXXXXXXXXXXXXXXXXXXXXXXXXXXXXXXXXX",
"XXXX....XXXXXXXXXXXXXXXXXXXXXXXXXXXXXXXXXXXXXXXXXXXXXXXXXXXXXXXX",
"XXXX....XXXXXXXXXXXXXXXXXXXXXXXXXXXXXXXXXXXXXXXXXXXXXXXXXXXXXXXX",
"XXXX....XXXXXXXXXXXXXXXXXXXXXXXXXXXXXXXXXXXXXXXXXXXXXXXXXXXXXXXX",
"XXXX....XXXXXXXXXXXXXXXXXXXXXXXXXXXXXXXXXXXXXXXXXXXXXXXXXXXXXXXX",
"............XXXXXXXXXXXXXXXXXXXXXXXXXXXXXXXXXXXXXXXXXXXXXXXXXXXX",
"............XXXXXXXXXXXXXXXXXXXXXXXXXXXXXXXXXXXXXXXXXXXXXXXXXXXX",
"............XXXXXXXXXXXXXXXXXXXXXXXXXXXXXXXXXXXXXXXXXXXXXXXXXXXX",
"............XXXXXXXXXXXXXXXXXXXXXXXXXXXXXXXXXXXXXXXXXXXXXXXXXXXX",
"....................XXXXXXXXXXXXXXXXXXXXXXXXXXXXXXXXXXXXXXXXXXXX",
"....................XXXXXXXXXXXXXXXXXXXXXXXXXXXXXXXXXXXXXXXXXXXX",
"....................XXXXXXXXXXXXXXXXXXXXXXXXXXXXXXXXXXXXXXXXXXXX",
"....................XXXXXXXXXXXXXXXXXXXXXXXXXXXXXXXXXXXXXXXXXXXX",
"            ............XXXXXXXXXXXXXXXXXXXXXXXX............    ",
"            ............XXXXXXXXXXXXXXXXXXXXXXXX............    ",
"            ............XXXXXXXXXXXXXXXXXXXXXXXX............    ",
"            ............XXXXXXXXXXXXXXXXXXXXXXXX............    ",
"    oooo        ........XXXXXXXXXXXXXXXXXXXXXXXXXXXX....    oooo",
"    oooo        ........XXXXXXXXXXXXXXXXXXXXXXXXXXXX....    oooo",
"    oooo        ........XXXXXXXXXXXXXXXXXXXXXXXXXXXX....    oooo",
"    oooo        ........XXXXXXXXXXXXXXXXXXXXXXXXXXXX....    oooo"
};
