/* XPM */
static const char *explosion_hand_up_3_xpm[] = {
/* columns rows colors chars-per-pixel */
"64 64 28 1 ",
"  c #B53120",
". c #B63221",
"X c #BC3C2D",
"o c #BD3D2D",
"O c #C34637",
"+ c #C34739",
"@ c #BD4F45",
"# c #C3554A",
"$ c #F57868",
"% c #F57968",
"& c #FA7D6C",
"* c #FA7E6D",
"= c #FF8170",
"- c #FF8271",
"; c #FA8576",
": c #FF8879",
"> c #FF8979",
", c #FF897A",
"< c #FF9082",
"1 c #FF9083",
"2 c #FAC0B9",
"3 c #FFC2BB",
"4 c #FFC3BB",
"5 c #FAC5BE",
"6 c #FFC7C0",
"7 c #FFC8C0",
"8 c #FFCCC5",
"9 c None",
/* pixels */
"    9999999999999999999999999999999999999999999999999999        ",
"    9999999999999999999999999999999999999999999999999999        ",
"    9999999999999999999999999999999999999999999999999999        ",
"    9999999999999999999999999999999999999999999999999999        ",
"        99999999    99999999    99999999999999999999        9999",
"        99999999    99999999    99999999999999999999        9999",
"        99999999    99999999    99999999999999999999        9999",
"        99999999    99999999    99999999999999999999        9999",
"9999    9999    99999999    99999999    9999                    ",
"9999    9999    99999999    99999999    9999                    ",
"9999    9999    99999999    99999999    9999                    ",
"9999    9999    99999999    99999999    9999                    ",
"9999                        9999        9999                9999",
"9999                        9999        9999                9999",
"9999                        9999        9999                9999",
"9999                        9999        9999                9999",
"99999999                                                99999999",
"99999999                                                99999999",
"99999999                                                99999999",
"99999999               .XooX.      .XooX.               99999999",
"99999999               X$&&$X      X$&&$X               9999    ",
"99999999               o&==&o      o&==&o               9999    ",
"99999999               o&==&o      o&==&o               9999    ",
"99999999           .XooO&==&OooooooO&==&OooooooX.       9999    ",
"9999               X$&&&====&&&&&&&&====&&&&&&&$X           9999",
"9999               o&==========================&o           9999",
"9999               o&==========================&o           9999",
"9999               o&==->,,,,,,,,,,,,,,>-===&&&$X           9999",
"9999               o&==>3666666666666663>==&OooX.       99999999",
"9999               o&==,6888888888888886,==&o           99999999",
"9999               o&==,6888888888888886,==&o           99999999",
"9999               X$&&;3667888888887663>==&o           99999999",
"999999999999       .Xoo+;,,1788888871,,>-==&o       999999999999",
"999999999999           o&==,68888886,======&o       999999999999",
"999999999999           o&==,68888886,======&o       999999999999",
"999999999999       .Xoo+;,,1788888871,,>-==&OooX.   999999999999",
"99999999           X$&&;3667888888887663>===&&&$X           9999",
"99999999           o&==,6888888888888886,======&o           9999",
"99999999           o&==,6888888888888886,======&o           9999",
"99999999           o&==,68888888888888871,,>-==&o           9999",
"9999    9999       o&==,68888888888888887663>==&o   999999999999",
"9999    9999       o&==,68888888888888888886,==&o   999999999999",
"9999    9999       o&==,68888888888888888886,==&o   999999999999",
"9999    9999   .XooO&==>36678888888888888886,==&Oooo999999999999",
"999999999999   X$&&&===->,,17888888888888886,===&&&%o   99999999",
"999999999999   o&==========,6888888888888886,======&o   99999999",
"999999999999   o&==========,6888888888888886,======&o   99999999",
"999999999999   X$&&*:,,,,,,17888888888887663>===&&&$X   99999999",
"99999999       .Xoo#266666678888888888871,,>-==&OooX.       9999",
"99999999           @58888888888888888886,======&o           9999",
"99999999           @58888888888888888886,======&o           9999",
"99999999       .Xoo#26666667888888887664<,,>-==&o           9999",
"99999999       X$&&*:,,,,,,1788888871,,<4663>==&o           9999",
"99999999       o&==========,68888886,==,6886,==&o           9999",
"99999999       o&==========,68888886,==,6886,==&o           9999",
"99999999       X$&&&===->,,1788888871,,<4663;&&$X           9999",
"999999999999   .XooO&==>3667888888887664<,,;+ooX.   999999999999",
"999999999999       o&==,6888888888888886,==&o       999999999999",
"999999999999       o&==,6888888888888886,==&o       999999999999",
"999999999999   .XooO&==,68888888888888871,,;+ooX.   999999999999",
"99999999       X$&&&===,68888888888888887663;&&$X       99999999",
"99999999       o&======,68888888888888888886,==&o       99999999",
"99999999       o&======,68888888888888888886,==&o       99999999",
"99999999       o&======,68888888888888888886,==&o       99999999"
};
