/* XPM */
static const char *explosion_arm_h_1_xpm[] ={
/* columns rows colors chars-per-pixel */
"64 64 13 1 ",
"  c #AF3D1E",
". c #B53120",
"X c #B43220",
"o c #B63221",
"O c #BC3C2D",
"+ c #BD3D2D",
"@ c #C34637",
"# c #F57868",
"$ c #F57968",
"% c #FA7D6C",
"& c #518105",
"* c #FF8170",
"= c None",
/* pixels */
"================================================================",
"================================================================",
"================================================================",
"================================================================",
"================================================================",
"================================================================",
"================================================================",
"================================================================",
"================================================================",
"================================================================",
"================================================================",
"================================================================",
"================================================================",
"================================================================",
"================================================================",
"================================================================",
"========... &===========....============....============....====",
"========...X============....============....============....====",
"========....============....============....============....====",
"========....============....============....============....====",
"............====........====................====........====....",
"............====........====................====........====....",
"............====........====................====........====....",
"...oO+++++++====...oO+++====+++Oo..oO+++++++====...oO+++====++++",
"...O#%%%%%%$+......O#%%$+..+$%%#O..O#%%%%%%$+......O#%%$+..+$%%%",
"...+%******%+......+%**%+..+%**%+..+%******%+......+%**%+..+%***",
"...+%******%+......+%**%+..+%**%+..+%******%+......+%**%+..+%***",
"+++@%******%@++++++@%**%@++@%**%@++@%******%@++++++@%**%@++@%***",
"%%%%********%%%%%%%%****%%%%****%%%%********%%%%%%%%****%%%%****",
"****************************************************************",
"****************************************************************",
"****************************************************************",
"****************************************************************",
"****************************************************************",
"****************************************************************",
"%%%%********%%%%****%%%%********%%%%********%%%%****%%%%********",
"+++@%******%@++@%**%@++@%******%@++@%******%@++@%**%@++@%*******",
"...+%******%+..+%**%+..+%******%+..+%******%+..+%**%+..+%*******",
"...+%******%+..+%**%+..+%******%+..+%******%+..+%**%+..+%*******",
"...+$%%%%%%$+..+$%%#O..O#%%%%%%$+..+$%%%%%%$+..+$%%#O..O#%%%%%%%",
"====++++++++====+++Oo..oO+++++++====++++++++====+++Oo..oO+++++++",
"====........====................====........====................",
"====........====................====........====................",
"====........====................====........====................",
"============....============================....================",
"============....============================....================",
"============....============================....================",
"============....============================....================",
"================================================================",
"================================================================",
"================================================================",
"================================================================",
"================================================================",
"================================================================",
"================================================================",
"================================================================",
"================================================================",
"================================================================",
"================================================================",
"================================================================",
"================================================================",
"================================================================",
"================================================================",
"================================================================"
};
