/* XPM */
static const char *explosion_hand_up_4_xpm[] = {
/* columns rows colors chars-per-pixel */
"64 64 27 1 ",
"  c #AF3D1E",
". c #B53120",
"X c #B43220",
"o c #B63221",
"O c #BC3C2D",
"+ c #BD3D2D",
"@ c #BD3E2E",
"# c #C34536",
"$ c #C34637",
"% c #C34739",
"& c #F57868",
"* c #F57968",
"= c #F67968",
"- c #F97C6C",
"; c #FA7D6C",
": c #518105",
"> c #FF8170",
", c #FF8271",
"< c #FA8576",
"1 c #FF8979",
"2 c #FF897A",
"3 c #FF9083",
"4 c #FFC2BB",
"5 c #FFC7C0",
"6 c #FFC8C0",
"7 c #FFCCC5",
"8 c None",
/* pixels */
"....8888888888888888....88888888888888888888888888888888........",
"....8888888888888888....88888888888888888888888888888888........",
"....8888888888888888....88888888888888888888888888888888........",
"....8888888888888888....88888888888888888888888888888888........",
"....8888....8888........8888....8888....88888888....8888........",
"....8888....8888........8888....8888....88888888....8888........",
"....8888....8888........8888....8888....88888888....8888........",
"....8888....8888........8888....8888....88888888....8888........",
"........8888........8888....................88888888........8888",
"........8888........8888....................88888888........8888",
"........8888........8888....................88888888........8888",
"........8888+++Oo..o8888@++++++Oo..oO++Oo...88888888........8888",
"8888.......+*;;&O..O->>>;;;;;;;&O..O&;;&O.......................",
"8888.......+;>>;+..+;>>>>>>>>>>;+..+;>>;+.......................",
"8888.......+;>>;+..+;>>>>>>>>>>;+..+;>>;+.......................",
"8888.......+;>>;+..+;>>>>>>>>>>;$++$;>>;$++++++++++++++Oo.......",
"8888.......+;>>;+..+;>>>>>>>>>>>;;;;>>>>;;;;;;;;;;;;;;;&O...8888",
"8888.......+;>>;+..+;>>>>>>>>>>>>>>>>>>>>>>>>>>>>>>>>>>;+...8888",
"8888.......+;>>;+..+;>>>>>>>>>>>>>>>>>>>>>>>>>>>>>>>>>>;+...8888",
"8888.......+;>>;$++$;>>,1222222222222221,>>>>>>>>>>>;;;&O...8888",
"....8888...+;>>>;;;;>>>145555555555555541>>>>>>>>>>;$++Oo...8888",
"....8888...+;>>>>>>>>>>257777777777777752>>>>>>>>>>;+.......8888",
"....8888...+;>>>>>>>>>>257777777777777752>>>>>>>>>>;+.......8888",
"....8888...+;>>>>>>,122367777777777777763221,>>>>>>;+.......8888",
"8888.......+;>>>>>>14556777777777777777765541>>>>>>;+...8888....",
"8888.......+;>>>>>>25777777777777777777777752>>>>>>;+...8888....",
"8888.......+;>>>>>>25777777777777777777777752>>>>>>;+...8888....",
"8888...oO++$;>>,12236777777777777777777777763221,>>;+...8888....",
".......O&;;;>>>1455677777777777777777777777765541>>;+...........",
".......+;>>>>>>2577777777777777777777777777777752>>;+...........",
".......+;>>>>>>2577777777777777777777777777777752>>;+...........",
".......+;>>>>>>2577777777777777777777777777777752>>;$++Oo.......",
"8888...+;>>>>>>2577777777777777777777777777777752>>>;;;&O...8888",
"8888...+;>>>>>>2577777777777777777777777777777752>>>>>>;+...8888",
"8888...+;>>>>>>2577777777777777777777777777777752>>>>>>;+...8888",
"8888...+;>>>>>>1455677777777777777777777777777752>>>>>>;+...8888",
"8888...+;>>>>>>,122367777777777777777777777777752>>>>>>;+.......",
"8888...+;>>>>>>>>>>257777777777777777777777777752>>>>>>;+.......",
"8888...+;>>>>>>>>>>257777777777777777777777777752>>>>>>;+.......",
"8888...+;>>>>>>,122367777777777777777777777777763221,>>;$++Oo...",
".......+;>>>>>>14556777777777777777777777777777765541>>>;;;-8888",
".......+;>>>>>>25777777777777777777777777777777777752>>>>>>>8888",
".......+;>>>>>>25777777777777777777777777777777777752>>>>>>>8888",
".......O&;;;>>>25777777777777777777777777777777765541>>>;;;;8888",
"8888...oO++$;>>2577777777777777777777777777777763221,>>;$+++8888",
"8888.......+;>>2577777777777777777777777777777752>>>>>>;+...8888",
"8888.......+;>>2577777777777777777777777777777752>>>>>>;+...8888",
"8888.......+;>>2577777777777777777777777777777752>>>;;;=#+++8888",
"8888.......+;>>2577777777777777777777777777777752>>;$++#=;;*+...",
"8888.......+;>>2577777777777777777777777777777752>>;+..+;>>;+...",
"8888.......+;>>2577777777777777777777777777777752>>;+..+;>>;+...",
"8888...oO++$;>>257777777777777777777777777777776322<%++#=;;*+...",
".......O&;;;>>>2577777777777777777777777777777776554<;;=#+++8888",
".......+;>>>>>>25777777777777777777777777777777777752>>;+...8888",
".......+;>>>>>>25777777777777777777777777777777777752>>;+...8888",
" X.....O&;;;>>>14556777777777777777777777777777765541>>;+...8888",
":888...oO++$;>>,122367777777777777777777777777763221,>>;+.......",
"8888.......+;>>>>>>257777777777777777777777777752>>>>>>;+.......",
"8888.......+;>>>>>>257777777777777777777777777752>>>>>>;+.......",
"8888...oO++$;>>>>>>257777777777777777777777777752>>>>>>;+.......",
"8888...O&;;;>>>>>>>257777777777777777777777777752>>>>>>;+...8888",
"8888...+;>>>>>>>>>>257777777777777777777777777752>>>>>>;+...8888",
"8888...+;>>>>>>>>>>257777777777777777777777777752>>>>>>;+...8888",
"8888...+;>>>>>>>>>>257777777777777777777777777752>>>>>>;+...8888"
};
