/* XPM */
static const char *explosion_arm_v_2_xpm[] = {
/* columns rows colors chars-per-pixel */
"64 64 4 1 ",
"  c #B53120",
". c #FF8170",
"X c #FFCCC5",
"o c None",
/* pixels */
"oooooooooooooooo    ........XXXXXXXX....        oooooooooooooooo",
"oooooooooooooooo    ........XXXXXXXX....        oooooooooooooooo",
"oooooooooooooooo    ........XXXXXXXX....        oooooooooooooooo",
"oooooooooooooooo    ........XXXXXXXX....        oooooooooooooooo",
"oooooooooooooooo        ....XXXXXXXX........        oooooooooooo",
"oooooooooooooooo        ....XXXXXXXX........        oooooooooooo",
"oooooooooooooooo        ....XXXXXXXX........        oooooooooooo",
"oooooooooooooooo        ....XXXXXXXX........        oooooooooooo",
"oooooooooooo        ........XXXXXXXX........    oooooooooooooooo",
"oooooooooooo        ........XXXXXXXX........    oooooooooooooooo",
"oooooooooooo        ........XXXXXXXX........    oooooooooooooooo",
"oooooooooooo        ........XXXXXXXX........    oooooooooooooooo",
"oooooooooooooooo    ....XXXXXXXXXXXX........        oooooooooooo",
"oooooooooooooooo    ....XXXXXXXXXXXX........        oooooooooooo",
"oooooooooooooooo    ....XXXXXXXXXXXX........        oooooooooooo",
"oooooooooooooooo    ....XXXXXXXXXXXX........        oooooooooooo",
"oooooooooooooooo    ........XXXXXXXX....            oooooooooooo",
"oooooooooooooooo    ........XXXXXXXX....            oooooooooooo",
"oooooooooooooooo    ........XXXXXXXX....            oooooooooooo",
"oooooooooooooooo    ........XXXXXXXX....            oooooooooooo",
"oooooooooooooooo    ........XXXXXXXX........    oooooooooooooooo",
"oooooooooooooooo    ........XXXXXXXX........    oooooooooooooooo",
"oooooooooooooooo    ........XXXXXXXX........    oooooooooooooooo",
"oooooooooooooooo    ........XXXXXXXX........    oooooooooooooooo",
"oooooooooooo        ........XXXXXXXXXXXX....        oooooooooooo",
"oooooooooooo        ........XXXXXXXXXXXX....        oooooooooooo",
"oooooooooooo        ........XXXXXXXXXXXX....        oooooooooooo",
"oooooooooooo        ........XXXXXXXXXXXX....        oooooooooooo",
"oooooooooooo        ........XXXXXXXX........        oooooooooooo",
"oooooooooooo        ........XXXXXXXX........        oooooooooooo",
"oooooooooooo        ........XXXXXXXX........        oooooooooooo",
"oooooooooooo        ........XXXXXXXX........        oooooooooooo",
"oooooooooooooooo    ........XXXXXXXX....        oooooooooooooooo",
"oooooooooooooooo    ........XXXXXXXX....        oooooooooooooooo",
"oooooooooooooooo    ........XXXXXXXX....        oooooooooooooooo",
"oooooooooooooooo    ........XXXXXXXX....        oooooooooooooooo",
"oooooooooooooooo        ....XXXXXXXX........        oooooooooooo",
"oooooooooooooooo        ....XXXXXXXX........        oooooooooooo",
"oooooooooooooooo        ....XXXXXXXX........        oooooooooooo",
"oooooooooooooooo        ....XXXXXXXX........        oooooooooooo",
"oooooooooooo        ........XXXXXXXX........    oooooooooooooooo",
"oooooooooooo        ........XXXXXXXX........    oooooooooooooooo",
"oooooooooooo        ........XXXXXXXX........    oooooooooooooooo",
"oooooooooooo        ........XXXXXXXX........    oooooooooooooooo",
"oooooooooooooooo    ....XXXXXXXXXXXX........        oooooooooooo",
"oooooooooooooooo    ....XXXXXXXXXXXX........        oooooooooooo",
"oooooooooooooooo    ....XXXXXXXXXXXX........        oooooooooooo",
"oooooooooooooooo    ....XXXXXXXXXXXX........        oooooooooooo",
"oooooooooooooooo    ........XXXXXXXX....            oooooooooooo",
"oooooooooooooooo    ........XXXXXXXX....            oooooooooooo",
"oooooooooooooooo    ........XXXXXXXX....            oooooooooooo",
"oooooooooooooooo    ........XXXXXXXX....            oooooooooooo",
"oooooooooooooooo    ........XXXXXXXX........    oooooooooooooooo",
"oooooooooooooooo    ........XXXXXXXX........    oooooooooooooooo",
"oooooooooooooooo    ........XXXXXXXX........    oooooooooooooooo",
"oooooooooooooooo    ........XXXXXXXX........    oooooooooooooooo",
"oooooooooooo        ........XXXXXXXXXXXX....        oooooooooooo",
"oooooooooooo        ........XXXXXXXXXXXX....        oooooooooooo",
"oooooooooooo        ........XXXXXXXXXXXX....        oooooooooooo",
"oooooooooooo        ........XXXXXXXXXXXX....        oooooooooooo",
"oooooooooooooooo        ....XXXXXXXX....        oooooooooooooooo",
"oooooooooooooooo        ....XXXXXXXX....        oooooooooooooooo",
"oooooooooooooooo        ....XXXXXXXX....        oooooooooooooooo",
"oooooooooooooooo        ....XXXXXXXX....        oooooooooooooooo"
};
