/* XPM */
static const char *explosion_hand_up_2_xpm[] = {
/* columns rows colors chars-per-pixel */
"64 64 20 1 ",
"  c #B53120",
". c #B63221",
"X c #BC3C2D",
"o c #BD3D2D",
"O c #C34637",
"+ c #C34739",
"@ c #F57868",
"# c #F57968",
"$ c #FA7D6C",
"% c #FF8170",
"& c #FF8271",
"* c #FA8576",
"= c #FF8979",
"- c #FF897A",
"; c #FF9083",
": c #FFC2BB",
"> c #FFC7C0",
", c #FFC8C0",
"< c #FFCCC5",
"1 c None",
/* pixels */
"1111111111111111111111111111111111111111111111111111111111111111",
"1111111111111111111111111111111111111111111111111111111111111111",
"1111111111111111111111111111111111111111111111111111111111111111",
"1111111111111111111111111111111111111111111111111111111111111111",
"1111111111111111111111111111111111111111111111111111111111111111",
"1111111111111111111111111111111111111111111111111111111111111111",
"1111111111111111111111111111111111111111111111111111111111111111",
"1111111111111111111111111111111111111111111111111111111111111111",
"1111111111111111111111111111111111111111111111111111111111111111",
"1111111111111111111111111111111111111111111111111111111111111111",
"1111111111111111111111111111111111111111111111111111111111111111",
"1111111111111111111111111111111111111111111111111111111111111111",
"1111111111111111111111111111111111111111111111111111111111111111",
"1111111111111111111111111111111111111111111111111111111111111111",
"1111111111111111111111111111111111111111111111111111111111111111",
"1111111111111111111111111111111111111111111111111111111111111111",
"1111111111111111111111111111111111111111111111111111111111111111",
"1111111111111111111111111111111111111111111111111111111111111111",
"1111111111111111111111111111111111111111111111111111111111111111",
"1111111111111111111111111111111111111111111111111111111111111111",
"1111111111111111    1111111111111111    111111111111111111111111",
"1111111111111111    1111111111111111    111111111111111111111111",
"1111111111111111    1111111111111111    111111111111111111111111",
"1111111111111111    1111111111111111    111111111111111111111111",
"1111111111111111        1111            1111        111111111111",
"1111111111111111        1111            1111        111111111111",
"1111111111111111        1111            1111        111111111111",
"1111111111111111        1111oooooooX.   1111        111111111111",
"11111111111111111111       o#$$$$$$@X               111111111111",
"11111111111111111111       o$%%%%%%$o               111111111111",
"11111111111111111111       o$%%%%%%$o               111111111111",
"11111111111111111111   .Xoo+*------*+ooX.           111111111111",
"111111111111           X@$$*:>>>>>>:*$$@X       1111111111111111",
"111111111111           o$%%-><<<<<<>-%%$o       1111111111111111",
"111111111111           o$%%-><<<<<<>-%%$o       1111111111111111",
"111111111111       .Xoo+*--;,<<<<<<,;--*+ooX.   1111111111111111",
"1111111111111111   X@$$*:>>,<<<<<<<<,>>:*$$@X       111111111111",
"1111111111111111   o$%%-><<<<<<<<<<<<<<>-%%$o       111111111111",
"1111111111111111   o$%%-><<<<<<<<<<<<<<>-%%$o       111111111111",
"1111111111111111   o$%%-><<<<<<<<<<<,>>:=%%$o       111111111111",
"111111111111       o$%%-><<<<<<<<<<,;--=&%%$o       111111111111",
"111111111111       o$%%-><<<<<<<<<<>-%%%%%%$o       111111111111",
"111111111111       o$%%-><<<<<<<<<<>-%%%%%%$o       111111111111",
"111111111111       o$%%=:>>,<<<<<<<>-%%%%%%$o       111111111111",
"1111111111111111   o$%%&=--;,<<<<<<>-%%%%%%$o   1111111111111111",
"1111111111111111   o$%%%%%%-><<<<<<>-%%%%%%$o   1111111111111111",
"1111111111111111   o$%%%%%%-><<<<<<>-%%%%%%$o   1111111111111111",
"1111111111111111   X@$$$%%%-><<<<<<>-%%%%%%$o   1111111111111111",
"111111111111       .XooO$%%-><<<<<<>-%%%%%%$o   1111111111111111",
"111111111111           o$%%-><<<<<<>-%%%%%%$o   1111111111111111",
"111111111111           o$%%-><<<<<<>-%%%%%%$o   1111111111111111",
"111111111111       .XooO$%%-><<<<<<,;--=&%%$o   1111111111111111",
"111111111111       X@$$$%%%-><<<<<<<,>>:=%%$o   1111111111111111",
"111111111111       o$%%%%%%-><<<<<<<<<<>-%%$o   1111111111111111",
"111111111111       o$%%%%%%-><<<<<<<<<<>-%%$o   1111111111111111",
"111111111111       o$%%%%%%-><<<<<<<,>>:=%%$o   1111111111111111",
"1111111111111111   o$%%%%%%-><<<<<<,;--=&%%$o   1111111111111111",
"1111111111111111   o$%%%%%%-><<<<<<>-%%%%%%$o   1111111111111111",
"1111111111111111   o$%%%%%%-><<<<<<>-%%%%%%$o   1111111111111111",
"1111111111111111   o$%%%%%%-><<<<<<>-%%%$$$@X   1111111111111111",
"111111111111       o$%%%%%%-><<<<<<>-%%$OooX.       111111111111",
"111111111111       o$%%%%%%-><<<<<<>-%%$o           111111111111",
"111111111111       o$%%%%%%-><<<<<<>-%%$o           111111111111",
"111111111111       o$%%%%%%-><<<<<<>-%%$o           111111111111"
};
