/* XPM */
static const char *explosion_hand_right_3_xpm[] = {
/* columns rows colors chars-per-pixel */
"64 64 44 1 ",
"  c #B53120",
". c #B63221",
"X c #B63323",
"o c #B73424",
"O c #B63526",
"+ c #C04233",
"@ c #C24435",
"# c #C34536",
"$ c #C34637",
"% c #CC5142",
"& c #CC5447",
"* c #C35F57",
"= c #CC655B",
"- c #EE7262",
"; c #EF7363",
": c #F67968",
"> c #F67A69",
", c #F67A6A",
"< c #F77A6A",
"1 c #F77D6D",
"2 c #FE806F",
"3 c #FF8170",
"4 c #FF8171",
"5 c #FF8271",
"6 c #FF8272",
"7 c #FF8373",
"8 c #F7877A",
"9 c #FE8C7E",
"0 c #FF8D7F",
"q c #FF8F81",
"w c #FF8F82",
"e c #FF988C",
"r c #FF9A8E",
"t c #F7B7B0",
"y c #FEBBB3",
"u c #FFBBB3",
"i c #FFBDB5",
"p c #F6BFB8",
"a c #FFC3BB",
"s c #FFC3BC",
"d c #FFC5BD",
"f c #FFCBC4",
"g c #FFCCC5",
"h c None",
/* pixels */
"hhhhhhhhhhhhhhhhhhhhhhhhhhhhhhhhhhhhhhhhhhhhhhhhhhhhhhhh        ",
"hhhhhhhhhhhhhhhhhhhhhhhhhhhhhhhhhhhhhhhhhhhhhhhhhhhhhhhh        ",
"hhhhhhhhhhhhhhhhhhhhhhhhhhhhhhhhhhhhhhhhhhhhhhhhhhhhhhhh        ",
"hhhhhhhhhhhhhhhhhhhhhhhhhhhhhhhhhhhhhhhhhhhhhhhhhhhhhhhh        ",
"hhhhhhhhhhhhhhhhhhhh    hhhhhhhh        hhhhhhhh            hhhh",
"hhhhhhhhhhhhhhhhhhhh    hhhhhhhh        hhhhhhhh            hhhh",
"hhhhhhhhhhhhhhhhhhhh    hhhhhhhh        hhhhhhhh            hhhh",
"hhhhhhhhhhhhhhhhhhhh    hhhhhhhh        hhhhhhhh            hhhh",
"    hhhh        hhhhhhhh    hhhh                    hhhhhhhhhhhh",
"    hhhh        hhhhhhhh    hhhh                    hhhhhhhhhhhh",
"    hhhh        hhhhhhhh    hhhh                    hhhhhhhhhhhh",
"    hhhh        hhhhhhhh    hhhh                    hhhhhhhhhhhh",
"                                                        hhhhhhhh",
"                                                        hhhhhhhh",
"....    ....    ....                                    hhhhhhhh",
"@@@+o  o+@@+o  o+@@+o                                   hhhhhhhh",
">>:-+..+-::-+..+-::-+.                              hhhh    hhhh",
"332:@..@:22:@..@:22:@.                              hhhh    hhhh",
"333>#XX#>33>$OO$>33>#X......    ........            hhhh    hhhh",
"333<%##%<331=**=133<%#@@@@@+o  o+@@@@@@+o           hhhh    hhhh",
"3332<>><2359tppt9532<>>>>>:-+..+-:>>>>:-+.          hhhhhhhhhhhh",
"33333333335qaffaq5333333332:@..@:233332:@.          hhhhhhhhhhhh",
"55555555335qsggsq5335555554,#XX#,455333>#X..        hhhhhhhhhhhh",
"qqqqqqq0735qsggsq5370qqqqqq8&##&8qq0733<%#@+o       hhhhhhhhhhhh",
"ssssssau055qsggsq550uassssay8,,8yaau0532<>:-+.          hhhhhhhh",
"ggggggfaq55qsggsq55qafggggfaq44qaffaq533332:@.          hhhhhhhh",
"gggggggsw66wsggsw66wsggggggsw66wsggsq533332:@.          hhhhhhhh",
"gggggggdrwwrdggdrwwrdggggggdrwwrdggsq532<>:-+.          hhhhhhhh",
"gggggggfdssdfggfdssdfggggggfdssdfggsq53<%#@+o   hhhhhhhh    hhhh",
"gggggggggggggggggggggggggggggggggggsq53>#X..    hhhhhhhh    hhhh",
"gggggggggggggggggggggggggggggggggggsq53>@.      hhhhhhhh    hhhh",
"gggggggggggggggggggggggggggggggggggsq53>@.      hhhhhhhh    hhhh",
"gggggggggggggggggggggggggggggggggggsq53>@.          hhhhhhhhhhhh",
"gggggggggggggggggggggggggggggggggggsq53>@.          hhhhhhhhhhhh",
"gggggggggggggggggggggggggggggggggggsq53>#X..        hhhhhhhhhhhh",
"gggggggfdssdfggggggggggggggfdssdfggsq53<%#@+o       hhhhhhhhhhhh",
"gggggggdrwwrdggggggggggggggdrwwrdggsq532<>:-+.          hhhhhhhh",
"gggggggsw66wsggggggggggggggsw66wsggsq533332:@.          hhhhhhhh",
"ggggggfaw66wafggggggggggggfaq55qaffaq533332:@.          hhhhhhhh",
"gggfdsaiewweiasdfggggggfdsau0550uaau0532<>:-+.          hhhhhhhh",
"gggdrwweiaaiewwrdggggggdrwq073370qq0733<%#@+o   hhhhhhhhhhhhhhhh",
"gggsw66waffaw66wsggggggsw65533335555333>#X..    hhhhhhhhhhhhhhhh",
"ggfaq44qaffaq55qafggggfaq53333333333333>@.      hhhhhhhhhhhhhhhh",
"ssay8,,8yaau0550uassssau0532<>>>>>><233>@.      hhhhhhhhhhhhhhhh",
"qqq8&##&8qq073370qqqqqq0733<%#@@@@#%<33>@.              hhhhhhhh",
"554,#XX#,455333355555555333>#X....X#>33>@.              hhhhhhhh",
"332:@..@:233333333333333332:@.    .@:22:@.              hhhhhhhh",
">>:-+..+-:>>>>><2332<>>>>>:-+.    .+-::-+.              hhhhhhhh",
"@@@+o  o+@@@@@#%<33<%#@@@@@+o      o+@@+o               hhhhhhhh",
"....    ......X#>33>#X......        ....                hhhhhhhh",
"              .@:22:@.                                  hhhhhhhh",
"              .+-::;@.                                  hhhhhhhh",
"    hhhh       o+@@@hhhh    hhhh                            hhhh",
"    hhhh        ....hhhh    hhhh                            hhhh",
"    hhhh            hhhh    hhhh                            hhhh",
"    hhhh            hhhh    hhhh                            hhhh",
"hhhhhhhh        hhhhhhhh    hhhhhhhh    hhhhhhhh                ",
"hhhhhhhh        hhhhhhhh    hhhhhhhh    hhhhhhhh                ",
"hhhhhhhh        hhhhhhhh    hhhhhhhh    hhhhhhhh                ",
"hhhhhhhh        hhhhhhhh    hhhhhhhh    hhhhhhhh                ",
"hhhhhhhhhhhhhhhhhhhhhhhhhhhhhhhhhhhhhhhh    hhhhhhhh    hhhh    ",
"hhhhhhhhhhhhhhhhhhhhhhhhhhhhhhhhhhhhhhhh    hhhhhhhh    hhhh    ",
"hhhhhhhhhhhhhhhhhhhhhhhhhhhhhhhhhhhhhhhh    hhhhhhhh    hhhh    ",
"hhhhhhhhhhhhhhhhhhhhhhhhhhhhhhhhhhhhhhhh    hhhhhhhh    hhhh    "
};
