/* XPM */
static const char *explosion_arm_v_1_xpm[] = {
/* columns rows colors chars-per-pixel */
"64 64 4 1 ",
"  c #B53120",
". c #388700",
"X c #FF8170",
"o c None",
/* pixels */
"oooooooooooooooooooo    XXXXXXXXXXXXXXXX    oooooooooooooooooooo",
"oooooooooooooooooooo    XXXXXXXXXXXXXXXX    oooooooooooooooooooo",
"oooooooooooooooooooo    XXXXXXXXXXXXXXXX    oooooooooooooooooooo",
"oooooooooooooooooooo    XXXXXXXXXXXXXXXX    oooooooooooooooooooo",
"oooooooooooooooo    oooo    XXXXXXXXXXXX    oooooooooooooooooooo",
"oooooooooooooooo    oooo    XXXXXXXXXXXX    oooooooooooooooooooo",
"oooooooooooooooo    oooo    XXXXXXXXXXXX    oooooooooooooooooooo",
"oooooooooooooooo    oooo    XXXXXXXXXXXX    oooooooooooooooooooo",
"oooooooooooooooooooo    XXXXXXXXXXXX        oooooooooooooooooooo",
"oooooooooooooooooooo    XXXXXXXXXXXX        oooooooooooooooooooo",
"oooooooooooooooooooo    XXXXXXXXXXXX        oooooooooooooooooooo",
"oooooooooooooooooooo    XXXXXXXXXXXX        oooooooooooooooooooo",
"oooooooooooooooooooo        XXXXXXXXXXXX    oooooooooooooooooooo",
"oooooooooooooooooooo        XXXXXXXXXXXX    oooooooooooooooooooo",
"oooooooooooooooooooo        XXXXXXXXXXXX    oooooooooooooooooooo",
"oooooooooooooooooooo        XXXXXXXXXXXX    oooooooooooooooooooo",
"oooooooooooooooooooooooo    XXXXXXXX    oooo    oooooooooooooooo",
"oooooooooooooooooooooooo    XXXXXXXX    oooo    oooooooooooooooo",
"oooooooooooooooooooooooo    XXXXXXXX    oooo    oooooooooooooooo",
"oooooooooooooooooooooooo    XXXXXXXX    oooo    oooooooooooooooo",
"oooooooooooooooo        XXXXXXXXXXXXXXXX    oooooooooooooooooooo",
"oooooooooooooooo        XXXXXXXXXXXXXXXX    oooooooooooooooooooo",
"oooooooooooooooo        XXXXXXXXXXXXXXXX    oooooooooooooooooooo",
"oooooooooooooooo        XXXXXXXXXXXXXXXX    oooooooooooooooooooo",
"oooooooooooooooooooo    XXXXXXXXXXXXXXXX    oooooooooooooooooooo",
"oooooooooooooooooooo    XXXXXXXXXXXXXXXX    oooooooooooooooooooo",
"oooooooooooooooooooo    XXXXXXXXXXXXXXXX    oooooooooooooooooooo",
"oooooooooooooooooooo    XXXXXXXXXXXXXXXX    oooooooooooooooooooo",
"oooooooooooooooooooo        XXXXXXXX    oooooooooooooooooooooooo",
"oooooooooooooooooooo        XXXXXXXX    oooooooooooooooooooooooo",
"oooooooooooooooooooo        XXXXXXXX    oooooooooooooooooooooooo",
"oooooooooooooooooooo        XXXXXXXX    oooooooooooooooooooooooo",
"oooooooooooooooooooo    XXXXXXXXXXXXXXXX    oooooooooooooooooooo",
"oooooooooooooooooooo    XXXXXXXXXXXXXXXX    oooooooooooooooooooo",
"oooooooooooooooooooo    XXXXXXXXXXXXXXXX    oooooooooooooooooooo",
"oooooooooooooooooooo    XXXXXXXXXXXXXXXX    oooooooooooooooooooo",
"oooooooooooooooo    oooo    XXXXXXXXXXXX    oooooooooooooooooooo",
"oooooooooooooooo    oooo    XXXXXXXXXXXX    oooooooooooooooooooo",
"oooooooooooooooo    oooo    XXXXXXXXXXXX    oooooooooooooooooooo",
"oooooooooooooooo    oooo    XXXXXXXXXXXX    oooooooooooooooooooo",
"oooooooooooooooooooo    XXXXXXXXXXXX        oooooooooooooooooooo",
"oooooooooooooooooooo    XXXXXXXXXXXX        oooooooooooooooooooo",
"oooooooooooooooooooo    XXXXXXXXXXXX        oooooooooooooooooooo",
"oooooooooooooooooooo    XXXXXXXXXXXX        oooooooooooooooooooo",
"oooooooooooooooooooo        XXXXXXXXXXXX    oooooooooooooooooooo",
"oooooooooooooooooooo        XXXXXXXXXXXX    oooooooooooooooooooo",
"oooooooooooooooooooo        XXXXXXXXXXXX    oooooooooooooooooooo",
"oooooooooooooooooooo        XXXXXXXXXXXX    oooooooooooooooooooo",
"oooooooooooooooooooooooo    XXXXXXXX    oooo    oooooooooooooooo",
"oooooooooooooooooooooooo    XXXXXXXX    oooo    oooooooooooooooo",
"oooooooooooooooooooooooo    XXXXXXXX    oooo    oooooooooooooooo",
"oooooooooooooooo.ooooooo    XXXXXXXX    oooo    oooooooooooooooo",
"oooooooooooooooo        XXXXXXXXXXXXXXXX    oooooooooooooooooooo",
"oooooooooooooooo        XXXXXXXXXXXXXXXX    oooooooooooooooooooo",
"oooooooooooooooo        XXXXXXXXXXXXXXXX    oooooooooooooooooooo",
"oooooooooooooooo        XXXXXXXXXXXXXXXX    oooooooooooooooooooo",
"oooooooooooooooooooo    XXXXXXXXXXXXXXXX    oooooooooooooooooooo",
"oooooooooooooooooooo    XXXXXXXXXXXXXXXX    oooooooooooooooooooo",
"oooooooooooooooooooo    XXXXXXXXXXXXXXXX    oooooooooooooooooooo",
"oooooooooooooooooooo    XXXXXXXXXXXXXXXX    oooooooooooooooooooo",
"oooooooooooooooooooo        XXXXXXXX    oooooooooooooooooooooooo",
"oooooooooooooooooooo        XXXXXXXX    oooooooooooooooooooooooo",
"oooooooooooooooooooo        XXXXXXXX    oooooooooooooooooooooooo",
"oooooooooooooooooooo        XXXXXXXX    oooooooooooooooooooooooo"
};
