/* XPM */
static const char *explosion_hand_left_2_xpm[] = {
/* columns rows colors chars-per-pixel */
"64 64 4 1 ",
"  c #B53120",
". c #FF8170",
"X c #FFCCC5",
"o c None",
/* pixels */
"oooooooooooooooooooooooooooooooooooooooooooooooooooooooooooooooo",
"oooooooooooooooooooooooooooooooooooooooooooooooooooooooooooooooo",
"oooooooooooooooooooooooooooooooooooooooooooooooooooooooooooooooo",
"oooooooooooooooooooooooooooooooooooooooooooooooooooooooooooooooo",
"oooooooooooooooooooooooooooooooooooooooooooooooooooooooooooooooo",
"oooooooooooooooooooooooooooooooooooooooooooooooooooooooooooooooo",
"oooooooooooooooooooooooooooooooooooooooooooooooooooooooooooooooo",
"oooooooooooooooooooooooooooooooooooooooooooooooooooooooooooooooo",
"oooooooooooooooooooooooooooooooooooooooooooooooooooooooooooooooo",
"oooooooooooooooooooooooooooooooooooooooooooooooooooooooooooooooo",
"oooooooooooooooooooooooooooooooooooooooooooooooooooooooooooooooo",
"oooooooooooooooooooooooooooooooooooooooooooooooooooooooooooooooo",
"oooooooooooooooooooooooo        oooo        oooooooooooooooo    ",
"oooooooooooooooooooooooo        oooo        oooooooooooooooo    ",
"oooooooooooooooooooooooo        oooo        oooooooooooooooo    ",
"oooooooooooooooooooooooo        oooo        oooooooooooooooo    ",
"oooooooooooooooooooooooo                                        ",
"oooooooooooooooooooooooo                                        ",
"oooooooooooooooooooooooo                                        ",
"oooooooooooooooooooooooo                                        ",
"oooooooooooooooooooooooooooo        ........................    ",
"oooooooooooooooooooooooooooo        ........................    ",
"oooooooooooooooooooooooooooo        ........................    ",
"oooooooooooooooooooooooooooo        ........................    ",
"oooooooooooooooooooo            ....XXXX............XXXX........",
"oooooooooooooooooooo            ....XXXX............XXXX........",
"oooooooooooooooooooo            ....XXXX............XXXX........",
"oooooooooooooooooooo            ....XXXX............XXXX........",
"oooooooooooooooooooooooo    ....XXXXXXXXXXXXXXXXXXXXXXXXXXXXXXXX",
"oooooooooooooooooooooooo    ....XXXXXXXXXXXXXXXXXXXXXXXXXXXXXXXX",
"oooooooooooooooooooooooo    ....XXXXXXXXXXXXXXXXXXXXXXXXXXXXXXXX",
"oooooooooooooooooooooooo    ....XXXXXXXXXXXXXXXXXXXXXXXXXXXXXXXX",
"oooooooooooooooooooooooo    ....XXXXXXXXXXXXXXXXXXXXXXXXXXXXXXXX",
"oooooooooooooooooooooooo    ....XXXXXXXXXXXXXXXXXXXXXXXXXXXXXXXX",
"oooooooooooooooooooooooo    ....XXXXXXXXXXXXXXXXXXXXXXXXXXXXXXXX",
"oooooooooooooooooooooooo    ....XXXXXXXXXXXXXXXXXXXXXXXXXXXXXXXX",
"oooooooooooooooooooooooooooo    ....XXXXXXXX....................",
"oooooooooooooooooooooooooooo    ....XXXXXXXX....................",
"oooooooooooooooooooooooooooo    ....XXXXXXXX....................",
"oooooooooooooooooooooooooooo    ....XXXXXXXX....................",
"oooooooooooooooooooooooo            ............    ............",
"oooooooooooooooooooooooo            ............    ............",
"oooooooooooooooooooooooo            ............    ............",
"oooooooooooooooooooooooo            ............    ............",
"oooooooooooooooooooo        oooo                                ",
"oooooooooooooooooooo        oooo                                ",
"oooooooooooooooooooo        oooo                                ",
"oooooooooooooooooooo        oooo                                ",
"oooooooooooooooooooooooooooooooo    oooo    oooo        oooo    ",
"oooooooooooooooooooooooooooooooo    oooo    oooo        oooo    ",
"oooooooooooooooooooooooooooooooo    oooo    oooo        oooo    ",
"oooooooooooooooooooooooooooooooo    oooo    oooo        oooo    ",
"oooooooooooooooooooooooooooooooooooooooooooooooooooooooooooooooo",
"oooooooooooooooooooooooooooooooooooooooooooooooooooooooooooooooo",
"oooooooooooooooooooooooooooooooooooooooooooooooooooooooooooooooo",
"oooooooooooooooooooooooooooooooooooooooooooooooooooooooooooooooo",
"oooooooooooooooooooooooooooooooooooooooooooooooooooooooooooooooo",
"oooooooooooooooooooooooooooooooooooooooooooooooooooooooooooooooo",
"oooooooooooooooooooooooooooooooooooooooooooooooooooooooooooooooo",
"oooooooooooooooooooooooooooooooooooooooooooooooooooooooooooooooo",
"oooooooooooooooooooooooooooooooooooooooooooooooooooooooooooooooo",
"oooooooooooooooooooooooooooooooooooooooooooooooooooooooooooooooo",
"oooooooooooooooooooooooooooooooooooooooooooooooooooooooooooooooo",
"oooooooooooooooooooooooooooooooooooooooooooooooooooooooooooooooo"
};
