/* XPM */
static const char *explosion_arm_h_4_xpm[] ={
/* columns rows colors chars-per-pixel */
"64 64 23 1 ",
"  c #B53120",
". c #B63221",
"X c #BC3C2D",
"o c #BD3D2D",
"O c #C34536",
"+ c #C34637",
"@ c #C34739",
"# c #F57868",
"$ c #F57968",
"% c #F67968",
"& c #F97C6C",
"* c #FA7D6C",
"= c #FF8170",
"- c #FF8271",
"; c #FA8576",
": c #FF8979",
"> c #FF897A",
", c #FF9083",
"< c #FFC2BB",
"1 c #FFC7C0",
"2 c #FFC8C0",
"3 c #FFCCC5",
"4 c None",
/* pixels */
"    4444    44444444    44444444    4444    44444444    44444444",
"    4444    44444444    44444444    4444    44444444    44444444",
"    4444    44444444    44444444    4444    44444444    44444444",
"oooo4444    44444444   .44444444oooo4444    44444444   .44444444",
"***$o                  X&==*o  o$**$o                  X&==*o   ",
"===*o                  o*==*o  o*==*o                  o*==*o   ",
"===*o                  o*==*o  o*==*o                  o*==*o   ",
"***%Ooooooooooooooooooo+*==*+ooO%**%Ooooooooooooooooooo+*==*+ooo",
"oooO%*******************====***%OooO%*******************====****",
"   o*==========================*o  o*===========================",
"   o*==========================*o  o*===========================",
"ooo@;>>:-======-:>>:-==-:>>:-==*+oo@;>>:-======-:>>:-==-:>>:-===",
"***;<11<:======:<11<:==:<11<:===***;<11<:======:<11<:==:<11<:===",
"===>1331>======>1331>==>1331>======>1331>======>1331>==>1331>===",
"===>1331>======>1331>==>1331>======>1331>======>1331>==>1331>===",
">>>,2332,>>>>>>,2332,>>,2332,>>>>>>,2332,>>>>>>,2332,>>,2332,>>>",
"1112333321111112333321123333211111123333211111123333211233332111",
"3333333333333333333333333333333333333333333333333333333333333333",
"3333333333333333333333333333333333333333333333333333333333333333",
"3333333333333333333333333333333333333333333333333333333333333333",
"3333333333333333333333333333333333333333333333333333333333333333",
"3333333333333333333333333333333333333333333333333333333333333333",
"3333333333333333333333333333333333333333333333333333333333333333",
"3333333333333333333333333333333333333333333333333333333333333333",
"3333333333333333333333333333333333333333333333333333333333333333",
"3333333333333333333333333333333333333333333333333333333333333333",
"3333333333333333333333333333333333333333333333333333333333333333",
"3333333333333333333333333333333333333333333333333333333333333333",
"3333333333333333333333333333333333333333333333333333333333333333",
"3333333333333333333333333333333333333333333333333333333333333333",
"3333333333333333333333333333333333333333333333333333333333333333",
"3333333333333333333333333333333333333333333333333333333333333333",
"3333333333333333333333333333333333333333333333333333333333333333",
"3333333333333333333333333333333333333333333333333333333333333333",
"3333333333333333333333333333333333333333333333333333333333333333",
"3333333333333333333333333333333333333333333333333333333333333333",
"3333333333333333333333333333333333333333333333333333333333333333",
"3333333333333333333333333333333333333333333333333333333333333333",
"3333333333333333333333333333333333333333333333333333333333333333",
"3333333333333333333333333333333333333333333333333333333333333333",
"3333333333333333333333333333333333333333333333333333333333333333",
"3333333333333333333333333333333333333333333333333333333333333333",
"3333333333333333333333333333333333333333333333333333333333333333",
"3333333321111112333321123333333333333333211111123333211233333333",
"33333332,>>>>>>,2332,>>,2333333333333332,>>>>>>,2332,>>,23333333",
"33333331>======>1331>==>1333333333333331>======>1331>==>13333333",
"33333331>======>1331>==>1333333333333331>======>1331>==>13333333",
"1111111<:======:<11<:==:<11111111111111<:======:<11<:==:<1111111",
">>>>>>>:-======-:>>:-==-:>>>>>>>>>>>>>>:-======-:>>:-==-:>>>>>>>",
"================================================================",
"================================================================",
"****====****================********====****================****",
"ooo+*==*+oo+*==============*+oooooo+*==*+oo+*==============*+ooo",
"   o*==*o  o*==============*o      o*==*o  o*==============*o   ",
"   o*==*o  o*==============*o      o*==*o  o*==============*o   ",
"   X#**#X  X#**************#X      X#**#X  X#**************#X   ",
"   .XooX.  .XooooooooooooooX.      .XooX.  .XooooooooooooooX.   ",
"                                                                ",
"                                                                ",
"                                                                ",
"4444    44444444    4444    44444444    44444444    4444    4444",
"4444    44444444    4444    44444444    44444444    4444    4444",
"4444    44444444    4444    44444444    44444444    4444    4444",
"4444    44444444    4444    44444444    44444444    4444    4444"
};
