/* XPM */
static const char *explosion_center_2_xpm[] = {
/* columns rows colors chars-per-pixel */
"64 64 4 1 ",
"  c #B53120",
". c #FF8170",
"X c #FFCCC5",
"o c None",
/* pixels */
"oooooooooooooooo        ....XXXXXXXX....        oooooooooooooooo",
"oooooooooooooooo        ....XXXXXXXX....        oooooooooooooooo",
"oooooooooooooooo        ....XXXXXXXX....        oooooooooooooooo",
"oooooooooooooooo        ....XXXXXXXX....        oooooooooooooooo",
"oooooooooooo            ....XXXXXXXX....XXXX    oooooooooooooooo",
"oooooooooooo            ....XXXXXXXX....XXXX    oooooooooooooooo",
"oooooooooooo            ....XXXXXXXX....XXXX    oooooooooooooooo",
"oooooooooooo            ....XXXXXXXX....XXXX    oooooooooooooooo",
"oooooooo            XXXX....XXXXXXXXXXXX....        oooooooooooo",
"oooooooo            XXXX....XXXXXXXXXXXX....        oooooooooooo",
"oooooooo            XXXX....XXXXXXXXXXXX....        oooooooooooo",
"oooooooo            XXXX....XXXXXXXXXXXX....        oooooooooooo",
"oooo                ........XXXXXXXXXXXX....XXXXXXXX        oooo",
"oooo                ........XXXXXXXXXXXX....XXXXXXXX        oooo",
"oooo                ........XXXXXXXXXXXX....XXXXXXXX        oooo",
"oooo                ........XXXXXXXXXXXX....XXXXXXXX        oooo",
"            XXXX........XXXXXXXXXXXXXXXXXXXX....                ",
"            XXXX........XXXXXXXXXXXXXXXXXXXX....                ",
"            XXXX........XXXXXXXXXXXXXXXXXXXX....                ",
"            XXXX........XXXXXXXXXXXXXXXXXXXX....                ",
"        XXXXXXXX....XXXXXXXXXXXXXXXXXXXXXXXX........            ",
"        XXXXXXXX....XXXXXXXXXXXXXXXXXXXXXXXX........            ",
"        XXXXXXXX....XXXXXXXXXXXXXXXXXXXXXXXX........            ",
"        XXXXXXXX....XXXXXXXXXXXXXXXXXXXXXXXX........            ",
"....................XXXXXXXXXXXXXXXXXXXXXXXXXXXXXXXX............",
"....................XXXXXXXXXXXXXXXXXXXXXXXXXXXXXXXX............",
"....................XXXXXXXXXXXXXXXXXXXXXXXXXXXXXXXX............",
"....................XXXXXXXXXXXXXXXXXXXXXXXXXXXXXXXX............",
"XXXXXXXXXXXXXXXXXXXXXXXXXXXXXXXXXXXXXXXXXXXXXXXXXXXXXXXXXXXXXXXX",
"XXXXXXXXXXXXXXXXXXXXXXXXXXXXXXXXXXXXXXXXXXXXXXXXXXXXXXXXXXXXXXXX",
"XXXXXXXXXXXXXXXXXXXXXXXXXXXXXXXXXXXXXXXXXXXXXXXXXXXXXXXXXXXXXXXX",
"XXXXXXXXXXXXXXXXXXXXXXXXXXXXXXXXXXXXXXXXXXXXXXXXXXXXXXXXXXXXXXXX",
"XXXXXXXXXXXXXXXXXXXXXXXXXXXXXXXXXXXXXXXXXXXXXXXXXXXXXXXXXXXXXXXX",
"XXXXXXXXXXXXXXXXXXXXXXXXXXXXXXXXXXXXXXXXXXXXXXXXXXXXXXXXXXXXXXXX",
"XXXXXXXXXXXXXXXXXXXXXXXXXXXXXXXXXXXXXXXXXXXXXXXXXXXXXXXXXXXXXXXX",
"XXXXXXXXXXXXXXXXXXXXXXXXXXXXXXXXXXXXXXXXXXXXXXXXXXXXXXXXXXXXXXXX",
"............XXXXXXXXXXXXXXXXXXXXXXXXXXXXXXXXXXXXXXXX............",
"............XXXXXXXXXXXXXXXXXXXXXXXXXXXXXXXXXXXXXXXX............",
"............XXXXXXXXXXXXXXXXXXXXXXXXXXXXXXXXXXXXXXXX............",
"............XXXXXXXXXXXXXXXXXXXXXXXXXXXXXXXXXXXXXXXX............",
"        ........XXXXXXXXXXXXXXXXXXXXXXXXXXXX............        ",
"        ........XXXXXXXXXXXXXXXXXXXXXXXXXXXX............        ",
"        ........XXXXXXXXXXXXXXXXXXXXXXXXXXXX............        ",
"        ........XXXXXXXXXXXXXXXXXXXXXXXXXXXX............        ",
"            ............XXXXXXXXXXXXXXXXXXXX....                ",
"            ............XXXXXXXXXXXXXXXXXXXX....                ",
"            ............XXXXXXXXXXXXXXXXXXXX....                ",
"            ............XXXXXXXXXXXXXXXXXXXX....                ",
"oooo        XXXX    ....XXXXXXXXXXXXXXXX....    XXXX        oooo",
"oooo        XXXX    ....XXXXXXXXXXXXXXXX....    XXXX        oooo",
"oooo        XXXX    ....XXXXXXXXXXXXXXXX....    XXXX        oooo",
"oooo        XXXX    ....XXXXXXXXXXXXXXXX....    XXXX        oooo",
"oooooooo        XXXX....XXXXXXXXXXXXXXXX....XXXX    oooooooooooo",
"oooooooo        XXXX....XXXXXXXXXXXXXXXX....XXXX    oooooooooooo",
"oooooooo        XXXX....XXXXXXXXXXXXXXXX....XXXX    oooooooooooo",
"oooooooo        XXXX....XXXXXXXXXXXXXXXX....XXXX    oooooooooooo",
"oooooooooooo    XXXX........XXXXXXXX....            oooooooooooo",
"oooooooooooo    XXXX........XXXXXXXX....            oooooooooooo",
"oooooooooooo    XXXX........XXXXXXXX....            oooooooooooo",
"oooooooooooo    XXXX........XXXXXXXX....            oooooooooooo",
"oooooooooooooooo        ....XXXXXXXX....        oooooooooooooooo",
"oooooooooooooooo        ....XXXXXXXX....        oooooooooooooooo",
"oooooooooooooooo        ....XXXXXXXX....        oooooooooooooooo",
"oooooooooooooooo        ....XXXXXXXX....        oooooooooooooooo"
};
