/* XPM */
static const char *explosion_center_1_xpm[] = {
/* columns rows colors chars-per-pixel */
"64 64 4 1 ",
"  c #B53120",
". c #FF8170",
"X c #FFCCC5",
"o c None",
/* pixels */
"oooooooooooooooooooo    ................    oooooooooooooooooooo",
"oooooooooooooooooooo    ................    oooooooooooooooooooo",
"oooooooooooooooooooo    ................    oooooooooooooooooooo",
"oooooooooooooooooooo    ................    oooooooooooooooooooo",
"oooooooooooooooo            ............    oooooooooooooooooooo",
"oooooooooooooooo            ............    oooooooooooooooooooo",
"oooooooooooooooo            ............    oooooooooooooooooooo",
"oooooooooooooooo            ............    oooooooooooooooooooo",
"oooooooooooooooo    XXXX    XXXXXXXXXXXX        oooooooooooooooo",
"oooooooooooooooo    XXXX    XXXXXXXXXXXX        oooooooooooooooo",
"oooooooooooooooo    XXXX    XXXXXXXXXXXX        oooooooooooooooo",
"oooooooooooooooo    XXXX    XXXXXXXXXXXX        oooooooooooooooo",
"oooooooooooo            XXXXXXXX    XXXX....XXXX....oooooooooooo",
"oooooooooooo            XXXXXXXX    XXXX....XXXX....oooooooooooo",
"oooooooooooo            XXXXXXXX    XXXX....XXXX....oooooooooooo",
"oooooooooooo            XXXXXXXX    XXXX....XXXX....oooooooooooo",
"oooo        ....XXXX        XXXX                        oooooooo",
"oooo        ....XXXX        XXXX                        oooooooo",
"oooo        ....XXXX        XXXX                        oooooooo",
"oooo        ....XXXX        XXXX                        oooooooo",
"                XXXX    XXXX                XXXX....            ",
"                XXXX    XXXX                XXXX....            ",
"                XXXX    XXXX                XXXX....            ",
"                XXXX    XXXX                XXXX....            ",
"........    ........XXXXXXXX        XXXX    XXXXXXXX............",
"........    ........XXXXXXXX        XXXX    XXXXXXXX............",
"........    ........XXXXXXXX        XXXX    XXXXXXXX............",
"........    ........XXXXXXXX        XXXX    XXXXXXXX............",
"............XXXXXXXX    XXXX        XXXX    XXXX    XXXX........",
"............XXXXXXXX    XXXX        XXXX    XXXX    XXXX........",
"............XXXXXXXX    XXXX        XXXX    XXXX    XXXX........",
"............XXXXXXXX    XXXX        XXXX    XXXX    XXXX........",
"............    XXXX    XXXXXXXXXXXX    XXXXXXXX    XXXX........",
"............    XXXX    XXXXXXXXXXXX    XXXXXXXX    XXXX........",
"............    XXXX    XXXXXXXXXXXX    XXXXXXXX    XXXX........",
"............    XXXX    XXXXXXXXXXXX    XXXXXXXX    XXXX........",
"............    XXXX    XXXXXXXX        XXXXXXXXXXXX............",
"............    XXXX    XXXXXXXX        XXXXXXXXXXXX............",
"............    XXXX    XXXXXXXX        XXXXXXXXXXXX............",
"............    XXXX    XXXXXXXX        XXXXXXXXXXXX............",
"        ........    XXXX....    XXXX    XXXX    ........        ",
"        ........    XXXX....    XXXX    XXXX    ........        ",
"        ........    XXXX....    XXXX    XXXX    ........        ",
"        ........    XXXX....    XXXX    XXXX    ........        ",
"oooo        ....    XXXX            XXXXXXXX....            oooo",
"oooo        ....    XXXX            XXXXXXXX....            oooo",
"oooo        ....    XXXX            XXXXXXXX....            oooo",
"oooo        ....    XXXX            XXXXXXXX....            oooo",
"oooooooo        XXXX....XXXX        XXXX    ....        oooooooo",
"oooooooo        XXXX....XXXX        XXXX    ....        oooooooo",
"oooooooo        XXXX....XXXX        XXXX    ....        oooooooo",
"oooooooo        XXXX....XXXX        XXXX    ....        oooooooo",
"ooooooooooooXXXX    ....XXXX    XXXXXXXX....    XXXXoooooooooooo",
"ooooooooooooXXXX    ....XXXX    XXXXXXXX....    XXXXoooooooooooo",
"ooooooooooooXXXX    ....XXXX    XXXXXXXX....    XXXXoooooooooooo",
"ooooooooooooXXXX    ....XXXX    XXXXXXXX....    XXXXoooooooooooo",
"oooooooooooooooo        ................        oooooooooooooooo",
"oooooooooooooooo        ................        oooooooooooooooo",
"oooooooooooooooo        ................        oooooooooooooooo",
"oooooooooooooooo        ................        oooooooooooooooo",
"oooooooooooooooooooo        ............    oooooooooooooooooooo",
"oooooooooooooooooooo        ............    oooooooooooooooooooo",
"oooooooooooooooooooo        ............    oooooooooooooooooooo",
"oooooooooooooooooooo        ............    oooooooooooooooooooo"
};
