/* XPM */
static const char *enemy_a_3_xpm[] = {
/* columns rows colors chars-per-pixel */
"64 64 4 1 ",
"  c #000001",
". c #B71E7B",
"X c #FFFFFF",
"o c None",
/* pixels */
"oooooooooooo                                        oooooooooooo",
"oooooooooooo                                        oooooooooooo",
"oooooooooooo                                        oooooooooooo",
"oooooooooooo                                        oooooooooooo",
"oooo        ........................................        oooo",
"oooo        ........................................        oooo",
"oooo        ........................................        oooo",
"oooo        ........................................        oooo",
"                                                                ",
"                                                                ",
"                                                                ",
"                                                                ",
"    ................XXXXXXXX........XXXXXXXX................    ",
"    ................XXXXXXXX........XXXXXXXX................    ",
"    ................XXXXXXXX........XXXXXXXX................    ",
"    ................XXXXXXXX........XXXXXXXX................    ",
"                ....XXXX    ........XXXX    ....                ",
"                ....XXXX    ........XXXX    ....                ",
"                ....XXXX    ........XXXX    ....                ",
"                ....XXXX    ........XXXX    ....                ",
"    ................XXXX    ........XXXX    ................    ",
"    ................XXXX    ........XXXX    ................    ",
"    ................XXXX    ........XXXX    ................    ",
"    ................XXXX    ........XXXX    ................    ",
"                ....XXXX    ........XXXX    ....                ",
"                ....XXXX    ........XXXX    ....                ",
"                ....XXXX    ........XXXX    ....                ",
"                ....XXXX    ........XXXX    ....                ",
"    ........................................................    ",
"    ........................................................    ",
"    ........................................................    ",
"    ........................................................    ",
"    ........................        ........................    ",
"    ........................        ........................    ",
"    ........................        ........................    ",
"    ........................        ........................    ",
"                                                                ",
"                                                                ",
"                                                                ",
"                                                                ",
"oooo        ........................................        oooo",
"oooo        ........................................        oooo",
"oooo        ........................................        oooo",
"oooo        ........................................        oooo",
"oooooooooooo                                        oooooooooooo",
"oooooooooooo                                        oooooooooooo",
"oooooooooooo                                        oooooooooooo",
"oooooooooooo                                        oooooooooooo",
"oooooooooooooooooooooooooooooooooooooooooooooooooooooooooooooooo",
"oooooooooooooooooooooooooooooooooooooooooooooooooooooooooooooooo",
"oooooooooooooooooooooooooooooooooooooooooooooooooooooooooooooooo",
"oooooooooooooooooooooooooooooooooooooooooooooooooooooooooooooooo",
"oooooooooooooooooooooooooooooooooooooooooooooooooooooooooooooooo",
"oooooooooooooooooooooooooooooooooooooooooooooooooooooooooooooooo",
"oooooooooooooooooooooooooooooooooooooooooooooooooooooooooooooooo",
"oooooooooooooooooooooooooooooooooooooooooooooooooooooooooooooooo",
"oooooooooooooooooooooooooooooooooooooooooooooooooooooooooooooooo",
"oooooooooooooooooooooooooooooooooooooooooooooooooooooooooooooooo",
"oooooooooooooooooooooooooooooooooooooooooooooooooooooooooooooooo",
"oooooooooooooooooooooooooooooooooooooooooooooooooooooooooooooooo",
"oooooooooooooooooooooooooooooooooooooooooooooooooooooooooooooooo",
"oooooooooooooooooooooooooooooooooooooooooooooooooooooooooooooooo",
"oooooooooooooooooooooooooooooooooooooooooooooooooooooooooooooooo",
"oooooooooooooooooooooooooooooooooooooooooooooooooooooooooooooooo"
};
