/* XPM */
static const char *enemy_a_4_xpm[] = {
/* columns rows colors chars-per-pixel */
"64 64 4 1 ",
"  c #000001",
". c #B71E7B",
"X c #FFFFFF",
"o c None",
/* pixels */
"oooooooooooo                                        oooooooooooo",
"oooooooooooo                                        oooooooooooo",
"oooooooooooo                                        oooooooooooo",
"oooooooooooo                                        oooooooooooo",
"oooooooooooo    ................................    oooooooooooo",
"oooooooooooo    ................................    oooooooooooo",
"oooooooooooo    ................................    oooooooooooo",
"oooooooooooo    ................................    oooooooooooo",
"oooooooo    ........................................    oooooooo",
"oooooooo    ........................................    oooooooo",
"oooooooo    ........................................    oooooooo",
"oooooooo    ........................................    oooooooo",
"oooooooo                                                oooooooo",
"oooooooo                                                oooooooo",
"oooooooo                                                oooooooo",
"oooooooo                                                oooooooo",
"oooo    ................................................    oooo",
"oooo    ................................................    oooo",
"oooo    ................................................    oooo",
"oooo    ................................................    oooo",
"oooo    ............XXXXXXXX........XXXXXXXX............    oooo",
"oooo    ............XXXXXXXX........XXXXXXXX............    oooo",
"oooo    ............XXXXXXXX........XXXXXXXX............    oooo",
"oooo    ............XXXXXXXX........XXXXXXXX............    oooo",
"oooo            ....XXXX    ........XXXX    ....            oooo",
"oooo            ....XXXX    ........XXXX    ....            oooo",
"oooo            ....XXXX    ........XXXX    ....            oooo",
"oooo            ....XXXX    ........XXXX    ....            oooo",
"oooo    ............XXXX    ........XXXX    ............    oooo",
"oooo    ............XXXX    ........XXXX    ............    oooo",
"oooo    ............XXXX    ........XXXX    ............    oooo",
"oooo    ............XXXX    ........XXXX    ............    oooo",
"oooo    ............XXXX    ........XXXX    ............    oooo",
"oooo    ............XXXX    ........XXXX    ............    oooo",
"oooo    ............XXXX    ........XXXX    ............    oooo",
"oooo    ............XXXX    ........XXXX    ............    oooo",
"oooo            ................................            oooo",
"oooo            ................................            oooo",
"oooo            ................................            oooo",
"oooo            ................................            oooo",
"oooo    ................................................    oooo",
"oooo    ................................................    oooo",
"oooo    ................................................    oooo",
"oooo    ................................................    oooo",
"oooo    ....................        ....................    oooo",
"oooo    ....................        ....................    oooo",
"oooo    ....................        ....................    oooo",
"oooo    ....................        ....................    oooo",
"oooooooo                                                oooooooo",
"oooooooo                                                oooooooo",
"oooooooo                                                oooooooo",
"oooooooo                                                oooooooo",
"oooooooo    ........................................    oooooooo",
"oooooooo    ........................................    oooooooo",
"oooooooo    ........................................    oooooooo",
"oooooooo    ........................................    oooooooo",
"oooooooooooo    ................................    oooooooooooo",
"oooooooooooo    ................................    oooooooooooo",
"oooooooooooo    ................................    oooooooooooo",
"oooooooooooo    ................................    oooooooooooo",
"oooooooooooo                                        oooooooooooo",
"oooooooooooo                                        oooooooooooo",
"oooooooooooo                                        oooooooooooo",
"oooooooooooo                                        oooooooooooo"};
